<?xml version="1.0" encoding="utf-8"?>
<!-- Generator: Adobe Illustrator 18.0.0, SVG Export Plug-In . SVG Version: 6.00 Build 0)  -->
<!DOCTYPE svg PUBLIC "-//W3C//DTD SVG 1.1//EN" "http://www.w3.org/Graphics/SVG/1.1/DTD/svg11.dtd">
<svg version="1.1" id="Layer_1" xmlns="http://www.w3.org/2000/svg" xmlns:xlink="http://www.w3.org/1999/xlink" x="0px" y="0px"
	 viewBox="0 0 213 213" enable-background="new 0 0 213 213" xml:space="preserve">
<title>Group 4</title>
<desc>Created with Sketch.</desc>
<g>
	
		<path fill="#D5E9F9" stroke="#1E478A" stroke-width="2" stroke-linecap="round" stroke-linejoin="round" stroke-miterlimit="10" d="
		M21.9,166.8c0,0,0.5,0,0.5-0.1c0,0,0.5,0,0.5,0v-43.5c0-0.1,0-0.2,0-0.3c0,0,0,0,0,0c0,0-0.6-0.1-0.5-0.1c0-0.2-0.2-0.3-0.2-0.5
		c0.6-1.8,2.8-3.6,5.9-5c1.3-0.6,2.7-1.2,4.2-1.7c1.5-0.5,3-1,4.5-1.4c3.1-0.8,5.9-0.7,7.9-0.8c0.4,0,0.7,0.6,1,0.6h50.8
		c0.8,0,1.6,0,1.6,0.9L105,211"/>
	
		<path fill="#FFFFFF" stroke="#1E478A" stroke-width="2" stroke-linecap="round" stroke-linejoin="round" stroke-miterlimit="10" d="
		M22.5,167c0,0,0.5-0.3,0.5-0.3v-50.9c0-0.6-0.5-1.1-0.4-1.7c0.6-3.5,2.5-6.6,5.6-8c1.3-0.6,2.6-1.2,4.1-1.2h56.3l0.2,3.4l0.1,4.5
		l4.8,88.1H62"/>
	
		<line fill="none" stroke="#D5E9F9" stroke-width="2" stroke-linecap="round" stroke-linejoin="round" stroke-miterlimit="10" x1="8" y1="117" x2="3" y2="117"/>
	
		<line fill="none" stroke="#D5E9F9" stroke-width="2" stroke-linecap="round" stroke-linejoin="round" stroke-miterlimit="10" x1="12" y1="123" x2="4" y2="123"/>
	
		<line fill="none" stroke="#D5E9F9" stroke-width="2" stroke-linecap="round" stroke-linejoin="round" stroke-miterlimit="10" x1="12" y1="136" x2="7" y2="136"/>
	
		<line fill="none" stroke="#D5E9F9" stroke-width="2" stroke-linecap="round" stroke-linejoin="round" stroke-miterlimit="10" x1="8.3" y1="141" x2="8.3" y2="141"/>
	
		<line fill="none" stroke="#D5E9F9" stroke-width="2" stroke-linecap="round" stroke-linejoin="round" stroke-miterlimit="10" x1="12" y1="148" x2="11" y2="148"/>
	<path fill="#FFFFFF" d="M23.1,167.7C23.1,167.7,23,167.8,23.1,167.7L23,109.6c0-0.6-0.5-1.1-0.4-1.7c0.1-0.3-0.2-0.7-0.1-1
		c0,0-0.1,0-0.1,0c0.3-1.2,0.8-2.4,1.5-3.4c0.9-1.2,2-2.4,3.4-3.1c1.5-0.8,3.2-1.4,5-1.4h49.1l0.3,6.4l0.4,7.2l4.5,81.4H51"/>
	
		<polygon fill="#D5E9F9" stroke="#1E478A" stroke-width="2" stroke-linecap="round" stroke-linejoin="round" stroke-miterlimit="10" points="
		33.4,147.3 74.1,147.3 73.1,111.7 33.4,111.7 	"/>
	
		<line fill="none" stroke="#D5E9F9" stroke-width="2" stroke-linecap="round" stroke-linejoin="round" stroke-miterlimit="10" x1="33.4" y1="153.5" x2="68.9" y2="153.5"/>
	
		<line fill="none" stroke="#D5E9F9" stroke-width="2" stroke-linecap="round" stroke-linejoin="round" stroke-miterlimit="10" x1="33.4" y1="159.8" x2="73.1" y2="159.8"/>
	
		<line fill="none" stroke="#D5E9F9" stroke-width="2" stroke-linecap="round" stroke-linejoin="round" stroke-miterlimit="10" x1="33.4" y1="166.1" x2="66.8" y2="166.1"/>
	
		<line fill="none" stroke="#D5E9F9" stroke-width="2" stroke-linecap="round" stroke-linejoin="round" stroke-miterlimit="10" x1="33.4" y1="172.3" x2="74.1" y2="172.3"/>
	
		<path fill="#FFFFFF" stroke="#1E478A" stroke-width="2" stroke-linecap="round" stroke-linejoin="round" stroke-miterlimit="10" d="
		M73.1,147.3l-28.2-3.1l3.1-2.7c15.7-18.7,24.6-9.4,24.6-9.4L73.1,147.3"/>
	
		<line fill="none" stroke="#D5E9F9" stroke-width="2" stroke-linecap="round" stroke-linejoin="round" stroke-miterlimit="10" x1="33.4" y1="178.6" x2="72" y2="178.6"/>
	
		<path fill="#FFFFFF" stroke="#1E478A" stroke-width="2" stroke-linecap="round" stroke-linejoin="round" stroke-miterlimit="10" d="
		M72.8,140c0-1.5-3.7-4.9-13.7-1.1C41,145.7,43,134.7,33,139.7v8.3h40.1L72.8,140z"/>
	
		<path fill="#FFFFFF" stroke="#1E478A" stroke-width="2" stroke-linecap="round" stroke-linejoin="round" stroke-miterlimit="10" d="
		M49.7,120.5c1.4,3.6-2,6.9-5.5,5.5c-1-0.4-1.8-1.2-2.2-2.2c-1.4-3.6,2-6.9,5.5-5.5C48.5,118.7,49.3,119.5,49.7,120.5z"/>
	
		<line fill="none" stroke="#1E478A" stroke-width="2" stroke-linecap="round" stroke-linejoin="round" stroke-miterlimit="10" x1="45.9" y1="114.9" x2="45.9" y2="111.7"/>
	
		<line fill="none" stroke="#1E478A" stroke-width="2" stroke-linecap="round" stroke-linejoin="round" stroke-miterlimit="10" x1="51" y1="117" x2="53.1" y2="114.9"/>
	
		<line fill="none" stroke="#1E478A" stroke-width="2" stroke-linecap="round" stroke-linejoin="round" stroke-miterlimit="10" x1="53.2" y1="122.2" x2="66.5" y2="122.2"/>
	
		<line fill="none" stroke="#1E478A" stroke-width="2" stroke-linecap="round" stroke-linejoin="round" stroke-miterlimit="10" x1="51" y1="127.4" x2="53.3" y2="129.6"/>
	
		<line fill="none" stroke="#1E478A" stroke-width="2" stroke-linecap="round" stroke-linejoin="round" stroke-miterlimit="10" x1="45.9" y1="129.5" x2="45.9" y2="135.8"/>
	
		<line fill="none" stroke="#1E478A" stroke-width="2" stroke-linecap="round" stroke-linejoin="round" stroke-miterlimit="10" x1="40.7" y1="127.4" x2="37.5" y2="130.5"/>
	
		<line fill="none" stroke="#1E478A" stroke-width="2" stroke-linecap="round" stroke-linejoin="round" stroke-miterlimit="10" x1="38.6" y1="122.2" x2="36.5" y2="122.2"/>
	
		<line fill="none" stroke="#1E478A" stroke-width="2" stroke-linecap="round" stroke-linejoin="round" stroke-miterlimit="10" x1="40.7" y1="117" x2="35.4" y2="111.7"/>
	<path fill="#D5E9F9" d="M21.8,166.7c-0.9-1.2-1.8-1.4-2.6-2.7c-0.8-1.2-1.6-2.5-2.4-3.8c-0.2-14.4-0.6-30.6-0.7-42.6
		c0-4.2,0-8,0.1-10.9c0.1-2.7,0.3-4.7,0.5-5.9c0.3-1.2,0.6-1.5,1.1-0.8c1.1,1.8,2,3.3,2.6,4.6c0.4,0.9,0.7,1.6,0.9,2.2
		c0,0,0.6,0,0.6,0c0.2,0.5,0.9,0.8,0.9,0.8v0.5l-0.6,6.2l-0.3,8.2L21.8,166.7z"/>
	<path fill="none" stroke="#1E478A" stroke-width="2" stroke-linecap="round" stroke-linejoin="round" stroke-miterlimit="10" d="
		M4,99h7.4c2,0,3.8,0.7,5.4,1.6c1.5,0.9,2.8,2.3,3.7,3.8c0.4,0.7,0.7,1.4,0.9,2.2c0,0,0,0,0,0.1c0.1,0.4,0.8,0.9,0.9,1.4
		c0.1,0.5,0.7,1.1,0.7,1.6v57.1c0,0-0.6,0-0.6,0c0,0,0.2-0.1,0.2-0.1"/>
	<path fill="#D5E9F9" d="M28.1,117.3c-0.1,16.3-0.9,40.4-0.8,57.2c-1.9-2.2-3.6-4.4-5.3-6.7l0.1-45.5l0.5-8.2L23,108v-0.4
		c0,0-0.4-0.2-0.3-0.6c0,0-0.2,0-0.2,0c0.3-0.7,0.7-1.9,1.5-3.4c0.6-1.1,1.3-2.3,2.2-3.6c0.5-0.7,0.8-0.4,1.1,0.6
		c0.3,1.1,0.5,3.2,0.6,5.9C28,109.4,28.1,113.1,28.1,117.3z"/>
	<path fill="none" stroke="#1E478A" stroke-width="2" stroke-linecap="round" stroke-linejoin="round" stroke-miterlimit="10" d="
		M23.1,167.7c0,0-0.1-2-0.1-2v-56.1c0-0.6-0.5-1.1-0.4-1.7c0.1-0.3-0.2-0.7-0.1-1c0,0-0.1,0-0.1,0c0.3-1.2,0.8-2.4,1.5-3.4
		c0.9-1.2,2-2.4,3.4-3.1c1.5-0.8,3.2-1.4,5-1.4h49.1l0.3,6.4l0.4,7.2l4.5,81.4H51"/>
	<polygon fill="#D5E9F9" points="114.9,120 211,120 208.8,122.7 117,121.7 	"/>
	
		<rect x="115.9" y="68.9" fill="#D5E9F9" stroke="#1E478A" stroke-width="2" stroke-linecap="round" stroke-linejoin="round" stroke-miterlimit="10" width="6.3" height="38.7"/>
	
		<rect x="113" y="109" fill="#D5E9F9" stroke="#1E478A" stroke-width="2" stroke-linecap="round" stroke-linejoin="round" stroke-miterlimit="10" width="9" height="8"/>
	
		<polyline fill="#D5E9F9" stroke="#1E478A" stroke-width="2" stroke-linecap="round" stroke-linejoin="round" stroke-miterlimit="10" points="
		117,123 122,123 122,130 	"/>
	
		<rect x="116.9" y="45.9" fill="#D5E9F9" stroke="#1E478A" stroke-width="2" stroke-linecap="round" stroke-linejoin="round" stroke-miterlimit="10" width="4.2" height="23"/>
	<path fill="none" stroke="#1E478A" stroke-width="2" stroke-linecap="round" stroke-linejoin="round" stroke-miterlimit="10" d="
		M140.1,59.5c0,22.5,21.9,40.7,49,40.7c4.6,0,9.1-0.5,13.4-1.5c2.7-0.6,5.3-1.5,7.8-2.4"/>
	
		<line fill="none" stroke="#1E478A" stroke-width="2" stroke-linecap="round" stroke-linejoin="round" stroke-miterlimit="10" x1="119" y1="45.9" x2="119" y2="41.7"/>
	
		<polyline fill="#D5E9F9" stroke="#1E478A" stroke-width="2" stroke-linecap="round" stroke-linejoin="round" stroke-miterlimit="10" points="
		120.1,53.2 139.9,53.2 139.9,59.5 120.1,59.5 	"/>
	
		<polyline fill="#D5E9F9" stroke="#1E478A" stroke-width="2" stroke-linecap="round" stroke-linejoin="round" stroke-miterlimit="10" points="
		119,74.1 139.9,74.1 139.9,80.4 119,80.4 	"/>
	
		<polyline fill="#D5E9F9" stroke="#1E478A" stroke-width="2" stroke-linecap="round" stroke-linejoin="round" stroke-miterlimit="10" points="
		119,95 139.9,95 139.9,101.3 119,101.3 	"/>
	
		<polyline fill="none" stroke="#1E478A" stroke-width="2" stroke-linecap="round" stroke-linejoin="round" stroke-miterlimit="10" points="
		112,117 115.6,117 208,117 	"/>
	
		<line fill="none" stroke="#1E478A" stroke-width="2" stroke-linecap="round" stroke-linejoin="round" stroke-miterlimit="10" x1="207" y1="123" x2="117" y2="123"/>
	
		<rect x="136.8" y="68.9" fill="#D5E9F9" stroke="#1E478A" stroke-width="2" stroke-linecap="round" stroke-linejoin="round" stroke-miterlimit="10" width="6.3" height="38.7"/>
	
		<rect x="135.8" y="107.6" fill="#D5E9F9" stroke="#1E478A" stroke-width="2" stroke-linecap="round" stroke-linejoin="round" stroke-miterlimit="10" width="8.4" height="38.7"/>
	
		<rect x="137.8" y="45.9" fill="#D5E9F9" stroke="#1E478A" stroke-width="2" stroke-linecap="round" stroke-linejoin="round" stroke-miterlimit="10" width="4.2" height="23"/>
	
		<line fill="none" stroke="#1E478A" stroke-width="2" stroke-linecap="round" stroke-linejoin="round" stroke-miterlimit="10" x1="139.9" y1="45.9" x2="139.9" y2="41.7"/>
	
		<line fill="none" stroke="#1E478A" stroke-width="2" stroke-linecap="round" stroke-linejoin="round" stroke-miterlimit="10" x1="193.2" y1="123.5" x2="193.2" y2="136.8"/>
	
		<line fill="none" stroke="#1E478A" stroke-width="2" stroke-linecap="round" stroke-linejoin="round" stroke-miterlimit="10" x1="203.6" y1="122.6" x2="203.6" y2="136.8"/>
	
		<line fill="none" stroke="#1E478A" stroke-width="2" stroke-linecap="round" stroke-linejoin="round" stroke-miterlimit="10" x1="182.8" y1="100.2" x2="182.8" y2="115.9"/>
	
		<line fill="none" stroke="#1E478A" stroke-width="2" stroke-linecap="round" stroke-linejoin="round" stroke-miterlimit="10" x1="172.3" y1="97.7" x2="172.3" y2="114.9"/>
	
		<line fill="none" stroke="#1E478A" stroke-width="2" stroke-linecap="round" stroke-linejoin="round" stroke-miterlimit="10" x1="161.9" y1="93" x2="161.9" y2="114.9"/>
	
		<line fill="none" stroke="#1E478A" stroke-width="2" stroke-linecap="round" stroke-linejoin="round" stroke-miterlimit="10" x1="151.4" y1="84.6" x2="151.4" y2="115.9"/>
	<line fill="#D5E9F9" x1="154" y1="67.9" x2="150.8" y2="65.3"/>
	<path fill="#D5E9F9" d="M158.9,65c0,0,3,1.1,4.5,0c0,0,3.9,1.8,6.3-0.6c0,0,5.6,1.4,7.2-2.4c0,0,4.5,4.3,9.6,1.8
		c0,0,3.2,2.9,7.3,1.1l1,3.1H159"/>
	<path fill="none" stroke="#1E478A" stroke-width="2" stroke-linecap="round" stroke-linejoin="round" stroke-miterlimit="10" d="
		M195.8,64.4c0-3.3-2.2-5.9-5.5-5.9c-0.7,0-1.1,0.1-1.7,0.3c0-5.1-4.1-9.2-9.1-9.2c-5.1,0-9.2,4.1-9.2,9.2c0,0.3,0,0.6,0.1,0.9
		c-0.8-0.5-1.7-0.9-2.7-0.9c-2.3,0-4.2,1.7-4.5,3.9c-0.5-0.4-1.1-0.6-1.8-0.6c-1.6,0-2.9,1.3-2.9,2.9c0,1.6,1.3,2.9,2.9,2.9H186h9.4
		h5.5"/>
	<rect x="119" y="54" fill="#FFFFFF" width="16" height="1"/>
	<rect x="118" y="75" fill="#FFFFFF" width="16" height="1"/>
	<rect x="118" y="95" fill="#FFFFFF" width="16" height="1"/>
	<path fill="#D5E9F9" d="M131.6,143h73.1c0,0-10.9,32.1-39,50.1c0,0,3.5,0-6.4-11.8C149.4,169.6,131.6,143,131.6,143z"/>
	<line fill="none" stroke="#D5E9F9" stroke-width="2" stroke-miterlimit="10" x1="168.3" y1="191.5" x2="45.2" y2="22.6"/>
	<path fill="none" stroke="#D5E9F9" stroke-width="2" stroke-miterlimit="10" d="M211,106.5c0,4.2-0.3,8.4-0.8,12.5
		c0,0.4-0.1,0.9-0.2,1.3c-2.1,16-7.8,30.8-16.3,43.6c-6.4,9.7-14.4,18.3-23.6,25.4c-0.1,0.1-0.3,0.2-0.4,0.3
		c-0.4,0.3-0.8,0.6-1.2,0.9c-0.1,0.1-0.2,0.2-0.4,0.3c-0.1,0.1-0.2,0.2-0.3,0.2c-0.2,0.2-0.4,0.3-0.7,0.5c-2.9,2.1-5.9,4-9.1,5.8
		c-0.4,0.2-0.9,0.5-1.3,0.7c-0.1,0.1-0.2,0.1-0.4,0.2c-0.5,0.3-1.1,0.6-1.6,0.9c-7.3,3.8-15,6.8-23.2,8.8c-0.6,0.1-1.2,0.3-1.9,0.4
		c-0.2,0-0.3,0.1-0.5,0.1c-0.3,0.1-0.6,0.1-0.9,0.2c-0.2,0-0.3,0.1-0.5,0.1c0,0,0,0,0,0c-0.1,0-0.2,0.1-0.4,0.1
		c-3.6,0.8-7.4,1.3-11.1,1.7c-1,0.1-2,0.2-3,0.3c-0.4,0-0.7,0-1,0.1c-0.3,0-0.6,0-0.9,0.1c-0.1,0-0.1,0-0.2,0c-0.5,0-1.1,0-1.6,0.1
		c-0.1,0-0.2,0-0.3,0c-0.1,0-0.2,0-0.3,0c-0.3,0-0.6,0-0.9,0c-0.2,0-0.4,0-0.6,0h0c-0.4,0-0.7,0-1.1,0c-0.3,0-0.6,0-0.8,0
		c-0.2,0-0.4,0-0.5,0h-0.1c-0.1,0-0.3,0-0.5,0c-0.1,0-0.2,0-0.3,0h-0.2c-0.4,0-0.8,0-1.2,0c-1.3,0-2.7,0-4,0h0
		c-1.7,0-3.5-0.4-5.2-0.6c-0.1,0-0.1-0.1-0.1-0.1c-0.3,0-0.5-0.1-0.7-0.1c-0.3,0-0.6-0.1-0.9-0.1c-4.9-0.7-9.6-1.7-14.2-3.1
		c-0.9-0.2-1.7-0.5-2.6-0.8c0,0-0.1,0-0.1,0c-0.3-0.1-0.6-0.2-0.9-0.3c-0.1,0-0.3-0.1-0.4-0.1c-0.1,0-0.2-0.1-0.4-0.1
		c-0.1,0-0.2-0.1-0.3-0.1c-0.2-0.1-0.4-0.1-0.7-0.2c-2.8-1-5.5-2.1-8.2-3.3c-0.7-0.3-1.4-0.6-2-0.9c-0.3-0.2-0.7-0.3-1-0.5
		c-3.8-1.9-7.6-4-11.1-6.3c-8.4-5.5-16-12.1-22.6-19.7c-1.9-2.2-3.6-4.4-5.3-6.7c0,0,0,0-0.1-0.1c0,0,0,0,0,0c0,0,0,0,0,0
		c-0.9-1.2-1.8-2.5-2.6-3.8c-0.8-1.2-1.6-2.5-2.4-3.8c-2.5-4.1-4.7-8.4-6.6-12.9c-0.9-2.1-1.7-4.1-2.4-6.3c-0.7-2.1-1.4-4.1-2-6.3
		c-1.1-4.1-2-8.3-2.7-12.5c-0.3-2.1-0.6-4.2-0.8-6.3c-0.1-0.9-0.1-1.8-0.2-2.7C2.1,111,2,108.8,2,106.5c0-0.3,0-0.7,0-1
		c0-2.1,0.1-4.2,0.3-6.3c2.2-31.3,18.2-58.9,41.9-76.6C61.6,9.7,83.2,2,106.5,2C164.2,2,211,48.8,211,106.5z"/>
</g>
</svg>
