<?xml version="1.0" encoding="utf-8"?>
<!-- Generator: Adobe Illustrator 19.2.1, SVG Export Plug-In . SVG Version: 6.00 Build 0)  -->
<!DOCTYPE svg PUBLIC "-//W3C//DTD SVG 1.1//EN" "http://www.w3.org/Graphics/SVG/1.1/DTD/svg11.dtd">
<svg version="1.1" id="Layer_1" xmlns="http://www.w3.org/2000/svg" xmlns:xlink="http://www.w3.org/1999/xlink" x="0px" y="0px"
	 viewBox="0 0 400 400" style="enable-background:new 0 0 400 400;" xml:space="preserve">
<style type="text/css">
	.st0{clip-path:url(#SVGID_2_);fill:#D1E6F6;}
	.st1{clip-path:url(#SVGID_2_);}
	.st2{fill:#D1E6F6;}
	.st3{fill:none;stroke:#1C4989;stroke-width:2;stroke-linecap:round;stroke-linejoin:round;stroke-miterlimit:10;}
	.st4{fill:#D1E6F6;stroke:#1C4989;stroke-width:2;stroke-linecap:round;stroke-linejoin:round;stroke-miterlimit:10;}
	.st5{fill:#FFFFFF;stroke:#1C4989;stroke-width:2;stroke-linecap:round;stroke-linejoin:round;stroke-miterlimit:10;}
	.st6{fill:#FFFFFF;stroke:#1C4989;stroke-width:1.5;stroke-linecap:round;stroke-linejoin:round;stroke-miterlimit:10;}
	.st7{fill:#D1E6F6;stroke:#1C4989;stroke-width:1.5;stroke-linecap:round;stroke-linejoin:round;stroke-miterlimit:10;}
	.st8{fill:#FFFFFF;stroke:#1C4989;stroke-width:2;stroke-miterlimit:10;}
	.st9{fill:none;stroke:#1C4989;stroke-width:2;stroke-miterlimit:10;}
	.st10{fill:#1C4A88;}
	.st11{fill:#B7D2EA;}

		.st12{clip-path:url(#SVGID_2_);fill:#FFFFFF;stroke:#1C4989;stroke-width:2;stroke-linecap:round;stroke-linejoin:round;stroke-miterlimit:10;}

		.st13{clip-path:url(#SVGID_2_);fill:none;stroke:#1C4989;stroke-width:2;stroke-linecap:round;stroke-linejoin:round;stroke-miterlimit:10;}
</style>
<g>
	<defs>
		<circle id="SVGID_1_" cx="200" cy="200" r="100"/>
	</defs>
	<clipPath id="SVGID_2_">
		<use xlink:href="#SVGID_1_"  style="overflow:visible;"/>
	</clipPath>
	<path class="st0" d="M179,277c0.8,3.3-3.8,8.5-10.8,9.2c-7.1,0.7-22.9,44.1-18.3,45.8h-6.2c0,0-3.6-6.3-3.2-7.9
		c0.4-1.5,17.2-41.3,18.6-42.3c1.4-1,16.7-7.7,16.7-7.7L179,277z"/>
	<path class="st0" d="M222.1,277c-0.8,3.3,6.3,8.9,13.3,9.7c7.1,0.7,16.6,43.7,12.1,45.4h9.9c0,0,3.6-6.3,3.2-7.9
		c-0.4-1.5-17.2-41.3-18.6-42.3c-1.4-1-16.7-7.7-16.7-7.7L222.1,277z"/>
	<g class="st1">
		<polygon class="st2" points="223,218.4 316.7,218.4 316.7,223.7 226.7,223.6 		"/>
		<polygon class="st2" points="170.8,223.7 84.3,223.7 84.3,218.4 175.3,218.5 		"/>
		<g>
			<polygon class="st3" points="256.3,270.5 145.7,270.5 149.4,239.6 252.6,239.6 			"/>
			<polygon class="st4" points="249.3,264.5 152.7,264.5 154.5,245.3 247.5,245.3 			"/>
		</g>
		<rect x="277" y="169.1" class="st2" width="39.1" height="3.8"/>
		<rect x="85.2" y="169.1" class="st2" width="42.8" height="3.8"/>
		<line class="st5" x1="274.8" y1="168.3" x2="316.5" y2="168.3"/>
		<line class="st5" x1="84.3" y1="168.3" x2="128.9" y2="168.3"/>
		<line class="st5" x1="221.5" y1="218" x2="316.8" y2="218"/>
		<line class="st5" x1="85.5" y1="218" x2="177.4" y2="218"/>
		<g>

				<rect x="281.8" y="180.5" transform="matrix(0.9937 0.1124 -0.1124 0.9937 23.3985 -31.7164)" class="st6" width="22.2" height="22.2"/>

				<rect x="284.5" y="182.9" transform="matrix(0.9937 0.1125 -0.1125 0.9937 23.295 -31.7564)" class="st7" width="17" height="15.2"/>
		</g>
		<line class="st5" x1="274.8" y1="162.4" x2="316.2" y2="162.4"/>
		<line class="st5" x1="85" y1="162.4" x2="128.5" y2="162.4"/>
		<g>
			<rect x="125.5" y="205.4" class="st2" width="149.3" height="8.2"/>
			<path class="st8" d="M270.5,208.5H129.7c-2,0-3.6-1.6-3.6-3.6V130c0-2,1.6-3.6,3.6-3.6h140.7c2,0,3.6,1.6,3.6,3.6v74.9
				C274.1,206.9,272.5,208.5,270.5,208.5z"/>
			<rect x="130.9" y="202.8" class="st2" width="137.8" height="2.6"/>
			<rect x="131.8" y="132" class="st2" width="136.2" height="2.6"/>
			<path class="st9" d="M223,227.4h-47.7c-1.8,0-3.2-1.5-3.2-3.2l0,0c0-1.8,1.5-3.2,3.2-3.2H223c1.8,0,3.2,1.5,3.2,3.2l0,0
				C226.3,226,224.8,227.4,223,227.4z"/>
			<rect x="131.8" y="132.3" class="st3" width="136.2" height="70.5"/>
			<line class="st3" x1="159.3" y1="178.9" x2="165" y2="178.9"/>
			<line class="st3" x1="159.3" y1="184.5" x2="179.5" y2="184.5"/>
			<line class="st3" x1="159.3" y1="190.1" x2="237.2" y2="190.1"/>
			<line class="st3" x1="159.3" y1="195.7" x2="237.2" y2="195.7"/>
			<g>
				<path class="st10" d="M236.8,145.5c-1.2-0.1-2.8-0.3-5.1-0.4c-2.3-0.1-6.2-0.2-11.7-0.2c-6.1,0-10.9,1-14.2,2.9
					c-0.3,0.2-0.5,0.3-0.8,0.5c-2.3,1.1-4.6,1.2-6.6,1.2c-2,0-4.3-0.1-6.6-1.2c-0.3-0.2-0.5-0.4-0.8-0.5c-3.3-1.9-8-2.9-14.2-2.9
					c-5.3,0-9.2,0.1-11.5,0.2v0c-0.9,0-1.8,0.1-2.6,0.1c0,0,0,0,0,0c0,0,0,0,0,0c-1,0.1-1.9,0.2-2.6,0.2c-0.9,0-1.6,0.8-1.6,1.7v2.4
					c0,0.6,0.4,1.2,0.9,1.5l1.2,0.6c-0.1,2,0,4.5,0.4,7.1c0.8,5.4,2.4,8.8,5.3,10.8c2.6,1.8,6.1,2.6,11.8,2.6c5,0,9.5-2.1,12.8-6
					c2.1-2.5,3.6-5.7,4.2-9.1c0-0.1,0-0.1,0.1-0.2c0.2-0.7,1.8-2,3.2-2c1.1,0,3,1,3.3,2c0,0,0,0.1,0,0.1c0.6,3.4,2.1,6.5,4.2,9.1
					c3.2,3.8,7.8,6,12.8,6c5.7,0,9.2-0.8,11.8-2.6c2.9-2.1,4.6-5.4,5.3-10.8c0.4-2.5,0.4-5,0.4-7.1l1.2-0.6c0.6-0.3,0.9-0.9,0.9-1.5
					v-2.4C238.4,146.3,237.7,145.6,236.8,145.5z M178.1,168.5c-4.8,0-7.7-0.6-9.6-1.9c-2-1.4-3.2-4-3.8-8.2
					c-0.5-3.6-0.3-7.3-0.2-9.3c2.1-0.1,6.3-0.2,12.3-0.2c5.4,0,9.6,0.8,12.2,2.4c1.7,1,2.3,2.1,2.6,2.7
					C191.5,161.1,186.5,168.5,178.1,168.5z M232.1,158.3c-0.6,4.3-1.8,6.8-3.8,8.2c-1.9,1.3-4.8,1.9-9.6,1.9
					c-8.3,0-13.4-7.4-13.5-14.6c0.2-0.7,0.9-1.7,2.6-2.7c2.6-1.5,6.8-2.4,12.2-2.4c6,0,10.2,0.1,12.3,0.2
					C232.5,151,232.6,154.7,232.1,158.3z"/>
				<g>
					<path class="st11" d="M217.4,154.9c-0.4-0.6-1.3-0.8-1.9-0.3l-0.9,0.7c0.2-0.5,0.2-1-0.1-1.5c-0.5-0.6-1.3-0.7-1.9-0.3l-3,2.2
						c-0.6,0.5-0.7,1.3-0.3,1.9c0.3,0.4,0.7,0.5,1.1,0.5l-0.1,0c-0.6,0.4-0.8,1.3-0.3,1.9c0.3,0.4,0.7,0.6,1.1,0.6
						c0.3,0,0.6-0.1,0.8-0.3l5.2-3.7C217.7,156.4,217.8,155.6,217.4,154.9z"/>
				</g>
				<g>
					<path class="st11" d="M177.1,154.9c-0.4-0.6-1.3-0.8-1.9-0.3l-0.9,0.7c0.2-0.5,0.2-1-0.1-1.5c-0.5-0.6-1.3-0.7-1.9-0.3l-3,2.2
						c-0.6,0.5-0.7,1.3-0.3,1.9c0.3,0.4,0.7,0.5,1.1,0.5l-0.1,0c-0.6,0.4-0.8,1.3-0.3,1.9c0.3,0.4,0.7,0.6,1.1,0.6
						c0.3,0,0.6-0.1,0.8-0.3l5.2-3.7C177.4,156.4,177.6,155.6,177.1,154.9z"/>
				</g>
			</g>
			<line class="st3" x1="237.2" y1="179.1" x2="231.5" y2="179.1"/>
			<line class="st3" x1="159.3" y1="138.9" x2="165" y2="138.9"/>
			<line class="st3" x1="237.2" y1="139.1" x2="231.5" y2="139.1"/>
			<line class="st3" x1="237.2" y1="184.7" x2="217" y2="184.7"/>
			<path class="st9" d="M181.6,208.5c2.2,4.9-7.5,12.5-7.5,12.5"/>
			<path class="st9" d="M216.7,208.5c-2.2,4.9,7.5,12.5,7.5,12.5"/>
		</g>
		<g>

				<rect x="96.5" y="182.5" transform="matrix(0.9986 -5.239097e-02 5.239097e-02 0.9986 -9.9945 5.902)" class="st6" width="22.2" height="22.2"/>

				<rect x="99" y="184.9" transform="matrix(0.9986 -5.235695e-02 5.235695e-02 0.9986 -9.9319 5.8936)" class="st7" width="17" height="15.2"/>
		</g>
		<rect x="147.1" y="271.5" class="st2" width="105.9" height="5.5"/>
	</g>
	<path class="st12" d="M149.1,275.7c1.4-7.3,12.3-23.2,13.9-24.7c1.6-1.5,4.2-0.4,3.1,1.8c0,0-4.3,7.2-4.2,8c0,0,6.3-8.5,7.2-9.2
		c1.6-1.5,4.4-0.3,3.1,2.2c0,0-6.2,7-6.5,8.2c0,0,8.7-8.1,9.7-9.1c1-1,4.5,0.1,3.1,2.6c0,0-9.1,8.1-8.8,9.7c0,0,8.3-7,9.5-7.6
		c1.9-1.4,4.7,0.4,2.7,2.5c0,0-10.9,8.6-10.9,11c0,0,4.3-3.4,6-4.2c1.6-0.8,3.3-0.1,2.7,1.9c0,0-2.2,7-16.4,10.9
		c0,0-2.1,0.7-2.6,2.1C160.6,281.8,151.1,279.8,149.1,275.7z"/>
	<path class="st0" d="M139.3,325.5l23.1-42.7l-6.3-2.3l-3.6-2.3l-5.9-4l-4.6,7.7l-0.7,1.4c0,0,6.4,16.7-5.1,35.4
		c0,0-5.8,7.5-1.7,14.5"/>
	<path class="st13" d="M140.3,325.4c-0.5-3.7,22.1-42.6,22.1-42.6l-15.9-8.6l-24.9,42.4c-7.2,9.2-1.5,18.4-1.5,18.4L140.3,325.4z"/>
	<path class="st12" d="M252.5,275.7c-1.4-7.3-12.3-23.2-13.9-24.7c-1.6-1.5-4.2-0.4-3.1,1.8c0,0,4.3,7.2,4.2,8c0,0-6.3-8.5-7.2-9.2
		c-1.6-1.5-4.4-0.3-3.1,2.2c0,0,6.2,7,6.5,8.2c0,0-8.7-8.1-9.7-9.1c-1-1-4.5,0.1-3.1,2.6c0,0,9.1,8.1,8.8,9.7c0,0-8.3-7-9.5-7.6
		c-1.9-1.4-4.7,0.4-2.7,2.5c0,0,10.9,8.6,10.9,11c0,0-4.3-3.4-6-4.2c-1.6-0.8-3.3-0.1-2.7,1.9c0,0,2.2,7,16.4,10.9
		c0,0,2.1,0.7,2.6,2.1C241,281.8,250.5,279.8,252.5,275.7z"/>
	<path class="st0" d="M262.2,325.5l-23.1-42.7l6.3-2.3l3.6-2.3l5.9-4l4.6,7.7l0.7,1.4c0,0-6.4,16.7,5.1,35.4c0,0,5.8,7.5,1.7,14.5"
		/>
	<path class="st13" d="M261.3,325.4c0.5-3.7-22.1-42.6-22.1-42.6l15.9-8.6l24.9,42.4c7.2,9.2,1.5,18.4,1.5,18.4L261.3,325.4z"/>
	<use xlink:href="#SVGID_1_"  style="overflow:visible;fill:none;stroke:#D1E6F6;stroke-width:2;stroke-miterlimit:10;"/>
</g>
</svg>
