<?xml version="1.0" encoding="utf-8"?>
<!-- Generator: Adobe Illustrator 18.0.0, SVG Export Plug-In . SVG Version: 6.00 Build 0)  -->
<!DOCTYPE svg PUBLIC "-//W3C//DTD SVG 1.1//EN" "http://www.w3.org/Graphics/SVG/1.1/DTD/svg11.dtd">
<svg version="1.1" id="Layer_1" xmlns="http://www.w3.org/2000/svg" xmlns:xlink="http://www.w3.org/1999/xlink" x="0px" y="0px"
	 viewBox="0 0 213 213" enable-background="new 0 0 213 213" xml:space="preserve">
<title>Group 4</title>
<desc>Created with Sketch.</desc>
<path fill="#D5E9F9" d="M103.3,211.5v-84.1c0-5.8-18.4-10.5-24.2-10.5h-51c-0.8,0-1.6,0.7-1.6,1.5l-3.3,52.1
	C23.3,170.5,54.5,211.5,103.3,211.5z"/>
<path fill="none" stroke="#1E478A" stroke-width="2" stroke-linecap="round" stroke-linejoin="round" stroke-miterlimit="10" d="
	M23.3,170.5l3.3-52.1c0.1-0.8,0.8-1.5,1.6-1.5h51c5.8,0,24.2,4.7,24.2,10.5v83"/>
<path fill="#D5E9F9" d="M138,92.3c0,0-0.1,8.5-2.2,11.1c-2.1,2.5,4.5,4.6,4.5,4.6l0.4-17.5"/>
<polyline fill="#D5E9F9" points="140.1,92.4 138,92.3 137.9,90 139.6,89.5 140.7,90.5 "/>
<polyline fill="#D5E9F9" points="136.1,88 133.1,87.8 132.9,84.8 135.1,84.2 136.8,85.4 "/>
<polyline fill="#D5E9F9" points="131.1,83.5 128.1,83.4 127.9,80.4 130.1,79.7 131.8,81 "/>
<polyline fill="#D5E9F9" points="126,81.1 122.9,81 122.8,78 124.9,77.4 126.6,78.6 "/>
<polyline fill="#D5E9F9" points="120.7,81.9 116.7,81.7 116.5,77.8 119.2,77.1 121.5,78.6 "/>
<path fill="none" stroke="#1E478A" stroke-width="2" stroke-linecap="round" stroke-linejoin="round" stroke-miterlimit="10" d="
	M115.6,102.6c2.3-4.3-0.5-14.5,0-23.1c0.1-1.7,1.6-3.1,3.4-3l0,0c1.7,0.1,3,1.7,2.9,3.4l-0.2,4.2l0.3-4.7c0.1-1.4,1.4-2.6,2.8-2.5
	l0,0c1.4,0.1,2.5,1.4,2.4,2.8l-0.3,5.8l0.2-3.7c0.1-1.4,1.4-2.6,2.8-2.5l0,0c1.4,0.1,2.5,1.4,2.4,2.8l-0.3,5.8l0.1-1.6
	c0.1-1.4,1.4-2.6,2.8-2.5l0,0c1.4,0.1,2.5,1.4,2.4,2.8l-0.3,5.7l0.1-1c0.1-1.2,1.1-2,2.3-2l0,0c1.2,0.1,2,1.1,2,2.2l-0.1,1.1
	l-0.2,4.1l-0.4,7.3"/>
<path fill="#D5E9F9" d="M103.1,211.5v-84.1c0-5.8,18.4-10.5,24.2-10.5h51c0.8,0,1.6,0.7,1.6,1.5l3.3,58.4
	C183.1,176.8,153.8,211.5,103.1,211.5z"/>
<path fill="none" stroke="#1E478A" stroke-width="2" stroke-linecap="round" stroke-linejoin="round" stroke-miterlimit="10" d="
	M183.1,178.2l-3.3-59.8c-0.1-0.8-0.8-1.5-1.6-1.5h-51c-5.8,0-24.2,4.7-24.2,10.5v83"/>
<path fill="#FFFFFF" stroke="#1E478A" stroke-width="2" stroke-linecap="round" stroke-linejoin="round" stroke-miterlimit="10" d="
	M142,205h-29.5c-4.9,0-9,1.2-9.4,6c0,0.3-0.1-1-0.1-0.6v0.1v0v-4.2v-83V120c0-5.8,4.8-11,10.6-11h46.7h5h5l0.4,3.5l4.6,73.3
	l-0.1-0.1"/>
<path fill="#FFFFFF" d="M149.9,198h-37.3c-5.2,0-9.5,5.1-9.5,10.3V120v-6.2c0-5.8,4.8-10.8,10.6-10.8h49.4l0.3,6.5l4.2,80.8
	l-10.8,7.9L149.9,198z"/>
<path fill="#D5E9F9" d="M68.7,91.8c0,0-0.3,8.5,1.6,11.2s-4.8,4.3-4.8,4.3l0.5-17.5"/>
<polyline fill="#D5E9F9" points="66,91 68.7,91 69,89.1 67.3,88.7 65.8,89.3 "/>
<polyline fill="#D5E9F9" points="70,87 73.9,87 74.2,84.3 72.1,83.7 69.9,84.6 "/>
<polyline fill="#D5E9F9" points="76,83 79.1,83 79.5,80.2 77.3,79.6 75.5,80.5 "/>
<polyline fill="#D5E9F9" points="81,81 84.4,81 84.7,78.1 82.6,77.5 80.7,78.5 "/>
<polyline fill="#D5E9F9" points="86,82 90.6,82 91,78.3 88.3,77.5 85.7,78.8 "/>
<path fill="#FFFFFF" stroke="#1E478A" stroke-width="2" stroke-linecap="round" stroke-linejoin="round" stroke-miterlimit="10" d="
	M31,178v1.6l4.5-67.1l0.7-3.5h5h5h46.7c5.8,0,10.2,5.2,10.2,11v3.2v83v4.2v0v-0.1c0-0.3,0.2,1,0.1,0.6c-0.5-4.8-4.3-6-9.2-6H70"/>
<path fill="#FFFFFF" d="M50.8,195.1l-11.9-8.5l4.2-77.2l0.3-6.4h49.3c5.8,0,10.2,5,10.2,10.8v6.2v88.3c0-5.2-3.9-10.3-9.1-10.3H56.6
	L50.8,195.1z"/>
<line fill="none" stroke="#D5E9F9" stroke-width="2" stroke-linecap="round" stroke-linejoin="round" stroke-miterlimit="10" x1="53" y1="120.1" x2="88.7" y2="120.1"/>
<line fill="none" stroke="#D5E9F9" stroke-width="2" stroke-linecap="round" stroke-linejoin="round" stroke-miterlimit="10" x1="53" y1="126.4" x2="92.8" y2="126.4"/>
<line fill="none" stroke="#D5E9F9" stroke-width="2" stroke-linecap="round" stroke-linejoin="round" stroke-miterlimit="10" x1="51.9" y1="132.7" x2="85.5" y2="132.7"/>
<line fill="none" stroke="#D5E9F9" stroke-width="2" stroke-linecap="round" stroke-linejoin="round" stroke-miterlimit="10" x1="51.9" y1="139" x2="92.8" y2="139"/>
<line fill="none" stroke="#D5E9F9" stroke-width="2" stroke-linecap="round" stroke-linejoin="round" stroke-miterlimit="10" x1="50.8" y1="145.3" x2="89.7" y2="145.3"/>
<line fill="none" stroke="#D5E9F9" stroke-width="2" stroke-linecap="round" stroke-linejoin="round" stroke-miterlimit="10" x1="50.8" y1="151.6" x2="92.8" y2="151.6"/>
<line fill="none" stroke="#D5E9F9" stroke-width="2" stroke-linecap="round" stroke-linejoin="round" stroke-miterlimit="10" x1="49.8" y1="157.9" x2="87.6" y2="157.9"/>
<line fill="none" stroke="#D5E9F9" stroke-width="2" stroke-linecap="round" stroke-linejoin="round" stroke-miterlimit="10" x1="49.8" y1="164.2" x2="82.3" y2="164.2"/>
<line fill="none" stroke="#D5E9F9" stroke-width="2" stroke-linecap="round" stroke-linejoin="round" stroke-miterlimit="10" x1="49.8" y1="170.5" x2="87.6" y2="170.5"/>
<line fill="none" stroke="#D5E9F9" stroke-width="2" stroke-linecap="round" stroke-linejoin="round" stroke-miterlimit="10" x1="49.8" y1="176.8" x2="82.3" y2="176.8"/>
<polygon fill="#D5E9F9" stroke="#1E478A" stroke-width="2" stroke-linecap="round" stroke-linejoin="round" stroke-miterlimit="10" points="
	113.8,151.6 154.8,151.6 153.8,115.9 113.8,115.9 "/>
<line fill="none" stroke="#D5E9F9" stroke-width="2" stroke-linecap="round" stroke-linejoin="round" stroke-miterlimit="10" x1="113.8" y1="157.9" x2="149.6" y2="157.9"/>
<line fill="none" stroke="#D5E9F9" stroke-width="2" stroke-linecap="round" stroke-linejoin="round" stroke-miterlimit="10" x1="113.8" y1="164.2" x2="153.8" y2="164.2"/>
<line fill="none" stroke="#D5E9F9" stroke-width="2" stroke-linecap="round" stroke-linejoin="round" stroke-miterlimit="10" x1="113.8" y1="170.5" x2="147.4" y2="170.5"/>
<line fill="none" stroke="#D5E9F9" stroke-width="2" stroke-linecap="round" stroke-linejoin="round" stroke-miterlimit="10" x1="113.8" y1="176.8" x2="154.8" y2="176.8"/>
<path fill="#FFFFFF" stroke="#1E478A" stroke-width="2" stroke-linecap="round" stroke-linejoin="round" stroke-miterlimit="10" d="
	M154.8,151.6l-28.3-3.1l3.2-2.8c15.8-18.8,24.7-9.5,24.7-9.5L154.8,151.6"/>
<line fill="none" stroke="#D5E9F9" stroke-width="2" stroke-linecap="round" stroke-linejoin="round" stroke-miterlimit="10" x1="113.8" y1="183.1" x2="152.7" y2="183.1"/>
<path fill="#FFFFFF" stroke="#1E478A" stroke-width="2" stroke-linecap="round" stroke-linejoin="round" stroke-miterlimit="10" d="
	M154.6,143.6c0-1.5-4.4-4.6-14.5-0.8c-18.2,6.9-16-3.8-27,1.2v7h41.8L154.6,143.6z"/>
<path fill="#FFFFFF" stroke="#1E478A" stroke-width="2" stroke-linecap="round" stroke-linejoin="round" stroke-miterlimit="10" d="
	M130.3,124.8c1.4,3.6-2,6.9-5.5,5.5c-1-0.4-1.8-1.2-2.2-2.2c-1.4-3.6,2-6.9,5.5-5.5C129.1,122.9,129.9,123.7,130.3,124.8z"/>
<line fill="none" stroke="#1E478A" stroke-width="2" stroke-linecap="round" stroke-linejoin="round" stroke-miterlimit="10" x1="126.4" y1="119.1" x2="126.4" y2="115.9"/>
<line fill="none" stroke="#1E478A" stroke-width="2" stroke-linecap="round" stroke-linejoin="round" stroke-miterlimit="10" x1="131.6" y1="121.2" x2="133.7" y2="119.1"/>
<line fill="none" stroke="#1E478A" stroke-width="2" stroke-linecap="round" stroke-linejoin="round" stroke-miterlimit="10" x1="133.8" y1="126.4" x2="147.2" y2="126.4"/>
<line fill="none" stroke="#1E478A" stroke-width="2" stroke-linecap="round" stroke-linejoin="round" stroke-miterlimit="10" x1="131.6" y1="131.6" x2="133.8" y2="133.8"/>
<line fill="none" stroke="#1E478A" stroke-width="2" stroke-linecap="round" stroke-linejoin="round" stroke-miterlimit="10" x1="126.4" y1="133.8" x2="126.4" y2="140.1"/>
<line fill="none" stroke="#1E478A" stroke-width="2" stroke-linecap="round" stroke-linejoin="round" stroke-miterlimit="10" x1="121.2" y1="131.6" x2="118" y2="134.8"/>
<line fill="none" stroke="#1E478A" stroke-width="2" stroke-linecap="round" stroke-linejoin="round" stroke-miterlimit="10" x1="119.1" y1="126.4" x2="117" y2="126.4"/>
<line fill="none" stroke="#1E478A" stroke-width="2" stroke-linecap="round" stroke-linejoin="round" stroke-miterlimit="10" x1="121.2" y1="121.2" x2="115.9" y2="115.9"/>
<path fill="#D5E9F9" d="M106.5,1.5c-10.2,0-20.1,1.5-29.4,4.2c-1.6,3-2.5,6.2-2.5,9.5c0,20.5,33.3,37.2,74.5,37.2
	c16,0,30.8-2.5,43-6.8C173,18.9,141.8,1.5,106.5,1.5z"/>
<g>
	<path fill="none" stroke="#FFFFFF" stroke-width="2" stroke-linecap="round" stroke-linejoin="round" stroke-miterlimit="10" d="
		M129.6,6.3c-2.4,0-4.6-1.2-5.9-3c-1.3,1.8-3.5,3-5.9,3c-2.4,0-4.6-1.2-5.9-3c-1.3,1.8-3.5,3-5.9,3c-2.4,0-4.6-1.2-5.9-3
		c-1.3,1.8-3.5,3-5.9,3"/>
	<path fill="none" stroke="#FFFFFF" stroke-width="2" stroke-linecap="round" stroke-linejoin="round" stroke-miterlimit="10" d="
		M153.8,34.4c-3.6,0-6.8-1.7-8.7-4.4c-2,2.7-5.1,4.4-8.7,4.4c-3.6,0-6.8-1.7-8.7-4.4c-2,2.7-5.1,4.4-8.7,4.4c-3.6,0-6.8-1.7-8.7-4.4
		c-2,2.7-5.1,4.4-8.7,4.4"/>
	<path fill="none" stroke="#FFFFFF" stroke-width="2" stroke-linecap="round" stroke-linejoin="round" stroke-miterlimit="10" d="
		M176,19.9c-3,0-5.6-1.4-7.2-3.7c-1.6,2.2-4.2,3.7-7.2,3.7c-3,0-5.6-1.4-7.2-3.7c-1.6,2.2-4.2,3.7-7.2,3.7c-3,0-5.6-1.4-7.2-3.7
		c-1.6,2.2-4.2,3.7-7.2,3.7"/>
	<path fill="none" stroke="#1E478A" stroke-width="2" stroke-linecap="round" stroke-linejoin="round" stroke-miterlimit="10" d="
		M196.9,54.4c-13.3,4.7-30.3,8.4-47.9,8.4c-48.4,0-85-20.5-85-47.7c0-0.7,0-3.5,0.1-4.2"/>
</g>
<path fill="#D5E9F9" d="M99.4,104c-4.7-7.3,1.9,91.9-2.9,94.8c0,0,4.5-1.1,6.8,6.3l-0.1-93.5C103.2,111.7,102.3,108.4,99.4,104z"/>
<path fill="none" stroke="#1E478A" stroke-width="2" stroke-linecap="round" stroke-linejoin="round" stroke-miterlimit="10" d="
	M57,198h36.9c5.2,0,9.1,5.1,9.1,10.3V120v-6.2c0-5.8-4.4-10.8-10.2-10.8H43.5l-0.3,6.5l-4.6,75.8"/>
<path fill="none" stroke="#1E478A" stroke-width="2" stroke-linecap="round" stroke-linejoin="round" stroke-miterlimit="10" d="
	M90.2,103.2c-2.1-4.4,1.4-14.4,1.4-23c0-1.7-1.3-3.2-3.1-3.2h0c-1.7,0-3.6,1.6-3.6,3.3v4.2v-4.7c0-1.4-0.7-2.8-2.2-2.8h0
	c-1.4,0-2.9,1.3-2.9,2.8v5.8v-3.7c0-1.4-1-2.9-2.4-2.9h0c-1.4,0-3.6,1.4-3.6,2.9v5.8v-1.6c0-1.4-0.2-3.1-1.7-3.1h0
	c-1.4,0-3.4,1.6-3.4,3.1v5.7v-1.1c0-1.2-0.2-2.7-1.4-2.7h0c-1.2,0-2.6,1.6-2.6,2.7v1.1V96v7"/>
<path fill="#D5E9F9" d="M107.6,104c5.1-7.3-2.1,91.9,3.1,94.8c0,0-4.8-1.1-7.3,6.3l0.1-93.5C103.5,111.7,104.5,108.4,107.6,104z"/>
<path fill="none" stroke="#1E478A" stroke-width="2" stroke-linecap="round" stroke-linejoin="round" stroke-miterlimit="10" d="
	M168,190.7l-4.9-81.5l-0.1-6.2h-49.4c-5.8,0-10.6,5-10.6,10.8v6.2v88.3c0-5.2,4.3-10.3,9.5-10.3H154"/>
<path fill="none" stroke="#D5E9F9" stroke-width="2" stroke-miterlimit="10" d="M211.5,106.5c0,27.1-10.3,51.8-27.2,70.5
	c-4.2,4.7-8.8,8.9-13.8,12.8c-0.1,0.1-0.3,0.2-0.4,0.3c-0.4,0.3-0.8,0.6-1.2,0.9c-0.1,0.1-0.2,0.2-0.4,0.3c-0.1,0.1-0.2,0.2-0.3,0.2
	c-0.2,0.2-0.5,0.3-0.7,0.5c-0.8,0.6-1.6,1.1-2.4,1.7c-2.2,1.5-4.4,2.9-6.7,4.1c-0.4,0.2-0.9,0.5-1.3,0.7c-0.1,0.1-0.2,0.1-0.4,0.2
	c-0.5,0.3-1.1,0.6-1.6,0.9c-7.3,3.8-15.1,6.8-23.3,8.8c-0.6,0.1-1.2,0.3-1.9,0.4c-0.2,0-0.3,0.1-0.5,0.1c-0.3,0.1-0.6,0.1-0.9,0.2
	c-0.2,0-0.3,0.1-0.5,0.1c0,0,0,0,0,0c-0.1,0-0.2,0.1-0.4,0.1c-3.7,0.8-7.4,1.3-11.2,1.7c-1,0.1-2,0.2-3.1,0.3c-0.4,0-0.7,0-1.1,0.1
	c-0.3,0-0.6,0-0.9,0.1c-0.1,0-0.1,0-0.2,0c-0.5,0-1.1,0-1.6,0.1c-0.1,0-0.2,0-0.3,0c-0.1,0-0.2,0-0.3,0c-0.3,0-0.6-0.2-0.9-0.2
	c-0.2,0-0.4-0.2-0.6-0.2h0c-0.4,0-0.7,0.2-1.1,0.2c-0.3,0-0.6-0.1-0.9-0.1c-0.2,0-0.4-0.1-0.5-0.1h-0.1c-0.1,0-0.3,0-0.5,0
	c-0.1,0-0.2,0-0.3,0H104c-0.4,0-0.8,0-1.2,0c-1.4,0-2.7,0-4.1,0h0c-1.7,0-3.5-0.2-5.2-0.4c-0.1,0-0.1,0-0.1,0c-0.3,0-0.5,0-0.7-0.1
	c-0.3,0-0.6-0.1-0.9-0.1c-5.8-0.8-11.5-2.1-16.9-3.8c0,0-0.1,0-0.1,0c-0.3-0.1-0.6-0.2-0.9-0.3c-0.1,0-0.3-0.1-0.4-0.1
	c-0.1,0-0.2-0.1-0.4-0.1c-0.1,0-0.2-0.1-0.3-0.1c-0.2-0.1-0.4-0.1-0.7-0.2c-2.8-1-5.6-2.1-8.3-3.3c-0.7-0.3-1.4-0.6-2-0.9
	c-4.8-2.3-9.4-4.9-13.8-7.9c-7.1-4.8-13.5-10.4-19.2-16.7c-16.9-18.6-27.2-43.4-27.2-70.5c0-7.6,0.8-15,2.3-22.1
	c2.8-13.3,8.2-25.7,15.6-36.6C38.3,19.8,70.2,1.5,106.5,1.5c36.2,0,68.2,18.4,87,46.3c9.8,14.5,16.1,31.5,17.6,49.9
	C211.4,100.6,211.5,103.5,211.5,106.5z"/>
</svg>
