<svg xmlns="http://www.w3.org/2000/svg" width="26" height="26" viewBox="0 0 26 26"><defs><style>.a{fill-rule:evenodd;}</style></defs><path class="a" d="M13,0A13,13,0,1,0,26,13,13,13,0,0,0,13,0Zm3.519,19.877-.4-1.4.971.9.918.849,1.63,1.441V8.062A1.558,1.558,0,0,0,18.081,6.5H7.919A1.558,1.558,0,0,0,6.365,8.062V18.315a1.558,1.558,0,0,0,1.555,1.562h8.6ZM15.154,16.4l-.5-.614a2.393,2.393,0,0,0,1.373-.9,4.34,4.34,0,0,1-.872.447,4.991,4.991,0,0,1-1.1.326,5.312,5.312,0,0,1-1.964-.008,6.366,6.366,0,0,1-1.115-.326,4.444,4.444,0,0,1-.554-.258l-.03-.017-.008,0-.03-.017-.03-.023-.212-.129a2.359,2.359,0,0,0,1.327.895l-.508.629a2.75,2.75,0,0,1-2.313-1.153A10.155,10.155,0,0,1,9.709,10.83a3.75,3.75,0,0,1,2.131-.8l.076.091a5.116,5.116,0,0,0-1.994.993l.447-.22a5.7,5.7,0,0,1,1.721-.478l.129-.015a6.416,6.416,0,0,1,1.532-.015,6.182,6.182,0,0,1,2.283.728,5.047,5.047,0,0,0-1.888-.963l.106-.121a3.75,3.75,0,0,1,2.131.8,10.155,10.155,0,0,1,1.092,4.421A2.836,2.836,0,0,1,15.154,16.4ZM14.4,12.862a.845.845,0,1,0,.773.842A.808.808,0,0,0,14.4,12.862Zm-2.768,0a.845.845,0,1,0,.773.842A.808.808,0,0,0,11.627,12.862Z"/></svg>