<svg xmlns="http://www.w3.org/2000/svg" width="28.359" height="42.218" viewBox="0 0 28.359 42.218">
  <path id="Arrow_Black_Down" d="M26.947,27.008a.793.793,0,0,0-1.134,0L14.329,38.491V.8a.8.8,0,1,0-1.592,0V38.471L1.273,27.008a.793.793,0,0,0-1.134,0,.793.793,0,0,0,0,1.134L12.976,40.979h0a.528.528,0,0,0,.119.1c.02.02.04.02.06.04s.04.02.08.04a.12.12,0,0,0,.08.02c.02,0,.04.02.06.02a.647.647,0,0,0,.318,0c.02,0,.04-.02.06-.02s.06-.02.08-.02c.02-.02.06-.02.08-.04s.04-.02.06-.04a.528.528,0,0,0,.119-.1h0L26.927,28.142A.777.777,0,0,0,26.947,27.008Z" transform="translate(0.675 0.5)" stroke="#000" stroke-width="1"/>
</svg>
