<svg xmlns="http://www.w3.org/2000/svg" width="165.11" height="221.472" viewBox="0 0 165.11 221.472">
  <g id="Logo_Black" transform="translate(-53.5 -35.572)">
    <g id="Groupe_64" data-name="Groupe 64" transform="translate(53.5 35.572)">
      <path id="Tracé_487" data-name="Tracé 487" d="M186.518,84.236v-.173c-.087-.173-.173-.433-.347-.78C186.085,83.543,185.652,82.416,186.518,84.236Z" transform="translate(-71.158 -41.916)"/>
      <path id="Tracé_488" data-name="Tracé 488" d="M186.5,84.171c.347.78,0-.693,0,0Z" transform="translate(-71.226 -42.024)"/>
      <path id="Tracé_489" data-name="Tracé 489" d="M185.114,79.793c-.607-1.04-.607-.78-.52-.087l.693.953C185.287,80.4,184.854,79.446,185.114,79.793Z" transform="translate(-70.966 -41.373)"/>
      <path id="Tracé_490" data-name="Tracé 490" d="M184.7,82.033c.953,2.08,1.213,1.56.26-.433C185.133,82.207,185.307,82.987,184.7,82.033Z" transform="translate(-70.986 -41.707)"/>
      <path id="Tracé_491" data-name="Tracé 491" d="M165.9,56.3a.085.085,0,0,0,.087.087h.087Z" transform="translate(-68.48 -38.335)"/>
      <path id="Tracé_492" data-name="Tracé 492" d="M170.3,59.8c.173.26.347.52.607.867C170.733,60.32,170.473,59.8,170.3,59.8Z" transform="translate(-69.067 -38.801)"/>
      <path id="Tracé_493" data-name="Tracé 493" d="M167.82,58.227l.433.347a9.008,9.008,0,0,1-1.127-1.647c-.78-.52-1.04-.52-1.127-.433l2.08,1.82Z" transform="translate(-68.494 -38.355)"/>
      <path id="Tracé_494" data-name="Tracé 494" d="M170.42,60.633c-.52-.087-1.647-.867-1.3,0,1.127,1.04,1.04.607,1.733,1.127h0c-1.733-1.733.693.433-.433-1.127l.607.607a.085.085,0,0,1,.087-.087,3.769,3.769,0,0,0-.52-.607v.087h0c.087.087.087.173,0,.087h-.087c.087-.087,0-.087-.087-.087-.433-.607,0-.173.173,0h.087c-.693-.607-1.387-1.127-2.08-1.733C169.033,59.333,169.553,59.767,170.42,60.633Z" transform="translate(-68.84 -38.681)"/>
      <path id="Tracé_495" data-name="Tracé 495" d="M166.087,55.747A6.492,6.492,0,0,0,164.7,55.4l.867.52Z" transform="translate(-68.321 -38.215)"/>
      <path id="Tracé_496" data-name="Tracé 496" d="M163.38,53.66l-.78-.26.433.52Z" transform="translate(-68.041 -37.948)"/>
      <path id="Tracé_497" data-name="Tracé 497" d="M84.091,51.307l.433.173a3.256,3.256,0,0,1,1.387-.78C84.957,50.873,83.744,51.047,84.091,51.307Z" transform="translate(-57.569 -37.588)"/>
      <path id="Tracé_498" data-name="Tracé 498" d="M131.593,41.12a13.716,13.716,0,0,0-1.993-.52C130.553,41.033,131.333,41.38,131.593,41.12Z" transform="translate(-63.642 -36.242)"/>
      <path id="Tracé_499" data-name="Tracé 499" d="M62.5,141.6c.26.347.433.433.433.347C62.76,141.683,62.5,141.51,62.5,141.6Z" transform="translate(-54.7 -49.7)"/>
      <path id="Tracé_500" data-name="Tracé 500" d="M129.24,40.659a4.266,4.266,0,0,0-2.34-.173.781.781,0,0,0,.433.087A7.341,7.341,0,0,1,129.24,40.659Z" transform="translate(-63.283 -36.215)"/>
      <path id="Tracé_501" data-name="Tracé 501" d="M189.2,118.927a3.3,3.3,0,0,0,.087-1.127A2.658,2.658,0,0,1,189.2,118.927Z" transform="translate(-71.586 -46.531)"/>
      <path id="Tracé_502" data-name="Tracé 502" d="M151.8,46.9c.52.173.087,0,0,0Z" transform="translate(-66.601 -37.082)"/>
      <path id="Tracé_503" data-name="Tracé 503" d="M153.7,49.987a.318.318,0,0,1,.26-.087C153.873,49.9,153.7,49.9,153.7,49.987Z" transform="translate(-66.854 -37.482)"/>
      <path id="Tracé_504" data-name="Tracé 504" d="M152.507,47.433c-.173-.173-.433-.26-.607-.433C151.987,47.087,152.16,47.173,152.507,47.433Z" transform="translate(-66.615 -37.095)"/>
      <path id="Tracé_505" data-name="Tracé 505" d="M152.6,47.3a1.894,1.894,0,0,1,.433.26C153.12,47.56,153.12,47.473,152.6,47.3Z" transform="translate(-66.708 -37.135)"/>
      <path id="Tracé_506" data-name="Tracé 506" d="M151.68,46.847c-.173-.087-.433-.173-.78-.347a8.056,8.056,0,0,1,.867.433C151.68,46.847,151.593,46.847,151.68,46.847Z" transform="translate(-66.481 -37.028)"/>
      <path id="Tracé_507" data-name="Tracé 507" d="M55.087,98.663c.607.78.173,1.56.26,3.034H55.26a6.234,6.234,0,0,0,0,2.427,11.845,11.845,0,0,1,.087,2.427l.347-.26c.433.087.433.867.347,1.82a7.647,7.647,0,0,0,.26,3.12l.087-.78a3.469,3.469,0,0,1-.087,2.08,5.074,5.074,0,0,0-.26,2.167c0,.26-.26-.347-.347-.607.26,2.947.607.26,1.3,2.253-.173.433-.867-.26-.52,1.127a12.632,12.632,0,0,0,1.127,2.34,10.72,10.72,0,0,1,1.387,3.294c0-.52.087-.953.607-.173.693,1.3.953,4.074,2.34,4.94v.347c.347.433.867,1.213,1.473,1.907a5.769,5.769,0,0,0,1.473,1.473c-.173.433.087.953.433,1.56a10.222,10.222,0,0,0,1.56,1.82c1.127,1.213,2.34,2.167,1.82,2.6.78.867,1.647,1.733,2.427,2.6h-.173a7.426,7.426,0,0,0,3.12,2.34c.347.433,0,.26-.087.26a18.02,18.02,0,0,0,2.513,2.34,13.478,13.478,0,0,0,2.774,1.387v.52c.693.26,3.64,3.294,6.76,4.334a.677.677,0,0,1-.433,0,43.3,43.3,0,0,1,5.287,2.687c1.733.867,3.294,1.387,4.16.867.78.173,1.647.173,2.427.347-2.947-.953.607-.52-.52-1.127a5.191,5.191,0,0,1,1.733.693c.433.26.433.433-.26.26l-.173-.173c-.78.693,3.64,1.213,3.467,1.647a62.666,62.666,0,0,0,17.854,1.213,4.807,4.807,0,0,1-.693-.52,15.473,15.473,0,0,1,1.993-.173c.52.087.78.433-.693.52a3.111,3.111,0,0,0,2.34-.78c2.774-.26-.953.953-.087.78l1.127-.26h-.26a6.894,6.894,0,0,1,2.6-1.04c1.127-.087.607.26,1.04.173,0,.087.173,0,.693-.173.867-.173,1.647-.433,2.513-.607l-1.127-.173c1.04-.52,2.253-.607,1.04-.867.953.173,3.207-.52,5.287-1.387,1.04-.433,2.08-.953,2.86-1.3s1.387-.693,1.647-.78a16.313,16.313,0,0,1,1.993-1.387c.693-.433,1.473-.867,2.253-1.387-.433.173-.953-.173.433-.953.087.607.78.347,1.647-.173a8.458,8.458,0,0,1,2.687-1.3c-.607.173.26-.607,1.127-1.3.78-.693,1.473-1.473.52-1.127,1.127-.867.347.26,1.3-.173,2.167-2.513,5.46-4.854,7.887-8.234-.087-.173-.693.26-.347-.607.693-.433,1.3-.867,1.907-1.3.433-.693-.26-1.04.953-1.993-.26.087-.52.26-.26-.26a36.338,36.338,0,0,0,5.634-10.747c1.387-3.814,2.513-7.8,3.814-11.7-.52,1.04-.347.347-.26-.52-.173.52-.347,0-.52,0a4.525,4.525,0,0,1-1.733,3.034c0-.173.087-.26.087-.433-.26.347-.607.607-.867.953a5.972,5.972,0,0,1-.693.26c-.087.173-.087.433-.173.607h0l-.087-.173a.318.318,0,0,1-.087.26,29.715,29.715,0,0,1-5.027,3.64,12.156,12.156,0,0,1-9.361,1.3,2.567,2.567,0,0,0-2.687.867c-1.3,1.213-3.207,1.733-4.94,2.687.26,1.473-.867,2.513-3.207,2.08-1.3-.26-2.6-.693-3.814-1.04-1.3,2.253-3.554,2.774-5.807,3.12,0,.78.26,1.733-.087,2.08a3.371,3.371,0,0,1-2.167.433c-3.034.087-5.114-1.993-7.627-3.294-1.56,4.594-3.38,9.014-6.847,12.567-.347.347-.26.953-.52,1.3-.953,1.907-1.56,4.16-3.034,5.634-1.387,1.387-3.12,2.427-4.334,4.16a3.841,3.841,0,0,1-2.427,1.213c-2.167.433-4.334.867-5.374,3.294-1.213-1.387-.607-5.894.867-9.014-.867.693-1.993,1.127-2.6,1.993a18.25,18.25,0,0,0-1.3,3.554,8.341,8.341,0,0,1-.78-1.3,14.412,14.412,0,0,1,.433-7.887,5.429,5.429,0,0,1,2.86-2.86c3.12-1.647,6.5-2.427,9.534-4.334,2.08-1.3,3.554-2.513,4.42-4.68.693-1.733,1.56-3.38,2.427-5.114-2.513-1.907-5.114-3.814-7.714-5.807a33.654,33.654,0,0,1-2.08,3.9c-1.733,2.427-3.64,4.767-5.46,7.194-.26.433-.693,1.04-.52,1.387.78,3.12-1.04,5.2-3.034,7.02a29.581,29.581,0,0,1-4.594,2.86c.78,1.647,1.733,3.294,2.513,5.027a1.13,1.13,0,0,1,.087,1.04c-.087.173-.693.173-.953.173a17.742,17.742,0,0,0-4.854-.607c-.953.087-2.253-.867-3.034-1.647-1.387-1.387-2.6-1.473-3.727.173a.186.186,0,0,1-.173.173.085.085,0,0,0-.087.087l-.087.087h0a2.346,2.346,0,0,1-.693-.26c-.26-.173-.52-.433-.78-.607a21.078,21.078,0,0,1,0-2.34c.087-1.04.173-2.08.26-2.86-1.04.087-1.82.173-2.6.26,0-.867-.433-1.993-.087-2.687,1.647-2.947,4.94-6.847,9.1-6.154a3.888,3.888,0,0,0,1.647-.433c.433-.173.78-.52,1.213-.52,3.727.173,4.854-2.6,6.327-5.2.953-1.647,1.907-3.207,2.947-4.94-3.12.433-5.547,3.12-9.014,2.34-.347,1.647-1.3,1.647-2.34,1.04-.347.607-.433,1.387-.867,1.647-.347.173-1.04-.26-1.56-.52-.173.26-.433.78-.78,1.473-.693-.693-1.213-1.3-1.82-1.907-1.907.867-3.64,1.993-4.42,4.16-.433,1.213-1.213,1.387-2.167.607-1.3-.953-2.513-1.993-3.727-3.034-1.907,1.04-2.167,1.04-3.554-.693-1.993-2.513-4.507-4.594-5.287-7.887a8.107,8.107,0,0,1-.173-3.207c.347-1.387,1.733-1.82,3.987-1.473,1.3-2.6,2.687-5.114,3.9-7.714a5.052,5.052,0,0,0,.52-2.513,18.369,18.369,0,0,1,2.34-10.227,2.245,2.245,0,0,0-.26-2.687c-1.907-2.774-2.167-5.98-2.167-9.274a18.907,18.907,0,0,1,4.854-12.307c2.34-2.687,5.72-3.554,9.274-3.467,2.513.087,3.294,2.34,4.42,4.074a9.062,9.062,0,0,1,1.04,2.774c2.253-1.733,4.42-3.814,6.847-5.374,7.627-4.854,14.994-1.3,18.114,6.24a5.2,5.2,0,0,1-.607,5.114c-.52.78-1.127,1.473-1.733,2.253l.347.347c1.04-.693,1.993-1.387,3.034-2.08,1.213-.867,2.513-1.647,3.727-2.427,1.127-.693,2.167-1.127,2.687.26,2.513-1.82,4.94-3.727,7.454-5.374a24.95,24.95,0,0,1,4.334-2.08,3.594,3.594,0,0,1,1.647.087,12.04,12.04,0,0,1-.52,1.647,3.97,3.97,0,0,0-.607,1.213,6.538,6.538,0,0,1,2.08-.693,4.083,4.083,0,0,1,1.473.52c3.207-1.387,6.327-2.86,9.447-4.074.607-.26,1.387.087,2.167.173a17.749,17.749,0,0,1-.433,2.08c-.173.52-.693.867-1.04,1.3a2.3,2.3,0,0,1,.433.52c.607-.433,1.473-.78,1.733-1.473a20.316,20.316,0,0,0,2.08-5.374,13.4,13.4,0,0,1,.607-1.993c-.953-1.04-1.993-1.993-3.034-2.947.087.087.173.173.26.173l.087-.173c-.52-.52-1.04-.78-.607-.26-.52-.433-.953-.867-1.473-1.3,1.04.607,1.213-.78.693-1.993-.173.087-.173.173-1.387-.52.26.433,1.993,2.253.953,1.733-1.473-1.04-1.04-1.04-1.56-1.733.26.693-1.647-.607-2.167-.26a60.257,60.257,0,0,0-9.1-5.46c.087,0,.173-.087,0-.173l-.953-.347c-.693-.693,1.907.26.867-.347a18.825,18.825,0,0,1,2.08.607,6.019,6.019,0,0,1,1.127.433,7.914,7.914,0,0,1,1.127.693V49c.087-.173-.953-.867-1.473-1.04.78.173,2.167,1.993,3.207,1.907-.347-.347-.607-.693-.953-1.04a11.055,11.055,0,0,1,4.334,2.08c-.347-.867-.347-.173-.953-1.387.433,1.213-3.64-2.34-2.687-.78-.693-1.213-1.647-1.387-2.86-2.6,0,.173.347.52-.867-.173h-.347a.085.085,0,0,1-.087-.087l.087.087h0a2.766,2.766,0,0,1,.52.607,6.615,6.615,0,0,1-1.82-.52,14.731,14.731,0,0,0-1.82-.607c-.693-.433.433,0,.087-.433-.347-.087-.78-.087-1.127-.173.087-.433-1.82-1.387.087-.867l-1.647-.693a8.136,8.136,0,0,0-3.207-1.213c-.78-.347-2.167-.173-1.387-.26-.953-.173-1.82-.347-2.774-.433v-.087a33.4,33.4,0,0,0-4.247-.607,21.387,21.387,0,0,1-4.507-.78h-1.473a17.466,17.466,0,0,1-1.993-.087l-.26-.347c-1.213.087-3.64-.26-4.16.087a6.446,6.446,0,0,0-3.727-.087,22.168,22.168,0,0,0-2.34.433c-.693.173-1.387.26-1.907.347v.433c-.693.087-1.387.347-2.167.52a18.438,18.438,0,0,0-2.34.78l.173.347a13.676,13.676,0,0,1-2.774.78c-.52.173-1.127.26-1.733.433a13.758,13.758,0,0,0-1.733.607,1.709,1.709,0,0,1,1.127-.433,6.216,6.216,0,0,0-2.167.607,14.821,14.821,0,0,0-1.993,1.127c-.693.347-1.3.867-1.907,1.213a9.29,9.29,0,0,1-1.907.867,3.256,3.256,0,0,1-1.387.78c.087,0,.087-.087.173-.087-.087,0-.173.087-.26.173a3.622,3.622,0,0,0-.867.347l.78-.26c-.433.26-1.04.78-1.647,1.213l-.52-.173c-.087,0-.087.087-.173.087-.693.26-.433.52.087.52a5.608,5.608,0,0,0-.693.78c-.867-.173-1.473,1.3-2.6,1.3a9.4,9.4,0,0,1-1.473,1.647A5.051,5.051,0,0,0,74.241,55.5a5.253,5.253,0,0,0-1.733,1.647l-.607-.173-.78,1.82c-.953.607-1.473.78-.953-.26-.693,1.213-1.04,1.647-1.3,2.08a18.408,18.408,0,0,0-1.04,1.82h.347c-.52.607-.953,1.907-1.473,2.167a18.5,18.5,0,0,0-3.554,4.594c-1.387,2.253-2.774,4.854-3.9,6.934.693-.173.347.26-.087.78-.347.607-.867,1.3-.52,1.473-.347.173-.693.693-.607-.087a23.886,23.886,0,0,1-1.04,2.774,4.355,4.355,0,0,0-.433,2.34c-.347.173-.173-.607-.433-.433a2.379,2.379,0,0,1-.173,1.04c-.173.173-.087-.433-.087-.78-.347,1.213-.347,1.907-.087,2.34a1.69,1.69,0,0,0,.78.78,5.541,5.541,0,0,0-.52,1.387,2.364,2.364,0,0,0,.173,1.3c-.26.347-.693,1.04-.433-.433-.087.433-.433,1.647-.607,2.86s-.26,2.34.087,2.34a2.573,2.573,0,0,0-.087,1.387A30.027,30.027,0,0,0,55,99.1Zm95.253-42.556c-.607-.52-1.127-.953-1.733-1.473A5.243,5.243,0,0,1,150.339,56.107Zm-2.167-1.733h0c-.087,0-.173-.087-.26-.087C148.086,54.287,148.173,54.287,148.173,54.374ZM127.285,156.56h-.433C127.718,156.3,127.545,156.387,127.285,156.56Zm-3.12-114.147c2.167.26.867.693,1.213.607a8.891,8.891,0,0,0,2.253.347,7.267,7.267,0,0,0,1.387,0,4.509,4.509,0,0,1,3.12.78c1.127.867-.26.867-.087,1.3a7.34,7.34,0,0,1-1.993-.78,9.394,9.394,0,0,0-1.647-.693l1.387.607a5.721,5.721,0,0,1-2.34-.52,1.411,1.411,0,0,0,.52.26,60.252,60.252,0,0,0-8.061-1.56,5.973,5.973,0,0,1,.693-.26A15.5,15.5,0,0,1,124.164,42.413ZM110.9,42.066c-.087.087.173.26.26.347-.607,0-1.127.087-1.733.087A7.321,7.321,0,0,1,110.9,42.066Zm-11.787.867h1.82a11.959,11.959,0,0,1,2.167.173c.173,0,.173.087.26.173-.693.087-1.387.26-2.08.347l-.173-.607-.087.693c-.693.173-1.387.26-1.993.433A1.851,1.851,0,0,1,99.116,42.933ZM88.975,46.487l.52.087a17.265,17.265,0,0,1,1.647-1.04L89.409,47.7c-.953.433-1.907.867-2.86,1.387A7,7,0,0,1,88.975,46.487ZM74.761,55.847v.173C74.675,56.02,74.5,56.107,74.761,55.847Zm-2.6,4.074a10.388,10.388,0,0,0-.953,1.04c.173-.52.26-1.04.433-1.56Q71.641,59.661,72.161,59.921ZM56.82,86.962c.173-.26.26,0,.433.433v-.433c.173-.347.26-.433.347-.347-.087.347-.173.78-.26,1.127,0-.087-.087-.173-.087-.26v.607c0,.173-.087.347-.087.52a3.245,3.245,0,0,0-.52.867C56.733,88.523,56.733,87.742,56.82,86.962Z" transform="translate(-53.7 -36.062)"/>
      <path id="Tracé_508" data-name="Tracé 508" d="M157.853,50.28c0-.087-.087-.347.26-.173A5.3,5.3,0,0,0,156.9,49.5,2.345,2.345,0,0,1,157.853,50.28Z" transform="translate(-67.281 -37.428)"/>
      <path id="Tracé_509" data-name="Tracé 509" d="M158.6,52.3c-.087.347.693.693,1.473,1.127-.087,0-.087-.087-.173-.087C160.419,53.08,159.552,52.647,158.6,52.3Z" transform="translate(-67.507 -37.801)"/>
      <path id="Tracé_510" data-name="Tracé 510" d="M161.193,54.22c.173-.087-.26-.26-.693-.52C160.76,53.873,160.933,54.047,161.193,54.22Z" transform="translate(-67.761 -37.988)"/>
      <path id="Tracé_511" data-name="Tracé 511" d="M149.382,46.136c.347.26.433-.26.607-.087C150.595,45.876,147.128,45.356,149.382,46.136Z" transform="translate(-66.176 -36.924)"/>
      <path id="Tracé_512" data-name="Tracé 512" d="M158.507,53.82V53.3H157.9Z" transform="translate(-67.414 -37.935)"/>
      <path id="Tracé_513" data-name="Tracé 513" d="M151.7,49.495l1.213.78c0-.087.173,0,.433.087C152.567,49.841,151.787,49.321,151.7,49.495Z" transform="translate(-66.588 -37.423)"/>
      <path id="Tracé_514" data-name="Tracé 514" d="M154.64,50.92a11.569,11.569,0,0,1-1.04-.52A5.7,5.7,0,0,0,154.64,50.92Z" transform="translate(-66.841 -37.548)"/>
      <path id="Tracé_515" data-name="Tracé 515" d="M133.874,43.847c.347,0,.953,0,.78-.173l-1.56-.173C132.921,43.587,133.354,43.76,133.874,43.847Z" transform="translate(-64.103 -36.629)"/>
      <path id="Tracé_516" data-name="Tracé 516" d="M174.377,90.874V90.7a.318.318,0,0,1,.087-.26c0-.087,0-.087.087-.173,0-.087.087-.173.087-.26s0-.087.087-.173c0-.087.087-.173.173-.26l.087-.087c.087-.087.087-.173.173-.26l.087-.087.26-.26.087-.087.26-.26.087-.087c.087-.087.26-.173.347-.347.173-.087.26-.26.433-.347a3.67,3.67,0,0,1-.607-.433,7.5,7.5,0,0,0-.867-.607c-.433-.347-.953-.693-1.3-1.04a4.467,4.467,0,0,1-1.127-1.473c-.087-.26.693-.78,1.213-1.3a30.2,30.2,0,0,0-4.68-3.294c-1.647-.867-1.907-1.127-.52-2.427l.867-.867c-.087-.087-.087-.173-.173-.347-1.993.693-3.9,1.387-5.894,1.993l-.52-.52c.52-1.04,1.04-2.08,1.473-3.12-.087-.087-.087-.26-.173-.347-2.253.953-4.594,1.907-6.847,2.774a13.15,13.15,0,0,1-1.82.26,3.933,3.933,0,0,1-.087-1.993,13.963,13.963,0,0,1,1.3-2.513c-3.554.867-6.154,2.947-8.841,4.854a2.777,2.777,0,0,1-1.907.607c-.433-.173-.52-1.127-.867-1.907-1.127.347-2.427.78-3.9,1.213-.087-.953-.087-1.647-.173-2.427a.655.655,0,0,1-.347.087c-3.12,2.6-6.24,5.114-9.361,7.714a10.348,10.348,0,0,1-1.387.693c-.173-.52-.433-.953-.607-1.473-.087-.173,0-.433,0-.953-4.42,3.554-8.581,6.934-12.827,10.314,1.04,1.127,1.647,1.907,2.427,2.687a9.277,9.277,0,0,0,1.387,1.213c1.907,1.647,1.82,2.687-.087,3.38l2.513,2.513c-.953.693-1.907,1.3-3.034,2.08,1.127.867,2.427,1.993,3.64,3.034-.433,1.647-1.213,2.513-3.034,2.167.087,1.647-.433,2.774-2.34,2.687,1.213,3.294.26,5.894-2.513,7.887,3.12,2.253,6.24,4.42,9.534,6.76.693-2.774,1.993-5.2,1.907-7.627s-1.387-4.767-2.253-7.107a3.85,3.85,0,0,1,3.38,2.513,13.528,13.528,0,0,1-.173,11.007c-1.647,3.64-3.207,7.28-4.854,11.007-.173.433-.607,1.127-.433,1.387,1.04,1.3-.26,1.733-.78,2.6-1.733-1.473-4.767-1.04-5.114.693-.26,1.04-.433,2.167-.78,3.207-.347,1.127,0,1.907,1.387,2.427.347-1.733.607-3.294.953-4.94a2.948,2.948,0,0,1,.867.087c0,1.3.347,2.687,0,3.9a15.708,15.708,0,0,1-1.907,3.554c.173.087.347.26.52.347.52-.607,1.127-1.127,1.56-1.733,2.08-3.467,3.38-7.454,6.154-10.661a4.888,4.888,0,0,0,.953-1.733c1.387-3.727,2.687-7.54,4.16-11.181a22.159,22.159,0,0,0,1.993-8.494,26.3,26.3,0,0,1,.52-3.64c.173-.087.26-.087.433-.173.78,1.127,1.56,2.253,2.253,3.38.173,0,.347-.087.607-.087,0-1.387-.087-2.774,0-4.16,0-.347.347-.693.52-1.04.26.26.693.433.693.78a17.45,17.45,0,0,1,.173,4.247,3.835,3.835,0,0,1-1.473,2.253c-.347.26-1.3-.433-1.907-.693-.433,1.907-.693,3.987-1.3,5.98-.607,2.08-1.56,3.987-2.253,5.894,2.253.953,4.334,1.907,6.414,2.774a2.2,2.2,0,0,0-.26-1.04,10.331,10.331,0,0,1-.693-1.733,12.8,12.8,0,0,1,1.82.087,6.9,6.9,0,0,0,5.98-1.473,5.268,5.268,0,0,1-.867-1.213,10.2,10.2,0,0,1-.607-1.733,5.752,5.752,0,0,1,1.733.52,16.055,16.055,0,0,0,7.107,2.34c.087-.173.087-.26.173-.433a4.666,4.666,0,0,1-1.04-.78,15.066,15.066,0,0,1-.867-1.647,5.247,5.247,0,0,1,1.647,0,4.893,4.893,0,0,0,5.114-1.04c-.433-.953-.78-1.733-1.127-2.513.607,0,1.3.087,1.993.087a6.785,6.785,0,0,0,.26-1.213c-3.9-1.04-7.454-2.6-9.1-6.847a3.268,3.268,0,0,1,1.82.607c1.733,1.127,3.38,2.6,5.2,3.38s3.814.953,5.72,1.56a2.7,2.7,0,0,1,1.387,1.213c.087.26-.607.867-1.127,1.733a35.937,35.937,0,0,0,4.68-.433c5.2-1.473,8.667-5.287,11.527-9.534.087-.087.087-.173.173-.26h0a3.766,3.766,0,0,0,.347-.607h0l.26-.52v-.087c.087-.173.087-.347.173-.52v-.087c0-.173.087-.347.087-.52v-.173a.649.649,0,0,1,.087-.433V105.7a2.04,2.04,0,0,0-.173-.693,10.909,10.909,0,0,1-.347-2.34,5.523,5.523,0,0,1,.607-.173c1.993,1.387,1.907,3.64,2.253,5.98,2.427-3.814,2.86-6.674.867-8.321a3.113,3.113,0,0,0-.867-.607c-.087-.087-.26-.087-.347-.173-.173-.087-.433-.173-.607-.26s-.347-.087-.52-.173-.347-.087-.52-.173l-1.04-.26h0c-1.907-.52-3.294.693-4.594,1.993-1.127-1.733-.433-2.774,2.427-3.987a5.974,5.974,0,0,1-.347-.867c-.087-.087-.087-.26-.173-.347a1.232,1.232,0,0,1-.173-.52c-.087-.173-.087-.26-.173-.347s-.087-.26-.173-.347a.655.655,0,0,1-.087-.347c0-.087-.087-.173-.087-.26s-.087-.26-.087-.347-.087-.173-.087-.26-.087-.26-.087-.347V91.308C174.377,91.048,174.377,90.961,174.377,90.874Zm-33.022,5.807a7.079,7.079,0,0,1-1.993-.953,8.358,8.358,0,0,1-1.473-1.82c-.693.867-1.387,1.56-1.993,2.34-.173,0-.347-.087-.607-.087-.087-1.733-.26-3.38-.347-5.114-.867.953-1.733,1.993-2.947,3.294-.087-.953-.347-1.473-.173-1.733.867-1.3,1.907-2.6,2.86-3.814.173-.26.867-.347,1.213-.26a1.544,1.544,0,0,1,.52,1.127,35,35,0,0,1-.347,3.727c1.733-1.473,2.687-.693,3.64.52a15.944,15.944,0,0,0,1.907,1.473,6.3,6.3,0,0,1,.693.78C141.875,96.335,141.528,96.768,141.355,96.682Z" transform="translate(-61.79 -40.494)"/>
      <path id="Tracé_517" data-name="Tracé 517" d="M85.891,86.753c2.08-1.82,3.294-4.594,6.414-5.2.087-.347.26-.78.433-1.3.433-1.387,1.213-2.86,1.127-4.247a10.033,10.033,0,0,0-2.947-6.327,2.452,2.452,0,0,0-1.733-.78,17.575,17.575,0,0,0-4.68,1.127c-4.594,2.08-6.067,6.154-6.76,10.747-.173,1.3-.087,2.513-.26,3.814a9.858,9.858,0,0,0,1.56,6.934c1.387-1.647,2.687-3.207,3.9-4.767C83.811,85.453,84.851,85.366,85.891,86.753Z" transform="translate(-56.683 -40.012)"/>
      <path id="Tracé_518" data-name="Tracé 518" d="M201.117,101.826c-1.647.693-2.253.26-2.34-1.56,3.467-1.3,4.94-2.513,4.767-4.16a2.914,2.914,0,0,0-2.167-2.774c-.26.607-.433,1.213-.607,1.733-.867,2.427-2.774,3.554-5.114,2.427a25.728,25.728,0,0,1-4.854-3.38c-1.04-.867-3.294-1.56-4.334-1.04-.087.087-.173.087-.26.173l-.173.173h0c-.693.693-.347,1.473-.173,2.253,0,.087.087.173.087.347v.087a.521.521,0,0,0,.087.347c0,.26,0,.52.173.607.173.173.26.433.433.607.173.26.26.52.433.78a1.891,1.891,0,0,0,.347.433h0a1.522,1.522,0,0,0,.433.347c1.387.78,2.947,1.213,4.42,1.907a3.964,3.964,0,0,1,1.387,1.3c1.04,1.473,1.907,3.034,3.034,4.42.347.433,1.04.52,1.56.78.087-.607.173-1.127.26-1.733v-.693c1.473-.087,3.034.087,4.16-.433,1.647-.78,1.04-2.427.607-3.9A23.56,23.56,0,0,0,201.117,101.826Z" transform="translate(-71.109 -43.212)"/>
      <path id="Tracé_519" data-name="Tracé 519" d="M188.067,62.92c1.473-1.647,2.947-3.294,4.334-4.854-.607-2.687-2.34-3.987-4.334-5.114a6.14,6.14,0,0,0-5.72-.433c-1.56.78-2.687,2.427-4.247,3.9C183.04,56.507,185.034,60.407,188.067,62.92Z" transform="translate(-70.106 -37.761)"/>
      <path id="Tracé_520" data-name="Tracé 520" d="M195.327,55.243a22.587,22.587,0,0,1,2.427-1.473c.78-.433,1.82-.693,2.167-1.387.26-.52-.347-1.56-.52-2.34-.693-2.947-5.2-5.2-7.974-3.9-1.647.78-3.294,1.82-5.027,2.774A13.523,13.523,0,0,1,195.327,55.243Z" transform="translate(-71.213 -36.931)"/>
      <path id="Tracé_521" data-name="Tracé 521" d="M185.874,65.9c-.867-.953-1.56-1.733-2.34-2.513s-1.473-1.647-2.253-2.427c-1.213-1.213-4.68-2.08-5.287-1.213-1.213,1.647-2.167,3.467-3.294,5.287,4.507,0,7.8,1.82,10.921,4.16C184.314,68.067,185.094,67.027,185.874,65.9Z" transform="translate(-69.387 -38.747)"/>
      <path id="Tracé_522" data-name="Tracé 522" d="M217.714,42.4c-2.6.087-5.114.347-7.714.52,2.427,1.647,3.467,4.074,3.814,7.194,2.6-.26,5.114-.607,7.454-.867-.087-1.213-.173-1.907-.26-2.6C221.007,44.566,219.274,42.313,217.714,42.4Z" transform="translate(-74.358 -36.482)"/>
      <path id="Tracé_523" data-name="Tracé 523" d="M205.127,43.128c-2.6-1.213-4.854.26-7.627.607,4.247,1.82,5.547,3.38,6.154,7.194,2.08-.26,3.987-.433,5.894-.693C210.067,46.508,208.161,44.514,205.127,43.128Z" transform="translate(-72.692 -36.516)"/>
      <path id="Tracé_524" data-name="Tracé 524" d="M96.547,151.68a9.618,9.618,0,0,0,6.587-5.374c.607-1.3.347-1.907-1.04-1.907a25.061,25.061,0,0,0-6.24.693c-.867.26-1.387,1.733-1.907,2.687-.087.173.347.78.607.953s1.04.087,1.04-.087c.52-2.34,2.34-.867,3.554-1.213.26-.087.693.347.867.607a1.294,1.294,0,0,1-.26.867c-1.56,0-2.513,1.387-3.814,1.82-1.733.693-3.554,2.6-3.64,4.42a3.244,3.244,0,0,0,.433,1.56c.953,1.3,1.733,1.213,3.987-.52a5.077,5.077,0,0,1-.953-.78,5.9,5.9,0,0,1-1.04-2.427C94.727,152.461,95.854,151.854,96.547,151.68Z" transform="translate(-58.671 -50.076)"/>
      <path id="Tracé_525" data-name="Tracé 525" d="M173.84,72.214c.433.347.433,1.387.607,2.08a9.067,9.067,0,0,0,1.473-.347l1.56-.26c.347-.087.607-.087.953-.173a1.63,1.63,0,0,1,1.473.693,1.7,1.7,0,0,1-.347,1.473,4.341,4.341,0,0,1-.607.693,5.608,5.608,0,0,1-.78.693l-.52.52c.693.52,1.387.953,2.167,1.56.087-.26.173-.433.26-.693.347-1.04.693-1.993,1.04-3.034v-.087c.347-.953.607-1.907.953-2.86-1.907-2.427-4.767-3.294-7.454-4.074h-.433a.521.521,0,0,0-.347.087,4.049,4.049,0,0,0-.867.433h0c-.087.087-.26.173-.347.26a.085.085,0,0,0-.087.087c-.087.087-.26.173-.347.26-.52.52-.52,1.56-.693,2.34C172.28,71.867,173.32,71.78,173.84,72.214Z" transform="translate(-69.227 -39.947)"/>
      <path id="Tracé_526" data-name="Tracé 526" d="M228.24,40.5a37.453,37.453,0,0,0-4.94,1.213c.78,2.167,1.473,4.16,2.253,6.414,1.56-.52,3.207-1.127,4.94-1.647s1.127-1.907.693-2.687C230.407,42.492,230.32,40.325,228.24,40.5Z" transform="translate(-76.131 -36.227)"/>
      <path id="Tracé_527" data-name="Tracé 527" d="M111.081,131.66a26.092,26.092,0,0,0,1.907-3.814c-.173-.087-.26-.26-.433-.347-1.127.52-2.687.78-3.294,1.733-2.427,3.467-4.594,7.107-6.76,10.661.087.087.173.26.26.347.78-.173,1.907,0,2.34-.52C107.18,137.121,109.174,134.347,111.081,131.66Z" transform="translate(-60.031 -47.824)"/>
      <path id="Tracé_528" data-name="Tracé 528" d="M113,78.556c-.26-.347-1.213-.173-1.82,0a13.083,13.083,0,0,0-2.08,1.127c3.64.78,2.86,3.814,3.727,6.067a12.274,12.274,0,0,0,4.94-5.807c.347-1.04.78-2.6.347-3.12-1.04-1.127-2.427-.087-3.64.433-.087,0-.087.173-.087.26.173,0,.26-.087.433-.087a15.14,15.14,0,0,1,.867,3.814,3.91,3.91,0,0,1-1.3,2.08c-1.213-.52-.693-1.473-.433-2.513A3.983,3.983,0,0,0,113,78.556Z" transform="translate(-60.91 -41.003)"/>
      <path id="Tracé_529" data-name="Tracé 529" d="M89.666,152.192c-.52.26-1.213.347-1.733.607-.347.26-.867.867-.78,1.127.173.52.78.953,1.213,1.387.347-.347.78-.693,1.127-1.04a24.543,24.543,0,0,0,1.733-2.427,1.165,1.165,0,0,0,.173-.78c.087-1.56.087-3.12.173-4.68-1.473-.433-4.507.607-4.68,1.82-.347,2.08,1.127,2.08,2.6,2.167h.173c.26.347.607.607.693.953A1.313,1.313,0,0,1,89.666,152.192Z" transform="translate(-57.944 -50.328)"/>
      <path id="Tracé_530" data-name="Tracé 530" d="M236.2,38.5a39.793,39.793,0,0,0-3.9,1.213,23.474,23.474,0,0,1,1.387,2.34,22.77,22.77,0,0,1,1.127,2.774,23.637,23.637,0,0,0,3.294-3.294c.347-.433-.173-1.56-.52-2.253C237.5,38.758,236.634,38.411,236.2,38.5Z" transform="translate(-77.33 -35.96)"/>
      <path id="Tracé_531" data-name="Tracé 531" d="M112.767,164.02c2.167-.347,1.82-2.774,3.12-3.9.173-.087-.607-1.213-.867-1.82-.78.607-1.3,1.127-1.907,1.56a26.956,26.956,0,0,0-3.294,2.167c-.433.433-.347,1.387-.52,2.08a13.147,13.147,0,0,0,1.82.26A11.144,11.144,0,0,0,112.767,164.02Z" transform="translate(-60.937 -51.929)"/>
      <path id="Tracé_532" data-name="Tracé 532" d="M99.6,117.253c.953,2.167,1.907,4.074,4.247,4.68.433-.52.867-1.127,1.04-1.387-1.213-1.473-2.253-2.774-3.467-4.247A16.483,16.483,0,0,1,99.6,117.253Z" transform="translate(-59.644 -46.331)"/>
      <path id="Tracé_533" data-name="Tracé 533" d="M104.488,159.14a19.469,19.469,0,0,1,1.82-1.04,14.7,14.7,0,0,1,2.427-.52c0-1.213-.087-2.34-.087-3.38Q103.838,155.76,104.488,159.14Z" transform="translate(-60.285 -51.383)"/>
      <path id="Tracé_534" data-name="Tracé 534" d="M83.967,134.113l.347-.347c-.867-.78-1.733-1.56-2.427-2.167-.953.607-1.82,1.127-2.687,1.647a9.182,9.182,0,0,0,1.04.867C82.147,135.674,82.58,135.587,83.967,134.113Z" transform="translate(-56.925 -48.37)"/>
      <path id="Tracé_535" data-name="Tracé 535" d="M97.387,118.6c-.433.347-.78.693-1.387,1.213,1.127,1.3,1.213,2.947,2.34,3.987.347.347,1.993-1.213,2.774-.953C99.727,120.853,98.513,120.333,97.387,118.6Z" transform="translate(-59.164 -46.638)"/>
      <path id="Tracé_536" data-name="Tracé 536" d="M112.467,157.194c.347-.347.953-.693,1.04-1.127.26-1.127.26-2.253.433-3.467-.607.173-1.56.173-1.733.52a6.651,6.651,0,0,0-.607,2.947C111.6,156.414,112.12,156.847,112.467,157.194Z" transform="translate(-61.243 -51.169)"/>
      <path id="Tracé_537" data-name="Tracé 537" d="M76.2,135.756c1.3,1.127,2.427,2.08,3.467,3.034.52-.52.867-.867,1.3-1.387C79.494,136.449,78.453,134.8,76.2,135.756Z" transform="translate(-56.525 -48.886)"/>
      <path id="Tracé_538" data-name="Tracé 538" d="M242.313,35.6c-.867.433-1.647,1.04-2.513,1.56.433.607.867,1.127,1.387,1.907.78-.867,1.473-1.56,2.08-2.34a2.032,2.032,0,0,0,.173-1.04A5.331,5.331,0,0,0,242.313,35.6Z" transform="translate(-78.33 -35.572)"/>
      <path id="Tracé_539" data-name="Tracé 539" d="M104.2,115.8c.693.953,1.387,1.82,2.34,3.12C106.974,116.667,106.453,115.973,104.2,115.8Z" transform="translate(-60.257 -46.265)"/>
      <path id="Tracé_540" data-name="Tracé 540" d="M109.349,109.962a14.431,14.431,0,0,1-1.04-1.993c.173-.173.347-.26.433-.433a5.41,5.41,0,0,1,1.387.867c.867.78,1.56.607,1.82-.52.087-.433,0-.953.087-1.387.693-.173,1.3-.347,1.993-.52-1.387-1.647-3.38-2.687-3.467-4.94.693-.347,1.3-.607,1.473-.693-.78-1.127-1.473-2.167-2.253-3.207.693-.433,1.473-.78,2.253-1.3l-1.3-1.3c-1.3-1.56-2.687-2.86-4.767-.953-.26.26-1.127-.087-1.733-.173.26-.607.26-1.473.693-1.907,1.04-1.04,2.427-1.82,3.38-2.86,2.687-3.034,5.374-6.154,7.974-9.187a3.576,3.576,0,0,0,0-4.767A30.781,30.781,0,0,0,112.73,70.7a7.769,7.769,0,0,0-6.674-1.82c-4.594.78-8.147,3.467-10.921,6.847-2.08,2.513-2.86,6.067-4.42,9.621,2.34-1.56,2.427-1.56,3.554,0,1.647-1.56,1.647-1.473,3.38.087-.433-1.56-1.127-3.034-1.56-4.594-.173-.433.173-1.04.26-1.56a4.794,4.794,0,0,1,1.213,1.04,5.659,5.659,0,0,1,.693,1.473c1.04-1.387,1.733-2.86,2.947-3.9A21.736,21.736,0,0,1,111,73.559a3.116,3.116,0,0,1,3.467,2.427c.607,2.08-.52,3.727-1.3,5.374-1.387,3.12-4.334,4.767-6.934,6.847-2.253,1.82-5.547,1.213-6.154-2.08-.173-.78-.52-1.56-.78-2.34-.26.607-.087,1.213-.26,1.733a15.82,15.82,0,0,1-1.213,2.774c-.693-.433-1.473-.867-2.253-1.3-1.733,1.647-1.733,1.647-3.467-.173-.693.693-1.3,1.387-1.993,2.08-.173,0-.433-.087-.607-.087-.173-1.387-.26-2.687-.433-4.42-1.56,1.993-2.947,3.814-4.42,5.547-.52.607-1.04,1.127-1.647,1.733l-1.04-2.08a3.843,3.843,0,0,0-.433-.52c-1.907,3.38-4.854,5.98-5.46,10.054,4.247-.26,5.287,4.247,3.294,7.02-.433.52-1.56.607-2.427.693-.433,0-.953-.52-1.3-.78-.52,1.3-1.127,2.513-1.647,3.814,2.86.347,5.72.52,7.714,3.12-1.733,1.04-3.034.087-4.334-.433a4.5,4.5,0,0,0-3.814.173,1.353,1.353,0,0,0-.867,1.82,14.572,14.572,0,0,1,.433,6.414c-.173,1.127-.607,1.473-1.387,1.3a32.37,32.37,0,0,1-4.334-1.127c1.647,1.907,3.034,3.554,4.42,5.114.347-1.04.693-1.907.953-2.687.78.347,1.56.693,2.427,1.127,0-1.473.173-2.687,2.167-2.167.26.087.78-.347,1.04-.693.693-.867.867-2.513,2.687-1.473.087,0,.347-.347.52-.52a10.319,10.319,0,0,0,1.3-.78c1.473-1.04,3.467-1.907,4.334-3.294A18.646,18.646,0,0,1,96,108.142c1.56-.693,3.294-1.733,5.2-.607a5.349,5.349,0,0,1,1.56,7.8c-2.427,3.64-6.154,4.594-10.054,4.94-2.167.26-5.027-1.3-7.28,0-1.3-.087-2.427,1.733-3.467,2.34.607.693,3.38,3.38,4.074,4.074.173-.347.347-1.127.607-1.647.607.433,1.127.867,1.56,1.213.173-.607.433-1.3.693-1.993.607.347.953.52.953.52a9.916,9.916,0,0,1,1.993-1.127c1.387-.347,2.86-.52,4.247-.953,1.127-.347,2.34-.78,3.467-1.213,2.427-1.04,4.854-2.167,7.28-3.294a12.92,12.92,0,0,0,1.733-1.3A4.813,4.813,0,0,0,109.349,109.962Zm-18.461-4.074a3.459,3.459,0,0,1-2.6.607c-3.12-.693-4.42-3.034-5.114-6.76a5.347,5.347,0,0,1,1.127-4.94c2.08-2.167,5.634-1.647,7.627,1.387C93.748,98.868,94.268,103.115,90.888,105.888ZM106.229,116.2c-.347.26-1.04.087-1.56.087,0-.52-.173-1.213.087-1.473,1.473-1.82,1.56-3.294.173-5.114-.173-.26-.52-.52-.607-.78a5.663,5.663,0,0,1,0-1.213c.347.087.867,0,1.04.173.867,1.127,1.733,2.34,2.513,3.554-.087.087-.26.173-.347.26A3.553,3.553,0,0,1,106.229,116.2Z" transform="translate(-55.353 -39.993)"/>
      <path id="Tracé_541" data-name="Tracé 541" d="M94.818,125.647c.867,0,1.3-.607,2.513-.607-1.04-1.387-1.82-2.513-2.687-3.64C92.737,122.527,93.951,124.347,94.818,125.647Z" transform="translate(-58.849 -47.011)"/>
      <path id="Tracé_542" data-name="Tracé 542" d="M61.127,220.868c4.94.087,7.8-3.207,7.8-7.887v-2.6l-5.46-.087v1.82c0,1.127-.173,3.38-2.253,3.294-2.08,0-2.167-2.253-2.167-3.38l.173-10.574c0-1.127.173-3.38,2.253-3.294,2.08,0,2.167,2.253,2.167,3.38v1.82l5.46.087v-2.6c.087-4.68-2.687-8.061-7.627-8.147s-7.8,3.207-7.8,7.887L53.5,212.721C53.5,217.4,56.187,220.782,61.127,220.868Z" transform="translate(-53.5 -56.513)"/>
      <path id="Tracé_543" data-name="Tracé 543" d="M89,220.788l.433-27.128-5.807-.087-.173,10.574-3.987-.087.173-10.574-5.807-.087L73.4,220.615l5.807.087.173-11.094h3.987L83.194,220.7Z" transform="translate(-56.152 -56.607)"/>
      <path id="Tracé_544" data-name="Tracé 544" d="M97.234,193.7,92.9,220.828l5.634.087.693-4.767,4.334.087.52,4.767,5.634.087-3.554-27.215Zm2.774,17.508,1.56-11.614,1.213,11.7Z" transform="translate(-58.751 -56.647)"/>
      <path id="Tracé_545" data-name="Tracé 545" d="M129.3,203.207v-1.56c.087-5.114-2.687-8.061-7.627-8.147-4.507-.087-7.714,2.774-7.8,7.887-.087,4.507,2.34,6.414,7.02,8.581,2.947,1.3,2.774,2.86,2.774,3.987a2.121,2.121,0,0,1-2.34,2.34c-1.82,0-2.253-1.3-2.253-2.687v-2.253l-5.374-.087v2.253c-.087,4.074,1.733,8.061,7.54,8.147,4.94.087,7.714-2.86,7.8-7.887.087-5.547-2.774-7.28-6.5-9.014-2.947-1.387-3.294-2.08-3.294-3.38a2.323,2.323,0,0,1,2.34-2.513c1.82,0,2.253,1.473,2.253,2.687v1.56Z" transform="translate(-61.523 -56.62)"/>
      <path id="Tracé_546" data-name="Tracé 546" d="M149.4,199.934l.087-5.374-15.168-.26-.087,5.374,4.767.087-.26,16.468-4.854-.087-.087,5.374,15.341.173.087-5.374h-4.767l.26-16.468Z" transform="translate(-64.202 -56.727)"/>
      <path id="Tracé_547" data-name="Tracé 547" d="M169.141,221.988l.433-27.128-5.46-.087-.26,13.868-4.074-13.954-5.547-.087-.433,27.215,5.547.087.173-13.694,4.16,13.694Z" transform="translate(-66.868 -56.767)"/>
      <path id="Tracé_548" data-name="Tracé 548" d="M184.04,204.12l5.46.087v-1.56c.087-4.68-2.687-8.061-7.627-8.147s-7.8,3.207-7.8,7.887l-.173,12.134c-.087,4.68,2.687,8.061,7.627,8.147s7.8-3.207,7.8-7.887l.087-8.061-8.147-.087-.087,5.374h2.6v1.82c0,1.127-.173,3.38-2.253,3.294-2.08,0-2.167-2.253-2.167-3.38l.173-10.574c0-1.127.173-3.38,2.253-3.294,2.08,0,2.167,2.254,2.167,3.38Z" transform="translate(-69.546 -56.753)"/>
      <path id="Tracé_549" data-name="Tracé 549" d="M82.122,248.168c0-7.107-4.247-15.168-14.3-15.168H54.3v49.23H64.354V263.422H66l6.24,18.808H82.9L75.968,261.6C80.128,259.262,82.122,254.495,82.122,248.168Zm-16.294,5.374h-1.56V242.707h1.993c5.2,0,5.894,3.38,5.894,5.46C72.154,250.421,71.548,253.541,65.827,253.541Z" transform="translate(-53.607 -61.885)"/>
      <path id="Tracé_550" data-name="Tracé 550" d="M96.394,233,89.2,282.23H99.341l1.04-8.581h7.887l1.04,8.581h10.141L112.255,233H96.394Zm5.46,31.462,2.513-21.148,2.513,21.148Z" transform="translate(-58.258 -61.885)"/>
      <path id="Tracé_551" data-name="Tracé 551" d="M126.8,243.141h8.841V282.23h10.4V243.141H154.8V233h-28Z" transform="translate(-63.269 -61.885)"/>
      <path id="Tracé_552" data-name="Tracé 552" d="M177.168,231.9c-8.234,0-13.868,5.2-13.868,14.561,0,8.234,4.42,11.614,12.914,15.428,5.374,2.254,5.114,5.114,5.114,7.107,0,1.82-.693,4.334-4.16,4.334-3.207,0-4.16-2.34-4.16-4.68v-4.074H163.3v4.074c0,7.367,3.294,14.561,13.868,14.561,9.014,0,13.954-5.374,13.954-14.561,0-10.054-5.2-13.174-12.047-16.208-5.374-2.34-6.067-3.727-6.067-6.067,0-1.647.693-4.594,4.16-4.594,3.207,0,4.16,2.687,4.16,4.767v2.773h9.794v-2.773C191.122,237.187,186.095,231.9,177.168,231.9Z" transform="translate(-68.134 -61.738)"/>
    </g>
  </g>
</svg>
