<svg xmlns="http://www.w3.org/2000/svg" width="1387.811" height="433.419" viewBox="0 0 1387.811 433.419"><path d="M64.74,136.057c-1.5,1.8-3.007,3.007-4.511,4.812-3.909-3.308-7.819-6.917-12.329-10.826C55.719,126.735,59.327,132.749,64.74,136.057Z" transform="translate(18.258 178.099)"/><path d="M69.244,132.819c-7.217,7.819-7.518,7.819-18.344-1.8,3.007-1.8,6.315-3.909,9.623-6.014C63.229,127.406,66.237,130.112,69.244,132.819Z" transform="translate(24.279 169.91)"/><path d="M75.453,140.7c-.3,5.714-.3,11.127-.6,16.84,0,.9,0,2.1-.6,2.706-2.105,3.007-4.21,5.714-6.315,8.721a42.714,42.714,0,0,1-3.909,3.609c-1.5-1.5-3.609-3.007-4.21-5.112-.3-.9,1.5-3.308,3.007-4.21,1.8-1.2,4.21-1.2,6.014-2.1.9-.6,2.406-2.105,2.406-2.707-.3-1.2-1.5-2.406-2.406-3.609h-.6c-5.112,0-10.525-.3-9.322-7.518C59.515,142.805,70.04,138.9,75.453,140.7Z" transform="translate(40.023 200.52)"/><path d="M107.662,86.587c.3,5.112-2.406,10.224-3.909,15.036-.6,1.8-1.2,3.308-1.5,4.511-11.127,1.8-15.337,12.029-22.854,18.344-3.609-5.112-7.217-4.811-10.826-.3-4.511,5.413-9.021,10.826-13.833,16.84a37.1,37.1,0,0,1-5.413-24.659c.6-4.511.3-9.022.9-13.532,2.406-16.239,7.819-30.673,24.057-37.89,5.112-2.406,11.127-3.007,16.539-3.909,1.8-.3,4.511,1.2,6.014,2.706C102.85,70.348,107.361,77.866,107.662,86.587Z" transform="translate(20.444 41.425)"/><path d="M78.568,127.43c-4.21,0-5.714,2.105-8.721,2.406-3.007-4.811-7.217-11.127-.6-15.036C71.952,118.409,74.959,122.318,78.568,127.43Z" transform="translate(54.049 149.437)"/><path d="M86.444,127.137c-2.706-.9-8.721,4.511-9.924,3.308-3.909-3.909-4.21-9.623-8.42-14.134,2.105-1.8,3.609-3.007,5.112-4.511C77.122,118.115,81.332,119.919,86.444,127.137Z" transform="translate(58.803 143.415)"/><path d="M90.544,124.636c-.6.9-2.105,2.706-3.609,4.811-8.42-2.1-11.728-8.721-15.036-16.539l6.616-3.308C82.425,114.712,86.334,119.223,90.544,124.636Z" transform="translate(66.43 138.999)"/><path d="M102.831,144.64c-4.811,10.224-12.63,16.239-23.456,19.246-2.406.6-6.616,2.707-6.616,4.21,0,3.007,2.105,6.014,3.609,8.721.6,1.2,2.105,1.8,3.609,3.007-8.119,6.315-10.826,6.616-14.134,1.8-.9-1.5-1.8-3.609-1.5-5.413.3-6.616,6.616-13.532,12.931-15.637,4.511-1.8,7.819-6.315,13.532-6.616a4.49,4.49,0,0,0,.9-3.007c-.6-.9-2.105-2.406-3.007-2.105-4.21,1.2-10.826-3.909-12.63,4.511,0,.3-2.706.9-3.609.3-1.2-.6-2.406-2.706-2.105-3.308,2.105-3.308,3.909-8.721,6.917-9.322,7.217-2.105,14.735-2.406,22.253-2.406C104.335,137.723,104.936,140.129,102.831,144.64Z" transform="translate(51.136 196.881)"/><path d="M84.619,119.826c-3.308-4.511-5.714-7.518-8.119-10.826C84.619,109.6,86.123,112.007,84.619,119.826Z" transform="translate(75.663 137.795)"/><path d="M92.015,160.329c-3.308.6-6.014.9-8.42,1.8s-4.21,2.406-6.616,3.609c-1.5-8.119,3.308-13.833,14.735-17.441C91.714,152.209,92.015,156.119,92.015,160.329Z" transform="translate(76.086 216.677)"/><path d="M92.42,146.6c-.6,4.511-.6,8.42-1.5,12.329-.3,1.5-2.406,2.706-3.609,3.909-1.2-1.2-3.308-2.706-3.308-3.909A31.242,31.242,0,0,1,86.105,148.4C87.007,147.5,90.014,147.5,92.42,146.6Z" transform="translate(90.717 213.265)"/><path d="M112.089,122.2c-2.406,4.511-4.21,9.322-6.917,13.532-6.616,9.924-13.833,19.246-21.05,28.568-1.5,1.8-5.413,1.2-8.119,1.8-.3-.3-.6-.9-1.2-1.2,8.119-12.63,15.637-25.561,24.057-37.89,2.406-3.308,7.819-4.21,11.728-6.014C110.886,121.3,111.488,121.6,112.089,122.2Z" transform="translate(72.251 161.881)"/><path d="M104.955,159.016c-4.511,3.909-3.308,12.63-11.127,13.833-1.8.3-3.909,1.2-5.714,1.2a45.612,45.612,0,0,1-6.315-.9c.6-2.406.3-6.014,1.8-7.518,3.308-3.007,7.819-5.112,11.728-7.518a85.266,85.266,0,0,0,6.917-5.714C102.85,154.505,105.256,158.715,104.955,159.016Z" transform="translate(86.301 224.906)"/><path d="M112.173,81.889c-3.007,8.721-9.322,15.036-17.442,20.449-3.007-7.819-.3-18.945-13.232-21.652,3.308-2.105,5.413-3.609,7.518-4.21s5.413-.9,6.616,0c1.8,2.105,3.308,5.413,2.706,8.119-.6,3.609-2.706,6.916,1.8,8.721.6.3,4.511-4.812,4.511-7.217,0-4.511-2.105-9.022-3.007-13.532-.6,0-.9.3-1.5.3a1.485,1.485,0,0,0,.3-.9c4.21-2.105,9.022-5.714,12.931-1.8C114.88,72.567,113.376,78.28,112.173,81.889Z" transform="translate(85.699 56.347)"/><path d="M36.2,130.4h.6C37.4,131,36.8,130.7,36.2,130.4Z" transform="translate(-5.226 180.748)"/><path d="M29.5,89.906c-.3.3-.3.6-.6.9v-1.2h0V87.5c0,.3.3.6.3.9A2.711,2.711,0,0,0,29.5,89.906Z" transform="translate(-19.878 94.641)"/><path d="M31.5,89.6c-.6,1.8-1.2,3.007-1.5,3.909Z" transform="translate(-17.671 98.856)"/><path d="M61.106,156c-.9,0-1.8-.3-2.706-.3.3,0,.3-.3.3-.6s0-.3.3-.3h0C59.3,154.8,59.9,155.1,61.106,156Z" transform="translate(39.333 229.723)"/><path d="M33.9,135.452c.9,1.2,1.5,1.5,1.8,1.2C34.5,135.753,33.9,135.151,33.9,135.452Z" transform="translate(-9.843 190.732)"/><path d="M149.3,138.079l-.6.6C149,138.079,149.3,137.778,149.3,138.079Z" transform="translate(220.581 195.924)"/><path d="M163.7,112c0,.6,0,.9-.3,1.2a2.274,2.274,0,0,0,.3-1.2Z" transform="translate(250.086 143.816)"/><path d="M104.1,167.78h-.6C105.3,167.179,106.207,166.878,104.1,167.78Z" transform="translate(129.857 254.634)"/><path d="M47.089,57.3Z" transform="translate(16.362 34.024)"/><path d="M49.911,57.9c-1.8,1.5-3.308,2.706-3.909,6.014L45.4,57Z" transform="translate(13.24 33.422)"/><path d="M30.9,89.5c-.3,1.2-.9,1.2-.9.6C30.3,90.1,30.6,89.8,30.9,89.5Z" transform="translate(-17.671 98.655)"/><path d="M58.8,155.3h-.3l-.3-.3.6.3Z" transform="translate(38.932 230.125)"/><g transform="translate(0 13.274)"><path d="M160,87.5a7.076,7.076,0,0,0,.6,2.406A7.076,7.076,0,0,1,160,87.5Z" transform="translate(243.262 81.367)"/><path d="M426.756,318.394c5.112-13.532,8.721-27.666,13.532-41.5-1.8,3.609-1.2,1.2-.9-1.8-.3.9-.6.9-.9.6a94.874,94.874,0,0,1-6.616,8.721c-1.8,2.1-3.909,4.21-6.014,6.315h0v-.6a1.1,1.1,0,0,1-.3.9A98.174,98.174,0,0,1,407.51,303.96c-10.224,5.714-21.351,7.819-33.079,4.511-3.909-.9-6.315,0-9.623,3.007-4.511,4.21-11.127,6.315-17.442,9.623.9,5.413-3.308,9.022-11.427,7.518-4.511-.9-9.022-2.406-13.532-3.609-4.811,7.819-12.63,9.623-20.749,11.127,0,2.706.9,6.315-.3,7.518-1.5,1.5-5.112,1.5-7.518,1.5-10.826.3-18.344-7.217-27.065-11.728-5.413,16.239-12.029,31.876-24.358,44.506-1.2,1.2-.9,3.308-1.8,4.811-3.308,6.917-5.714,14.735-10.525,20.148-4.812,5.112-11.127,8.721-15.337,14.735-1.5,2.406-5.413,3.609-8.721,4.21-7.819,1.5-15.337,3.308-18.945,11.728-4.511-4.811-2.105-20.749,3.308-32.177-3.308,2.406-7.217,4.21-9.322,7.217-2.406,3.308-3.007,7.518-4.511,12.63-1.2-2.1-2.706-3.308-2.706-4.811-1.5-9.322-2.1-18.644,1.5-27.967,1.8-4.812,5.413-7.518,10.224-9.924,10.826-6.014,23.155-8.721,33.981-15.337,7.518-4.511,12.63-8.721,15.938-16.84,2.406-6.315,5.714-12.029,8.42-18.043-9.022-6.917-18.043-13.532-27.365-20.75-2.406,4.511-4.511,9.623-7.518,13.833-6.014,8.721-12.931,16.84-19.246,25.561-1.2,1.5-2.406,3.609-2.1,5.112,2.706,11.127-3.609,18.644-10.826,24.96-4.511,4.21-10.525,6.616-16.239,9.924,3.007,5.714,6.014,11.728,9.021,17.742.6,1.2.9,2.706.3,3.609-.3.6-2.406.9-3.609.6-5.714-.9-11.127-3.007-17.141-2.1-3.308.3-7.819-3.007-10.525-6.014-5.112-5.112-9.322-5.112-13.232.6-.3.3-.3.6-.6.9h0a.3.3,0,0,0-.3.3c0,.3-.3.3-.6.3h-.3l.3.3a8.14,8.14,0,0,1-2.406-.9,17.19,17.19,0,0,1-2.406-2.105,84.294,84.294,0,0,1,0-8.721c.3-3.609.6-7.217.9-10.224-3.609.3-6.616.6-9.322.9,0-3.308-1.5-7.217-.3-9.623,6.014-10.525,17.442-24.358,32.177-21.652,1.8.3,3.909-.9,5.714-1.5,1.5-.6,3.007-1.8,4.21-1.8,13.232.9,17.442-9.322,22.554-18.344,3.308-5.714,6.917-11.427,10.525-17.742-11.126,1.5-19.847,11.127-31.876,8.42-1.2,5.714-4.511,6.014-8.119,3.609-1.2,2.1-1.5,4.811-3.308,5.714-1.2.6-3.609-1.2-5.714-1.8-.6.9-1.5,2.706-3.007,5.112l-6.616-6.616c-6.616,3.308-12.931,6.917-15.637,14.735-1.5,4.21-4.511,4.812-7.819,2.105-4.511-3.609-8.721-7.217-13.232-10.826-6.616,3.909-7.518,3.609-12.63-2.706-6.916-8.721-16.239-16.539-18.945-27.967a29.35,29.35,0,0,1-.6-11.427c1.2-5.112,6.315-6.616,14.134-5.112,4.811-9.021,9.623-18.043,14.134-27.365a23.307,23.307,0,0,0,2.105-9.022c-.6-12.931,1.8-24.96,8.119-36.387,1.8-3.308,1.5-6.014-.9-9.623-6.916-9.623-7.819-21.351-7.819-32.778,0-16.84,6.616-31.275,17.442-43.6,8.119-9.623,20.148-12.63,32.778-12.029,9.022.3,11.728,8.42,15.637,14.434,2.105,3.007,2.706,6.917,3.909,9.924,8.119-6.315,15.637-13.532,24.358-18.945,27.065-17.442,53.227-4.511,64.354,21.952a18.532,18.532,0,0,1-2.105,18.043c-1.8,2.706-3.909,5.413-6.014,8.119l1.2,1.2c3.609-2.406,7.217-4.811,10.525-7.217,4.511-3.007,8.721-5.714,13.232-8.721,3.909-2.406,7.819-3.909,9.623.9,9.022-6.616,17.442-13.232,26.463-19.246a103.358,103.358,0,0,1,15.337-7.518c1.8-.6,3.909,0,6.014.3a41.775,41.775,0,0,1-1.8,5.714c-.6,1.2-1.8,2.406-2.406,4.511,2.406-.9,4.812-2.406,7.217-2.406,2.1,0,4.21,1.5,5.112,1.8,11.427-5.112,22.253-9.924,33.38-14.434,2.1-.9,5.112.3,7.518.6-.6,2.406-.6,5.112-1.5,7.518-.6,1.8-2.406,3.007-3.609,4.511a7.974,7.974,0,0,1,1.5,1.8c2.105-1.8,5.112-3.007,6.014-5.112,3.007-6.014,6.014-12.329,7.518-18.945a65.3,65.3,0,0,1,2.105-7.217q-4.511-4.962-9.924-9.924h0l.3-.6c-1.8-1.5-3.308-2.406-2.706-1.5-1.5-1.5-3.007-2.706-4.511-4.21,3.609,1.5,3.909-3.007,2.1-7.217h.3l-.3-.3a.3.3,0,0,0,.3.3c-.3.3-.6.6-4.811-1.8.9,1.5,7.217,8.119,3.308,6.315C360.6,82.932,362.1,82.932,360,80.527c.9,2.406-5.714-2.105-7.518-1.2-2.406-1.8-5.112-3.609-7.819-5.413h0v-1.8h-2.105l2.105,1.8A195.019,195.019,0,0,0,320.3,60.078c.3,0,.3-.3,0-.6l-3.308-1.2c-2.406-2.406,6.917,1.2,3.007-1.2,2.406.6,4.811,1.2,7.518,2.105,1.2.6,2.706.9,3.909,1.5a16.56,16.56,0,0,1,4.21,2.706v2.105c0-.6-2.706-2.706-4.511-3.308,3.007,1.2,7.518,6.917,10.826,6.616-1.2-1.2-2.105-2.406-3.308-3.609,4.511,1.8,10.826,3.308,15.337,7.217-1.2-3.007-1.2-.6-3.609-4.811,1.8,4.21-12.931-8.42-9.322-2.706-2.706-4.21-6.014-4.811-10.224-9.322,0,.6,1.2,2.105-3.007-.6h-1.2c.9.9,1.8,1.5,1.8,2.105-1.5,0-3.909-.9-6.315-1.8s-5.112-1.8-6.315-2.105c-2.706-1.5,1.5,0,.3-1.5-1.5-.3-2.706-.3-4.21-.6,0-1.5-6.616-5.112.3-3.007l-6.014-2.406a36.193,36.193,0,0,0-11.427-4.511c-3.007-1.2-7.819-.6-4.811-.9-3.308-.6-6.616-1.2-9.924-1.5v-.3c-4.811-1.2-9.924-1.5-15.036-2.105a79.624,79.624,0,0,1-16.239-2.706h-5.413a58.039,58.039,0,0,1-6.917-.3l-1.2-1.2c-2.105,0-5.413,0-8.42-.3-3.007,0-5.714-.3-6.315.6-2.406-1.2-7.819-1.5-13.232-.3a82.432,82.432,0,0,0-8.42,1.5c-2.706.6-5.112.9-6.917,1.2v1.5a68.187,68.187,0,0,0-7.518,1.8,57.263,57.263,0,0,0-8.42,3.007l.6,1.2c-2.406,1.2-6.014,1.8-9.924,3.007-1.8.6-3.909.9-6.014,1.5a35.377,35.377,0,0,0-6.014,2.105c.3-.6,2.406-1.5,4.21-1.8A23.2,23.2,0,0,0,151,49.252c-2.406,1.2-4.812,2.406-7.217,3.909s-4.511,3.007-6.616,4.21a28.363,28.363,0,0,1-6.916,3.007,11.3,11.3,0,0,1-4.811,2.706c.3,0,.3-.3.6-.3-.3,0-.6.3-.9.6a14.658,14.658,0,0,0-3.308,1.2l2.706-.9c-1.5.9-3.909,2.706-6.014,4.21l-1.8-.6a23.724,23.724,0,0,1,4.811-3.007c-3.308.9-7.518,1.5-6.616,2.406l1.5.6c-.3,0-.3.3-.6.3-2.406.9-1.5,1.8.3,1.8a19.454,19.454,0,0,0-2.406,2.706c-3.007-.6-5.413,4.511-9.022,4.511-.3.9-3.007,3.308-5.112,5.714-1.8,2.105-3.609,4.21-3.909,5.714h0v.6c-.3-.3-.9.3,0-.6a16.475,16.475,0,0,0-6.014,6.014l-2.105-.6a56.971,56.971,0,0,0-2.706,6.315c-3.609,2.105-5.112,2.706-3.308-.9-2.706,4.21-3.609,5.714-4.511,7.217a49.287,49.287,0,0,0-3.609,6.616l-.6-1.2c-1.8,2.406-3.308,6.916-5.112,7.518-2.706,1.8-7.518,8.42-12.63,16.239-4.811,7.819-9.623,17.141-13.833,24.358,2.406-.9,1.2.9-.3,3.007-1.2,2.105-3.007,4.511-1.8,5.413-1.2.6-2.406,2.706-2.105-.3a66.082,66.082,0,0,1-3.609,9.623,15.662,15.662,0,0,0-1.5,8.42c-1.2.6-.6-2.1-1.5-1.5,0,.6,0,2.706-.9,3.609-.6.6-.3-1.5-.3-2.706-1.2,4.21-1.2,6.616-.3,8.42a5.863,5.863,0,0,0,2.706,2.706,26.465,26.465,0,0,0-1.8,5.112,11.689,11.689,0,0,0,.6,4.511c-.9,1.5-2.406,3.609-1.5-1.5-.3,1.5-1.5,6.014-2.105,10.224s-.9,8.119,0,8.42c-.6.9-.6,4.21-.3,5.112a106.466,106.466,0,0,0-.6,13.833l.3-1.8c2.105,2.706.6,5.413.9,10.826h-.3c-.6,6.014-.3,7.518,0,8.721s.3,2.707.3,8.721l1.5-.9c1.5.3,1.5,3.007,1.2,6.616,0,3.308-.3,7.819.9,11.127l.3-2.706c.9,1.8.3,4.511-.3,7.518s-1.5,6.014-.9,7.819c0,.9-.9-1.2-1.2-2.406.9,10.525,2.105.9,4.511,8.119-.6,1.5-3.007-.9-1.8,3.909,0,1.2,2.105,4.511,3.909,8.42a33.24,33.24,0,0,1,5.112,11.728c0-1.8.3-3.308,2.105-.6,2.406,4.812,3.609,14.434,8.119,17.442v1.2c1.2,1.5,3.007,4.511,5.112,6.917s3.909,4.811,5.112,5.413c-.6,1.5.3,3.308,1.8,5.413A52.35,52.35,0,0,0,68,370.117c4.21,4.21,8.119,7.819,6.315,9.322a82.859,82.859,0,0,0,8.721,9.022h-.6c5.413,6.014,8.42,7.217,11.127,8.119,1.2,1.5,0,.9-.3.9,4.21,4.21,6.616,6.616,9.022,8.119a56.378,56.378,0,0,0,9.623,4.812v1.8c2.406.9,12.931,11.728,24.057,15.337a2.348,2.348,0,0,1-1.5,0c6.014,2.406,12.63,6.616,18.945,9.623,6.014,3.007,11.728,5.112,14.735,3.308a76.247,76.247,0,0,0,8.721,1.2c-10.525-3.308,2.1-1.8-1.8-3.909a18.011,18.011,0,0,1,6.014,2.406c1.5.9,1.5,1.5-.9.9l-.9-.6c-2.706,2.406,12.931,4.21,12.329,6.014,21.351,3.909,43,6.315,63.451,4.21l-2.706-1.8,7.217-.9c1.8.3,2.706,1.5-2.406,2.1,3.007.9,8.42-2.1,8.42-2.706,9.924-.9-3.308,3.308-.3,2.706l4.21-.9h-.9c3.308-1.5,3.308-2.406,9.322-3.609,3.909-.3,2.406.9,3.909.6a9.484,9.484,0,0,0,2.406-.6,73.782,73.782,0,0,0,8.721-2.406l-3.909-.6c3.609-1.8,8.119-2.406,3.609-3.007,3.308.6,11.427-1.8,18.945-4.811,3.909-1.5,7.217-3.308,10.224-4.511a57.548,57.548,0,0,1,6.014-2.706c2.105-1.8,4.511-3.308,6.917-5.112,2.406-1.5,5.112-3.007,8.119-4.812-1.5.6-3.609-.6,1.5-3.609.3,2.105,2.706,1.2,5.714-.6s6.616-3.909,9.322-4.511c-1.8.3,1.5-2.406,4.21-4.811,3.007-2.707,5.413-5.413,1.8-4.21,3.909-3.007,1.2.9,4.511-.9,7.819-8.721,19.547-17.141,27.967-29.17-.3-.6-2.406.9-1.2-2.1,2.406-1.5,4.511-3.007,6.616-4.511,1.5-2.406-.9-3.909,3.308-7.217-.9.3-1.8.9-.9-.9C415.63,345.158,421.945,331.926,426.756,318.394ZM364.808,88.947a46.861,46.861,0,0,0-6.014-4.812A11.372,11.372,0,0,1,364.808,88.947Zm-7.217-6.014Zm-55.633-37.89h0c-.6-.3-.9-.3-1.2-.6C301.056,44.741,301.357,44.741,301.959,45.042Zm-42.1-3.909a38.107,38.107,0,0,1,12.329-.9c7.819.9,3.007,2.406,4.21,2.105a70.139,70.139,0,0,0,8.119,1.5,28.8,28.8,0,0,0,5.112,0,18.309,18.309,0,0,1,11.127,2.706c3.909,3.007-.9,3.007-.3,4.511a33.04,33.04,0,0,1-7.217-2.706,32.591,32.591,0,0,0-5.714-2.406l4.811,2.1a26.342,26.342,0,0,1-8.119-1.8,4.9,4.9,0,0,0,1.8.9,218.039,218.039,0,0,0-28.568-5.413A7.077,7.077,0,0,0,259.858,41.133Zm-34.883-1.8c-.3.3.3.9.9,1.2-2.1,0-3.909.3-6.014.3A46.385,46.385,0,0,1,224.975,39.328Zm-41.5,3.308h6.315a45.512,45.512,0,0,1,7.819.6c.3,0,.6.3.9.6a61.59,61.59,0,0,0-7.217,1.5l-.6-2.105-.3,2.406h0c-2.406.6-4.812.9-7.217,1.5C182.574,45.042,182.574,43.538,183.476,42.636ZM147.089,54.966l2.1.3c1.8-1.2,3.909-2.706,6.014-3.909l-6.014,7.518c-3.308,1.5-6.917,3.308-10.224,5.112A25.589,25.589,0,0,1,147.089,54.966ZM85.442,100.675c.3.9.9,1.2,2.105,1.8a46.258,46.258,0,0,0-3.609,3.909A40.059,40.059,0,0,1,85.442,100.675ZM32.516,207.129a73.925,73.925,0,0,1,.6-8.42c.6-.9.9,0,1.5,1.5v-1.5c.6-.9.9-1.5,1.2-1.5-.3,1.2-.6,2.706-.9,3.909,0,.3-.3.6-.3.9h0c0,.6-.3,1.2-.3,1.8A27.228,27.228,0,0,1,32.516,207.129Zm250.8,238.77h-1.5C284.818,444.7,284.216,445.3,283.314,445.9Z" transform="translate(-25.9 -31.345)"/><path d="M161.931,78.762c-.3-.6-.6-1.5-1.2-3.007-.3,1.2-1.8-3.007,1.2,3.609Z" transform="translate(243.436 57.327)"/><path d="M160.7,76.95c1.2,3.007,0-2.105,0,0Z" transform="translate(244.667 59.138)"/><path d="M161.1,77.3c0-.9-1.5-4.511-.6-3.308-2.1-3.909-2.1-2.706-1.8-.3Z" transform="translate(240.357 49.169)"/><path d="M159.231,73.6c-.6,0,.3.6,1.5,2.105L158.329,71.8h0C158.028,72.7,157.427,73,159.231,73.6Z" transform="translate(239.22 49.854)"/><path d="M158.8,75.7c3.308,7.217,4.21,5.714.9-1.8C160.3,76.306,161.206,79.313,158.8,75.7Z" transform="translate(240.853 54.069)"/><path d="M157.7,72.5h0l1.8,2.706Z" transform="translate(238.645 51.259)"/><path d="M144.1,51.7a18.246,18.246,0,0,0,2.105,3.007C145.6,53.805,144.7,51.7,144.1,51.7Z" transform="translate(211.348 9.51)"/><path d="M146.316,54.615l1.5,1.2A31.253,31.253,0,0,1,143.91,50.1c-3.007-1.8-3.609-1.8-4.21-1.8,2.406,2.105,4.812,4.21,7.217,6.616Z" transform="translate(202.516 2.686)"/><path d="M148.715,56.914c-2.105-.3-5.714-3.007-4.811,0,4.21,3.909,3.609,2.105,6.315,4.21-6.315-6.917,2.706,1.2-1.5-4.21l2.406,2.406,1.2,1.2c-.3-.6-.9-.9-1.2-1.5a16.682,16.682,0,0,0-1.8-2.406v.3h0c.3.3.3.6,0,0h-.6c-1.8-2.105,0-.6.6,0h.3c-2.406-2.105-4.811-3.909-7.217-6.014A85.47,85.47,0,0,1,148.715,56.914Z" transform="translate(207.936 7.904)"/><path d="M143.211,48.7c-1.5-.6-3.308-.9-4.811-1.5l3.007,1.8Z" transform="translate(199.907 0.478)"/><path d="M138.906,46.1l-2.706-.9,1.5,1.8Z" transform="translate(195.491 -3.537)"/><path d="M109.617,33.9a42.011,42.011,0,0,0-7.217-1.8C106.009,33.6,108.715,34.806,109.617,33.9Z" transform="translate(127.649 -29.831)"/><path d="M108.12,32.9a13.215,13.215,0,0,0-8.42-.6,2.711,2.711,0,0,0,1.5.3A27.778,27.778,0,0,1,108.12,32.9Z" transform="translate(122.229 -30.329)"/><path d="M125.1,38.5c2.105.9.6,0,0,0Z" transform="translate(173.212 -16.985)"/><path d="M127.1,41.9c.3-.3.6-.3,1.2-.3C127.7,41.6,127.4,41.6,127.1,41.9Z" transform="translate(177.226 -10.762)"/><path d="M125.3,38.6a11.354,11.354,0,0,0,2.406,1.5A6.547,6.547,0,0,1,125.3,38.6Z" transform="translate(173.613 -16.784)"/><path d="M126,38.9a6.574,6.574,0,0,1,1.5.9C127.8,39.8,127.8,39.5,126,38.9Z" transform="translate(175.018 -16.182)"/><path d="M126.906,39.3c-.6-.3-1.5-.6-2.706-1.2a27.942,27.942,0,0,1,3.007,1.5Z" transform="translate(171.405 -17.788)"/><path d="M134.61,43.305A27.494,27.494,0,0,0,130.4,41.2c2.105,1.2,2.706,1.8,3.308,2.706C134.009,43.606,133.407,42.7,134.61,43.305Z" transform="translate(183.85 -11.565)"/><path d="M132.215,44c-.3,1.2,2.406,2.406,5.112,4.21-.3,0-.3-.3-.6-.3C138.53,47.007,135.523,45.5,132.215,44Z" transform="translate(187.447 -5.945)"/><path d="M136.506,47.3c.6-.3-.9-.9-2.406-1.8C135,46.1,135.6,46.7,136.506,47.3Z" transform="translate(191.276 -2.934)"/><path d="M124.641,38.767c1.2.9,1.5-.9,2.105-.3C129.152,37.865,116.522,36.06,124.641,38.767Z" transform="translate(166.754 -19.356)"/><path d="M125.1,41.122l4.21,2.706c0-.3.6,0,1.5.3C128.107,42.626,125.1,40.821,125.1,41.122Z" transform="translate(173.212 -11.788)"/><path d="M130.709,43.9c-.9-.3-2.406-1.5-3.609-1.8A40.161,40.161,0,0,0,130.709,43.9Z" transform="translate(177.226 -9.759)"/><path d="M106.189,35c-.6.3.9.9,3.007,1.2,1.5,0,3.308,0,2.706-.6Z" transform="translate(134.986 -24.01)"/></g><path d="M33.933,119.6l-.3,3.308c-.6-1.8-.6-2.706-.3-3.609Z" transform="translate(-11.379 158.469)"/><path d="M40.9,136.7l-.9,1.5.6-2.406Z" transform="translate(2.401 191.587)"/><path d="M52.909,149.608c-.9,1.8-1.2-.6-3.609-3.308C50.2,147.5,51.706,148.405,52.909,149.608Z" transform="translate(21.068 212.663)"/><path d="M324.163,162.935c-3.609-3.007-9.021-4.511-13.833-5.714h0c-6.916-1.8-11.728,2.406-16.239,6.917-3.909-6.315-1.8-9.924,8.42-14.434-7.518-17.742-7.518-22.253.9-29.47.6-.3.9-.9,1.5-1.2a10.547,10.547,0,0,0-2.406-1.5,74.454,74.454,0,0,1-7.819-5.714c-1.8-1.5-3.609-3.308-3.909-5.112-.3-.9,2.406-2.706,4.21-4.511-5.413-3.909-10.525-8.721-16.539-11.728-5.714-3.007-6.616-3.909-2.1-8.721l3.308-3.308c-.3-.3-.3-.6-.6-1.2-6.917,2.406-14.134,4.811-21.05,7.217l-1.8-1.8c1.8-3.609,3.609-7.217,5.413-11.127-.3-.3-.3-.9-.6-1.5l-24.358,9.924c-2.105.9-4.511.6-6.616.9-.3-2.406-1.2-5.112-.6-7.217.9-3.007,3.007-5.714,4.511-9.022C221.318,67.908,212,75.125,202.673,82.042c-1.8,1.5-4.811,3.007-6.616,2.406-1.5-.6-1.8-3.909-3.007-6.616-3.909,1.2-8.42,2.706-13.833,4.21-.3-3.308-.3-6.014-.6-8.42-.6.3-.9.3-1.2.6-11.127,9.022-21.952,18.344-33.079,27.365-1.5,1.2-3.308,1.5-5.112,2.406a36.682,36.682,0,0,1-2.105-5.112c-.3-.6,0-1.5,0-3.609-15.637,12.63-30.372,24.659-45.408,36.688,3.609,3.909,6.014,6.917,8.42,9.623,1.5,1.5,3.308,3.007,4.811,4.511,6.917,6.014,6.315,9.623-.3,12.029,2.706,2.706,6.014,5.714,9.022,9.021-3.609,2.406-6.917,4.811-10.826,7.217,3.909,3.308,8.42,6.917,12.931,10.826-1.5,5.714-4.21,9.022-10.525,7.819.3,5.714-1.5,9.924-8.42,9.623,4.21,11.728.9,21.05-8.721,27.967,11.127,7.819,21.952,15.637,33.68,24.057,2.706-9.924,6.917-18.644,6.616-27.065s-5.112-16.84-7.819-25.26c4.511-.3,9.924,3.909,12.029,9.021,5.714,13.232,4.811,26.162-.9,39.093s-11.427,25.862-17.141,39.093c-.6,1.5-2.105,3.909-1.5,4.812,3.609,4.811-.9,6.315-2.706,9.322-6.014-5.413-16.84-3.609-18.344,2.406-.9,3.909-1.5,7.819-2.706,11.427-1.2,4.21,0,6.917,5.112,8.721,1.2-6.014,2.105-11.728,3.308-17.442h3.007c0,4.811,1.2,9.623,0,13.833-1.2,4.511-4.511,8.42-6.917,12.63.6.3,1.2.9,1.8,1.2,1.8-2.105,3.909-3.909,5.413-6.315,7.518-12.329,12.029-26.463,21.652-37.59a15.912,15.912,0,0,0,3.308-6.315c5.112-13.232,9.623-26.764,14.735-39.695,3.909-9.623,6.917-19.547,7.217-30.072,0-4.21,1.2-8.721,1.8-12.931.6-.3.9-.3,1.5-.6,2.706,3.909,5.413,8.119,8.119,12.029.6,0,1.2-.3,2.1-.3,0-4.811-.3-9.924,0-14.735,0-1.2,1.2-2.406,1.8-3.609.9.9,2.406,1.8,2.406,2.706.6,5.112,1.2,10.224.6,15.036a11.738,11.738,0,0,1-5.112,7.819c-1.2.9-4.511-1.8-6.616-2.406-1.5,6.916-2.406,14.134-4.511,21.351s-5.413,14.134-8.119,21.05c8.119,3.609,15.637,6.616,22.854,9.924a7.64,7.64,0,0,0-.9-3.609c-.9-2.105-1.8-3.909-2.706-6.014a48.712,48.712,0,0,1,6.616.3c7.518,1.2,14.735.3,21.351-5.413a19.628,19.628,0,0,1-3.007-4.511,38.884,38.884,0,0,1-2.105-6.315c2.105.6,4.511.9,6.014,1.8a58.56,58.56,0,0,0,25.26,8.42c.3-.6.3-.9.6-1.5-1.2-.9-2.706-1.5-3.609-2.706a52.253,52.253,0,0,1-3.007-5.714c2.105,0,4.21-.6,6.014,0,7.217,2.105,13.532.9,18.043-3.909-1.5-3.308-2.706-6.014-4.21-9.022,2.406,0,4.511.3,6.917.3a31.948,31.948,0,0,0,.9-4.21c-13.833-3.909-26.463-9.322-32.177-24.358a11.34,11.34,0,0,1,6.315,2.105c6.315,3.909,12.029,9.022,18.644,12.029,6.315,3.007,13.532,3.609,20.449,5.714A7.221,7.221,0,0,1,255,229.694c.3.9-2.1,3.007-3.909,6.014,6.014-.6,11.728-.3,16.84-1.8,15.337-4.21,26.162-14.134,35.485-26.162a74.456,74.456,0,0,0,5.714-7.819c.3-.3.3-.6.6-.9a22.892,22.892,0,0,0,3.308-13.232,12.067,12.067,0,0,0-.9-4.511c-.9-2.706-.9-5.714-1.2-8.42.6-.3,1.5-.3,2.105-.6,6.917,4.811,6.917,12.931,7.819,21.351C329.877,179.173,331.38,168.949,324.163,162.935ZM179.518,150.906c-2.406-.9-5.112-1.8-7.217-3.609-1.8-1.5-3.308-3.909-5.112-6.315-2.706,3.007-4.812,5.714-7.217,8.42-.6,0-1.5-.3-2.105-.3-.3-6.014-.9-12.029-1.2-18.344-3.007,3.609-6.315,6.917-10.525,11.728-.3-3.308-1.2-5.413-.6-6.315a159.24,159.24,0,0,1,10.224-13.532,5.219,5.219,0,0,1,4.21-.9,4.123,4.123,0,0,1,1.8,3.909,126.229,126.229,0,0,1-1.2,13.232c6.014-5.112,9.623-2.406,12.931,1.8,1.8,2.105,4.511,3.609,6.616,5.413.9.9,1.5,1.8,2.406,2.706C181.623,149.4,180.119,151.207,179.518,150.906Z" transform="translate(98.946 48.676)"/><path d="M184.447,131.38c9.623-10.826,18.945-21.652,28.267-32.778,4.511-5.413,3.909-11.427,0-16.84a80.222,80.222,0,0,0-12.63-14.134c-6.616-6.014-14.735-8.119-23.757-6.616-16.239,2.706-29.17,12.329-38.793,24.358-7.217,9.022-10.224,21.652-15.637,33.981,8.119-5.413,8.721-5.413,12.63,0,5.714-5.413,6.014-5.413,11.728.3-1.5-5.714-3.909-10.826-5.714-16.239-.6-1.5.6-3.609.9-5.714,1.5,1.2,3.308,2.1,4.511,3.609a17.537,17.537,0,0,1,2.406,5.413c3.609-4.811,6.315-10.224,10.525-13.833,9.924-8.42,21.952-12.931,34.883-15.337,6.014-1.2,10.525,2.706,12.329,8.721,2.105,7.217-1.8,12.931-4.511,18.945-5.112,11.127-15.637,17.141-24.358,24.358-8.119,6.315-19.547,4.21-21.952-7.217-.6-2.706-1.8-5.413-2.706-8.119-.9,2.406-.3,4.511-.9,6.014-1.2,3.308-2.706,6.616-4.21,9.924-2.706-1.5-5.112-3.007-8.119-4.511-6.014,6.014-6.014,6.014-12.329-.6-2.406,2.406-4.811,5.112-6.916,7.518-.9,0-1.5-.3-2.406-.3-.6-4.811-.9-9.623-1.5-15.637-5.714,7.217-10.525,13.532-15.637,19.547-1.8,2.105-3.909,4.21-5.714,6.014-1.2-2.406-2.406-4.811-3.909-7.217,0-.3-.3-.6-1.5-2.105-6.616,12.029-17.442,21.351-19.246,35.785,15.036-.9,18.945,15.337,11.728,24.96-1.5,1.8-5.714,2.406-8.721,2.406-1.5,0-3.308-1.8-4.811-2.706-2.105,4.511-3.909,9.022-6.014,13.532,10.224,1.2,20.449,1.8,27.365,11.127-6.014,3.609-10.826.3-15.337-1.5-4.811-2.1-9.021-1.2-13.532.6-3.007,1.2-4.21,3.007-3.308,6.616a53.284,53.284,0,0,1,1.5,22.855c-.6,3.909-2.105,5.112-4.811,4.811-4.511-.6-9.022-2.406-15.337-4.21,5.714,6.917,10.826,12.63,15.637,18.043,1.5-3.909,2.406-6.616,3.609-9.623,2.706,1.2,5.413,2.406,8.721,3.909,0-5.112.6-9.623,7.518-7.518.9.3,2.706-1.2,3.609-2.406,2.406-3.308,3.308-8.721,9.322-5.413.3,0,1.2-1.5,1.8-1.8a35.809,35.809,0,0,0,4.511-2.706c5.413-3.909,12.029-6.616,15.337-11.728a66.642,66.642,0,0,1,31.275-27.065c5.714-2.406,11.728-6.014,18.644-2.105,9.924,5.714,12.029,17.742,5.413,27.666-8.721,12.931-21.652,16.239-35.785,17.742-7.518.9-17.742-4.811-25.862,0-4.812-.3-8.721,6.014-12.329,8.119,2.105,2.406,12.029,12.029,14.434,14.434.6-1.2,1.2-3.909,2.406-6.014,2.105,1.8,3.909,3.007,5.413,4.511.6-2.105,1.5-4.511,2.406-6.916,2.105,1.2,3.308,1.8,3.308,1.8,3.007-1.8,5.112-3.308,7.217-3.909,5.112-1.5,10.224-1.8,15.036-3.308a82.392,82.392,0,0,0,12.029-4.511c8.721-3.609,17.141-7.518,25.561-11.728a23.549,23.549,0,0,0,6.014-4.811c7.819-6.616,8.42-16.539,2.406-24.659-1.5-2.105-2.406-4.812-3.609-7.217.6-.6,1.2-.9,1.8-1.5a28.556,28.556,0,0,1,5.112,3.007c3.007,2.706,5.714,2.105,6.616-1.8.3-1.5,0-3.308.3-5.112l7.217-1.8c-4.811-5.714-12.029-9.322-12.329-17.742a52.109,52.109,0,0,1,5.413-2.406c-2.706-3.909-5.413-7.518-7.819-11.427,2.706-1.5,5.112-3.007,8.119-4.511-1.2-1.2-3.007-3.007-4.511-4.811-4.811-5.413-9.623-10.224-16.84-3.609-.9.9-3.909-.3-6.014-.6.9-2.406.9-5.112,2.406-6.616C176.027,138,181.139,135.289,184.447,131.38ZM122.2,193.327a12,12,0,0,1-9.022,2.105c-11.127-2.406-15.938-10.826-18.344-24.057-.9-4.511-1.5-11.728,4.21-17.742,7.217-7.819,20.148-5.714,27.065,4.811C132.122,168.368,133.927,183.7,122.2,193.327Zm51.423,7.217c3.007,3.909,6.014,8.42,9.022,12.63-.3.3-.9.6-1.2.9,2.706,6.616.6,12.029-4.812,16.239-1.2.9-3.609.3-5.413.3,0-1.8-.6-4.21.3-5.413,5.112-6.616,5.413-11.728.6-18.344-.6-.9-1.8-1.8-2.105-2.706a19.647,19.647,0,0,1,0-4.21C171.216,199.943,173.02,199.643,173.621,200.545Z" transform="translate(0.193 40.537)"/><path d="M107.662,86.587c.3,5.112-2.406,10.224-3.909,15.036-.6,1.8-1.2,3.308-1.5,4.511-11.127,1.8-15.337,12.029-22.854,18.344-3.609-5.112-7.217-4.811-10.826-.3-4.511,5.413-9.021,10.826-13.833,16.84a37.1,37.1,0,0,1-5.413-24.659c.6-4.511.3-9.022.9-13.532,2.406-16.239,7.819-30.673,24.057-37.89,5.112-2.406,11.127-3.007,16.539-3.909,1.8-.3,4.511,1.2,6.014,2.706C102.85,70.348,107.361,77.866,107.662,86.587Z" transform="translate(20.444 41.425)"/><path d="M220.344,127.5c-4.21,2.105-9.623,1.2-14.735,1.5v2.406c-.3,2.105-.6,4.21-.9,6.014-1.8-.9-4.511-1.2-5.713-2.706-3.909-5.112-6.917-10.525-10.525-15.938a13.752,13.752,0,0,0-4.812-4.511c-5.112-2.406-10.826-3.909-15.637-6.616-.3-.3-.6-.3-.9-.6l-.6-.6c-.3-.3-.6-.6-.6-.9-.3-.3-.3-.6-.6-.6h0l-1.8-2.706a12.729,12.729,0,0,0-1.5-2.105,5.664,5.664,0,0,1-.6-2.406,1.808,1.808,0,0,0-.3-1.2c0-.3-.3-.9-.3-1.2s-.3-.9-.3-1.2c-.3-.9-.3-1.5-.6-2.406V89.309a.931.931,0,0,1,.3-.6,6.29,6.29,0,0,1,1.2-1.8,6.576,6.576,0,0,1,1.5-.9c.3,0,.3-.3.6-.3s.3,0,.6-.3h1.8c3.909,0,9.022,2.105,12.029,4.511,5.413,4.511,10.826,9.322,17.141,12.029,8.119,3.609,15.036-.3,18.344-8.721.6-1.8,1.5-3.909,2.1-6.014a10.653,10.653,0,0,1,7.819,9.924c.6,6.014-4.811,10.224-17.141,14.735.3,6.616,2.406,8.119,8.119,5.714,2.706-1.2,5.413-2.406,8.119-3.909C224.254,119.08,226.058,124.794,220.344,127.5Z" transform="translate(243.061 90.426)"/><path d="M160.5,89.906c-.3-.9-.3-1.5-.6-2.406A7.076,7.076,0,0,1,160.5,89.906Z" transform="translate(243.061 94.641)"/><path d="M202.721,65.356C197.909,70.769,192.5,76.783,187.384,82.5c-10.826-9.022-17.742-22.855-35.184-23.155,5.413-5.112,9.322-10.826,15.036-13.833,6.315-3.007,13.833-2.105,20.449,1.5C194.3,51.222,200.616,55.733,202.721,65.356Z" transform="translate(227.606 6.723)"/><path d="M208.715,60.623c-1.2,2.406-5.112,3.308-7.819,5.112-3.007,1.8-5.714,3.609-8.42,5.413C184.958,59.119,174.734,51.9,160.6,48.594c6.315-3.609,12.029-7.217,18.043-9.924C188.567,34.16,204.5,41.978,206.91,52.5,207.512,54.909,209.918,58.518,208.715,60.623Z" transform="translate(244.466 -5.986)"/><path d="M193.211,73.926l-8.119,11.728c-1.2-.9-2.105-1.5-3.308-2.406a26.013,26.013,0,0,1-3.007-2.105c-1.2-.6-2.1-1.5-3.308-2.105l-1.8-.9-1.8-.9-1.8-.9c-.9-.3-1.5-.6-2.406-.9-1.5-.6-3.007-1.2-4.812-1.8a2.253,2.253,0,0,0-1.5-.3c-.3,0-.6-.3-.9-.3s-.6-.3-.9-.3c-1.5-.3-2.706-.6-4.21-.9h-.3a33.14,33.14,0,0,0-5.413-.6H146.6c.3-.6.6-.9.9-1.5l.3-.3c.6-1.2,1.2-2.105,1.8-3.308.6-.9,1.2-2.105,1.8-3.007,0-.3.3-.6.6-.9a106.155,106.155,0,0,1,6.315-9.623c2.406-3.007,14.735.3,18.945,4.511,2.707,2.706,5.413,5.714,8.119,8.42C187.5,67.912,190.2,70.618,193.211,73.926Z" transform="translate(216.366 22.21)"/><path d="M198.232,61.171c-1.2-10.826-4.811-19.847-13.532-25.561,9.022-.6,18.344-1.5,27.365-1.8,5.714-.3,11.427,7.819,11.728,15.036a63.531,63.531,0,0,0,.9,9.322C216.576,59.366,207.555,60.269,198.232,61.171Z" transform="translate(292.839 -13.15)"/><path d="M193.852,63.457C191.747,49.925,186.936,44.211,171.9,37.9c10.224-1.2,18.043-6.315,27.065-2.105C209.49,40.6,216.406,47.82,214.6,61.051,207.986,61.953,201.07,62.555,193.852,63.457Z" transform="translate(267.147 -12.429)"/><path d="M102.831,144.64c-4.811,10.224-12.63,16.239-23.456,19.246-2.406.6-6.616,2.707-6.616,4.21,0,3.007,2.105,6.014,3.609,8.721.6,1.2,2.105,1.8,3.609,3.007-8.119,6.315-10.826,6.616-14.134,1.8-.9-1.5-1.8-3.609-1.5-5.413.3-6.616,6.616-13.532,12.931-15.637,4.511-1.8,7.819-6.315,13.532-6.616a4.49,4.49,0,0,0,.9-3.007c-.6-.9-2.105-2.406-3.007-2.105-4.21,1.2-10.826-3.909-12.63,4.511,0,.3-2.706.9-3.609.3-1.2-.6-2.406-2.706-2.105-3.308,2.105-3.308,3.909-8.721,6.917-9.322,7.217-2.105,14.735-2.406,22.253-2.406C104.335,137.723,104.936,140.129,102.831,144.64Z" transform="translate(51.136 196.881)"/><path d="M183.19,74.985c-2.406,6.917-4.511,13.532-7.217,21.05-.3.9-.6,1.5-.9,2.406-3.007-2.1-5.112-3.609-7.518-5.413a60.208,60.208,0,0,1,4.812-4.21,15.062,15.062,0,0,0,2.105-2.406c.9-1.2,1.8-4.21,1.2-5.112a6.32,6.32,0,0,0-3.308-2.105c-.3,0-.6-.3-.9-.3h-.9a2.711,2.711,0,0,0-1.5.3h-.9a1.808,1.808,0,0,0-1.2.3c-3.609.6-7.217,1.5-10.826,2.105-.6-2.406-.6-6.014-2.406-7.217-2.1-1.5-5.413-1.5-8.42-2.105.6-2.706.6-6.315,2.406-8.119a15.344,15.344,0,0,1,6.014-3.609,4.172,4.172,0,0,1,2.706,0c.6,0,.9.3,1.5.3s.9.3,1.5.3.9.3,1.5.3c.6.3.9.3,1.5.6s.9.3,1.5.6c.3,0,.6.3.9.3s.6.3.9.3C172.365,65.963,178.379,68.971,183.19,74.985Z" transform="translate(213.756 40.096)"/><path d="M198.4,36.433c5.112-1.5,11.127-3.909,17.442-4.511,7.217-.6,7.518,7.217,10.224,11.728,1.5,3.007,3.609,7.518-2.406,9.623s-11.728,4.21-17.442,6.014C203.512,51.168,201.106,43.951,198.4,36.433Z" transform="translate(320.337 -16.98)"/><path d="M112.089,122.2c-2.406,4.511-4.21,9.322-6.917,13.532-6.616,9.924-13.833,19.246-21.05,28.568-1.5,1.8-5.413,1.2-8.119,1.8-.3-.3-.6-.9-1.2-1.2,8.119-12.63,15.637-25.561,24.057-37.89,2.406-3.308,7.819-4.21,11.728-6.014C110.886,121.3,111.488,121.6,112.089,122.2Z" transform="translate(72.251 161.881)"/><path d="M112.173,81.889c-3.007,8.721-9.322,15.036-17.442,20.449-3.007-7.819-.3-18.945-13.232-21.652,3.308-2.105,5.413-3.609,7.518-4.21s5.413-.9,6.616,0c1.8,2.105,3.308,5.413,2.706,8.119-.6,3.609-2.706,6.916,1.8,8.721.6.3,4.511-4.812,4.511-7.217,0-4.511-2.105-9.022-3.007-13.532-.6,0-.9.3-1.5.3a1.485,1.485,0,0,0,.3-.9c4.21-2.105,9.022-5.714,12.931-1.8C114.88,72.567,113.376,78.28,112.173,81.889Z" transform="translate(85.699 56.347)"/><path d="M75.453,140.7c-.3,5.714-.3,11.127-.6,16.84,0,.9,0,2.1-.6,2.706-2.105,3.007-4.21,5.714-6.315,8.721a42.714,42.714,0,0,1-3.909,3.609c-1.5-1.5-3.609-3.007-4.21-5.112-.3-.9,1.5-3.308,3.007-4.21,1.8-1.2,4.21-1.2,6.014-2.1.9-.6,2.406-2.105,2.406-2.707-.3-1.2-1.5-2.406-2.406-3.609h-.6c-5.112,0-10.525-.3-9.322-7.518C59.515,142.805,70.04,138.9,75.453,140.7Z" transform="translate(40.023 200.52)"/><path d="M207.6,34.036c4.811-1.5,9.322-3.308,13.833-4.21,1.5-.3,4.511,1.2,5.112,2.406,1.2,2.406,3.007,6.616,1.8,8.119-3.007,4.21-7.518,7.518-11.728,11.728-1.8-4.21-2.706-7.217-3.909-9.924C211.209,39.75,209.4,37.043,207.6,34.036Z" transform="translate(338.803 -21.199)"/><path d="M104.955,159.016c-4.511,3.909-3.308,12.63-11.127,13.833-1.8.3-3.909,1.2-5.714,1.2a45.612,45.612,0,0,1-6.315-.9c.6-2.406.3-6.014,1.8-7.518,3.308-3.007,7.819-5.112,11.728-7.518a85.266,85.266,0,0,0,6.917-5.714C102.85,154.505,105.256,158.715,104.955,159.016Z" transform="translate(86.301 224.906)"/><path d="M90.544,124.636c-.6.9-2.105,2.706-3.609,4.811-8.42-2.1-11.728-8.721-15.036-16.539l6.616-3.308C82.425,114.712,86.334,119.223,90.544,124.636Z" transform="translate(66.43 138.999)"/><path d="M92.015,160.329c-3.308.6-6.014.9-8.42,1.8s-4.21,2.406-6.616,3.609c-1.5-8.119,3.308-13.833,14.735-17.441C91.714,152.209,92.015,156.119,92.015,160.329Z" transform="translate(76.086 216.677)"/><path d="M69.244,132.819c-7.217,7.819-7.518,7.819-18.344-1.8,3.007-1.8,6.315-3.909,9.623-6.014C63.229,127.406,66.237,130.112,69.244,132.819Z" transform="translate(24.279 169.91)"/><path d="M86.444,127.137c-2.706-.9-8.721,4.511-9.924,3.308-3.909-3.909-4.21-9.623-8.42-14.134,2.105-1.8,3.609-3.007,5.112-4.511C77.122,118.115,81.332,119.919,86.444,127.137Z" transform="translate(58.803 143.415)"/><path d="M92.42,146.6c-.6,4.511-.6,8.42-1.5,12.329-.3,1.5-2.406,2.706-3.609,3.909-1.2-1.2-3.308-2.706-3.308-3.909A31.242,31.242,0,0,1,86.105,148.4C87.007,147.5,90.014,147.5,92.42,146.6Z" transform="translate(90.717 213.265)"/><path d="M64.74,136.057c-1.5,1.8-3.007,3.007-4.511,4.812-3.909-3.308-7.819-6.917-12.329-10.826C55.719,126.735,59.327,132.749,64.74,136.057Z" transform="translate(18.258 178.099)"/><path d="M220.012,39.467c-1.8-2.706-3.308-4.511-4.812-6.916,3.007-1.8,6.014-3.909,9.022-5.413,1.2-.6,2.706.3,4.21.3-.3,1.2,0,2.706-.9,3.609C225.424,33.754,223.019,36.16,220.012,39.467Z" transform="translate(354.058 -26.931)"/><path d="M84.619,119.826c-3.308-4.511-5.714-7.518-8.119-10.826C84.619,109.6,86.123,112.007,84.619,119.826Z" transform="translate(75.663 137.795)"/><path d="M78.568,127.43c-4.21,0-5.714,2.105-8.721,2.406-3.007-4.811-7.217-11.127-.6-15.036C71.952,118.409,74.959,122.318,78.568,127.43Z" transform="translate(54.049 149.437)"/><path d="M265.194,134.911l-.3,12.931c-.3,23.155-14.134,39.394-38.492,39.093s-37.89-17.141-37.289-40.3l.9-60.143c.3-23.155,14.434-39.394,38.492-39.093S266.4,64.243,265.8,87.7l-.3,12.63-27.064-.3V91.307c0-5.714-.3-16.539-10.525-16.84s-11.127,10.826-11.127,16.539l-.9,52.024c0,5.714.3,16.539,10.525,16.84s11.127-10.826,11.127-16.539V134.31Z" transform="translate(301.658 14.15)"/><path d="M296.189,49.5l-2.105,134.12-28.568-.3.9-54.731-19.847-.3-.9,54.731-28.568-.3L219.2,48.6l28.568.3-.9,52.325,19.847.3.9-52.325Z" transform="translate(357.872 16.562)"/><path d="M299.831,183.521l-2.706-23.456-21.351-.3-3.308,23.456-27.666-.3L266.452,49.1l43.6.6L327.5,184.122Zm-19.847-48.415,13.532.3L287.5,77.668Z" transform="translate(413.47 17.565)"/><path d="M301.068,148.241c0,6.315,2.406,12.931,11.127,12.931,9.322,0,11.427-6.315,11.427-11.427,0-5.413.9-12.931-13.532-19.547-23.155-10.826-34.883-20.148-34.583-42.4C275.808,62.536,291.445,48.4,314,48.7c24.358.3,37.891,15.036,37.289,40.3v7.518l-26.764-.3V88.7c0-5.714-2.406-13.232-11.127-13.232-9.322,0-11.427,7.819-11.427,12.329,0,6.315,1.8,10.224,16.239,16.84,18.344,8.42,32.477,17.141,32.177,44.506-.3,24.96-14.134,39.394-38.492,39.093-28.869-.3-37.59-20.148-37.289-40.3l.3-11.127,26.463.3Z" transform="translate(473.279 16.759)"/><path d="M379.382,158.66l-.3,26.463L303,183.92l.3-26.463,24.058.3,1.2-81.194-23.155-.3.3-26.463L380.285,51l-.3,26.463-23.155-.3-1.2,81.194Z" transform="translate(530.288 18.97)"/><path d="M380.417,185.021,359.968,117.36l-1.2,67.361-27.365-.3L333.505,50.3l27.365.3,20.449,68.864.9-68.564,27.064.3-2.105,134.12Z" transform="translate(587.292 19.974)"/><path d="M436.695,110.648l-.6,39.695c-.3,23.155-14.134,39.394-38.492,39.093s-37.89-17.141-37.289-40.3l.9-60.144c.3-23.155,14.434-39.394,38.492-39.093S437.6,66.743,437,90.2v7.819l-27.065-.3V93.808c0-5.714-.3-16.539-10.525-16.84s-11.127,10.826-11.127,16.539l-.9,52.325c0,5.714.3,16.539,10.525,16.84s11.126-10.826,11.126-16.539v-9.022l-12.93-.3.3-26.764Z" transform="translate(645.286 19.168)"/><path d="M265.781,202.641l24.659,72.774h-37.59L230.9,208.956h-5.714v66.459H189.7V101.6h47.814c35.485,0,50.521,28.568,50.521,53.528C287.734,177.682,280.817,194.221,265.781,202.641ZM230.6,174.374c19.847,0,22.253-11.127,22.253-19.246,0-7.217-2.406-19.246-20.75-19.246h-7.217v38.492Z" transform="translate(302.875 122.942)"/><path d="M296.47,275.415l-3.909-30.373H264.895l-3.909,30.373H225.2L250.46,101.6H307l25.26,173.815Zm-26.463-62.549h17.742l-8.721-74.578Z" transform="translate(374.13 122.942)"/><path d="M294.474,137.385H263.5V101.6h98.635v35.785H331.161V275.415H294.474Z" transform="translate(451.004 122.942)"/><path d="M335.083,229.808c0,8.42,3.308,16.539,14.735,16.539,12.028,0,14.735-8.721,14.735-15.036,0-7.217.9-16.84-18.043-24.96-30.072-13.532-45.709-25.26-45.709-54.43,0-32.778,19.847-51.423,49.017-51.423,31.575,0,49.318,18.644,49.318,51.423v9.924H364.553v-9.924c0-7.518-3.308-16.84-14.735-16.84-12.029,0-14.735,10.224-14.735,16.239,0,8.42,2.406,13.232,21.351,21.351,24.058,10.525,42.4,21.652,42.4,57.136,0,32.477-17.442,51.423-49.318,51.423-37.289,0-49.017-25.26-49.017-51.423V215.374h34.583Z" transform="translate(525.27 120.734)"/><g transform="translate(945.255 206.8)"><path d="M392.916,116.3,386.3,174.94l17.442-.6Z" transform="translate(-247.77 -54.352)"/><path d="M487.032,152.858c0,1.8.9,1.2,1.2,1.2C487.934,151.054,486.731,152.858,487.032,152.858Z" transform="translate(-45.679 17.949)"/><path d="M486.3,145.309l.6.6-1.2-4.21Z" transform="translate(-48.257 -3.37)"/><path d="M485.765,149.337l1.5,2.105c-.3-5.714-1.5-13.232-1.2-17.442-1.5,2.706.6,9.623.3,14.435Z" transform="translate(-48.622 -18.825)"/><path d="M486.9,132.913v-3.308C486.3,130.206,486.3,126.3,486.9,132.913Z" transform="translate(-46.751 -28.865)"/><path d="M486.6,130.279c.3,3.007.6-1.8,0,0Z" transform="translate(-46.45 -27.133)"/><path d="M486.3,126.93l.6,3.609c.3-.9.3-4.21.6-3.007C487.2,123.923,486.9,124.825,486.3,126.93Z" transform="translate(-47.052 -36.715)"/><path d="M485.9,124.5l.3,1.8C486.5,126.3,486.5,125.7,485.9,124.5Z" transform="translate(-47.855 -37.893)"/><path d="M486.5,127.205c-.6-.3,0,.6.3,2.105l-.6-4.21C485.9,126,485.6,126,486.5,127.205Z" transform="translate(-47.855 -36.689)"/><path d="M485.8,128.5c.6,7.217,1.5,6.014,1.2-1.2C486.7,129.405,486.4,132.112,485.8,128.5Z" transform="translate(-48.056 -32.273)"/><path d="M485.2,133.5l-.3,2.706.6,2.406C485.2,137.71,485.8,133.5,485.2,133.5Z" transform="translate(-49.863 -19.829)"/><path d="M485.9,119.53l.6,2.706c.3-1.5.3-4.21.9-4.21C486.8,117.726,486.2,119.229,485.9,119.53Z" transform="translate(-47.855 -50.966)"/><path d="M486.3,121.31l-.6-4.21C485.7,120.709,486,121.611,486.3,121.31Z" transform="translate(-48.257 -52.746)"/><path d="M485.3,123.9v1.2l1.5,6.916Z" transform="translate(-49.06 -39.098)"/><path d="M486.6,113.9l.6,2.406L486,112.1Z" transform="translate(-47.655 -62.782)"/><path d="M486,114.619c.6,1.8.9-2.406,1.5-.6A55.427,55.427,0,0,0,486,106.5,36.39,36.39,0,0,1,486,114.619Z" transform="translate(-47.655 -74.022)"/><path d="M485.7,105.3l.9,3.609Z" transform="translate(-48.257 -76.431)"/><path d="M485.6,115.4v1.5c.3-.3.6-.9.9-3.308Z" transform="translate(-48.457 -59.772)"/><path d="M485.6,116.609h0v0Z" transform="translate(-48.457 -60.976)"/><path d="M485.6,115.1v0Z" transform="translate(-48.457 -57.363)"/><path d="M486.905,123.769c-.6-2.406-1.5-7.518-2.105-2.406C485.4,123.167,485.7,120.16,486.905,123.769Z" transform="translate(-50.063 -48.589)"/><path d="M485.3,115.6v4.511c.3,0,.6-.9.9.3Z" transform="translate(-49.06 -55.757)"/><path d="M485.1,114.9l.6,2.105v-1.8Z" transform="translate(-49.461 -57.162)"/><path d="M485.2,113.318c.3.3.9,1.5.9-1.2-.6-1.8-.6-3.909-.9-6.315Z" transform="translate(-49.26 -75.427)"/><path d="M485.5,111.2v0Z" transform="translate(-48.658 -65.191)"/><path d="M484.9,96.5v.9h.3Z" transform="translate(-49.863 -94.094)"/><path d="M485.2,108.733a15.681,15.681,0,0,0,.6,4.21c0-1.5-.3-3.007-.3-4.511C485.2,108.131,485.2,108.131,485.2,108.733Z" transform="translate(-49.26 -70.541)"/><path d="M485.7,103.2a11.268,11.268,0,0,0-.3,3.308C485.4,105.606,486,103.5,485.7,103.2Z" transform="translate(-48.859 -80.646)"/><path d="M485.6,110.751Z" transform="translate(-48.457 -65.944)"/><path d="M486,112.206c-.3-.9-.3-1.8-.6-2.406,0,1.2.3,2.105.3,3.007C485.7,112.507,485.7,112.507,486,112.206Z" transform="translate(-48.859 -67.399)"/><path d="M485,109.631l.3,1.8v-1.5a5.29,5.29,0,0,1,.3-1.8c.3-1.5.3-3.609.6-5.714C485.6,97.6,485.3,97,485,96.7l.3,13.532Z" transform="translate(-49.662 -93.693)"/><path d="M486.706,109.619c-.9-1.5-1.5-5.714-2.406-3.007.3,5.112.9,3.609,1.5,6.616-.6-8.119.6,2.706.9-3.609,0,1.8.3,3.308.3,4.511,0-1.5.3-3.007.3-4.511v.3h0c0,.3-.3.6,0,0v-.3c-.3.3-.3.3-.6,0,0-2.406.3-.3.3.3h0l-.9-8.42C486.405,103.605,486.405,105.71,486.706,109.619Z" transform="translate(-51.067 -84.058)"/><path d="M484,118.852h0C484.3,117.95,484,117.95,484,118.852Z" transform="translate(-51.669 -50.589)"/><path d="M484.9,116.051Z" transform="translate(-49.862 -55.306)"/><path d="M484.4,120.01a5.578,5.578,0,0,1,.6,3.007c-.3,1.8-.6,0-.9,0,.3,1.2.9,4.21,1.2.3l-.3-.6a51.292,51.292,0,0,1,1.2-6.917A19.4,19.4,0,0,0,484.4,120.01Z" transform="translate(-51.468 -55.356)"/><path d="M485.4,115.317l-.6-6.917-.6,3.609.6-.3C484.2,115.617,484.8,114.715,485.4,115.317Z" transform="translate(-51.267 -70.209)"/><path d="M488.914,96.3c.3.3.6.3.9.6l-.3-1.2L483.2,97.2l5.714-.9Z" transform="translate(-53.274 -95.7)"/><path d="M481.706,95.8l-2.406.6,2.105.3Z" transform="translate(-61.102 -95.499)"/><path d="M409.227,99.719c-3.007-.6-6.315-1.8-6.014-.9l.9.9Z" transform="translate(-213.861 -90.096)"/><path d="M453.216,97.6a55.8,55.8,0,0,0-6.616-.3C449.908,97.6,452.614,98.5,453.216,97.6Z" transform="translate(-126.737 -92.489)"/><path d="M341.2,134.739c.3,1.2.3,1.8.6,1.8C341.5,135.34,341.5,134.438,341.2,134.739Z" transform="translate(-338.293 -17.459)"/><path d="M444.2,97.8a2.711,2.711,0,0,1,1.5.3c1.8-.3,3.909-.3,6.014-.6C449.313,97.2,446.606,96.9,444.2,97.8Z" transform="translate(-131.555 -92.689)"/><path d="M479.308,154.7a17.257,17.257,0,0,0-3.608.3A20.515,20.515,0,0,0,479.308,154.7Z" transform="translate(-68.328 22.723)"/><path d="M467.8,96.4Z" transform="translate(-84.185 -94.295)"/><path d="M470.7,98.2a2.316,2.316,0,0,1,.9-.6C471,97.9,470.7,97.9,470.7,98.2Z" transform="translate(-78.364 -91.886)"/><path d="M470.306,96.8c-.6,0-1.5-.3-2.406-.3A9.673,9.673,0,0,1,470.306,96.8Z" transform="translate(-83.984 -94.094)"/><path d="M468.6,96.489h1.8C470.7,96.489,470.4,96.189,468.6,96.489Z" transform="translate(-82.579 -94.384)"/><path d="M469.607,96.4a10.357,10.357,0,0,0-2.706.3h3.007C469.607,96.7,469.306,96.7,469.607,96.4Z" transform="translate(-85.991 -94.295)"/><path d="M765.347,267.71l10.826-.3L770.46,113.442v.9l.6-.3c0-2.406-.6-3.909-.6-2.406l-.3-6.315c.3,1.5,1.2,1.8,2.1.6a20.692,20.692,0,0,0,2.707-7.819c-.3,0-.3.3-.6-.9a31.9,31.9,0,0,1-5.413.9,15.982,15.982,0,0,0,4.21.3c-.3,3.909-.6,7.217-1.2,4.511,0-1.2-.3-2.406-.3-3.007-3.609.3-2.707-.3-5.413-.6,1.2.6-1.2.9-3.609,1.5-1.8.3-3.308.9-3.609,1.5l-34.883,1.2c.3,0,.3-.3-.3-.3l-3.308.3c-3.007-.9,6.014-1.5,1.8-1.8,4.21-.9,9.022-2.105,15.337-1.8l1.2,1.2c0-.3-3.909-.6-5.714-.3,2.406-.6,9.322,1.5,12.029-.3l-4.21-.9c4.21-.9,9.623-2.406,15.036-2.406-2.406-1.2-1.2.3-5.112-1.2,3.308,1.8-13.833.3-8.42,2.406-3.909-1.8-6.917-.6-12.029-1.8.3.3,1.8.9-2.707.6-.3,0-.6.3-.9.3h0c1.2.3,2.1.3,2.406.6-2.1,1.2-9.322,1.5-11.728,2.105-2.707,0,1.2-.6-.3-.9l-3.608.9c-.3-.9-7.217-1.5-.9-2.105l-5.714.3c-3.308-.3-8.12-.6-10.826,0-2.706,0-6.916,1.5-4.511.6l-9.021.9v-.3c-8.721.3-18.043,2.406-28.267.9a56.965,56.965,0,0,1-11.127.6l-.9-.9c-3.909.3-11.427-.6-13.232.6-4.21-2.105-18.645.3-25.26,0l-.3,1.2a144.765,144.765,0,0,0-14.735,1.2l.3.9c-4.812.9-12.63-.3-20.75,0a13.571,13.571,0,0,1,3.909-.3c-9.322-1.8-19.848,2.406-28.268.9a32.782,32.782,0,0,1-5.112.3h-.3c-.9,0-1.8-.3-3.007-.3a7.473,7.473,0,0,0,2.406.3c-1.5,0-4.21.3-6.616.6l-1.2-.9h-.6c-2.406-.3-1.8.6-.6,1.5-1.2.3-2.406.6-3.308.9-2.105-1.8-6.315.9-9.022-.9-1.5.9-10.525,1.2-12.931,2.706-2.706,0-5.413-.3-7.819.3l-1.2-1.2-5.714,2.105c-3.609-.6-5.112-1.2-1.5-2.406-8.42,1.8-6.916.9-14.134,2.706l.3-.9c-2.706,0-6.616,1.5-8.42.9-6.014-1.5-28.869.9-43.9-.3,3.007,2.406-6.916-.9-7.518,1.2-.9-.6-3.007-.9-.6-1.5-7.518.9-11.427-.6-16.84,1.5-.9-.6,1.5-.9.9-1.2a5.974,5.974,0,0,1-3.308.3c-.9-.3,1.2-.6,2.406-.9-7.819.3-8.42,2.406-9.022,4.21-3.909-.6-6.014-.6-8.721.9-1.5-.6-3.609-1.2,1.2-1.5-2.706,0-16.84-.3-16.84,1.2a11.082,11.082,0,0,0-4.511.3,149.914,149.914,0,0,0-15.337.6h2.406a3.676,3.676,0,0,1-2.707.9c.3,2.105-.3,4.511,0,8.721l-.3-.3a14.689,14.689,0,0,1-.3,3.909v2.105a5.166,5.166,0,0,0,.3,2.406c.3,1.2.3,2.406-.3,7.819l1.2-.6c2.406.9-.9,9.924,0,16.239l.6-2.406c.9,3.308-2.707,9.924-3.007,13.232-.3.9-.3-1.2-.6-2.1-.9,9.322,1.5,1.2,2.105,7.819-.6,1.2-2.105-1.5-2.105,3.007-.6,2.406,3.007,13.232,1.8,19.547.6-1.5,1.2-2.706,1.5.3.3,4.812-1.8,13.232.3,17.442a1.317,1.317,0,0,1-.3.9c.6,3.609,1.2,12.029,2.406,14.134-3.608,3.609,2.707,23.155-.9,23.155l.6,11.427-.3-.3c0,7.518.9,9.623,1.8,12.63,0,2.406-.6.6-.6.6v11.728a73.923,73.923,0,0,0,8.42-.6c1.5-.3,3.007-.3,4.511-.6,1.2-.3,2.406-.6,3.909-.9l.9,1.2c2.406-.6,15.637,1.2,25.861-.6a3.29,3.29,0,0,1-1.2.6c11.728-1.8,28.268,2.1,32.478-2.105l7.819-1.2c-9.923,0,1.5-1.8-2.706-2.406,3.909-.3,10.224.9,5.413,1.2l-.9-.3c-1.8,2.105,12.63.3,12.329,1.8,19.847-.9,39.093-.3,57.738-.9l-2.1-1.5h6.616c1.8.3,2.406,1.2-2.406,1.2,2.406.9,7.819-1.2,7.819-1.5,9.022.3-3.308,2.105-.6,2.105l3.609-.3-.9-.3c3.007-.9,3.308-1.5,8.721-1.5,3.609.3,1.8.9,3.308.9a3.6,3.6,0,0,0,2.105,0l8.119-.3-3.308-1.2c3.609-.9,7.518-.3,3.909-1.5,5.714,2.105,30.372-.3,33.981.3,5.112-1.2,9.924-1.2,16.239-1.5-1.5-.3-2.406-1.5,2.707-1.8-1.8,3.007,9.924.9,14.134,3.007-3.909-1.2,15.036-.9,9.021-2.706,4.511,0,.3,1.2,3.609,1.8,10.525-1.5,23.456,0,36.387-.9.3-.3-2.105-.9.9-1.5l6.916,1.8c2.707-.3,2.406-2.406,7.217-1.2-.6-.3-1.8-.9,0-.9,25.861.9,52.325-3.609,78.487-.9-3.609-.6-1.2-.9,1.5-.9-1.8,0,0-.9-.3-1.5l10.826,1.2c1.8-1.5,11.728-.6,12.63-2.105l-3.308.3C770.159,269.815,767.753,268.913,765.347,267.71ZM660.1,133.89l.6,17.141-42.7,1.5,1.2,30.974,37.59-1.5.6,17.141-37.59,1.5,1.2,30.974,42.7-1.5.6,17.442-60.745,2.406-4.21-113.37ZM498.912,139.9l21.953,112.769-17.442.6-4.21-22.253-22.854.9-2.406,22.253-17.442.6,13.532-114.273Zm59.542,32.478L570.483,137.5l17.141-.6,4.21,113.37-17.141.6-2.707-68.564-12.029,34.582-14.434-33.68,2.406,68.564-17.442.6L526.277,139l17.442-.6ZM412,141.108c25.561-.9,31.275,16.84,31.876,32.477v2.105l-17.442.6v-2.1c-.3-4.811-.9-16.84-13.833-16.239s-12.63,12.329-12.63,17.442l1.8,50.821c.3,4.811.9,16.539,13.833,16.239s12.63-12.329,12.63-17.141l-.6-16.84-13.231.6-.6-16.84,30.673-1.2,1.2,33.68c.6,19.547-8.721,33.981-29.17,34.582-24.358.9-30.974-17.141-31.575-32.477l-1.8-50.821C382.234,155.843,391.556,141.709,412,141.108ZM770.46,101.413a13.483,13.483,0,0,1-.3,3.308v-3.007l-4.511.3A20.927,20.927,0,0,1,770.46,101.413Zm-6.315.6Zm-30.373,60.745v3.909l-16.84.6v-3.909c-.3-4.811-1.8-16.84-14.434-16.239-14.434.6-13.232,13.232-12.931,16.84.3,5.413,3.308,11.427,15.938,15.637,14.735,5.112,29.47,11.728,30.072,34.883.6,19.547-8.721,32.778-29.17,33.68-24.358.9-30.974-17.141-31.575-32.477l-.3-10.224,16.54-.6.3,10.224c.3,5.413,1.5,16.539,14.434,16.239,12.329-.6,13.231-12.329,13.231-16.239,0-4.511-2.406-13.532-15.036-18.344-19.847-8.119-30.372-12.63-30.974-33.38-.6-19.847,8.42-32.177,29.169-33.079C726.555,129.38,733.171,147.122,733.772,162.759ZM702.5,99.007h0C699.19,98.707,700.392,99.007,702.5,99.007Zm-22.554,4.21c13.232-.3,11.126-3.609,22.253-2.706,4.511.9.3,2.406,1.2,3.308-5.713.6-8.721-.3-12.63-.3l4.811.3a22.38,22.38,0,0,1-7.819.6c.6,0,1.2.3,2.105.3l-27.365.9a55.213,55.213,0,0,1,13.231-3.308C682.65,101.714,678.741,103.518,679.944,103.217Zm-47.513,2.706c-.3.3.6.6.9.9l-5.713.3A28.153,28.153,0,0,1,632.43,105.924Zm-38.191-.6c.6,0,10.525,1.2,12.931,2.105.3.3.6.3.9.6l-6.917.3-.3-1.8-.9,1.8-6.916.3C593.036,107.127,593.337,105.924,594.239,105.322Zm-33.38,1.8,6.315-1.2c-1.5.9-4.511,2.105-7.819,3.609l-10.525.3a37.478,37.478,0,0,1,10.224-3.609Zm-56.535,1.8a.3.3,0,0,0-.3.3C503.723,108.931,503.122,108.931,504.325,108.931Zm-15.637,1.2a2.544,2.544,0,0,0,0,2.105l-4.811.3Zm-102.845,4.21c.9.3.3.6-1.2,1.5.6,0,.9-.3,1.5-.3,1.2.3,1.5.3,1.5.6h-3.909c.3,0,.6-.3.9-.6a4.274,4.274,0,0,0-1.8.6h-1.5a18.681,18.681,0,0,1-3.007-.9Zm140.435,166.6-1.2-.3C527.781,280.34,527.179,280.64,526.277,280.941Z" transform="translate(-340.233 -95.098)"/><path d="M474.3,96.251h.3C474.6,95.95,474.3,95.95,474.3,96.251Z" transform="translate(-71.138 -95.048)"/><path d="M476.909,96.7c0-.3-.6-.6,0-.6L473,96.4A7.189,7.189,0,0,1,476.909,96.7Z" transform="translate(-73.748 -94.897)"/><path d="M481.213,97.852c.9-1.2-2.406-.9-5.413-.3.3.9,3.007.6,6.014.3Z" transform="translate(-68.128 -93.04)"/><path d="M480.707,97.378c.3-.6-1.2,0-2.706,0Z" transform="translate(-63.712 -92.868)"/><path d="M467.612,97.595c1.5.3.9-1.2,1.5-.9C470.62,95.49,459.794,98.5,467.612,97.595Z" transform="translate(-90.313 -94.287)"/><path d="M475.7,98.7l2.707.3-.9-1.2Z" transform="translate(-68.328 -91.485)"/><path d="M468.913,98.4h4.811c0-.3.6-.3,1.2-.3C471.92,98.1,468.612,98.1,468.913,98.4Z" transform="translate(-81.99 -90.883)"/><path d="M470.8,98.3a14.7,14.7,0,0,0,3.909-.3A19.96,19.96,0,0,0,470.8,98.3Z" transform="translate(-78.164 -91.083)"/><path d="M453.1,99.6c1.2-.3,3.007-.6,2.406-.9l-5.112.6C449.789,99.6,451.292,99.9,453.1,99.6Z" transform="translate(-119.401 -89.678)"/><path d="M481.7,155.4l3.909.3-2.706-.9Z" transform="translate(-56.285 22.924)"/><path d="M484.2,154.3l.9,1.5,2.406-1.5C486.606,154.3,484.8,154.6,484.2,154.3Z" transform="translate(-51.268 21.92)"/></g></svg>