<svg xmlns="http://www.w3.org/2000/svg" width="20.127" height="19.966" viewBox="0 0 20.127 19.966"><defs><style>.a{fill:#f1bf2e;stroke:#f1bf2e;}</style></defs><path class="a" d="M18.741,9.281a.549.549,0,0,0-.786,0L10,17.238V.552a.552.552,0,1,0-1.1,0V17.224L.952,9.281a.549.549,0,0,0-.786,0,.549.549,0,0,0,0,.786L9.06,18.962h0a.366.366,0,0,0,.083.069c.014.014.028.014.041.028s.028.014.055.028a.083.083,0,0,0,.055.014c.014,0,.028.014.041.014a.448.448,0,0,0,.221,0c.014,0,.028-.014.041-.014s.041-.014.055-.014.041-.014.055-.028.028-.014.041-.028a.366.366,0,0,0,.083-.069h0l8.895-8.895A.538.538,0,0,0,18.741,9.281Z" transform="translate(0.5 19.404) rotate(-90)"/></svg>