<svg xmlns="http://www.w3.org/2000/svg" width="26" height="26" viewBox="0 0 26 26">
  <path id="iconmonstr-twitter-4" d="M13,0A13,13,0,1,0,26,13,13,13,0,0,0,13,0Zm6.572,10.449A8.848,8.848,0,0,1,5.958,18.306a6.26,6.26,0,0,0,4.606-1.288,3.119,3.119,0,0,1-2.908-2.161A3.121,3.121,0,0,0,9.063,14.8a3.116,3.116,0,0,1-2.5-3.091,3.1,3.1,0,0,0,1.409.389,3.116,3.116,0,0,1-.963-4.155A8.832,8.832,0,0,0,13.427,11.2a3.114,3.114,0,0,1,5.3-2.838,6.207,6.207,0,0,0,1.976-.755,3.124,3.124,0,0,1-1.368,1.721,6.207,6.207,0,0,0,1.786-.491A6.246,6.246,0,0,1,19.572,10.449Z" fill="#fff"/>
</svg>
