<svg id="Group_103" data-name="Group 103" xmlns="http://www.w3.org/2000/svg" width="64" height="19.997" viewBox="0 0 64 19.997">
  <g id="Group_98" data-name="Group 98" transform="translate(0 0.626)">
    <path id="Path_166" data-name="Path 166" d="M218.872,123.072c-.014-.028-.028-.069-.055-.139-.014.055-.083-.139.055.166Z" transform="translate(-200.168 -116.798)" fill="#fff"/>
    <path id="Path_167" data-name="Path 167" d="M219.388,123.818c.055.139-.014-.111,0,0Z" transform="translate(-200.685 -117.543)" fill="#fff"/>
    <path id="Path_168" data-name="Path 168" d="M217.37,119.028c0-.042-.069-.208-.028-.153-.1-.18-.1-.125-.083-.014Z" transform="translate(-198.847 -113.211)" fill="#fff"/>
    <path id="Path_169" data-name="Path 169" d="M216.7,119.1Z" transform="translate(-198.371 -113.505)" fill="#fff"/>
    <path id="Path_170" data-name="Path 170" d="M216.708,119.283c-.028,0,.014.028.069.1l-.111-.18C216.666,119.228,216.638,119.242,216.708,119.283Z" transform="translate(-198.337 -113.591)" fill="#fff"/>
    <path id="Path_171" data-name="Path 171" d="M217.5,121.283c.153.333.194.263.042-.083C217.569,121.325,217.6,121.45,217.5,121.283Z" transform="translate(-199.06 -115.314)" fill="#fff"/>
    <path id="Path_172" data-name="Path 172" d="M216.483,120.011c-.028-.042-.055-.069-.083-.111h0A.768.768,0,0,1,216.483,120.011Z" transform="translate(-198.112 -114.194)" fill="#fff"/>
    <path id="Path_173" data-name="Path 173" d="M198.2,95.5c0,.014,0,.014.014.014h.014Z" transform="translate(-182.436 -93.177)" fill="#fff"/>
    <path id="Path_174" data-name="Path 174" d="M202.8,99a.841.841,0,0,0,.1.139C202.869,99.1,202.814,99.014,202.8,99Z" transform="translate(-186.398 -96.192)" fill="#fff"/>
    <path id="Path_175" data-name="Path 175" d="M198.705,95.891l.069.055a1.439,1.439,0,0,1-.18-.263c-.139-.083-.166-.083-.194-.083.111.1.222.194.333.305Z" transform="translate(-182.608 -93.263)" fill="#fff"/>
    <path id="Path_176" data-name="Path 176" d="M201.588,98.416a.837.837,0,0,1-.111-.111c.194.25-.222-.125.083.18-.125-.1-.1-.014-.291-.194-.055-.139.125-.014.222,0A2.753,2.753,0,0,1,201.2,98c.111.1.222.18.333.277h-.014c-.028-.028-.111-.1-.028,0h.028v-.014c.028.055.042.1.069.153Z" transform="translate(-185.02 -95.33)" fill="#fff"/>
    <path id="Path_177" data-name="Path 177" d="M197.322,94.569c-.069-.028-.152-.042-.222-.069l.139.083Z" transform="translate(-181.488 -92.316)" fill="#fff"/>
    <path id="Path_178" data-name="Path 178" d="M195.025,92.542,194.9,92.5l.069.083Z" transform="translate(-179.593 -90.593)" fill="#fff"/>
    <path id="Path_179" data-name="Path 179" d="M114.562,89.811l.069.028a1.1,1.1,0,0,1,.222-.139C114.7,89.742,114.521,89.769,114.562,89.811Z" transform="translate(-110.389 -88.181)" fill="#fff"/>
    <path id="Path_180" data-name="Path 180" d="M161.433,79.583a1.934,1.934,0,0,0-.333-.083C161.266,79.555,161.377,79.625,161.433,79.583Z" transform="translate(-150.479 -79.395)" fill="#fff"/>
    <path id="Path_181" data-name="Path 181" d="M92.5,182.678c.042.055.069.069.083.055C92.542,182.691,92.514,182.664,92.5,182.678Z" transform="translate(-91.391 -168.264)" fill="#fff"/>
    <path id="Path_182" data-name="Path 182" d="M158.688,79.2a.609.609,0,0,0-.388-.028.125.125,0,0,0,.069.014A2.452,2.452,0,0,1,158.688,79.2Z" transform="translate(-148.068 -79.095)" fill="#fff"/>
    <path id="Path_183" data-name="Path 183" d="M222.128,158.4a.309.309,0,0,1-.014.125c0,.028,0,.042-.014.055v-.055A.513.513,0,0,0,222.128,158.4Z" transform="translate(-203.022 -147.356)" fill="#fff"/>
    <path id="Path_184" data-name="Path 184" d="M183.8,85.8c.1.042.014,0,0,0Z" transform="translate(-170.032 -84.822)" fill="#fff"/>
    <path id="Path_185" data-name="Path 185" d="M185.8,88.914c.014-.014.028-.014.055-.014C185.828,88.9,185.8,88.9,185.8,88.914Z" transform="translate(-171.755 -87.492)" fill="#fff"/>
    <path id="Path_186" data-name="Path 186" d="M184.011,86.069A.3.3,0,0,0,183.9,86C183.914,86.014,183.955,86.028,184.011,86.069Z" transform="translate(-170.118 -84.994)" fill="#fff"/>
    <path id="Path_187" data-name="Path 187" d="M184.6,86.3a.3.3,0,0,1,.069.042C184.7,86.342,184.7,86.328,184.6,86.3Z" transform="translate(-170.721 -85.253)" fill="#fff"/>
    <path id="Path_188" data-name="Path 188" d="M183.025,85.455c-.028-.014-.069-.028-.125-.055a1.288,1.288,0,0,1,.139.069A.014.014,0,0,1,183.025,85.455Z" transform="translate(-169.257 -84.477)" fill="#fff"/>
    <path id="Path_189" data-name="Path 189" d="M103,91.966c.236-.624.4-1.276.624-1.913-.083.166-.055.055-.042-.083-.014.042-.028.042-.042.028a4.078,4.078,0,0,1-1.442,1.3,1.953,1.953,0,0,1-1.525.208.433.433,0,0,0-.444.139,3.676,3.676,0,0,1-.8.444c.042.25-.153.416-.527.347-.208-.042-.416-.111-.624-.166a1.257,1.257,0,0,1-.957.513c0,.125.042.291-.014.347s-.236.069-.347.069c-.5.014-.846-.333-1.248-.541a5.139,5.139,0,0,1-1.123,2.052c-.055.055-.042.153-.083.222a3.93,3.93,0,0,1-.485.929,6.526,6.526,0,0,0-.707.679.617.617,0,0,1-.4.194c-.36.069-.707.153-.873.541-.208-.222-.1-.957.153-1.484a1.77,1.77,0,0,0-.43.333,1.9,1.9,0,0,0-.208.582c-.055-.1-.125-.153-.125-.222a2.4,2.4,0,0,1,.069-1.289.849.849,0,0,1,.471-.458c.5-.277,1.068-.4,1.567-.707a1.54,1.54,0,0,0,.735-.776c.111-.291.263-.555.388-.832-.416-.319-.832-.624-1.262-.957a5.669,5.669,0,0,1-.347.638c-.277.4-.6.776-.887,1.179a.348.348,0,0,0-.1.236,1.128,1.128,0,0,1-.5,1.151,4,4,0,0,1-.749.458c.139.263.277.541.416.818a.181.181,0,0,1,.014.166c-.014.028-.111.042-.166.028a2.524,2.524,0,0,0-.79-.1.736.736,0,0,1-.485-.277c-.236-.236-.43-.236-.61.028-.028.042-.1.125-.125.111-.069-.028-.166-.083-.18-.139a1.488,1.488,0,0,1,0-.43c.014-.166.028-.333.042-.471-.166.014-.305.028-.43.042,0-.153-.069-.333-.014-.444.277-.485.8-1.123,1.484-1a.622.622,0,0,0,.263-.069c.069-.028.139-.083.194-.083.61.042.8-.43,1.04-.846.153-.263.319-.527.485-.818-.513.069-.915.513-1.47.388-.055.263-.208.277-.374.166-.055.1-.069.222-.153.263-.055.028-.166-.055-.263-.083-.028.042-.069.125-.139.236l-.305-.305a1.241,1.241,0,0,0-.721.679c-.069.194-.208.222-.36.1-.208-.166-.4-.333-.61-.5-.305.18-.347.166-.582-.125A3.548,3.548,0,0,1,86,91.176a1.354,1.354,0,0,1-.028-.527c.055-.236.291-.305.652-.236.222-.416.444-.832.652-1.262a1.075,1.075,0,0,0,.1-.416,3.079,3.079,0,0,1,.374-1.678.38.38,0,0,0-.042-.444,2.5,2.5,0,0,1-.36-1.511,2.992,2.992,0,0,1,.8-2.01,1.776,1.776,0,0,1,1.511-.555c.416.014.541.388.721.666a2.089,2.089,0,0,1,.18.458,13.543,13.543,0,0,1,1.123-.873A1.925,1.925,0,0,1,94.649,83.8a.854.854,0,0,1-.1.832c-.083.125-.18.25-.277.374l.055.055c.166-.111.333-.222.485-.333.208-.139.4-.263.61-.4.18-.111.36-.18.444.042.416-.305.8-.61,1.22-.887a4.763,4.763,0,0,1,.707-.347.636.636,0,0,1,.277.014,1.926,1.926,0,0,1-.083.263.936.936,0,0,0-.111.208,1.046,1.046,0,0,1,.333-.111.653.653,0,0,1,.236.083c.527-.236,1.026-.458,1.539-.666.1-.042.236.014.347.028a3.067,3.067,0,0,1-.069.347c-.028.083-.111.139-.166.208a.367.367,0,0,1,.069.083c.1-.083.236-.139.277-.236a3.958,3.958,0,0,0,.347-.873,3.006,3.006,0,0,1,.1-.333c-.153-.166-.305-.319-.471-.471l.028.028.014-.028c-.083-.083-.153-.125-.111-.069-.069-.069-.153-.139-.236-.208.18.083.194-.125.111-.319-.028.014-.028.028-.222-.083.042.069.333.374.153.291-.236-.166-.166-.166-.263-.277.042.111-.263-.1-.347-.055a8.4,8.4,0,0,0-1.484-.887c.014,0,.014-.014,0-.028l-.153-.055c-.111-.111.319.055.139-.055.111.028.222.055.347.1.055.028.125.042.18.069a.764.764,0,0,1,.194.125v.1c0-.028-.125-.125-.208-.152.139.055.347.319.5.305-.055-.055-.1-.111-.153-.166a2.332,2.332,0,0,1,.707.333c-.055-.139-.055-.028-.166-.222.083.194-.6-.388-.43-.125-.125-.194-.277-.222-.471-.43,0,.028.055.1-.139-.028h-.055c.042.042.083.069.083.1a1.058,1.058,0,0,1-.291-.083c-.111-.042-.236-.083-.291-.1-.125-.069.069,0,.014-.069-.069-.014-.125-.014-.194-.028,0-.069-.305-.236.014-.139l-.277-.111a1.669,1.669,0,0,0-.527-.208c-.139-.055-.36-.028-.222-.042-.153-.028-.305-.055-.458-.069v-.014a5.569,5.569,0,0,0-.693-.1,3.671,3.671,0,0,1-.749-.125h-.25a2.679,2.679,0,0,1-.319-.014l-.055-.055c-.1,0-.25,0-.388-.014s-.263-.014-.291.028a1.081,1.081,0,0,0-.61-.014,3.8,3.8,0,0,0-.388.069c-.125.028-.236.042-.319.055v.069a3.145,3.145,0,0,0-.347.083,2.641,2.641,0,0,0-.388.139l.028.055a3.75,3.75,0,0,1-.458.139c-.083.028-.18.042-.277.069a1.631,1.631,0,0,0-.277.1.363.363,0,0,1,.194-.083,1.069,1.069,0,0,0-.36.1c-.111.055-.222.111-.333.18s-.208.139-.305.194a1.308,1.308,0,0,1-.319.139.521.521,0,0,1-.222.125c.014,0,.014-.014.028-.014-.014,0-.028.014-.042.028a.677.677,0,0,0-.153.055l.125-.042c-.069.042-.18.125-.277.194l-.083-.028c-.014,0-.014.014-.028.014-.111.042-.069.083.014.083a.9.9,0,0,0-.111.125c-.139-.028-.25.208-.416.208a2.506,2.506,0,0,1-.236.263.808.808,0,0,0-.18.263v.028c-.014-.014-.042,0,0-.028a.759.759,0,0,0-.277.277l-.1-.028a2.624,2.624,0,0,0-.125.291c-.166.1-.236.125-.153-.042-.125.194-.166.263-.208.333a2.271,2.271,0,0,0-.166.305l-.028-.055c-.083.111-.153.319-.236.347a3.457,3.457,0,0,0-.582.749c-.222.36-.444.79-.638,1.123.111-.042.055.042-.014.139s-.139.208-.083.25c-.055.028-.111.125-.1-.014a3.048,3.048,0,0,1-.166.444.722.722,0,0,0-.069.388c-.055.028-.028-.1-.069-.069a.269.269,0,0,1-.042.166c-.028.028-.014-.069-.014-.125a.533.533,0,0,0-.014.388.27.27,0,0,0,.125.125,1.22,1.22,0,0,0-.083.236.539.539,0,0,0,.028.208c-.042.069-.111.166-.069-.069-.014.069-.069.277-.1.471s-.042.374,0,.388a.455.455,0,0,0-.014.236,4.91,4.91,0,0,0-.028.638l.014-.083c.1.125.028.25.042.5h-.014a1.084,1.084,0,0,0,0,.4,2.089,2.089,0,0,1,.014.4l.069-.042c.069.014.069.139.055.305a1.608,1.608,0,0,0,.042.513l.014-.125a.6.6,0,0,1-.014.347.9.9,0,0,0-.042.36c0,.042-.042-.055-.055-.111.042.485.1.042.208.374-.028.069-.139-.042-.083.18a2.492,2.492,0,0,0,.18.388,1.532,1.532,0,0,1,.236.541c0-.083.014-.153.1-.028.111.222.166.666.374.8v.055c.055.069.139.208.236.319a1.411,1.411,0,0,0,.236.25c-.028.069.014.153.083.25a2.412,2.412,0,0,0,.25.305c.194.194.374.361.291.43a3.82,3.82,0,0,0,.4.416h-.028a1.084,1.084,0,0,0,.513.374c.055.069,0,.042-.014.042a2.715,2.715,0,0,0,.416.374,2.6,2.6,0,0,0,.444.222v.083a4.944,4.944,0,0,0,1.109.707.108.108,0,0,1-.069,0c.277.111.582.305.873.444s.541.236.679.153a3.513,3.513,0,0,0,.4.055c-.485-.153.1-.083-.083-.18a.831.831,0,0,1,.277.111c.069.042.069.069-.042.042l-.042-.028c-.125.111.6.194.568.277a10.509,10.509,0,0,0,2.925.194L94.94,98l.333-.042c.083.014.125.069-.111.1a.512.512,0,0,0,.388-.125c.458-.042-.153.153-.014.125l.194-.042h-.042a1.193,1.193,0,0,1,.43-.166c.18-.014.111.042.18.028a.437.437,0,0,0,.111-.028,3.406,3.406,0,0,0,.4-.111l-.18-.028c.166-.083.374-.111.166-.139a2.322,2.322,0,0,0,.873-.222c.18-.069.333-.153.471-.208a2.663,2.663,0,0,1,.277-.125c.1-.083.208-.152.319-.236s.236-.139.374-.222c-.069.028-.166-.028.069-.166.014.1.125.055.263-.028a1.734,1.734,0,0,1,.43-.208c-.083.014.069-.111.194-.222s.25-.25.083-.194c.18-.139.055.042.208-.042a13.509,13.509,0,0,0,1.289-1.345c-.014-.028-.111.042-.055-.1.111-.069.208-.139.305-.208.069-.111-.042-.18.153-.333-.042.014-.083.042-.042-.042A4.662,4.662,0,0,0,103,91.966ZM100.14,81.4l-.277-.236A.6.6,0,0,1,100.14,81.4Zm-.333-.291h0c-.014,0-.014-.014-.028-.014S99.793,81.11,99.807,81.11Zm-2.579-1.747h0c-.028-.014-.042-.014-.055-.028C97.2,79.349,97.214,79.349,97.228,79.363ZM95.3,79.2a1.758,1.758,0,0,1,.568-.042c.36.042.139.111.194.1a3.23,3.23,0,0,0,.374.069,1.327,1.327,0,0,0,.236,0,.844.844,0,0,1,.513.125c.18.139-.042.139-.014.208a1.525,1.525,0,0,1-.333-.125,1.5,1.5,0,0,0-.263-.111l.222.1a1.214,1.214,0,0,1-.374-.083.461.461,0,0,0,.083.042,8.356,8.356,0,0,0-1.331-.25A.405.405,0,0,1,95.3,79.2Zm-1.608-.1c-.014.028.028.042.055.055-.1,0-.194.014-.277.014A.837.837,0,0,1,93.692,79.1Zm-1.913.153h.291a2.1,2.1,0,0,1,.36.028c.014,0,.028.014.042.028a2.841,2.841,0,0,0-.333.069l-.028-.1-.014.111c-.111.028-.222.042-.333.069C91.737,79.363,91.737,79.294,91.779,79.252ZM90.1,79.82l.1.014c.083-.055.18-.125.277-.18L90.2,80c-.153.069-.305.153-.458.222A1.084,1.084,0,0,1,90.1,79.82Zm-2.842,2.121c.014.042.042.055.1.083a2.127,2.127,0,0,0-.166.18A1.461,1.461,0,0,1,87.259,81.942ZM84.93,86.573c0-.014-.014-.028-.014-.042v.1c0,.028-.014.055-.014.083a.89.89,0,0,0-.083.139,3.407,3.407,0,0,1,.028-.388c.028-.042.042,0,.069.069v-.069c.028-.055.042-.069.069-.069A.686.686,0,0,0,84.93,86.573ZM96.382,97.845h-.069C96.452,97.789,96.41,97.817,96.382,97.845Zm-2.7-13.865c-.18-.18-.4-.014-.6.083-.014,0-.014.028-.014.042.028,0,.042-.014.069-.014a2.525,2.525,0,0,1,.139.624.593.593,0,0,1-.208.333c-.208-.083-.111-.25-.083-.4a.493.493,0,0,0-.125-.374c-.042-.055-.208-.028-.305,0a1.917,1.917,0,0,0-.347.194c.6.125.471.624.61,1a2.013,2.013,0,0,0,.8-.943C93.692,84.327,93.762,84.063,93.679,83.98Zm-.5,11.549a2.451,2.451,0,0,1-.319.263c-.18.125-.374.208-.541.347-.069.069-.055.222-.083.347a2.1,2.1,0,0,0,.291.042,1.782,1.782,0,0,0,.263-.055c.36-.055.291-.458.513-.638C93.346,95.807,93.235,95.626,93.179,95.529Zm-.25-4.367c-.18.1-.43.139-.541.277-.4.568-.749,1.165-1.109,1.747a.108.108,0,0,0,.055.055c.125-.028.319,0,.374-.083.347-.43.666-.873.971-1.317.125-.194.208-.416.319-.624A.3.3,0,0,0,92.93,91.162Zm-.263,3.646a1.168,1.168,0,0,0-.1.485c0,.055.1.125.153.18.055-.055.153-.111.166-.18.042-.18.042-.36.069-.568C92.847,94.753,92.694,94.753,92.666,94.808Zm-.416.153c-.527.166-.749.43-.679.8a2.141,2.141,0,0,1,.305-.166,3.191,3.191,0,0,1,.388-.083C92.25,95.307,92.25,95.141,92.25,94.961ZM91.53,89.5c.111.153.222.305.374.5C91.973,89.637,91.89,89.526,91.53,89.5Zm-.1,4.062a4.233,4.233,0,0,0-1.026.111c-.139.042-.222.277-.319.43-.014.028.055.125.1.153s.166.014.166-.014c.083-.388.388-.153.582-.208.042-.014.111.055.139.1a.207.207,0,0,1-.042.139c-.25,0-.4.222-.624.305a.949.949,0,0,0-.6.721.519.519,0,0,0,.069.25c.153.222.277.194.652-.083-.069-.055-.139-.083-.166-.139a.922.922,0,0,1-.166-.4c0-.069.18-.166.305-.194a1.587,1.587,0,0,0,1.081-.887C91.71,93.658,91.668,93.547,91.432,93.56Zm-.263-3.979a3.084,3.084,0,0,1-.305.153c.153.36.305.665.693.763.069-.1.139-.18.166-.222C91.543,90.039,91.363,89.817,91.169,89.581ZM90.6,89.9c-.069.055-.125.111-.236.208.194.208.208.485.388.652.055.055.333-.194.458-.153C90.975,90.261,90.781,90.177,90.6,89.9Zm-.416.4c-.305.18-.111.485.028.693.139,0,.208-.1.4-.111C90.448,90.663,90.323,90.469,90.185,90.3Zm-.263-7.321a.392.392,0,0,0-.277-.125,2.785,2.785,0,0,0-.763.18,2.035,2.035,0,0,0-1.109,1.747c-.028.208-.014.416-.042.624a1.71,1.71,0,0,0,.25,1.137c.222-.277.43-.527.638-.776.166-.208.333-.222.5.014.347-.291.541-.763,1.054-.846a1.825,1.825,0,0,1,.069-.208,2.232,2.232,0,0,0,.18-.693A1.677,1.677,0,0,0,89.921,82.982Zm-.86,11.175c-.055.347.194.347.43.347h.028c.042.055.111.1.111.166a.166.166,0,0,1-.111.125c-.083.042-.194.055-.277.1s-.153.139-.139.194c.028.083.125.153.194.236.055-.055.125-.111.18-.166.1-.125.194-.263.291-.4.014-.028.014-.083.028-.125.014-.263.014-.513.028-.776C89.575,93.782,89.089,93.963,89.062,94.157Zm-.638-2.426c-.153.1-.305.18-.444.277.5.444.527.444.846.083C88.673,91.952,88.535,91.827,88.424,91.73Zm-.873.61c.208.18.4.347.568.5.083-.083.139-.153.208-.222C88.077,92.451,87.925,92.174,87.55,92.34Z" transform="translate(-84.5 -78.745)" fill="#fff"/>
    <path id="Path_190" data-name="Path 190" d="M189.294,88.6a1.269,1.269,0,0,0-.194-.1.375.375,0,0,1,.153.125C189.253,88.611,189.239,88.569,189.294,88.6Z" transform="translate(-174.597 -87.147)" fill="#fff"/>
    <path id="Path_191" data-name="Path 191" d="M190.793,91.4c-.014.055.111.111.236.194-.014,0-.014-.014-.028-.014C191.1,91.525,190.946,91.455,190.793,91.4Z" transform="translate(-176.055 -89.645)" fill="#fff"/>
    <path id="Path_192" data-name="Path 192" d="M192.911,92.883c.028-.014-.042-.042-.111-.083A.771.771,0,0,0,192.911,92.883Z" transform="translate(-177.784 -90.851)" fill="#fff"/>
    <path id="Path_193" data-name="Path 193" d="M180.7,84.759c.055.042.069-.042.1-.014C180.892,84.7,180.323,84.634,180.7,84.759Z" transform="translate(-167.249 -83.864)" fill="#fff"/>
    <path id="Path_194" data-name="Path 194" d="M190.2,92.4v-.1l-.1.014Z" transform="translate(-175.459 -90.421)" fill="#fff"/>
    <path id="Path_195" data-name="Path 195" d="M183.8,88.466l.194.125c0-.014.028,0,.069.014C183.939,88.522,183.8,88.438,183.8,88.466Z" transform="translate(-170.032 -87.114)" fill="#fff"/>
    <path id="Path_196" data-name="Path 196" d="M185.866,89.483a1.85,1.85,0,0,0-.166-.083A.913.913,0,0,0,185.866,89.483Z" transform="translate(-171.669 -87.923)" fill="#fff"/>
    <path id="Path_197" data-name="Path 197" d="M164.8,82.355c.069,0,.153,0,.125-.028l-.263-.028C164.634,82.328,164.7,82.355,164.8,82.355Z" transform="translate(-153.542 -81.807)" fill="#fff"/>
  </g>
  <g id="Group_100" data-name="Group 100" transform="translate(1.816)">
    <g id="Group_99" data-name="Group 99">
      <path id="Path_198" data-name="Path 198" d="M124.493,159.257c-.305.18-.111.485.028.693.139,0,.208-.1.4-.111C124.757,159.618,124.632,159.424,124.493,159.257Zm.416-.4c-.069.055-.125.111-.236.208.194.208.208.485.388.652.055.055.333-.194.458-.152C125.284,159.216,125.09,159.133,124.909,158.855Zm-.416.4c-.305.18-.111.485.028.693.139,0,.208-.1.4-.111C124.757,159.618,124.632,159.424,124.493,159.257Zm.416-.4c-.069.055-.125.111-.236.208.194.208.208.485.388.652.055.055.333-.194.458-.152C125.284,159.216,125.09,159.133,124.909,158.855Zm-.416.4c-.305.18-.111.485.028.693.139,0,.208-.1.4-.111C124.757,159.618,124.632,159.424,124.493,159.257Zm.416-.4c-.069.055-.125.111-.236.208.194.208.208.485.388.652.055.055.333-.194.458-.152C125.284,159.216,125.09,159.133,124.909,158.855Zm12.991.014h0a.125.125,0,0,1,.014-.069A.125.125,0,0,0,137.9,158.869Zm-12.991-.014c-.069.055-.125.111-.236.208.194.208.208.485.388.652.055.055.333-.194.458-.152C125.284,159.216,125.09,159.133,124.909,158.855Zm-.416.4c-.305.18-.111.485.028.693.139,0,.208-.1.4-.111C124.757,159.618,124.632,159.424,124.493,159.257Zm.416-.4c-.069.055-.125.111-.236.208.194.208.208.485.388.652.055.055.333-.194.458-.152C125.284,159.216,125.09,159.133,124.909,158.855Zm-.416.4c-.305.18-.111.485.028.693.139,0,.208-.1.4-.111C124.757,159.618,124.632,159.424,124.493,159.257Z" transform="translate(-120.625 -147.075)" fill="#fff"/>
      <path id="Path_199" data-name="Path 199" d="M157.684,116.434a1.636,1.636,0,0,0-.638-.263h0c-.319-.083-.541.111-.749.319-.18-.291-.083-.458.388-.666-.347-.818-.347-1.026.042-1.359.028-.014.042-.042.069-.055a.485.485,0,0,0-.111-.069,3.438,3.438,0,0,1-.36-.263.471.471,0,0,1-.18-.236c-.014-.042.111-.125.194-.208a5.841,5.841,0,0,0-.763-.541c-.263-.139-.305-.18-.1-.4l.153-.152c-.014-.014-.014-.028-.028-.055-.319.111-.652.222-.971.333l-.083-.083c.083-.166.166-.333.25-.513-.014-.014-.014-.042-.028-.069l-1.123.458a1.154,1.154,0,0,1-.305.042.929.929,0,0,1-.028-.333,3.883,3.883,0,0,1,.208-.416,4.177,4.177,0,0,0-1.442.8.4.4,0,0,1-.305.111c-.069-.028-.083-.18-.139-.305-.18.055-.388.125-.638.194-.014-.153-.014-.277-.028-.388-.028.014-.042.014-.055.028-.513.416-1.012.846-1.525,1.262a1.231,1.231,0,0,1-.236.111,1.691,1.691,0,0,1-.1-.236c-.014-.028,0-.069,0-.166-.721.582-1.4,1.137-2.094,1.691.166.18.277.319.388.444.069.069.153.139.222.208.319.277.291.444-.014.555.125.125.277.263.416.416-.166.111-.319.222-.5.333.18.153.388.319.6.5-.069.263-.194.416-.485.361.014.263-.069.458-.388.444a1.027,1.027,0,0,1-.4,1.289c.513.36,1.012.721,1.553,1.109a4.66,4.66,0,0,0,.3-1.248,4.692,4.692,0,0,0-.36-1.165.649.649,0,0,1,.555.416,2.155,2.155,0,0,1-.042,1.8c-.263.6-.527,1.192-.79,1.8-.028.069-.1.18-.069.222.166.222-.042.291-.125.43-.277-.25-.776-.166-.846.111-.042.18-.069.36-.125.527-.055.194,0,.319.236.4.055-.277.1-.541.153-.8h.139a2.452,2.452,0,0,1,0,.638,2.665,2.665,0,0,1-.319.582c.028.014.055.042.083.055a2.506,2.506,0,0,0,.25-.291,11.949,11.949,0,0,1,1-1.733.734.734,0,0,0,.153-.291c.236-.61.444-1.234.679-1.83a3.984,3.984,0,0,0,.333-1.386,4.405,4.405,0,0,1,.083-.6c.028-.014.042-.014.069-.028.125.18.25.374.374.555.028,0,.055-.014.1-.014,0-.222-.014-.458,0-.679,0-.055.055-.111.083-.166.042.042.111.083.111.125a2.935,2.935,0,0,1,.028.693.541.541,0,0,1-.236.36c-.055.042-.208-.083-.305-.111-.069.319-.111.652-.208.984s-.25.652-.374.971c.374.166.721.305,1.054.458a.352.352,0,0,0-.042-.166c-.042-.1-.083-.18-.125-.277a2.243,2.243,0,0,1,.305.014,1.136,1.136,0,0,0,.984-.25.907.907,0,0,1-.139-.208,1.794,1.794,0,0,1-.1-.291,1.315,1.315,0,0,1,.277.083,2.7,2.7,0,0,0,1.165.388c.014-.028.014-.042.028-.069a.744.744,0,0,1-.166-.125,2.407,2.407,0,0,1-.139-.263.928.928,0,0,1,.277,0,.776.776,0,0,0,.832-.18c-.069-.153-.125-.277-.194-.416.111,0,.208.014.319.014a1.468,1.468,0,0,0,.042-.194,1.936,1.936,0,0,1-1.484-1.123.523.523,0,0,1,.291.1,8.22,8.22,0,0,0,.86.555,6.732,6.732,0,0,0,.943.263.333.333,0,0,1,.222.208c.014.042-.1.139-.18.277a4.444,4.444,0,0,0,.776-.083,3.452,3.452,0,0,0,1.886-1.567.994.994,0,0,0,.18-.652.556.556,0,0,0-.042-.208,1.871,1.871,0,0,1-.055-.388c.028-.014.069-.014.1-.028.319.222.319.6.36.984C157.947,117.183,158.017,116.711,157.684,116.434Zm-6.669-.555a1.071,1.071,0,0,1-.333-.166,1.784,1.784,0,0,1-.236-.291c-.125.139-.222.263-.333.388-.028,0-.069-.014-.1-.014-.014-.277-.042-.555-.055-.846-.139.166-.291.319-.485.541-.014-.153-.055-.25-.028-.291a7.345,7.345,0,0,1,.471-.624.241.241,0,0,1,.194-.042.19.19,0,0,1,.083.18,5.817,5.817,0,0,1-.055.61c.277-.236.444-.111.6.083a2.659,2.659,0,0,0,.305.25c.042.042.069.083.111.125C151.1,115.824,151.043,115.893,151.015,115.879Z" transform="translate(-139.978 -106.677)" fill="#fff"/>
      <path id="Path_200" data-name="Path 200" d="M104.311,111.211c.444-.5.873-1,1.3-1.511a.59.59,0,0,0,0-.776,3.7,3.7,0,0,0-.582-.652,1.253,1.253,0,0,0-1.1-.305,2.924,2.924,0,0,0-1.789,1.123,7.128,7.128,0,0,0-.721,1.567c.374-.25.4-.25.582,0,.263-.25.277-.25.541.014-.069-.263-.18-.5-.263-.749-.028-.069.028-.166.042-.263a1.217,1.217,0,0,1,.208.166.809.809,0,0,1,.111.25,3.856,3.856,0,0,1,.485-.638,3.381,3.381,0,0,1,1.608-.707.493.493,0,0,1,.568.4,1.218,1.218,0,0,1-.208.873,3.476,3.476,0,0,1-1.123,1.123.6.6,0,0,1-1.012-.333,3.944,3.944,0,0,0-.125-.374c-.042.111-.014.208-.042.277-.055.152-.125.305-.194.458-.125-.069-.236-.139-.374-.208-.277.277-.277.277-.568-.028-.111.111-.222.236-.319.347-.042,0-.069-.014-.111-.014-.028-.222-.042-.444-.069-.721-.263.333-.485.624-.721.9-.083.1-.18.194-.263.277-.055-.111-.111-.222-.18-.333,0-.014-.014-.028-.069-.1-.305.555-.8.984-.887,1.65a.688.688,0,0,1,.541,1.151.6.6,0,0,1-.4.111c-.069,0-.152-.083-.222-.125-.1.208-.18.416-.277.624a1.605,1.605,0,0,1,1.262.513c-.277.166-.5.014-.707-.069a.753.753,0,0,0-.624.028.223.223,0,0,0-.153.305,2.456,2.456,0,0,1,.069,1.054c-.028.18-.1.236-.222.222a5.65,5.65,0,0,1-.707-.194c.263.319.5.582.721.832.069-.18.111-.305.166-.444l.4.18c0-.236.028-.444.347-.347.042.014.125-.055.166-.111.111-.153.153-.4.43-.25.014,0,.055-.069.083-.083a1.649,1.649,0,0,0,.208-.125,2.58,2.58,0,0,0,.707-.541,3.073,3.073,0,0,1,1.442-1.248c.263-.111.541-.277.86-.1a.864.864,0,0,1,.25,1.276,2.049,2.049,0,0,1-1.65.818c-.347.042-.818-.222-1.192,0-.222-.014-.4.277-.568.374.1.111.555.555.666.666a2.842,2.842,0,0,1,.111-.277c.1.083.18.139.25.208.028-.1.069-.208.111-.319.1.055.153.083.153.083a1.629,1.629,0,0,1,.333-.18c.236-.069.471-.083.693-.153a3.8,3.8,0,0,0,.555-.208c.4-.166.79-.347,1.179-.541a1.086,1.086,0,0,0,.277-.222.8.8,0,0,0,.111-1.137,2.483,2.483,0,0,1-.166-.333c.028-.028.055-.042.083-.069a1.316,1.316,0,0,1,.236.139c.139.125.263.1.305-.083.014-.069,0-.153.014-.236l.333-.083c-.222-.263-.555-.43-.568-.818a2.4,2.4,0,0,1,.25-.111c-.125-.18-.25-.347-.36-.527.125-.069.236-.139.374-.208-.055-.055-.139-.139-.208-.222-.222-.25-.444-.471-.776-.166-.042.042-.18-.014-.277-.028.042-.111.042-.236.111-.305C103.922,111.5,104.144,111.391,104.311,111.211Zm-2.884,2.842a.553.553,0,0,1-.416.1c-.513-.111-.735-.5-.846-1.109a.881.881,0,0,1,.194-.818.8.8,0,0,1,1.248.222A1.194,1.194,0,0,1,101.427,114.053Zm2.371.333c.139.18.277.388.416.582-.014.014-.042.028-.055.042a.594.594,0,0,1-.222.749c-.055.042-.166.014-.25.014,0-.083-.028-.194.014-.25a.608.608,0,0,0,.028-.846c-.028-.042-.083-.083-.1-.125a.907.907,0,0,1,0-.194C103.687,114.358,103.77,114.344,103.8,114.386Z" transform="translate(-97.6 -103.27)" fill="#fff"/>
      <path id="Path_201" data-name="Path 201" d="M110.394,109.467a2.052,2.052,0,0,1-.18.693c-.028.083-.055.153-.069.208-.513.083-.707.555-1.054.846-.166-.236-.333-.222-.5-.014-.208.25-.416.5-.638.776a1.71,1.71,0,0,1-.25-1.137c.028-.208.014-.416.042-.624a2.018,2.018,0,0,1,1.109-1.747,2.911,2.911,0,0,1,.763-.18.392.392,0,0,1,.277.125A1.746,1.746,0,0,1,110.394,109.467Z" transform="translate(-106.29 -103.565)" fill="#fff"/>
      <path id="Path_202" data-name="Path 202" d="M221.437,134.655a1.8,1.8,0,0,1-.679.069v.111c-.014.1-.028.194-.042.277-.083-.042-.208-.055-.263-.125-.18-.236-.319-.485-.485-.735a.634.634,0,0,0-.222-.208c-.319-.152-.721-.194-.915-.513a1.682,1.682,0,0,1-.153-.444.4.4,0,0,1-.014-.18.283.283,0,0,1,.277-.208,1.01,1.01,0,0,1,.555.208,3.4,3.4,0,0,0,.79.555.6.6,0,0,0,.846-.4c.028-.083.069-.18.1-.277a.491.491,0,0,1,.361.458c.028.277-.222.471-.79.679.014.3.111.374.374.263.125-.055.25-.111.374-.18C221.6,134.253,221.7,134.516,221.437,134.655Z" transform="translate(-201.874 -124.593)" fill="#fff"/>
      <path id="Path_203" data-name="Path 203" d="M213.229,92c-.222.25-.471.527-.707.79-.5-.416-.818-1.054-1.622-1.068a3.669,3.669,0,0,1,.693-.638,1.039,1.039,0,0,1,.943.069A1.342,1.342,0,0,1,213.229,92Z" transform="translate(-195.191 -88.673)" fill="#fff"/>
      <path id="Path_204" data-name="Path 204" d="M221.518,85.739c-.055.111-.236.153-.36.236s-.263.166-.388.25a2.236,2.236,0,0,0-1.47-1.04c.291-.166.555-.333.832-.458a1.051,1.051,0,0,1,1.3.638C221.463,85.489,221.56,85.655,221.518,85.739Z" transform="translate(-202.426 -83.22)" fill="#fff"/>
      <path id="Path_205" data-name="Path 205" d="M207.449,99.766l-.374.541a3.609,3.609,0,0,0-.416-.277c-.153-.083-.305-.166-.458-.236a2.372,2.372,0,0,0-.416-.125,1.415,1.415,0,0,0-.416-.042H205.3v-.014a8.668,8.668,0,0,1,.527-.846c.111-.139.679.014.873.208.125.125.25.263.374.388S207.3,99.6,207.449,99.766Z" transform="translate(-190.367 -95.319)" fill="#fff"/>
      <path id="Path_206" data-name="Path 206" d="M245.244,82.321c-.388.042-.79.083-1.22.139a1.5,1.5,0,0,0-.624-1.179c.416-.028.846-.069,1.262-.083.25-.014.527.36.541.693C245.216,82,245.23,82.127,245.244,82.321Z" transform="translate(-223.185 -80.231)" fill="#fff"/>
      <path id="Path_207" data-name="Path 207" d="M232.483,82.8c-.305.042-.624.069-.971.111-.1-.624-.319-.887-1.012-1.179.471-.055.832-.291,1.248-.1A1.006,1.006,0,0,1,232.483,82.8Z" transform="translate(-212.074 -80.541)" fill="#fff"/>
      <path id="Path_208" data-name="Path 208" d="M124.758,186.023a1.587,1.587,0,0,1-1.081.887c-.111.028-.305.125-.305.194a.922.922,0,0,0,.166.4c.028.055.1.083.166.139-.374.291-.5.305-.652.083a.4.4,0,0,1-.069-.25.907.907,0,0,1,.6-.721c.208-.083.36-.291.624-.305a.207.207,0,0,0,.042-.139c-.028-.042-.1-.111-.139-.1-.194.055-.5-.18-.582.208a.21.21,0,0,1-.166.014c-.055-.028-.111-.125-.1-.153.1-.153.18-.4.319-.43a3.642,3.642,0,0,1,1.026-.111C124.813,185.7,124.855,185.816,124.758,186.023Z" transform="translate(-119.461 -170.277)" fill="#fff"/>
      <path id="Path_209" data-name="Path 209" d="M205.647,108.272c-.055.18-.125.347-.18.527a1.087,1.087,0,0,1-.069.194l-.083.25c-.014.042-.028.069-.042.111-.139-.1-.236-.166-.347-.25l.055-.055c.069-.069.152-.125.222-.208a.382.382,0,0,0,.111-.208v-.069c-.014-.014-.014-.028-.042-.042-.111-.1-.236-.069-.374-.055-.166.028-.333.069-.5.1-.028-.111-.028-.277-.111-.333a1.064,1.064,0,0,0-.388-.1s.055-.277.069-.305a.456.456,0,0,1,.416-.236.731.731,0,0,1,.166.042,5.285,5.285,0,0,1,.5.18,1.684,1.684,0,0,1,.513.374Z" transform="translate(-189.162 -102.966)" fill="#fff"/>
      <path id="Path_210" data-name="Path 210" d="M258.265,80.175c-.277.083-.541.18-.8.277-.125-.374-.25-.707-.36-1.054a4.25,4.25,0,0,1,.8-.208c.347-.028.347.333.471.541C258.445,79.87,258.542,80.092,258.265,80.175Z" transform="translate(-234.986 -78.502)" fill="#fff"/>
      <path id="Path_211" data-name="Path 211" d="M135.119,168.355c-.111.208-.194.43-.319.624-.305.458-.638.887-.971,1.317-.069.083-.25.055-.374.083-.014-.014-.028-.042-.055-.055.374-.582.721-1.179,1.109-1.747.111-.153.36-.194.541-.277A.3.3,0,0,1,135.119,168.355Z" transform="translate(-128.436 -155.258)" fill="#fff"/>
      <path id="Path_212" data-name="Path 212" d="M141.514,116.343a1.891,1.891,0,0,1-.8.943c-.139-.36-.014-.873-.61-1a1.544,1.544,0,0,1,.347-.194.456.456,0,0,1,.305,0,.477.477,0,0,1,.125.374c-.028.166-.125.319.083.4a.573.573,0,0,0,.208-.333,3.358,3.358,0,0,0-.139-.624c-.028,0-.042.014-.069.014a.068.068,0,0,0,.014-.042c.194-.1.416-.263.6-.083C141.653,115.913,141.584,116.176,141.514,116.343Z" transform="translate(-134.207 -109.969)" fill="#fff"/>
      <path id="Path_213" data-name="Path 213" d="M118.114,187.606c-.014.263-.014.513-.028.776a.186.186,0,0,1-.028.125c-.1.139-.194.263-.291.4a1.966,1.966,0,0,1-.18.166c-.069-.069-.166-.139-.194-.236-.014-.042.069-.153.139-.194a2.189,2.189,0,0,1,.277-.1c.042-.028.111-.1.111-.125a.579.579,0,0,0-.111-.166h-.028c-.236,0-.485-.014-.43-.347C117.379,187.717,117.864,187.537,118.114,187.606Z" transform="translate(-114.606 -171.874)" fill="#fff"/>
      <path id="Path_214" data-name="Path 214" d="M267.17,77.588a4.975,4.975,0,0,1-.541.541c-.083-.194-.125-.333-.194-.458s-.152-.25-.236-.388a6.584,6.584,0,0,1,.638-.194.3.3,0,0,1,.236.111C267.143,77.325,267.212,77.519,267.17,77.588Z" transform="translate(-242.824 -76.691)" fill="#fff"/>
      <path id="Path_215" data-name="Path 215" d="M141.468,200c-.208.18-.152.582-.513.638a1.782,1.782,0,0,1-.263.055,2.1,2.1,0,0,1-.291-.042c.028-.111.014-.277.083-.347a3.6,3.6,0,0,1,.541-.347,3.945,3.945,0,0,0,.319-.263C141.384,199.811,141.5,199.991,141.468,200Z" transform="translate(-134.466 -182.304)" fill="#fff"/>
      <path id="Path_216" data-name="Path 216" d="M131.46,157.593c-.028.042-.1.125-.166.222-.388-.1-.541-.4-.693-.763l.305-.153A8.083,8.083,0,0,0,131.46,157.593Z" transform="translate(-126.025 -145.438)" fill="#fff"/>
      <path id="Path_217" data-name="Path 217" d="M136.116,196.255a2.351,2.351,0,0,0-.388.083,3.312,3.312,0,0,0-.3.166c-.069-.374.152-.638.679-.8C136.1,195.88,136.1,196.047,136.116,196.255Z" transform="translate(-130.168 -178.859)" fill="#fff"/>
      <path id="Path_218" data-name="Path 218" d="M110.446,172.76c-.333.36-.347.36-.846-.083.139-.083.291-.18.444-.277C110.155,172.5,110.293,172.622,110.446,172.76Z" transform="translate(-107.936 -158.789)" fill="#fff"/>
      <path id="Path_219" data-name="Path 219" d="M127.546,159.907c-.125-.042-.4.208-.458.153-.18-.18-.194-.444-.388-.652.1-.083.166-.139.236-.208C127.13,159.477,127.324,159.56,127.546,159.907Z" transform="translate(-122.665 -147.419)" fill="#fff"/>
      <path id="Path_220" data-name="Path 220" d="M143.088,194c-.028.208-.028.388-.069.568-.014.069-.111.125-.166.18-.055-.055-.152-.125-.152-.18a1.441,1.441,0,0,1,.1-.485C142.825,194.028,142.977,194.028,143.088,194Z" transform="translate(-136.447 -177.394)" fill="#fff"/>
      <path id="Path_221" data-name="Path 221" d="M107.376,176.759c-.069.083-.139.139-.208.222-.18-.153-.36-.319-.568-.5C106.96,176.315,107.113,176.592,107.376,176.759Z" transform="translate(-105.352 -162.26)" fill="#fff"/>
      <path id="Path_222" data-name="Path 222" d="M274.41,74.255c-.014.055,0,.125-.042.166-.1.125-.208.236-.347.388-.083-.125-.152-.208-.222-.319a3.3,3.3,0,0,1,.416-.25C274.271,74.213,274.355,74.255,274.41,74.255Z" transform="translate(-249.37 -74.231)" fill="#fff"/>
      <path id="Path_223" data-name="Path 223" d="M135.574,156.9c-.153-.208-.263-.347-.374-.5C135.561,156.414,135.644,156.525,135.574,156.9Z" transform="translate(-129.987 -145.007)" fill="#fff"/>
    </g>
    <path id="Path_224" data-name="Path 224" d="M125.023,162.682c-.194,0-.263.1-.4.111-.139-.222-.333-.513-.028-.693C124.718,162.266,124.843,162.46,125.023,162.682Z" transform="translate(-120.711 -149.917)" fill="#fff"/>
  </g>
  <g id="Group_101" data-name="Group 101" transform="translate(22.627 2.838)">
    <path id="Path_225" data-name="Path 225" d="M251.2,98.734l-.014.6a1.749,1.749,0,1,1-3.494-.055l.042-2.773a1.749,1.749,0,1,1,3.494.055l-.014.582-1.248-.014v-.4c0-.263-.014-.763-.485-.776s-.513.5-.513.763l-.042,2.412c0,.263.014.763.485.776s.513-.5.513-.763V98.72Z" transform="translate(-247.694 -94.699)" fill="#fff"/>
    <path id="Path_226" data-name="Path 226" d="M279.446,96.042l-.1,6.184-1.317-.014.042-2.523-.915-.014-.042,2.523-1.317-.014L275.9,96h1.317l-.042,2.413.915.014.042-2.412Z" transform="translate(-271.903 -95.82)" fill="#fff"/>
    <path id="Path_227" data-name="Path 227" d="M305.937,102.7l-.125-1.081-.984-.014-.152,1.081-1.276-.014,1-6.17,2.01.028.8,6.2Zm-.9-2.246.624.014-.277-2.662Z" transform="translate(-295.676 -96.25)" fill="#fff"/>
    <path id="Path_228" data-name="Path 228" d="M334.518,100.688c0,.291.111.6.513.6a.477.477,0,0,0,.527-.527c0-.25.042-.6-.624-.9-1.068-.5-1.608-.929-1.594-1.955a1.66,1.66,0,0,1,1.775-1.8,1.618,1.618,0,0,1,1.719,1.858V98.3l-1.234-.014v-.347c0-.263-.111-.61-.513-.61a.519.519,0,0,0-.527.568c0,.291.083.471.749.776a1.99,1.99,0,0,1,1.484,2.052,1.749,1.749,0,1,1-3.494-.055l.014-.513,1.22.014Z" transform="translate(-321.429 -95.904)" fill="#fff"/>
    <path id="Path_229" data-name="Path 229" d="M365.208,102.119l-.014,1.22-3.494-.055.014-1.22,1.109.014.055-3.744-1.068-.014.014-1.22,3.438.055-.014,1.22-1.068-.014-.055,3.744Z" transform="translate(-345.893 -96.767)" fill="#fff"/>
    <path id="Path_230" data-name="Path 230" d="M392.346,103.811l-.943-3.12-.042,3.106-1.262-.014.1-6.184,1.262.014.943,3.175.042-3.161,1.248.014-.1,6.184Z" transform="translate(-370.356 -97.198)" fill="#fff"/>
    <path id="Path_231" data-name="Path 231" d="M422.416,100.1l-.028,1.83a1.749,1.749,0,1,1-3.494-.055l.042-2.773a1.749,1.749,0,1,1,3.494.055v.361l-1.248-.014v-.18c0-.263-.014-.763-.485-.776s-.513.5-.513.763l-.042,2.412c0,.263.014.763.485.776s.513-.5.513-.763v-.416l-.6-.014.014-1.234Z" transform="translate(-395.157 -96.938)" fill="#fff"/>
    <path id="Path_232" data-name="Path 232" d="M251.908,153.659l1.137,3.355h-1.733L250.3,153.95h-.263v3.064H248.4V149h2.2a2.305,2.305,0,0,1,2.329,2.468A2.381,2.381,0,0,1,251.908,153.659Zm-1.636-1.317c.915,0,1.026-.513,1.026-.887,0-.333-.111-.887-.957-.887h-.333v1.775Z" transform="translate(-248.302 -141.471)" fill="#fff"/>
    <path id="Path_233" data-name="Path 233" d="M287.086,156.914l-.18-1.4H285.63l-.18,1.4H283.8l1.165-8.014h2.607l1.165,8.014Zm-1.22-2.884h.818l-.4-3.438Z" transform="translate(-278.794 -141.385)" fill="#fff"/>
    <path id="Path_234" data-name="Path 234" d="M323.628,150.65H322.2V149h4.548v1.65H325.32v6.364h-1.692Z" transform="translate(-311.87 -141.471)" fill="#fff"/>
    <path id="Path_235" data-name="Path 235" d="M360.694,153.762c0,.388.152.763.679.763a.63.63,0,0,0,.679-.693c0-.333.042-.776-.832-1.151-1.386-.624-2.107-1.165-2.107-2.51a2.15,2.15,0,0,1,2.26-2.371,2.108,2.108,0,0,1,2.274,2.371v.458h-1.595v-.458a.684.684,0,1,0-1.359-.028c0,.388.111.61.984.984,1.109.485,1.955,1,1.955,2.634a2.269,2.269,0,1,1-4.534,0V153.1h1.581v.665Z" transform="translate(-343.654 -140.438)" fill="#fff"/>
  </g>
  <g id="Group_102" data-name="Group 102" transform="translate(43.596 9.535)">
    <path id="Path_236" data-name="Path 236" d="M545.683,199.681c0,.083.042.055.055.055C545.711,199.611,545.669,199.681,545.683,199.681Z" transform="translate(-525.334 -191.805)" fill="#fff"/>
    <path id="Path_237" data-name="Path 237" d="M544.428,189.166l.014.028L544.4,189Z" transform="translate(-524.231 -182.622)" fill="#fff"/>
    <path id="Path_238" data-name="Path 238" d="M544.129,182.007l.069.1c-.014-.263-.069-.61-.055-.8-.069.125.028.444.014.665Z" transform="translate(-523.988 -175.99)" fill="#fff"/>
    <path id="Path_239" data-name="Path 239" d="M545.1,176.509v-.153C545.087,176.4,545.073,176.2,545.1,176.509Z" transform="translate(-524.821 -171.712)" fill="#fff"/>
    <path id="Path_240" data-name="Path 240" d="M545.3,177.274c0,.125.014-.083,0,0Z" transform="translate(-525.007 -172.505)" fill="#fff"/>
    <path id="Path_241" data-name="Path 241" d="M545,172.472l.028.166c.014-.042.014-.194.028-.139C545.041,172.333,545.028,172.375,545,172.472Z" transform="translate(-524.748 -168.313)" fill="#fff"/>
    <path id="Path_242" data-name="Path 242" d="M544.6,171.9l.014.083A.244.244,0,0,0,544.6,171.9Z" transform="translate(-524.403 -167.893)" fill="#fff"/>
    <path id="Path_243" data-name="Path 243" d="M544.594,172.5c-.028-.014,0,.028.014.1l-.028-.194C544.566,172.442,544.538,172.442,544.594,172.5Z" transform="translate(-524.37 -168.324)" fill="#fff"/>
    <path id="Path_244" data-name="Path 244" d="M544.5,174.655c.028.333.069.277.055-.055C544.528,174.7,544.528,174.822,544.5,174.655Z" transform="translate(-524.317 -170.219)" fill="#fff"/>
    <path id="Path_245" data-name="Path 245" d="M543.614,180.9l-.014.125.028.111C543.614,181.076,543.642,180.882,543.614,180.9Z" transform="translate(-523.542 -175.641)" fill="#fff"/>
    <path id="Path_246" data-name="Path 246" d="M544.6,165.358l.028.125c.014-.069.014-.194.042-.194C544.641,165.275,544.614,165.344,544.6,165.358Z" transform="translate(-524.403 -162.197)" fill="#fff"/>
    <path id="Path_247" data-name="Path 247" d="M544.394,164.594l-.028-.194C544.352,164.58,544.366,164.608,544.394,164.594Z" transform="translate(-524.197 -161.433)" fill="#fff"/>
    <path id="Path_248" data-name="Path 248" d="M543.9,171.2l.014.069.069.3Z" transform="translate(-523.801 -167.29)" fill="#fff"/>
    <path id="Path_249" data-name="Path 249" d="M544.714,159.483l.042.111-.055-.194Z" transform="translate(-524.49 -157.126)" fill="#fff"/>
    <path id="Path_250" data-name="Path 250" d="M544.6,154.274c.028.083.042-.111.069-.028a2.545,2.545,0,0,0-.069-.347A.849.849,0,0,1,544.6,154.274Z" transform="translate(-524.403 -152.389)" fill="#fff"/>
    <path id="Path_251" data-name="Path 251" d="M544.4,152.7l.042.166Z" transform="translate(-524.231 -151.355)" fill="#fff"/>
    <path id="Path_252" data-name="Path 252" d="M544.3,161.083v.069c.014-.014.028-.042.042-.153Z" transform="translate(-524.145 -158.504)" fill="#fff"/>
    <path id="Path_253" data-name="Path 253" d="M544.3,160.566h0v0Z" transform="translate(-524.145 -157.988)" fill="#fff"/>
    <path id="Path_254" data-name="Path 254" d="M544.3,162.114v0Z" transform="translate(-524.145 -159.452)" fill="#fff"/>
    <path id="Path_255" data-name="Path 255" d="M543.5,166.783c-.028-.111-.069-.347-.1-.111C543.441,166.741,543.455,166.617,543.5,166.783Z" transform="translate(-523.37 -163.303)" fill="#fff"/>
    <path id="Path_256" data-name="Path 256" d="M543.9,162.9v.208c.014,0,.028-.042.042.014Z" transform="translate(-523.801 -160.141)" fill="#fff"/>
    <path id="Path_257" data-name="Path 257" d="M543.8,162.2l.014.1v-.069Z" transform="translate(-523.714 -159.538)" fill="#fff"/>
    <path id="Path_258" data-name="Path 258" d="M543.9,153.447c.014.014.042.069.042-.055a1.633,1.633,0,0,1-.042-.291Z" transform="translate(-523.801 -151.7)" fill="#fff"/>
    <path id="Path_259" data-name="Path 259" d="M544.135,158.214V158.2C544.121,158.2,544.121,158.214,544.135,158.214Z" transform="translate(-523.994 -156.093)" fill="#fff"/>
    <path id="Path_260" data-name="Path 260" d="M543.6,143.8v.042h.014Z" transform="translate(-523.542 -143.689)" fill="#fff"/>
    <path id="Path_261" data-name="Path 261" d="M543.8,155.657a.719.719,0,0,0,.028.194c0-.069-.014-.139-.014-.208C543.814,155.63,543.8,155.63,543.8,155.657Z" transform="translate(-523.714 -153.883)" fill="#fff"/>
    <path id="Path_262" data-name="Path 262" d="M544.014,150.5a.522.522,0,0,0-.014.153A.3.3,0,0,0,544.014,150.5Z" transform="translate(-523.887 -149.46)" fill="#fff"/>
    <path id="Path_263" data-name="Path 263" d="M544.2,157.862h0C544.214,157.848,544.214,157.862,544.2,157.862Z" transform="translate(-524.059 -155.796)" fill="#fff"/>
    <path id="Path_264" data-name="Path 264" d="M544.028,157.211c-.014-.042-.014-.083-.028-.111,0,.055.014.1.014.139C544.028,157.239,544.028,157.225,544.028,157.211Z" transform="translate(-523.887 -155.145)" fill="#fff"/>
    <path id="Path_265" data-name="Path 265" d="M543.6,144.6l.014.083v-.069a.243.243,0,0,1,.014-.083c.014-.069.014-.166.028-.263-.028-.222-.042-.25-.056-.263l.014.624Z" transform="translate(-523.542 -143.861)" fill="#fff"/>
    <path id="Path_266" data-name="Path 266" d="M543.111,149.274c-.042-.069-.069-.263-.111-.139.014.236.042.166.069.305-.028-.388.028.111.042-.166,0,.083.014.153.014.208,0-.069.014-.139.014-.208v.014h0c0,.014-.014.028,0,0v-.014a.019.019,0,0,1-.028,0c0-.111.014-.014.014.014h0l-.041-.388C543.1,148.983,543.1,149.08,543.111,149.274Z" transform="translate(-523.025 -148.082)" fill="#fff"/>
    <path id="Path_267" data-name="Path 267" d="M542.7,165.537Z" transform="translate(-522.767 -162.39)" fill="#fff"/>
    <path id="Path_268" data-name="Path 268" d="M542.814,163.394a.256.256,0,0,1,.028.139c-.014.083-.028,0-.042,0,.014.055.042.194.056.014l-.014-.028a2.394,2.394,0,0,1,.055-.319A.9.9,0,0,0,542.814,163.394Z" transform="translate(-522.853 -160.399)" fill="#fff"/>
    <path id="Path_269" data-name="Path 269" d="M543.5,163.2c0-.014.014-.014,0,0C543.514,163.173,543.5,163.187,543.5,163.2Z" transform="translate(-523.456 -160.386)" fill="#fff"/>
    <path id="Path_270" data-name="Path 270" d="M542.855,156.019l-.028-.319-.028.166.028-.014C542.814,156.033,542.842,155.991,542.855,156.019Z" transform="translate(-522.853 -153.939)" fill="#fff"/>
    <path id="Path_271" data-name="Path 271" d="M542.063,143.028c.014.014.028.014.042.028l-.014-.056-.291.069.263-.042Z" transform="translate(-521.992 -143)" fill="#fff"/>
    <path id="Path_272" data-name="Path 272" d="M538.111,143.2l-.111.028.1.014Z" transform="translate(-518.719 -143.172)" fill="#fff"/>
    <path id="Path_273" data-name="Path 273" d="M462.172,145.949c-.139-.028-.291-.083-.277-.042l.042.042A.669.669,0,0,1,462.172,145.949Z" transform="translate(-453.164 -145.491)" fill="#fff"/>
    <path id="Path_274" data-name="Path 274" d="M505.6,144.614a2.568,2.568,0,0,0-.3-.014C505.452,144.628,505.563,144.655,505.6,144.614Z" transform="translate(-490.552 -144.378)" fill="#fff"/>
    <path id="Path_275" data-name="Path 275" d="M399.9,181.983c.014.055.014.083.028.083C399.914,182.011,399.9,181.969,399.9,181.983Z" transform="translate(-399.766 -176.576)" fill="#fff"/>
    <path id="Path_276" data-name="Path 276" d="M502.8,144.557a.125.125,0,0,1,.069.014c.083-.014.18-.014.277-.028A1,1,0,0,0,502.8,144.557Z" transform="translate(-488.399 -144.322)" fill="#fff"/>
    <path id="Path_277" data-name="Path 277" d="M534.566,202.1a.8.8,0,0,0-.166.014A.435.435,0,0,1,534.566,202.1Z" transform="translate(-515.618 -193.906)" fill="#fff"/>
    <path id="Path_278" data-name="Path 278" d="M526.4,143.735c.1-.014.014-.014,0,0Z" transform="translate(-508.727 -143.624)" fill="#fff"/>
    <path id="Path_279" data-name="Path 279" d="M529.4,144.928a.108.108,0,0,1,.041-.028C529.414,144.914,529.4,144.914,529.4,144.928Z" transform="translate(-511.311 -144.637)" fill="#fff"/>
    <path id="Path_280" data-name="Path 280" d="M526.711,143.814c-.028,0-.069-.014-.111-.014A.748.748,0,0,0,526.711,143.814Z" transform="translate(-508.899 -143.689)" fill="#fff"/>
    <path id="Path_281" data-name="Path 281" d="M527.3,143.7h0Z" transform="translate(-509.502 -143.603)" fill="#fff"/>
    <path id="Path_282" data-name="Path 282" d="M525.625,143.8a.477.477,0,0,0-.125.014h.139A.014.014,0,0,0,525.625,143.8Z" transform="translate(-507.952 -143.689)" fill="#fff"/>
    <path id="Path_283" data-name="Path 283" d="M444.9,166.4l.8-.028-.5-2.676Z" transform="translate(-438.527 -160.83)" fill="#fff"/>
    <path id="Path_284" data-name="Path 284" d="M418.534,151.317l.5-.014-.263-7.085v.028l.028-.014c0-.111-.028-.18-.028-.125l-.014-.277c.014.069.055.083.1.028a.953.953,0,0,0,.125-.36c-.014,0-.014.014-.028-.042a1.477,1.477,0,0,1-.25.042.737.737,0,0,0,.194.014c-.014.18-.028.333-.055.208,0-.055-.014-.111-.014-.139-.166.014-.125-.014-.25-.028.055.028-.055.042-.166.069a.266.266,0,0,0-.166.069l-1.608.055c.014,0,.014-.014-.014-.014l-.153.014c-.139-.042.277-.069.083-.083a2.534,2.534,0,0,1,.707-.083l.055.055a.691.691,0,0,0-.263-.014c.111-.028.43.069.555-.014l-.194-.042a3.3,3.3,0,0,1,.693-.111c-.111-.055-.055.014-.236-.055.152.083-.638.014-.388.111-.18-.083-.319-.028-.555-.083.014.014.083.042-.125.028-.014,0-.028.014-.042.014h0c.055.014.1.014.111.028a3.391,3.391,0,0,1-.541.1c-.125,0,.055-.028-.014-.042l-.166.042c-.014-.042-.333-.069-.042-.1l-.263.014a2,2,0,0,0-.5,0c-.125,0-.319.069-.208.028l-.416.042v-.014a6.648,6.648,0,0,1-1.3.042,2.627,2.627,0,0,1-.513.028l-.042-.042a2.677,2.677,0,0,0-.61.028,5.425,5.425,0,0,0-1.165,0l-.014.055a6.676,6.676,0,0,0-.679.055l.014.042c-.222.042-.582-.014-.957,0a.627.627,0,0,1,.18-.014c-.43-.083-.915.111-1.3.042a1.509,1.509,0,0,1-.236.014h-.014c-.042,0-.083-.014-.139-.014a.344.344,0,0,0,.111.014c-.069,0-.194.014-.3.028l-.055-.042h-.028c-.111-.014-.083.028-.028.069-.056.014-.111.028-.153.042-.1-.083-.291.042-.416-.042-.069.042-.485.055-.6.125a1.538,1.538,0,0,0-.36.014l-.055-.055-.263.1c-.166-.028-.236-.055-.069-.111-.388.083-.319.042-.652.125l.014-.042c-.125,0-.305.069-.388.042-.277-.069-1.331.042-2.024-.014.139.111-.319-.042-.347.055-.042-.028-.139-.042-.028-.069a3.16,3.16,0,0,0-.776.069c-.042-.028.069-.042.042-.055a.276.276,0,0,1-.153.014c-.042-.014.055-.028.111-.042-.36.014-.388.111-.416.194a.549.549,0,0,0-.4.042c-.069-.028-.166-.055.055-.069-.125,0-.776-.014-.776.055a.511.511,0,0,0-.208.014,6.909,6.909,0,0,0-.707.028h.111a.169.169,0,0,1-.125.042c.014.1-.014.208,0,.4l-.014-.014a.677.677,0,0,1-.014.18v.1a.238.238,0,0,0,.014.111,1.071,1.071,0,0,1-.014.36l.055-.028c.111.042-.042.458,0,.749l.028-.111c.042.153-.125.458-.139.61-.014.042-.014-.055-.028-.1-.042.43.069.055.1.361-.028.055-.1-.069-.1.139a6.064,6.064,0,0,1,.083.9c.028-.069.055-.125.069.014.014.222-.083.61.014.8a.061.061,0,0,1-.014.042,3.73,3.73,0,0,0,.111.652c-.166.166.125,1.068-.042,1.068l.028.527-.014-.014a1.542,1.542,0,0,0,.083.582c0,.111-.028.028-.028.028v.541a3.405,3.405,0,0,0,.388-.028c.069-.014.139-.014.208-.028s.111-.028.18-.042l.042.055a9.565,9.565,0,0,0,1.192-.028.151.151,0,0,1-.055.028c.541-.083,1.3.1,1.5-.1l.361-.055c-.458,0,.069-.083-.125-.111.18-.014.471.042.25.055l-.042-.014c-.083.1.582.014.568.083.915-.042,1.8-.014,2.662-.042l-.1-.069h.305c.083.014.111.055-.111.055a.587.587,0,0,0,.361-.069c.416.014-.153.1-.028.1l.166-.014-.042-.014a.906.906,0,0,1,.4-.069c.166.014.083.042.153.042a.166.166,0,0,0,.1,0l.374-.014-.152-.055c.166-.042.347-.014.18-.069a11.935,11.935,0,0,0,1.567.014,4.051,4.051,0,0,1,.749-.069c-.069-.014-.111-.069.125-.083-.083.139.458.042.652.139-.18-.055.693-.042.416-.125.208,0,.014.055.166.083.485-.069,1.081,0,1.678-.042.014-.014-.1-.042.042-.069l.319.083c.125-.014.111-.111.333-.055-.028-.014-.083-.042,0-.042,1.192.042,2.412-.166,3.619-.042-.166-.028-.055-.042.069-.042-.083,0,0-.042-.014-.069l.5.055c.083-.069.541-.028.582-.1l-.153.014C418.742,151.4,418.644,151.358,418.534,151.317Zm.222-7.681a.62.62,0,0,1-.014.153v-.139l-.208.014A1.213,1.213,0,0,1,418.755,143.636Zm-12.27.347a.014.014,0,0,0-.014.014C406.471,143.982,406.43,143.982,406.485,143.982Zm-.707.055a.117.117,0,0,0,0,.1l-.222.014Zm-5.1.25.36-.055c.042.014.014.028-.055.069.028,0,.042-.014.069-.014.055.014.069.014.069.028h-.18c.014,0,.028-.014.042-.014a.2.2,0,0,0-.083.028h-.083A.368.368,0,0,0,400.676,144.287Zm1.761,6.614c-1.123.042-1.428-.79-1.456-1.5l-.083-2.343c-.028-.9.4-1.567,1.345-1.594,1.178-.042,1.442.776,1.47,1.5v.1l-.8.028v-.1c-.014-.222-.042-.776-.638-.749s-.582.568-.582.8l.083,2.343c.014.222.042.763.638.749s.582-.568.582-.79l-.028-.776-.61.028-.028-.776,1.4-.055.055,1.553A1.35,1.35,0,0,1,402.436,150.9Zm4.021-.25-.194-1.026-1.054.042-.111,1.026-.8.028.624-5.255,1.3-.042,1.012,5.2Zm9.179-7.127Zm-3.23.319c-.014.014.028.028.042.042l-.263.014A1.3,1.3,0,0,1,412.405,143.844Zm-3.383.028.069.028.291-.055c-.069.042-.208.1-.36.166l-.485.014A2.827,2.827,0,0,1,409.022,143.871Zm-1.511,8.055-.055-.014C407.58,151.885,407.539,151.9,407.511,151.927Zm2.218-1.4-.111-3.161-.555,1.594-.666-1.553.111,3.161-.8.028-.194-5.227.8-.028.665,1.567.555-1.608.79-.028.194,5.227Zm.9-6.711a4.345,4.345,0,0,1,.6.1c.014.014.028.014.028.028l-.319.014-.014-.083-.042.083-.319.014A.313.313,0,0,1,410.631,143.816Zm.444,6.655-.194-5.227,2.8-.1.028.79-1.969.069.055,1.428,1.733-.069.028.79-1.733.069.055,1.428,1.969-.069.028.8Zm2.717-6.627a2.583,2.583,0,0,1,.6-.153c.319-.028.139.055.194.042.61-.014.513-.166,1.026-.125.208.042.014.111.055.152a3.77,3.77,0,0,1-.582-.014l.222.014a1.033,1.033,0,0,1-.361.028.783.783,0,0,0,.1.014Zm2.01,6.558c-1.123.042-1.428-.79-1.456-1.5l-.014-.471.763-.028.014.471c.014.25.069.763.665.749a.666.666,0,0,0,.61-.749.958.958,0,0,0-.679-.846c-.915-.374-1.4-.582-1.442-1.539a1.294,1.294,0,0,1,1.345-1.525c1.137-.042,1.442.776,1.47,1.5v.18l-.776.028v-.18c-.014-.222-.083-.776-.666-.749-.665.028-.61.61-.61.776.014.25.153.527.735.721.679.236,1.359.541,1.386,1.608A1.321,1.321,0,0,1,415.8,150.4Zm2.676-6.738h0Z" transform="translate(-398.933 -143.344)" fill="#fff"/>
    <path id="Path_285" data-name="Path 285" d="M531.88,143.428c0-.014-.028-.028,0-.028l-.18.014A.625.625,0,0,1,531.88,143.428Z" transform="translate(-513.292 -143.345)" fill="#fff"/>
    <path id="Path_286" data-name="Path 286" d="M534.75,144.363c.042-.055-.111-.042-.25-.014.014.042.139.028.277.014Z" transform="translate(-515.704 -144.141)" fill="#fff"/>
    <path id="Path_287" data-name="Path 287" d="M536.825,144.423c.014-.028-.056,0-.125,0A.376.376,0,0,0,536.825,144.423Z" transform="translate(-517.599 -144.215)" fill="#fff"/>
    <path id="Path_288" data-name="Path 288" d="M523.53,143.759c.069.014.042-.055.069-.042C523.682,143.662,523.183,143.8,523.53,143.759Z" transform="translate(-506.148 -143.606)" fill="#fff"/>
    <path id="Path_289" data-name="Path 289" d="M534.4,145.155h.125l-.055-.055Z" transform="translate(-515.618 -144.809)" fill="#fff"/>
    <path id="Path_290" data-name="Path 290" d="M527.5,145.414h.222c0-.014.028-.014.055-.014A1.142,1.142,0,0,0,527.5,145.414Z" transform="translate(-509.674 -145.067)" fill="#fff"/>
    <path id="Path_291" data-name="Path 291" d="M529.5,145.314a.676.676,0,0,0,.18-.014A.851.851,0,0,0,529.5,145.314Z" transform="translate(-511.397 -144.981)" fill="#fff"/>
    <path id="Path_292" data-name="Path 292" d="M508.961,146.028c-.028.014.042.028.125.014.055-.014.139-.028.111-.042Z" transform="translate(-493.701 -145.584)" fill="#fff"/>
    <path id="Path_293" data-name="Path 293" d="M540.3,202.214l.194.014-.125-.028Z" transform="translate(-520.7 -193.992)" fill="#fff"/>
    <path id="Path_294" data-name="Path 294" d="M542.8,201.6l.042.069.111-.069A.285.285,0,0,1,542.8,201.6Z" transform="translate(-522.853 -193.475)" fill="#fff"/>
  </g>
</svg>
