<svg id="Logo_Purple_Me" xmlns="http://www.w3.org/2000/svg" width="188.883" height="67.278" viewBox="0 0 188.883 67.278">
  <g id="Group_93" data-name="Group 93">
    <path id="Path_124" data-name="Path 124" d="M124.384,139.94a0,0,0,0,0,0,0v0Z" transform="translate(-101.266 -110.672)" fill="#fff"/>
    <path id="Path_125" data-name="Path 125" d="M99.451,67.444a10.854,10.854,0,0,1-6.538,6.751,35.951,35.951,0,0,1-4.538,1.251c-.494.125-.984.258-1.471.418-.243.08-.487.167-.726.258-.114.046-.312.133-.456.19a2.547,2.547,0,0,0-.49-1.786c.08.122.163,1.84-.585,2.311a8.045,8.045,0,0,0-.737.547,10.473,10.473,0,0,0-.851.737,17.356,17.356,0,0,0-1.52,1.691c-.551.684-1.076,1.387-1.623,2.072-1.923,2.406-3.858,3.923-6.8,4.512A10.409,10.409,0,0,0,69.4,88.24a.767.767,0,0,1-1.216-.623V81.934a4.257,4.257,0,0,1,.794-2.478,12.441,12.441,0,0,1,1.3-1.627,6.6,6.6,0,0,0-2.265,1.528A13.8,13.8,0,0,1,70,75.164a5.092,5.092,0,0,0-1.977,2.121A13.57,13.57,0,0,1,81.5,64.879h4.174c2.072,0,2.672-1.581,4.979-1.939a6.369,6.369,0,0,0-2.3,1.939c.449,0,1.817-1.163,3.425-1.163-.753.171-2.273,1.163-1.072,1.163h8a1.047,1.047,0,0,1,.981,1.114A6.894,6.894,0,0,1,99.451,67.444Z" transform="translate(-66.329 -62.94)" fill="#fff"/>
    <path id="Path_126" data-name="Path 126" d="M198.8,74.416a8.56,8.56,0,0,0,2.767,1.714,5.632,5.632,0,0,1-2.4-.4,12.661,12.661,0,0,1,1.053,5.143V85.72a2.718,2.718,0,0,1-.16,1.273c-.224.392-1.053.616-1.27,1.346a2.877,2.877,0,0,1,1.3-.559,3.671,3.671,0,0,0-1.007,2.2c.346-1.049.779-1.239,1.133-1.342v2.942a1.009,1.009,0,0,1-1.475.92c-2.436-1.289-4.637-1.707-6.291-2.611a6.131,6.131,0,0,1-2.938-3.159c-.407-1.125-.376-2.414-1.011-3.432a3.739,3.739,0,0,0-1.292-1.2c-.532-.312-1.19-.331-1.718-.631A6.418,6.418,0,0,1,183,78.259a3.636,3.636,0,0,0,1.232,2.9,8.819,8.819,0,0,1-1.908-1.4,2.952,2.952,0,0,0,.924,1.372,5.777,5.777,0,0,1-2.387-.707c-2.877-1.661-1.919-4.375-.528-6.222,1.095-1.452,2.41-3,2.82-4.911a1.537,1.537,0,0,1,1.422-1.262h2.893a13.118,13.118,0,0,1,1.809.125,13.332,13.332,0,0,1,7.062,3.527,8.407,8.407,0,0,0,2.235,1.7,7.385,7.385,0,0,0,3.36,1.03A5.537,5.537,0,0,1,198.8,74.416Z" transform="translate(-135.121 -66.095)" fill="#fff"/>
    <path id="Path_127" data-name="Path 127" d="M152.546,194.089a10.8,10.8,0,0,1,6.515-6.724,36.351,36.351,0,0,1,4.523-1.247c.494-.125.984-.258,1.467-.414.243-.08.483-.163.722-.258.114-.046.312-.133.452-.19a2.529,2.529,0,0,0,.49,1.779c-.076-.122-.16-1.832.582-2.3a8,8,0,0,0,.734-.547,10.37,10.37,0,0,0,.848-.734,17.642,17.642,0,0,0,1.513-1.684c.547-.68,1.072-1.384,1.615-2.064,1.916-2.4,3.847-3.911,6.781-4.5a10.437,10.437,0,0,0,3.695-1.836.742.742,0,0,1,1.182.62v5.664a4.19,4.19,0,0,1-.76,2.467,12.653,12.653,0,0,1-1.3,1.623,5.445,5.445,0,0,0,2.06-1.365,12.726,12.726,0,0,1-1.775,4.021,4.5,4.5,0,0,0,1.775-2.117,13.278,13.278,0,0,1-13.239,12.292h-4.162c-2.064,0-2.661,1.646-4.96,2.007a6.787,6.787,0,0,0,2.353-2.007c-.449,0-1.866,1.232-3.467,1.232.749-.171,2.277-1.232,1.079-1.232h-7.986a.977.977,0,0,1-.977-1.038A7.294,7.294,0,0,1,152.546,194.089Z" transform="translate(-118.576 -131.304)" fill="#fff"/>
    <path id="Path_128" data-name="Path 128" d="M66.725,187.918a8.654,8.654,0,0,0-2.794-1.733,5.689,5.689,0,0,1,2.425.4,12.874,12.874,0,0,1-1.091-5.2v-4.9a2.419,2.419,0,0,1,.156-1.232c.239-.384,1.1-.665,1.319-1.4a2.869,2.869,0,0,1-1.315.563,3.725,3.725,0,0,0,1.019-2.227c-.35,1.06-.813,1.251-1.174,1.353v-2.969a1.039,1.039,0,0,1,1.517-.927c2.459,1.3,4.679,1.726,6.351,2.638a6.22,6.22,0,0,1,2.969,3.189c.411,1.137.38,2.44,1.019,3.467a3.807,3.807,0,0,0,1.3,1.216,13.164,13.164,0,0,0,1.737.635,5.85,5.85,0,0,1,2.512,3.238,3.671,3.671,0,0,0-1.243-2.931,8.6,8.6,0,0,1,1.923,1.418,2.972,2.972,0,0,0-.931-1.384,5.883,5.883,0,0,1,2.41.711c2.9,1.676,1.939,4.417.536,6.283-1.1,1.467-2.433,3.033-2.847,4.957a1.481,1.481,0,0,1-1.437,1.2H78.17a12.86,12.86,0,0,1-6.868-1.984,12.942,12.942,0,0,1-2.083-1.634,8.429,8.429,0,0,0-2.258-1.714,7.532,7.532,0,0,0-3.39-1.041A5.593,5.593,0,0,1,66.725,187.918Z" transform="translate(-63.57 -129.018)" fill="#fff"/>
    <line id="Line_5" data-name="Line 5" transform="translate(2.706 12.996)" fill="#fff"/>
  </g>
  <path id="Path_129" data-name="Path 129" d="M132.217,123.872s-1.631-1.418-2.946.072a2.586,2.586,0,0,0,.148,3.581s.046-1.289,1.034-1.125c1.019.167.7,1.593.414,2.22a3.937,3.937,0,0,1-2.607,2.25,3.792,3.792,0,0,1-4.075-1.961.909.909,0,0,1-.144-.711c.084-.251.342-.388.528-.578a1.142,1.142,0,1,0-1.688-.049c.182.213.452.38.5.654a.816.816,0,0,1-.16.566,3.57,3.57,0,0,1-2.877,1.691,3.77,3.77,0,0,1-3.763-3.6c-.008-.521.2-1.152.806-1.194,1-.072.927,1.216.927,1.216a2.589,2.589,0,0,0,.49-3.55,2.082,2.082,0,0,0-2.923-.365,4.546,4.546,0,0,0-2.467-2.55,4.541,4.541,0,0,0-1.041,3.394s-2.125-.319-2.448,1.642a2.6,2.6,0,0,0,2.056,2.942s-.658-1.114.266-1.5c.939-.4,1.437.939,1.536,1.619a3.661,3.661,0,0,1-5.58,3.721.665.665,0,0,1-.213-.882,1.12,1.12,0,0,0,.11-.718,1.148,1.148,0,0,0-1.167-.927,1.073,1.073,0,0,0-.509.148,1.124,1.124,0,0,0,.308,2.075,1.421,1.421,0,0,0,.213.027.668.668,0,0,1,.677.616A3.876,3.876,0,0,1,106,135.975a3.339,3.339,0,0,1-1.152.479,4.058,4.058,0,0,1-3.554-1.064c-.441-.43-1.026-1.323-.418-1.862.019-.015.038-.034.061-.049.813-.6,1.441.532,1.441.532a2.6,2.6,0,0,0-1.49-3.265,2.094,2.094,0,0,0-2.664,1.277,4.569,4.569,0,0,0-3.451-.84l9.94,11.776a5,5,0,0,0,3.546,1.76l.3.015a36.11,36.11,0,0,0,20.206-4.85l.258-.156a5.019,5.019,0,0,0,2.364-3.2l3.512-14.98A4.729,4.729,0,0,0,132.217,123.872Z" transform="translate(-82.911 -98.584)" fill="#fff"/>
  <g id="Group_94" data-name="Group 94" transform="translate(75.104 36.364)">
    <path id="Path_130" data-name="Path 130" d="M266.124,171.488h-3.653v-9.525a4.022,4.022,0,0,0-1.311-2.893h4.968v12.418Z" transform="translate(-261.16 -158.895)" fill="#fff"/>
    <path id="Path_131" data-name="Path 131" d="M291.231,167.6v.213c0,2.341-2.429,3.565-5.321,3.565a10.517,10.517,0,0,1-5.819-1.562l2.786-2.467A4.366,4.366,0,0,0,286,168.61c.924,0,1.6-.3,1.6-.886v-.087c0-.692-.658-1.011-3.121-1.843-2.341-.8-3.8-1.775-3.8-3.812V161.8c0-2.163,2.554-3.193,5.109-3.193a8.142,8.142,0,0,1,5.268,1.562l-2.535,2.235a3.254,3.254,0,0,0-2.748-1.33c-.958,0-1.631.338-1.631.8v.106c0,.479.639.851,2.946,1.631C289.866,164.551,291.231,165.3,291.231,167.6Z" transform="translate(-272.895 -158.61)" fill="#fff"/>
  </g>
  <g id="Group_95" data-name="Group 95" transform="translate(74.503 12.349)">
    <path id="Path_132" data-name="Path 132" d="M277.042,100.109v2.718c0,3.622-2.923,4.656-7.708,4.656h-2.509v6.055H261.5V99.645a5.837,5.837,0,0,0-1.916-4.215h9.753C274.119,95.43,277.042,96.464,277.042,100.109Zm-5.329.392c0-1.034-.749-1.528-2.379-1.528h-2.509v4.995h2.509c1.631,0,2.379-.49,2.379-1.551Z" transform="translate(-259.58 -95.43)" fill="#fff"/>
    <path id="Path_133" data-name="Path 133" d="M327.833,95.43v12.7c0,4.424-4.5,5.667-7.967,5.667s-7.94-1.243-7.94-5.667V99.649a5.837,5.837,0,0,0-1.916-4.215h7.245V107.7a2.645,2.645,0,0,0,5.223,0V95.43Z" transform="translate(-290.842 -95.43)" fill="#fff"/>
    <path id="Path_134" data-name="Path 134" d="M374.558,113.511l-1.965-6.287h-3.128v6.313h-5.329V99.645a5.837,5.837,0,0,0-1.916-4.215h9.753c4.785,0,7.708,1.034,7.708,4.683v2.459a3.8,3.8,0,0,1-2.2,3.752l2.611,7.192h-5.534Zm-2.588-9.8c1.631,0,2.379-.49,2.379-1.551V100.5c0-1.034-.749-1.528-2.379-1.528h-2.509v4.736Z" transform="translate(-323.206 -95.43)" fill="#fff"/>
    <path id="Path_135" data-name="Path 135" d="M432.692,100.109v2.718c0,3.622-2.923,4.656-7.708,4.656h-2.509v6.055h-5.329V99.645a5.837,5.837,0,0,0-1.916-4.215h9.753C429.769,95.43,432.692,96.464,432.692,100.109Zm-5.329.392c0-1.034-.749-1.528-2.379-1.528h-2.509v4.995h2.509c1.631,0,2.379-.49,2.379-1.551Z" transform="translate(-356.067 -95.43)" fill="#fff"/>
    <path id="Path_136" data-name="Path 136" d="M467.576,113.538V99.645a5.837,5.837,0,0,0-1.916-4.215H472.9v14.018h4.941a4,4,0,0,0,3.725-1.809l1.992,5.9H467.576Z" transform="translate(-387.329 -95.43)" fill="#fff"/>
    <path id="Path_137" data-name="Path 137" d="M529.124,108.182c.646,1.786,1.965,5.329,1.965,5.329l-16.014.027V99.645a5.837,5.837,0,0,0-1.916-4.215l17.929.027c-.646,1.786-1.319,3.543-1.965,5.329a4,4,0,0,0-3.725-1.809h-4.964v3.752h5.743c-.517,1.422-.775,2.094-1.319,3.52h-4.424V110H525.4A4.015,4.015,0,0,0,529.124,108.182Z" transform="translate(-416.774 -95.43)" fill="#fff"/>
    <path id="Path_138" data-name="Path 138" d="M331.119,177.234l-1.98-6.332h-3.155v6.359h-5.367V163.27a5.9,5.9,0,0,0-1.927-4.25h9.826c4.82,0,7.765,1.041,7.765,4.717v2.474a3.83,3.83,0,0,1-2.216,3.778l2.634,7.245Zm-2.6-9.875c1.642,0,2.4-.494,2.4-1.562v-1.669c0-1.041-.756-1.539-2.4-1.539h-2.528v4.77Z" transform="translate(-296.222 -134.849)" fill="#fff"/>
    <path id="Path_139" data-name="Path 139" d="M374.7,171.413v-7.374c0-4.455,4.535-5.709,8.028-5.709s8,1.251,8,5.709v7.374c0,4.455-4.508,5.705-8,5.705S374.7,175.872,374.7,171.413Zm10.658-.441v-6.488a2.666,2.666,0,0,0-5.264,0v6.488a2.666,2.666,0,0,0,5.264,0Z" transform="translate(-330.943 -134.422)" fill="#fff"/>
    <path id="Path_140" data-name="Path 140" d="M426.364,174.368a4.341,4.341,0,0,0-.027-3.337l-3.467-8.442a7.578,7.578,0,0,0-2.581-3.569h6.595l3.1,8.286,3.128-8.286h5.5l-7.507,18.241h-5.941Z" transform="translate(-359.204 -134.849)" fill="#fff"/>
    <path id="Path_141" data-name="Path 141" d="M468.605,163.372a3.971,3.971,0,0,0-.965-4.223l-.129-.129h8.054l6.644,18.241h-5.367l-1.3-3.569h-4.77a.785.785,0,0,0-.73.521l-1.121,3.048H463.55Zm5.629,6.8c-.521-1.406-.832-2.372-1.357-3.778-.521,1.406-.859,2.372-1.353,3.778Z" transform="translate(-386.021 -134.849)" fill="#fff"/>
    <path id="Path_142" data-name="Path 142" d="M514.987,177.261V163.27a5.894,5.894,0,0,0-1.927-4.25h7.3v14.121h4.976a4.033,4.033,0,0,0,3.752-1.824l2.007,5.945h-16.1Z" transform="translate(-416.712 -134.849)" fill="#fff"/>
  </g>
  <rect id="Rectangle_34" data-name="Rectangle 34" width="16.884" height="2.087" transform="translate(76.408 52.625)" fill="#fff"/>
</svg>
