<svg id="Manavoid_Logo_Home" xmlns="http://www.w3.org/2000/svg" width="43.423" height="51.171" viewBox="0 0 43.423 51.171">
  <path id="Path_297" data-name="Path 297" d="M177.678,182a1.392,1.392,0,0,0-.014.172v8.867h-2.025v-5.947h-.029q-.386,2.973-.787,5.947h-1.438c-.279-1.947-.551-3.879-.83-5.818h-.029v5.818H170.5V182h3c.2,1.381.394,2.755.594,4.136.157-1.016.279-2.032.415-3.049.043-.365.1-.723.15-1.088Z" transform="translate(-164.813 -182)" fill="#fff"/>
  <path id="Path_298" data-name="Path 298" d="M432.281,182v9.038c-.05,0-.086.007-.129.007h-1.789a.138.138,0,0,1-.157-.115c-.372-1.281-.751-2.562-1.124-3.843a.148.148,0,0,0-.043-.072v4.022H427.1v-8.9a.871.871,0,0,1,.014-.136h1.925c.429,1.331.852,2.662,1.281,3.993a.2.2,0,0,0,.029-.1v-3.793c0-.036-.007-.064-.007-.1C430.979,182,431.63,182,432.281,182Z" transform="translate(-403.05 -182)" fill="#fff"/>
  <path id="Path_299" data-name="Path 299" d="M312.53,182c.05.372.1.744.157,1.109.193,1.3.379,2.591.573,3.893.193,1.324.394,2.641.587,3.965a.27.27,0,0,0,.007.072h-2.362c-.043-.53-.086-1.066-.129-1.6h-.83c-.043.53-.093,1.066-.136,1.6H308c.043-.329.086-.651.129-.98l.515-3.929c.179-1.36.351-2.719.53-4.072,0-.021.014-.043.014-.057Zm-1.582,2.111c-.179,1.231-.343,2.462-.444,3.7h.794C311.177,186.573,311.063,185.342,310.948,184.111Z" transform="translate(-292.473 -182)" fill="#fff"/>
  <path id="Path_300" data-name="Path 300" d="M542.747,182c0,.551-.007,1.109,0,1.66.007,2.4.007,4.809.014,7.221v.157h-2.369c.036-.53.072-1.059.107-1.61h-.165c-.186,0-.365.007-.551,0-.093,0-.129.021-.15.114-.1.458-.208.916-.315,1.374-.007.043-.022.079-.029.129H536.9c.107-.394.215-.78.322-1.174q1.063-3.864,2.133-7.736l.043-.129C540.514,182,541.63,182,542.747,182Zm-1.9,2.111c-.007,0-.021-.007-.029-.007q-.483,1.846-.98,3.714h.816C540.729,186.573,540.793,185.342,540.85,184.111Z" transform="translate(-504.992 -182)" fill="#fff"/>
  <path id="Path_301" data-name="Path 301" d="M628.446,529.671c-.544.243-1.088.508-1.639.73a17.248,17.248,0,0,1-3.628.988c-.021,0-.043.007-.072.007,0-.043-.007-.079-.007-.114v-3.414a.119.119,0,0,1,.086-.136A14.22,14.22,0,0,0,626.542,526a30.339,30.339,0,0,1,1.9,3.6Z" transform="translate(-585.023 -501.382)" fill="#fff"/>
  <path id="Path_302" data-name="Path 302" d="M170.5,314h32.039v32.039H170.5Zm1.066,1.059V344.98h29.921V315.059Z" transform="translate(-164.813 -304.554)" fill="#fff"/>
  <path id="Path_303" data-name="Path 303" d="M537.5,777.317v-9.01a.438.438,0,0,1,.093-.007c.98,0,1.968,0,2.948.014a5.223,5.223,0,0,1,1.41.172,1.6,1.6,0,0,1,1.26,1.388,9.119,9.119,0,0,1,.064,1.081q.011,2.158-.007,4.308a6.393,6.393,0,0,1-.072.823,1.237,1.237,0,0,1-.809,1.038,3.1,3.1,0,0,1-1.138.2c-1.231.007-2.455.007-3.685.007A.144.144,0,0,0,537.5,777.317Zm2.5-7.507v5.975c.107-.007.208-.014.308-.029.286-.05.386-.136.422-.422a5.647,5.647,0,0,0,.05-.694c.007-1.281.007-2.562,0-3.85,0-.186-.014-.372-.029-.558a.348.348,0,0,0-.25-.336C540.341,769.853,540.176,769.839,540,769.81Z" transform="translate(-505.549 -726.342)" fill="#fff"/>
  <path id="Path_304" data-name="Path 304" d="M315.027,769.8c-.021.8-.029,1.625-.064,2.44a2.115,2.115,0,0,1-1.245,1.918,3.054,3.054,0,0,1-1,.293,4.082,4.082,0,0,1-1.968-.193,2.132,2.132,0,0,1-1.431-1.632,5.608,5.608,0,0,1-.086-1.095c-.007-1.167-.007-2.34,0-3.507a5.61,5.61,0,0,1,.086-1.095,2.059,2.059,0,0,1,1.288-1.574,3.769,3.769,0,0,1,3.049.021,2.088,2.088,0,0,1,1.31,1.961C315,768.166,315.005,768.975,315.027,769.8Zm-3.306.064c0,.694-.007,1.381,0,2.075a6.759,6.759,0,0,0,.05.759.29.29,0,0,0,.322.279.3.3,0,0,0,.351-.265,4.074,4.074,0,0,0,.05-.594q.011-2.319.007-4.637a5.028,5.028,0,0,0-.036-.573c-.029-.215-.136-.308-.322-.308a.329.329,0,0,0-.372.293,4.571,4.571,0,0,0-.05.623C311.714,768.3,311.721,769.082,311.721,769.869Z" transform="translate(-293.61 -723.325)" fill="#fff"/>
  <path id="Path_305" data-name="Path 305" d="M169.5,777.238c.021-3.02.043-6.018.064-9.031h2.655q-.193,3.092-.386,6.176c.057-.222.107-.444.165-.665q.708-2.705,1.41-5.41c.014-.064.029-.107.115-.107H176c.021,0,.043.007.072.007-.093.315-.193.623-.286.938q-1.224,3.961-2.44,7.922c-.043.136-.1.172-.243.172-1.152-.007-2.3,0-3.449,0Z" transform="translate(-163.884 -726.25)" fill="#fff"/>
  <path id="Path_306" data-name="Path 306" d="M448.283,777.231H445.8V768.2h2.483Z" transform="translate(-420.411 -726.25)" fill="#fff"/>
  <path id="Path_307" data-name="Path 307" d="M92.924,479.982c-.143-.25-.3-.5-.444-.759-.422-.78-.844-1.56-1.259-2.34a4.473,4.473,0,0,1-.172-.429c-.043-.1-.014-.157.086-.2a18.613,18.613,0,0,1,2.784-1.1,16.449,16.449,0,0,1,2.333-.537c.036-.007.064-.007.114-.014v3.5a.164.164,0,0,1-.129.179,14.264,14.264,0,0,0-3.142,1.6l-.15.107Z" transform="translate(-91.03 -453.661)" fill="#fff"/>
  <path id="Path_308" data-name="Path 308" d="M623.1,348.277V345.5c.15.05.286.093.422.143.157.064.315.136.465.208.064.029.086.072.057.15a19.382,19.382,0,0,1-.916,2.226C623.136,348.241,623.129,348.248,623.1,348.277Z" transform="translate(-585.023 -333.799)" fill="#fff"/>
  <path id="Path_309" data-name="Path 309" d="M153.3,691.9v2.777c-.308-.129-.608-.25-.895-.379a.142.142,0,0,1-.05-.129,17.273,17.273,0,0,1,.93-2.261C153.281,691.907,153.288,691.907,153.3,691.9Z" transform="translate(-147.966 -655.41)" fill="#fff"/>
  <g id="Group_176" data-name="Group 176" transform="translate(6.546 12.852)">
    <path id="Path_310" data-name="Path 310" d="M236.112,388.465c-.072-.029-.107-.043-.15-.057a2.9,2.9,0,0,1-1.66-2.362,2.667,2.667,0,0,1,2.111-2.963c.386-.107.794-.165,1.181-.258a4.863,4.863,0,0,0,1.632-.73,1.686,1.686,0,0,0,.68-.988,2.762,2.762,0,0,0-.236-1.825c.043.193.079.351.107.515a3.086,3.086,0,0,1-.064,1.51.669.669,0,0,1-.157.265,2.03,2.03,0,0,1-1.038.608,1.839,1.839,0,0,1-2.04-1.109,6.986,6.986,0,0,1-.258-.859,2,2,0,0,0-.394-.8.785.785,0,0,0-.794-.286.4.4,0,0,0-.386.4,2.5,2.5,0,0,0,.036.694c.093.415.222.823.343,1.238a.418.418,0,0,1,.021.172c-.079-.064-.157-.122-.236-.186a5.089,5.089,0,0,1-1-1.073,2.609,2.609,0,0,1-.279-2.433,1.885,1.885,0,0,1,1-1.03,1.252,1.252,0,0,1,.809-.05,1.663,1.663,0,0,1,1.317,1.109,1.237,1.237,0,0,0,1.76.594.588.588,0,0,0,.258-.487,2.177,2.177,0,0,0-.165-.952,5.614,5.614,0,0,0-.744-1.324,4.767,4.767,0,0,1-.565-1.023,2.87,2.87,0,0,1,.007-1.911c.086-.272.193-.53.258-.809a2.983,2.983,0,0,0-.086-1.374c-.172-.666-.372-1.324-.544-1.982a2.464,2.464,0,0,1,.53-2.347.938.938,0,0,1,.229-.215,1.129,1.129,0,0,0,.479-.73c.086-.315.15-.637.258-.952a4.978,4.978,0,0,1,1.51-2.3,3.665,3.665,0,0,1,.422-.293,1.719,1.719,0,0,1,1.524-.179c.58.2,1.152.415,1.717.637a2.842,2.842,0,0,0,1.217.215c.236-.014.472.007.708-.007a3.169,3.169,0,0,0,.952-.279c.4-.157.809-.308,1.209-.472a2.131,2.131,0,0,1,2.476.544,5.34,5.34,0,0,1,1.367,2.3c.079.25.129.508.2.759a1.351,1.351,0,0,0,.487.744,2.308,2.308,0,0,1,.844,1.746,3.839,3.839,0,0,1-.215,1.274c-.165.623-.351,1.245-.494,1.868a2.487,2.487,0,0,0,.122,1.51,3.636,3.636,0,0,1,.279,1.138,2.987,2.987,0,0,1-.573,1.911,8.289,8.289,0,0,0-.787,1.3,2.776,2.776,0,0,0-.265.98c0,.086,0,.165.007.25a.579.579,0,0,0,.429.53,1.461,1.461,0,0,0,.909,0,1.063,1.063,0,0,0,.694-.7,1.756,1.756,0,0,1,1.918-1.095,1.112,1.112,0,0,1,.293.107,2.087,2.087,0,0,1,1.073,2.161,2.715,2.715,0,0,1-.766,1.667c-.258.25-.522.5-.78.751a.378.378,0,0,1-.15.086c.036-.107.064-.215.1-.322a6.078,6.078,0,0,0,.344-1.467c0-.043.007-.086.007-.122,0-.53-.308-.68-.809-.558a.8.8,0,0,0-.472.365,2.037,2.037,0,0,0-.336.8,3.236,3.236,0,0,1-.394,1.073,1.842,1.842,0,0,1-2.476.551,1.393,1.393,0,0,1-.708-1.145,4.522,4.522,0,0,1,.122-1.352.806.806,0,0,0,.021-.129,2.961,2.961,0,0,0-.272.952,1.847,1.847,0,0,0,.651,1.768,3.921,3.921,0,0,0,.7.429,6.122,6.122,0,0,0,1.839.544,3.146,3.146,0,0,1,1.274.487,2.5,2.5,0,0,1,1.2,2.49,2.868,2.868,0,0,1-1.675,2.433l-.107.043h-.022c.1-.222.2-.437.293-.658a3.44,3.44,0,0,0,.272-1.138,1.33,1.33,0,0,0-1.095-1.481,4.111,4.111,0,0,0-1.066-.093,20.459,20.459,0,0,1-2.648-.079,5.481,5.481,0,0,1-1.267-.272,2.037,2.037,0,0,1-1.3-1.259c-.179-.487-.315-.98-.479-1.474a6.709,6.709,0,0,0-.243-.63,1.152,1.152,0,0,0-1.016-.68,2.551,2.551,0,0,0-.522.007,1.062,1.062,0,0,0-.937.637c-.143.315-.243.651-.358.98-.122.358-.222.723-.351,1.081a2.138,2.138,0,0,1-1.553,1.4,8.832,8.832,0,0,1-2.29.272c-.551.014-1.1-.007-1.646.007a3.851,3.851,0,0,0-.9.122,1.3,1.3,0,0,0-1.016,1.467,4.147,4.147,0,0,0,.429,1.489A3.046,3.046,0,0,1,236.112,388.465Zm7.342-14.184c-1.353-.637-2.691-1.274-4.043-1.918a6.006,6.006,0,0,0,.644,1.746,2.827,2.827,0,0,0,.7.837,1.636,1.636,0,0,0,1.424.365A2.145,2.145,0,0,0,243.454,374.281Zm2.855,0a2.431,2.431,0,0,0,.794.823,1.458,1.458,0,0,0,1.338.15,2.1,2.1,0,0,0,.859-.587,4.4,4.4,0,0,0,.895-1.7c.064-.193.107-.394.165-.615C248.993,373.007,247.662,373.637,246.31,374.281Zm-4.136-4.594c0,.007-.007.021-.007.029a2.351,2.351,0,0,1,1.052.809,5.5,5.5,0,0,1,.88,1.775c.05.15.086.3.136.465.007-.029.014-.043.007-.05-.014-.1-.029-.2-.043-.293a4.761,4.761,0,0,0-.551-1.646,2.156,2.156,0,0,0-1.174-1.031C242.381,369.716,242.274,369.708,242.173,369.687Zm3.371,3.056c.014-.036.021-.079.036-.115a6.344,6.344,0,0,1,.723-1.732,2.651,2.651,0,0,1,1.3-1.174V369.7h-.05a1.773,1.773,0,0,0-1.188.737A4.337,4.337,0,0,0,245.544,372.743Zm.6-9.9a6,6,0,0,0-.472,3.464A11.433,11.433,0,0,1,246.145,362.846Zm-2.04,3.435a5.874,5.874,0,0,0-.451-3.356A12.123,12.123,0,0,1,244.106,366.281Zm5.961,3.263a.929.929,0,0,0,.072.107c.215.322.429.644.644.959a.472.472,0,0,1,.079.386c-.036.179-.072.358-.115.537-.036.136-.072.272-.115.415a1.9,1.9,0,0,0,.336-.859,1.1,1.1,0,0,0-.036-.487A2.54,2.54,0,0,0,250.067,369.544Zm-10.942,2.39c-.007-.029-.014-.057-.021-.079-.064-.272-.136-.551-.193-.823A.53.53,0,0,1,239,370.6c.222-.315.429-.637.644-.952a.457.457,0,0,0,.057-.1,2.914,2.914,0,0,0-.852.995.88.88,0,0,0-.072.3A1.951,1.951,0,0,0,239.125,371.934Zm9.718-3.707a5.563,5.563,0,0,0,2.54-2.1A10.372,10.372,0,0,1,248.843,368.227Zm-7.965-.029a10.082,10.082,0,0,1-2.5-2.075A5.562,5.562,0,0,0,240.878,368.2Zm2.068,9.2a2.581,2.581,0,0,1,.258-1.038,1.915,1.915,0,0,1,.759-.809A1.51,1.51,0,0,0,242.946,377.4Zm1.582-4.695a1.757,1.757,0,0,1-.766,1.539.688.688,0,0,0,.637-.372A1.764,1.764,0,0,0,244.528,372.707Zm2.283,4.68a1.5,1.5,0,0,0-.988-1.825A2.129,2.129,0,0,1,246.811,377.387Zm-1.574-4.695a2.016,2.016,0,0,0,.021.9.836.836,0,0,0,.4.565,2.543,2.543,0,0,0,.329.107c.007-.014.007-.029.014-.036A1.71,1.71,0,0,1,245.236,372.693Z" transform="translate(-229.707 -361.585)" fill="#fff"/>
    <path id="Path_311" data-name="Path 311" d="M182.5,463.428a22.4,22.4,0,0,1,4.086-2.691,13.649,13.649,0,0,1,2.626-.93.231.231,0,0,0,.057-.007c.2.952.594,1.846.708,2.812a1.823,1.823,0,0,1-.1.759,7.9,7.9,0,0,0-.308,1.066,3.293,3.293,0,0,0,.544,2.519,13.549,13.549,0,0,1,.73,1.188,3.39,3.39,0,0,1,.293.873.375.375,0,0,1-.315.508A.831.831,0,0,1,189.8,469a2.044,2.044,0,0,0-1.889-1.324c-.1.007-.2,0-.3,0a.9.9,0,0,0-.53.129c-.122-.193-.243-.394-.372-.587A8.556,8.556,0,0,0,184,464.573c-.279-.172-1.2-1.009-1.5-1.145Z" transform="translate(-182.5 -452.771)" fill="#fff"/>
    <path id="Path_312" data-name="Path 312" d="M494.229,463.428a22.4,22.4,0,0,0-4.086-2.691,13.65,13.65,0,0,0-2.626-.93.23.23,0,0,1-.057-.007c-.2.952-.594,1.846-.709,2.812a1.823,1.823,0,0,0,.1.759,7.884,7.884,0,0,1,.308,1.066,3.293,3.293,0,0,1-.544,2.519,13.578,13.578,0,0,0-.73,1.188,3.4,3.4,0,0,0-.293.873.375.375,0,0,0,.315.508.831.831,0,0,0,1.023-.522,2.044,2.044,0,0,1,1.889-1.324c.1.007.2,0,.3,0a.9.9,0,0,1,.53.129c.122-.193.243-.394.372-.587a8.556,8.556,0,0,1,2.712-2.648c.272-.172,1.2-1.009,1.5-1.145Z" transform="translate(-463.886 -452.771)" fill="#fff"/>
  </g>
  <path id="Path_313" data-name="Path 313" d="M515.5,342.824a19.851,19.851,0,0,0,3.006-4.086A15.253,15.253,0,0,0,520.23,334c.036.007.064.007.093.014.343.093.694.186,1.038.272a.121.121,0,0,1,.107.136q0,2.963-.007,5.918a.308.308,0,0,1-.057.172,18.412,18.412,0,0,1-3.156,3.22.169.169,0,0,1-.143.021A13.082,13.082,0,0,0,515.5,342.824Z" transform="translate(-485.124 -323.122)" fill="#fff"/>
  <path id="Path_314" data-name="Path 314" d="M190.2,334.724c.1-.386.2-.759.3-1.131.014-.064.043-.093.122-.093,1.238,0,2.483.007,3.721.007h2.2a.314.314,0,0,1,.193.064,18.454,18.454,0,0,1,2.648,2.476.23.23,0,0,1,.029.05,5.381,5.381,0,0,0-1.489,2.383A17.3,17.3,0,0,0,190.2,334.724Z" transform="translate(-183.103 -322.658)" fill="#fff"/>
  <path id="Path_315" data-name="Path 315" d="M191,620.289c-.394-.107-.78-.208-1.174-.315-.029-.007-.05-.057-.064-.086a.24.24,0,0,1,0-.072V613.97a.36.36,0,0,1,.057-.193,18.194,18.194,0,0,1,2.705-2.848.071.071,0,0,0,.036-.029c.05.208.1.408.143.608a2.229,2.229,0,0,0,.63,1.03c.258.272.53.53.8.794A17.18,17.18,0,0,0,191,620.289Z" transform="translate(-182.69 -580.207)" fill="#fff"/>
  <path id="Path_316" data-name="Path 316" d="M331.35,686.222h-3.263a.209.209,0,0,1-.014-.064,19.459,19.459,0,0,1,.1-3.163c.007-.086.05-.093.122-.107.436-.079.873-.143,1.3-.25a2.03,2.03,0,0,0,1.009-.615.565.565,0,0,1,.136-.122A21.122,21.122,0,0,0,331.35,686.222Z" transform="translate(-311.085 -646.126)" fill="#fff"/>
  <path id="Path_317" data-name="Path 317" d="M547.845,561.506a2.2,2.2,0,0,0-.945-1.9c.157-.25.315-.494.472-.737a.188.188,0,0,1,.107-.05,19.863,19.863,0,0,0,3.1-.515h.036v3.263A18.858,18.858,0,0,1,547.845,561.506Z" transform="translate(-514.277 -531.371)" fill="#fff"/>
  <path id="Path_318" data-name="Path 318" d="M461.3,696c.15.007.272.021.394.021l2.111.021a3.487,3.487,0,0,1,.937.129,1.048,1.048,0,0,1,.759,1.274,4.369,4.369,0,0,1-.472,1.324.781.781,0,0,0-.064.537.537.537,0,0,1-.458-.114,18.792,18.792,0,0,1-3.127-3.092A.81.81,0,0,1,461.3,696Z" transform="translate(-434.802 -659.216)" fill="#fff"/>
  <path id="Path_319" data-name="Path 319" d="M523.3,710.919a3.33,3.33,0,0,0,1.689-2.419,14.521,14.521,0,0,0,3.678,1.181c-.007.036-.007.071-.014.107-.093.343-.179.68-.272,1.023-.022.071-.043.107-.129.107h-4.88C523.357,710.926,523.343,710.919,523.3,710.919Z" transform="translate(-492.365 -670.822)" fill="#fff"/>
  <path id="Path_320" data-name="Path 320" d="M418.156,333.6v2.032h-.043a2.431,2.431,0,0,0-1.961-.064c-.279.086-.558.193-.823.293-.143-.751-.286-1.5-.429-2.254C415.973,333.6,417.054,333.6,418.156,333.6Z" transform="translate(-391.723 -322.751)" fill="#fff"/>
  <path id="Path_321" data-name="Path 321" d="M190,471.625a17.4,17.4,0,0,1,2.927.079A16.927,16.927,0,0,0,190,473.629Z" transform="translate(-182.917 -450.872)" fill="#fff"/>
  <path id="Path_322" data-name="Path 322" d="M256.346,614.818a5.145,5.145,0,0,1-.272-1.159c-.021-.265.129-.351.372-.243a.766.766,0,0,1,.358.394c.157.3.15.3-.064.551C256.617,614.5,256.489,614.654,256.346,614.818Z" transform="translate(-244.261 -582.5)" fill="#fff"/>
</svg>
