<svg id="Logo_Trebuchet_Me" xmlns="http://www.w3.org/2000/svg" width="86.912" height="118.182" viewBox="0 0 86.912 118.182">
  <path id="Path_154" data-name="Path 154" d="M1038.254,638.744a.807.807,0,0,0-.316,1.1A16.309,16.309,0,0,1,1040,650.918a.807.807,0,1,0,1.592.266,17.915,17.915,0,0,0-2.236-12.124A.807.807,0,0,0,1038.254,638.744Z" transform="translate(-973.408 -598.996)" fill="#fff"/>
  <path id="Path_155" data-name="Path 155" d="M1115.5,589.874a.807.807,0,0,0-.294,1.1,21.15,21.15,0,0,1,3.058,11.485q-.03.461-.056.908a22.934,22.934,0,0,1-.895,6.052.807.807,0,1,0,1.532.508,24.5,24.5,0,0,0,.974-6.463c.018-.3.036-.6.056-.9a22.79,22.79,0,0,0-3.272-12.4A.807.807,0,0,0,1115.5,589.874Z" transform="translate(-1045.87 -553.152)" fill="#fff"/>
  <path id="Path_156" data-name="Path 156" d="M43.456,0C19.456,0,0,22.235,0,49.664S19.456,99.329,43.456,99.329,86.912,77.093,86.912,49.664,67.456,0,43.456,0ZM7.07,73.4h24.65V77.6H9.414q-.307-.492-.6-.992Q7.886,75.046,7.07,73.4ZM66.41,85v4.839a40.972,40.972,0,0,1-4.166,2.765V85ZM13.656,83.387a47.112,47.112,0,0,1-3.189-4.17H66.41v4.17ZM25.947,85v8.314a40.385,40.385,0,0,1-4.07-2.479V85Zm1.614,0h4.166V95.8a38.161,38.161,0,0,1-4.166-1.678Zm5.78,0h4.166V97.234a36.678,36.678,0,0,1-4.166-.932Zm5.78,0h4.166V97.713a37.05,37.05,0,0,1-4.166-.253Zm5.78,0h4.29V97.269a36.8,36.8,0,0,1-4.29.417Zm5.9,0h4.043V95.913a36.845,36.845,0,0,1-4.043,1.065Zm5.514-7.4-1.243-6.349L64.561,77.6Zm-1.645,0h-3.87V68.394l2.379,1.593ZM50.452,66.214h0c-.019-.013-.038-.024-.058-.035l-.023-.012-.04-.019-.026-.011-.045-.016-.022-.007c-.022-.007-.043-.012-.065-.017l-.023,0-.051-.008-.022,0c-.024,0-.048,0-.073,0h-.006c-.022,0-.045,0-.067,0l-.023,0-.052.008-.021,0-.065.017-.026.009-.041.015-.028.012-.04.019-.023.012c-.019.01-.037.021-.055.033l-.005,0h0l-2.47,1.63,2.905-14.222,2.765,14.13Zm-1.259,2.168V77.6H45.084l1.537-7.523ZM43.437,77.6H35.223l9.494-6.267ZM15.109,85h5.154v4.657l-.118-.09A43.67,43.67,0,0,1,15.109,85ZM56.464,95.347V85H60.63v8.49q-.478.248-.961.481Q58.086,94.738,56.464,95.347Zm11.561-6.788V85H71.8A44.074,44.074,0,0,1,68.024,88.559ZM78.1,76.611a47.686,47.686,0,0,1-4.844,6.777H68.024V78.41s0-.006,0-.008c0-.022,0-.044,0-.065,0,0,0-.007,0-.011,0-.024-.006-.047-.011-.071s0-.019-.006-.028-.007-.028-.011-.041l-.01-.032-.013-.037-.012-.03c-.006-.015-.014-.029-.021-.044l-.01-.02c-.011-.02-.023-.04-.036-.059l-.013-.018-.03-.04-.016-.019-.033-.037-.017-.017-.037-.034-.017-.015-.045-.034-.014-.01h0L54.641,69.019,51.077,50.811l13.685,7.315-2.687,8.058a.808.808,0,0,0-.041.255,3.7,3.7,0,1,0,7.395,0,.808.808,0,0,0-.041-.255l-2.857-8.568a.805.805,0,0,0-.418-.6L25.1,35.1l-.017-.008-.045-.021-.031-.012-.038-.013-.036-.011-.034-.008-.039-.008-.033,0L24.792,35q-.035,0-.069,0h-.027l-.047,0-.027,0-.047.007-.027.006-.045.011-.028.009-.042.015-.029.012-.017.007L10.523,41.482a4.07,4.07,0,0,0,.4,7.958,4.115,4.115,0,0,0,.638.05A4.071,4.071,0,0,0,14.985,47.6l9.91-10.788L49.123,49.766,45.173,69.1l-11.84,7.815V72.59a.807.807,0,0,0-.807-.807H6.3q-.745-1.645-1.376-3.348a54.81,54.81,0,0,1,0-37.543,50.647,50.647,0,0,1,3.882-8.175,47.6,47.6,0,0,1,5.132-7.109,44.023,44.023,0,0,1,6.2-5.85,40.468,40.468,0,0,1,7.1-4.4,36.993,36.993,0,0,1,32.425,0,40.466,40.466,0,0,1,7.1,4.4,44.023,44.023,0,0,1,6.2,5.85A47.6,47.6,0,0,1,78.1,22.718a50.647,50.647,0,0,1,3.882,8.175,54.81,54.81,0,0,1,0,37.543A50.648,50.648,0,0,1,78.1,76.611ZM65.73,60.324l2.08,6.236a2.082,2.082,0,0,1-4.159,0ZM21.4,38.233l-7.655,8.333a.81.81,0,0,0-.1.128,2.454,2.454,0,1,1-2.668-3.663.806.806,0,0,0,.151-.052Z" fill="#fff"/>
  <path id="Path_157" data-name="Path 157" d="M112.579,1782.712h1.766v5.721h1.967v-5.721h1.81v-1.766h-5.542Z" transform="translate(-105.59 -1670.384)" fill="#fff"/>
  <path id="Path_158" data-name="Path 158" d="M252.085,1783.348a2.267,2.267,0,0,0-2.492-2.4h-2.738v7.487h1.967v-2.4h.48l1.028,2.4H252.6l-1.408-3.006A3.463,3.463,0,0,0,252.085,1783.348Zm-2.257.961h-1.006v-1.6h.7c.4,0,.57.313.57.671A1.734,1.734,0,0,1,249.828,1784.309Z" transform="translate(-231.531 -1670.384)" fill="#fff"/>
  <path id="Path_159" data-name="Path 159" d="M385.082,1785.472h2.436v-1.732h-2.436v-1.028h2.849v-1.766h-4.816v7.487h4.838v-1.766h-2.872Z" transform="translate(-359.332 -1670.384)" fill="#fff"/>
  <path id="Path_160" data-name="Path 160" d="M514.685,1784.343a2.439,2.439,0,0,0,.536-1.52c0-1.341-.927-1.877-2.257-1.877h-2.771v7.487h2.514c1.475,0,2.849-.659,2.849-2.458A1.854,1.854,0,0,0,514.685,1784.343Zm-2.525-1.631h.637a.446.446,0,0,1,.458.48,1.4,1.4,0,0,1-.2.637h-.894Zm.637,3.956h-.637v-1.207h.771a.539.539,0,0,1,.615.559C513.545,1786.455,513.311,1786.667,512.8,1786.667Z" transform="translate(-478.52 -1670.384)" fill="#fff"/>
  <path id="Path_161" data-name="Path 161" d="M646.279,1785.684c0,.76-.425,1.106-.905,1.106s-.916-.346-.916-1.106v-4.738h-1.967v4.794a2.878,2.878,0,0,0,5.755,0v-4.794h-1.967Z" transform="translate(-602.605 -1670.384)" fill="#fff"/>
  <path id="Path_162" data-name="Path 162" d="M785.724,1785.1c-.793,0-1.363-.492-1.363-2.168,0-1.464.57-2.034,1.374-2.034.1,0,.369,0,.492.011l-.022,1.464h1.7l.1-2.961a8.335,8.335,0,0,0-2.023-.268c-2.134,0-3.632,1.24-3.632,3.788,0,2.28.86,3.944,3.252,3.944a7.072,7.072,0,0,0,2.6-.547l-.4-1.743A5.267,5.267,0,0,1,785.724,1785.1Z" transform="translate(-733.781 -1668.695)" fill="#fff"/>
  <path id="Path_163" data-name="Path 163" d="M928.544,1783.74h-2.391v-2.793h-1.967v7.487h1.967v-2.928h2.391v2.928h1.967v-7.487h-1.967Z" transform="translate(-866.813 -1670.384)" fill="#fff"/>
  <path id="Path_164" data-name="Path 164" d="M1081.671,1785.472h2.436v-1.732h-2.436v-1.028h2.849v-1.766H1079.7v7.487h4.838v-1.766h-2.872Z" transform="translate(-1012.676 -1670.384)" fill="#fff"/>
  <path id="Path_165" data-name="Path 165" d="M1198.143,1782.712h1.766v5.721h1.966v-5.721h1.81v-1.766h-5.542Z" transform="translate(-1123.761 -1670.384)" fill="#fff"/>
</svg>
