<svg id="Logo_Chasing_Me" xmlns="http://www.w3.org/2000/svg" width="189.366" height="59.168" viewBox="0 0 189.366 59.168">
  <g id="Group_103" data-name="Group 103">
    <g id="Group_98" data-name="Group 98" transform="translate(0 1.852)">
      <path id="Path_166" data-name="Path 166" d="M219.038,123.365c-.041-.082-.082-.205-.164-.41-.041.164-.246-.41.164.492Z" transform="translate(-163.697 -104.8)" fill="#fff"/>
      <path id="Path_167" data-name="Path 167" d="M219.392,123.875c.164.41-.041-.328,0,0Z" transform="translate(-164.051 -105.31)" fill="#fff"/>
      <path id="Path_168" data-name="Path 168" d="M217.6,119.555c0-.123-.205-.615-.082-.451-.287-.533-.287-.369-.246-.041Z" transform="translate(-162.792 -102.344)" fill="#fff"/>
      <path id="Path_169" data-name="Path 169" d="M216.7,119.1Z" transform="translate(-162.466 -102.545)" fill="#fff"/>
      <path id="Path_170" data-name="Path 170" d="M216.8,119.446c-.082,0,.041.082.205.287l-.328-.533C216.677,119.282,216.595,119.323,216.8,119.446Z" transform="translate(-162.443 -102.604)" fill="#fff"/>
      <path id="Path_171" data-name="Path 171" d="M217.5,121.446c.451.985.574.779.123-.246C217.705,121.569,217.787,121.938,217.5,121.446Z" transform="translate(-162.938 -103.783)" fill="#fff"/>
      <path id="Path_172" data-name="Path 172" d="M216.646,120.228c-.082-.123-.164-.205-.246-.328h0A2.276,2.276,0,0,1,216.646,120.228Z" transform="translate(-162.29 -103.017)" fill="#fff"/>
      <path id="Path_173" data-name="Path 173" d="M198.2,95.5c0,.041,0,.041.041.041h.041Z" transform="translate(-151.556 -88.627)" fill="#fff"/>
      <path id="Path_174" data-name="Path 174" d="M202.8,99a2.488,2.488,0,0,0,.287.41C203.005,99.287,202.841,99.041,202.8,99Z" transform="translate(-154.269 -90.691)" fill="#fff"/>
      <path id="Path_175" data-name="Path 175" d="M199.3,96.461l.205.164a4.263,4.263,0,0,1-.533-.779c-.41-.246-.492-.246-.574-.246.328.287.656.574.985.9Z" transform="translate(-151.674 -88.686)" fill="#fff"/>
      <path id="Path_176" data-name="Path 176" d="M202.349,99.231a2.476,2.476,0,0,1-.328-.328c.574.738-.656-.369.246.533-.369-.287-.287-.041-.861-.574-.164-.41.369-.041.656,0A8.149,8.149,0,0,1,201.2,98c.328.287.656.533.985.82h-.041c-.082-.082-.328-.287-.082,0h.082v-.041c.082.164.123.287.205.451Z" transform="translate(-153.325 -90.101)" fill="#fff"/>
      <path id="Path_177" data-name="Path 177" d="M197.756,94.705c-.205-.082-.451-.123-.656-.205l.41.246Z" transform="translate(-150.907 -88.037)" fill="#fff"/>
      <path id="Path_178" data-name="Path 178" d="M195.269,92.623,194.9,92.5l.205.246Z" transform="translate(-149.61 -86.857)" fill="#fff"/>
      <path id="Path_179" data-name="Path 179" d="M114.574,90.028l.205.082a3.236,3.236,0,0,1,.656-.41C114.984,89.823,114.451,89.905,114.574,90.028Z" transform="translate(-102.226 -85.206)" fill="#fff"/>
      <path id="Path_180" data-name="Path 180" d="M162.085,79.746a5.73,5.73,0,0,0-.985-.246C161.592,79.664,161.921,79.869,162.085,79.746Z" transform="translate(-129.676 -79.19)" fill="#fff"/>
      <path id="Path_181" data-name="Path 181" d="M92.5,182.685c.123.164.205.205.246.164C92.623,182.726,92.541,182.644,92.5,182.685Z" transform="translate(-89.218 -140.038)" fill="#fff"/>
      <path id="Path_182" data-name="Path 182" d="M159.449,79.295a1.8,1.8,0,0,0-1.149-.082.37.37,0,0,0,.205.041A7.262,7.262,0,0,1,159.449,79.295Z" transform="translate(-128.024 -78.985)" fill="#fff"/>
      <path id="Path_183" data-name="Path 183" d="M222.182,158.4a.911.911,0,0,1-.041.369c0,.082,0,.123-.041.164v-.164A1.522,1.522,0,0,0,222.182,158.4Z" transform="translate(-165.651 -125.723)" fill="#fff"/>
      <path id="Path_184" data-name="Path 184" d="M183.8,85.8c.287.123.041,0,0,0Z" transform="translate(-143.063 -82.906)" fill="#fff"/>
      <path id="Path_185" data-name="Path 185" d="M185.8,88.941c.041-.041.082-.041.164-.041C185.882,88.9,185.8,88.9,185.8,88.941Z" transform="translate(-144.243 -84.734)" fill="#fff"/>
      <path id="Path_186" data-name="Path 186" d="M184.228,86.205A.893.893,0,0,0,183.9,86C183.941,86.041,184.064,86.082,184.228,86.205Z" transform="translate(-143.122 -83.024)" fill="#fff"/>
      <path id="Path_187" data-name="Path 187" d="M184.6,86.3a.9.9,0,0,1,.205.123C184.887,86.423,184.887,86.382,184.6,86.3Z" transform="translate(-143.535 -83.201)" fill="#fff"/>
      <path id="Path_188" data-name="Path 188" d="M183.269,85.564c-.082-.041-.205-.082-.369-.164a3.812,3.812,0,0,1,.41.205A.04.04,0,0,1,183.269,85.564Z" transform="translate(-142.533 -82.67)" fill="#fff"/>
      <path id="Path_189" data-name="Path 189" d="M139.226,117.863c.7-1.846,1.19-3.774,1.846-5.661-.246.492-.164.164-.123-.246-.041.123-.082.123-.123.082a12.065,12.065,0,0,1-4.266,3.856,5.778,5.778,0,0,1-4.513.615,1.28,1.28,0,0,0-1.313.41,10.882,10.882,0,0,1-2.379,1.313c.123.738-.451,1.231-1.559,1.026-.615-.123-1.231-.328-1.846-.492a3.718,3.718,0,0,1-2.831,1.518c0,.369.123.861-.041,1.026-.205.205-.7.205-1.026.205-1.477.041-2.5-.985-3.692-1.6a15.207,15.207,0,0,1-3.323,6.072c-.164.164-.123.451-.246.656a11.628,11.628,0,0,1-1.436,2.749,19.3,19.3,0,0,0-2.092,2.01,1.824,1.824,0,0,1-1.19.574c-1.067.205-2.092.451-2.585,1.6-.615-.656-.287-2.831.451-4.39a5.239,5.239,0,0,0-1.272.985,5.619,5.619,0,0,0-.615,1.723c-.164-.287-.369-.451-.369-.656a7.118,7.118,0,0,1,.205-3.815,2.512,2.512,0,0,1,1.395-1.354c1.477-.82,3.159-1.19,4.636-2.092a4.556,4.556,0,0,0,2.174-2.3c.328-.861.779-1.641,1.149-2.461-1.231-.944-2.461-1.846-3.733-2.831a16.789,16.789,0,0,1-1.026,1.887c-.82,1.19-1.764,2.3-2.626,3.487a1.03,1.03,0,0,0-.287.7c.369,1.518-.492,2.543-1.477,3.4a11.819,11.819,0,0,1-2.215,1.354c.41.779.82,1.6,1.231,2.42a.535.535,0,0,1,.041.492c-.041.082-.328.123-.492.082a7.467,7.467,0,0,0-2.338-.287,2.179,2.179,0,0,1-1.436-.82c-.7-.7-1.272-.7-1.805.082-.082.123-.287.369-.369.328-.205-.082-.492-.246-.533-.41a4.4,4.4,0,0,1,0-1.272c.041-.492.082-.985.123-1.395-.492.041-.9.082-1.272.123,0-.451-.205-.985-.041-1.313.82-1.436,2.379-3.323,4.39-2.954a1.84,1.84,0,0,0,.779-.205c.205-.082.41-.246.574-.246,1.805.123,2.379-1.272,3.077-2.5.451-.779.944-1.559,1.436-2.42-1.518.205-2.708,1.518-4.349,1.149-.164.779-.615.82-1.108.492-.164.287-.205.656-.451.779-.164.082-.492-.164-.779-.246-.082.123-.205.369-.41.7l-.9-.9a3.672,3.672,0,0,0-2.133,2.01c-.205.574-.615.656-1.067.287-.615-.492-1.19-.985-1.805-1.477-.9.533-1.026.492-1.723-.369-.944-1.19-2.215-2.256-2.585-3.815a4,4,0,0,1-.082-1.559c.164-.7.862-.9,1.928-.7.656-1.231,1.313-2.461,1.928-3.733a3.179,3.179,0,0,0,.287-1.231,9.111,9.111,0,0,1,1.108-4.964,1.124,1.124,0,0,0-.123-1.313,7.408,7.408,0,0,1-1.067-4.472,8.852,8.852,0,0,1,2.379-5.948,5.255,5.255,0,0,1,4.472-1.641c1.231.041,1.6,1.149,2.133,1.969a6.181,6.181,0,0,1,.533,1.354,40.07,40.07,0,0,1,3.323-2.585c3.692-2.379,7.261-.615,8.779,2.995a2.528,2.528,0,0,1-.287,2.461c-.246.369-.533.738-.82,1.108l.164.164c.492-.328.985-.656,1.436-.985.615-.41,1.19-.779,1.805-1.19.533-.328,1.067-.533,1.313.123,1.231-.9,2.379-1.805,3.61-2.626a14.1,14.1,0,0,1,2.092-1.026,1.881,1.881,0,0,1,.82.041,5.7,5.7,0,0,1-.246.779,2.772,2.772,0,0,0-.328.615,3.094,3.094,0,0,1,.985-.328,1.932,1.932,0,0,1,.7.246c1.559-.7,3.036-1.354,4.554-1.969.287-.123.7.041,1.026.082a9.07,9.07,0,0,1-.205,1.026c-.082.246-.328.41-.492.615a1.088,1.088,0,0,1,.205.246c.287-.246.7-.41.82-.7A11.708,11.708,0,0,0,132.7,89.8a8.908,8.908,0,0,1,.287-.985c-.451-.492-.9-.944-1.395-1.395l.082.082.041-.082c-.246-.246-.451-.369-.328-.205-.205-.205-.451-.41-.7-.615.533.246.574-.369.328-.944-.082.041-.082.082-.656-.246.123.205.985,1.108.451.862-.7-.492-.492-.492-.779-.82.123.328-.779-.287-1.026-.164a24.858,24.858,0,0,0-4.39-2.626c.041,0,.041-.041,0-.082l-.451-.164c-.328-.328.944.164.41-.164.328.082.656.164,1.026.287.164.082.369.123.533.205a2.259,2.259,0,0,1,.574.369V83.4c0-.082-.369-.369-.615-.451.41.164,1.026.944,1.477.9-.164-.164-.287-.328-.451-.492a6.9,6.9,0,0,1,2.092.985c-.164-.41-.164-.082-.492-.656.246.574-1.764-1.149-1.272-.369-.369-.574-.82-.656-1.395-1.272,0,.082.164.287-.41-.082h-.164c.123.123.246.205.246.287a3.131,3.131,0,0,1-.862-.246c-.328-.123-.7-.246-.862-.287-.369-.205.205,0,.041-.205-.205-.041-.369-.041-.574-.082,0-.205-.9-.7.041-.41l-.82-.328a4.938,4.938,0,0,0-1.559-.615c-.41-.164-1.067-.082-.656-.123-.451-.082-.9-.164-1.354-.205v-.041a16.461,16.461,0,0,0-2.051-.287,10.862,10.862,0,0,1-2.215-.369h-.738a7.919,7.919,0,0,1-.944-.041l-.164-.164c-.287,0-.738,0-1.149-.041-.41,0-.779-.041-.862.082a3.2,3.2,0,0,0-1.805-.041,11.248,11.248,0,0,0-1.149.205c-.369.082-.7.123-.944.164v.205a9.3,9.3,0,0,0-1.026.246,7.811,7.811,0,0,0-1.149.41l.082.164a11.105,11.105,0,0,1-1.354.41c-.246.082-.533.123-.82.205a4.827,4.827,0,0,0-.82.287,1.075,1.075,0,0,1,.574-.246,3.165,3.165,0,0,0-1.067.287c-.328.164-.656.328-.985.533s-.615.41-.9.574a3.869,3.869,0,0,1-.944.41,1.541,1.541,0,0,1-.656.369c.041,0,.041-.041.082-.041-.041,0-.082.041-.123.082a2,2,0,0,0-.451.164l.369-.123c-.205.123-.533.369-.82.574l-.246-.082c-.041,0-.041.041-.082.041-.328.123-.205.246.041.246a2.655,2.655,0,0,0-.328.369c-.41-.082-.738.615-1.231.615a7.422,7.422,0,0,1-.7.779,2.391,2.391,0,0,0-.533.779v.082c-.041-.041-.123,0,0-.082a2.247,2.247,0,0,0-.82.82l-.287-.082a7.771,7.771,0,0,0-.369.862c-.492.287-.7.369-.451-.123-.369.574-.492.779-.615.985a6.725,6.725,0,0,0-.492.9L90.9,89.68c-.246.328-.451.944-.7,1.026a10.229,10.229,0,0,0-1.723,2.215c-.656,1.067-1.313,2.338-1.887,3.323.328-.123.164.123-.041.41-.164.287-.41.615-.246.738-.164.082-.328.369-.287-.041a9.015,9.015,0,0,1-.492,1.313,2.137,2.137,0,0,0-.205,1.149c-.164.082-.082-.287-.205-.205a.8.8,0,0,1-.123.492c-.082.082-.041-.205-.041-.369a1.579,1.579,0,0,0-.041,1.149.8.8,0,0,0,.369.369,3.61,3.61,0,0,0-.246.7,1.6,1.6,0,0,0,.082.615c-.123.205-.328.492-.205-.205-.041.205-.205.82-.287,1.395s-.123,1.108,0,1.149a1.347,1.347,0,0,0-.041.7,14.525,14.525,0,0,0-.082,1.887l.041-.246c.287.369.082.738.123,1.477h-.041a3.21,3.21,0,0,0,0,1.19,6.178,6.178,0,0,1,.041,1.19l.205-.123c.205.041.205.41.164.9a4.757,4.757,0,0,0,.123,1.518l.041-.369a1.781,1.781,0,0,1-.041,1.026,2.65,2.65,0,0,0-.123,1.067c0,.123-.123-.164-.164-.328.123,1.436.287.123.615,1.108-.082.205-.41-.123-.246.533a7.371,7.371,0,0,0,.533,1.149,4.534,4.534,0,0,1,.7,1.6c0-.246.041-.451.287-.082.328.656.492,1.969,1.108,2.379v.164c.164.205.41.615.7.944a4.176,4.176,0,0,0,.7.738c-.082.205.041.451.246.738a7.142,7.142,0,0,0,.738.9c.574.574,1.108,1.067.862,1.272a11.3,11.3,0,0,0,1.19,1.231h-.082a3.208,3.208,0,0,0,1.518,1.108c.164.205,0,.123-.041.123A8.033,8.033,0,0,0,94.92,129.8a7.692,7.692,0,0,0,1.313.656v.246a14.629,14.629,0,0,0,3.282,2.092.32.32,0,0,1-.205,0c.82.328,1.723.9,2.585,1.313.82.41,1.6.7,2.01.451a10.4,10.4,0,0,0,1.19.164c-1.436-.451.287-.246-.246-.533a2.457,2.457,0,0,1,.82.328c.205.123.205.205-.123.123l-.123-.082c-.369.328,1.764.574,1.682.82a31.1,31.1,0,0,0,8.656.574l-.369-.246.985-.123c.246.041.369.205-.328.287a1.515,1.515,0,0,0,1.149-.369c1.354-.123-.451.451-.041.369l.574-.123h-.123a3.529,3.529,0,0,1,1.272-.492c.533-.041.328.123.533.082a1.294,1.294,0,0,0,.328-.082,10.07,10.07,0,0,0,1.19-.328l-.533-.082c.492-.246,1.108-.328.492-.41a6.87,6.87,0,0,0,2.585-.656c.533-.205.985-.451,1.395-.615a7.855,7.855,0,0,1,.82-.369c.287-.246.615-.451.944-.7.328-.205.7-.41,1.108-.656-.205.082-.492-.082.205-.492.041.287.369.164.779-.082a5.131,5.131,0,0,1,1.272-.615c-.246.041.205-.328.574-.656.41-.369.738-.738.246-.574.533-.41.164.123.615-.123a39.967,39.967,0,0,0,3.815-3.979c-.041-.082-.328.123-.164-.287.328-.205.615-.41.9-.615.205-.328-.123-.533.451-.985-.123.041-.246.123-.123-.123A13.794,13.794,0,0,0,139.226,117.863ZM130.775,86.6c-.287-.246-.533-.451-.82-.7A1.779,1.779,0,0,1,130.775,86.6Zm-.985-.862h0c-.041,0-.041-.041-.082-.041C129.708,85.742,129.749,85.742,129.79,85.742Zm-7.63-5.169h0c-.082-.041-.123-.041-.164-.082C122.078,80.532,122.119,80.532,122.16,80.573Zm-5.7-.492a5.2,5.2,0,0,1,1.682-.123c1.067.123.41.328.574.287a9.568,9.568,0,0,0,1.108.205,3.928,3.928,0,0,0,.7,0,2.5,2.5,0,0,1,1.518.369c.533.41-.123.41-.041.615a4.509,4.509,0,0,1-.985-.369,4.446,4.446,0,0,0-.779-.328l.656.287a3.593,3.593,0,0,1-1.108-.246,1.366,1.366,0,0,0,.246.123,24.732,24.732,0,0,0-3.938-.738A1.2,1.2,0,0,1,116.458,80.08Zm-4.759-.287c-.041.082.082.123.164.164-.287,0-.574.041-.82.041A2.476,2.476,0,0,1,111.7,79.793Zm-5.661.451h.862a6.208,6.208,0,0,1,1.067.082c.041,0,.082.041.123.082a8.4,8.4,0,0,0-.985.205l-.082-.287-.041.328c-.328.082-.656.123-.985.205C105.914,80.573,105.914,80.368,106.038,80.245Zm-4.964,1.682.287.041c.246-.164.533-.369.82-.533l-.82,1.026c-.451.205-.9.451-1.354.656A3.207,3.207,0,0,1,101.074,81.927ZM92.664,88.2c.041.123.123.164.287.246a6.307,6.307,0,0,0-.492.533A4.327,4.327,0,0,1,92.664,88.2Zm-6.892,13.7c0-.041-.041-.082-.041-.123v.287c0,.082-.041.164-.041.246a2.632,2.632,0,0,0-.246.41,10.085,10.085,0,0,1,.082-1.149c.082-.123.123,0,.205.205v-.205c.082-.164.123-.205.205-.205A2.032,2.032,0,0,0,85.772,101.905Zm33.886,33.352h-.205C119.863,135.094,119.74,135.176,119.657,135.258Zm-8-41.024c-.533-.533-1.19-.041-1.764.246-.041,0-.041.082-.041.123.082,0,.123-.041.205-.041a7.47,7.47,0,0,1,.41,1.846,1.754,1.754,0,0,1-.615.985c-.615-.246-.328-.738-.246-1.19a1.46,1.46,0,0,0-.369-1.108c-.123-.164-.615-.082-.9,0a5.678,5.678,0,0,0-1.026.574c1.764.369,1.395,1.846,1.805,2.954a5.956,5.956,0,0,0,2.379-2.79C111.7,95.259,111.9,94.48,111.658,94.234Zm-1.477,34.173a7.243,7.243,0,0,1-.944.779c-.533.369-1.108.615-1.6,1.026-.205.205-.164.656-.246,1.026a6.225,6.225,0,0,0,.862.123,5.274,5.274,0,0,0,.779-.164c1.067-.164.862-1.354,1.518-1.887C110.673,129.227,110.345,128.694,110.181,128.407Zm-.738-12.923c-.533.287-1.272.41-1.6.82-1.19,1.682-2.215,3.446-3.282,5.169a.32.32,0,0,0,.164.164c.369-.082.944,0,1.108-.246,1.026-1.272,1.969-2.585,2.872-3.9.369-.574.615-1.231.944-1.846A.9.9,0,0,0,109.443,115.484Zm-.779,10.789a3.456,3.456,0,0,0-.287,1.436c0,.164.287.369.451.533.164-.164.451-.328.492-.533.123-.533.123-1.067.205-1.682C109.2,126.109,108.745,126.109,108.663,126.273Zm-1.231.451c-1.559.492-2.215,1.272-2.01,2.379a6.339,6.339,0,0,1,.9-.492,9.448,9.448,0,0,1,1.149-.246C107.432,127.75,107.432,127.258,107.432,126.725ZM105.3,110.561c.328.451.656.9,1.108,1.477C106.612,110.971,106.366,110.643,105.3,110.561Zm-.287,12.02a12.521,12.521,0,0,0-3.036.328c-.41.123-.656.82-.944,1.272-.041.082.164.369.287.451s.492.041.492-.041c.246-1.149,1.149-.451,1.723-.615.123-.041.328.164.41.287a.612.612,0,0,1-.123.41c-.738,0-1.19.656-1.846.9a2.808,2.808,0,0,0-1.764,2.133,1.535,1.535,0,0,0,.205.738c.451.656.82.574,1.928-.246-.205-.164-.41-.246-.492-.41a2.73,2.73,0,0,1-.492-1.19c0-.205.533-.492.9-.574a4.7,4.7,0,0,0,3.2-2.626C105.832,122.868,105.709,122.54,105.012,122.581Zm-.779-11.774a9.119,9.119,0,0,1-.9.451c.451,1.067.9,1.969,2.051,2.256.205-.287.41-.533.492-.656C105.34,112.161,104.807,111.5,104.233,110.807Zm-1.682.944c-.205.164-.369.328-.7.615.574.615.615,1.436,1.149,1.928.164.164.985-.574,1.354-.451C103.658,112.818,103.084,112.571,102.551,111.751Zm-1.231,1.19c-.9.533-.328,1.436.082,2.051.41,0,.615-.287,1.19-.328C102.1,114.007,101.73,113.433,101.32,112.941ZM100.54,91.28a1.161,1.161,0,0,0-.82-.369,8.241,8.241,0,0,0-2.256.533c-2.215.985-2.954,2.995-3.282,5.169-.082.615-.041,1.231-.123,1.846a5.06,5.06,0,0,0,.738,3.364c.656-.82,1.272-1.559,1.887-2.3.492-.615.985-.656,1.477.041,1.026-.862,1.6-2.256,3.118-2.5a5.391,5.391,0,0,1,.205-.615,6.6,6.6,0,0,0,.533-2.051A4.961,4.961,0,0,0,100.54,91.28ZM98,124.345c-.164,1.026.574,1.026,1.272,1.026h.082c.123.164.328.287.328.492a.49.49,0,0,1-.328.369c-.246.123-.574.164-.82.287-.205.123-.451.41-.41.574.082.246.369.451.574.7.164-.164.369-.328.533-.492.287-.369.574-.779.862-1.19.041-.082.041-.246.082-.369.041-.779.041-1.518.082-2.3C99.515,123.238,98.079,123.771,98,124.345Zm-1.887-7.179c-.451.287-.9.533-1.313.82,1.477,1.313,1.559,1.313,2.5.246C96.848,117.822,96.438,117.453,96.11,117.166Zm-2.585,1.805c.615.533,1.19,1.026,1.682,1.477.246-.246.41-.451.615-.656C95.084,119.3,94.633,118.479,93.525,118.971Z" transform="translate(-84.5 -78.745)" fill="#fff"/>
      <path id="Path_190" data-name="Path 190" d="M189.674,88.787a3.75,3.75,0,0,0-.574-.287,1.11,1.11,0,0,1,.451.369C189.551,88.828,189.51,88.705,189.674,88.787Z" transform="translate(-146.189 -84.498)" fill="#fff"/>
      <path id="Path_191" data-name="Path 191" d="M190.8,91.4c-.041.164.328.328.7.574-.041,0-.041-.041-.082-.041C191.7,91.769,191.247,91.564,190.8,91.4Z" transform="translate(-147.187 -86.209)" fill="#fff"/>
      <path id="Path_192" data-name="Path 192" d="M193.128,93.046c.082-.041-.123-.123-.328-.246A2.277,2.277,0,0,0,193.128,93.046Z" transform="translate(-148.371 -87.034)" fill="#fff"/>
      <path id="Path_193" data-name="Path 193" d="M180.951,84.9c.164.123.205-.123.287-.041C181.525,84.734,179.843,84.529,180.951,84.9Z" transform="translate(-141.158 -82.25)" fill="#fff"/>
      <path id="Path_194" data-name="Path 194" d="M190.387,92.587V92.3l-.287.041Z" transform="translate(-146.779 -86.739)" fill="#fff"/>
      <path id="Path_195" data-name="Path 195" d="M183.8,88.477l.574.369c0-.041.082,0,.205.041C184.21,88.641,183.8,88.395,183.8,88.477Z" transform="translate(-143.063 -84.475)" fill="#fff"/>
      <path id="Path_196" data-name="Path 196" d="M186.192,89.646a5.492,5.492,0,0,0-.492-.246A2.7,2.7,0,0,0,186.192,89.646Z" transform="translate(-144.184 -85.029)" fill="#fff"/>
      <path id="Path_197" data-name="Path 197" d="M165.084,82.464c.205,0,.451,0,.369-.082l-.779-.082C164.592,82.382,164.8,82.464,165.084,82.464Z" transform="translate(-131.773 -80.842)" fill="#fff"/>
    </g>
    <g id="Group_100" data-name="Group 100" transform="translate(5.374)">
      <g id="Group_99" data-name="Group 99">
        <path id="Path_198" data-name="Path 198" d="M124.811,160.154c-.9.533-.328,1.436.082,2.051.41,0,.615-.287,1.19-.328C125.59,161.22,125.221,160.646,124.811,160.154Zm1.231-1.19c-.205.164-.369.328-.7.615.574.615.615,1.436,1.149,1.928.164.164.985-.574,1.354-.451C127.149,160.031,126.575,159.785,126.042,158.964Zm-1.231,1.19c-.9.533-.328,1.436.082,2.051.41,0,.615-.287,1.19-.328C125.59,161.22,125.221,160.646,124.811,160.154Zm1.231-1.19c-.205.164-.369.328-.7.615.574.615.615,1.436,1.149,1.928.164.164.985-.574,1.354-.451C127.149,160.031,126.575,159.785,126.042,158.964Zm-1.231,1.19c-.9.533-.328,1.436.082,2.051.41,0,.615-.287,1.19-.328C125.59,161.22,125.221,160.646,124.811,160.154Zm1.231-1.19c-.205.164-.369.328-.7.615.574.615.615,1.436,1.149,1.928.164.164.985-.574,1.354-.451C127.149,160.031,126.575,159.785,126.042,158.964Zm38.439.041h0a.37.37,0,0,1,.041-.205A.37.37,0,0,0,164.481,159.005Zm-38.439-.041c-.205.164-.369.328-.7.615.574.615.615,1.436,1.149,1.928.164.164.985-.574,1.354-.451C127.149,160.031,126.575,159.785,126.042,158.964Zm-1.231,1.19c-.9.533-.328,1.436.082,2.051.41,0,.615-.287,1.19-.328C125.59,161.22,125.221,160.646,124.811,160.154Zm1.231-1.19c-.205.164-.369.328-.7.615.574.615.615,1.436,1.149,1.928.164.164.985-.574,1.354-.451C127.149,160.031,126.575,159.785,126.042,158.964Zm-1.231,1.19c-.9.533-.328,1.436.082,2.051.41,0,.615-.287,1.19-.328C125.59,161.22,125.221,160.646,124.811,160.154Z" transform="translate(-113.365 -124.107)" fill="#fff"/>
        <path id="Path_199" data-name="Path 199" d="M179,125.315a4.841,4.841,0,0,0-1.887-.779h0c-.944-.246-1.6.328-2.215.944-.533-.862-.246-1.354,1.149-1.969-1.026-2.42-1.026-3.036.123-4.02.082-.041.123-.123.205-.164a1.438,1.438,0,0,0-.328-.205,10.158,10.158,0,0,1-1.067-.779,1.4,1.4,0,0,1-.533-.7c-.041-.123.328-.369.574-.615a17.278,17.278,0,0,0-2.256-1.6c-.779-.41-.9-.533-.287-1.19l.451-.451c-.041-.041-.041-.082-.082-.164-.944.328-1.928.656-2.872.985l-.246-.246c.246-.492.492-.985.738-1.518-.041-.041-.041-.123-.082-.205l-3.323,1.354a3.417,3.417,0,0,1-.9.123,2.747,2.747,0,0,1-.082-.985,11.462,11.462,0,0,1,.615-1.231,12.358,12.358,0,0,0-4.266,2.379,1.184,1.184,0,0,1-.9.328c-.205-.082-.246-.533-.41-.9-.533.164-1.149.369-1.887.574-.041-.451-.041-.82-.082-1.149-.082.041-.123.041-.164.082-1.518,1.231-2.995,2.5-4.513,3.733a3.637,3.637,0,0,1-.7.328,5.005,5.005,0,0,1-.287-.7c-.041-.082,0-.205,0-.492-2.133,1.723-4.143,3.364-6.195,5,.492.533.82.944,1.149,1.313.205.205.451.41.656.615.944.82.861,1.313-.041,1.641.369.369.82.779,1.231,1.231-.492.328-.944.656-1.477.985.533.451,1.149.944,1.764,1.477-.205.779-.574,1.231-1.436,1.067.041.779-.205,1.354-1.149,1.313a3.04,3.04,0,0,1-1.19,3.815c1.518,1.067,2.995,2.133,4.595,3.282a13.784,13.784,0,0,0,.9-3.692,13.887,13.887,0,0,0-1.067-3.446,1.922,1.922,0,0,1,1.641,1.231,6.375,6.375,0,0,1-.123,5.333c-.779,1.764-1.559,3.528-2.338,5.333-.082.205-.287.533-.205.656.492.656-.123.862-.369,1.272-.82-.738-2.3-.492-2.5.328-.123.533-.205,1.067-.369,1.559-.164.574,0,.944.7,1.19.164-.82.287-1.6.451-2.379h.41a7.257,7.257,0,0,1,0,1.887,7.889,7.889,0,0,1-.944,1.723c.082.041.164.123.246.164a7.43,7.43,0,0,0,.738-.861c1.026-1.682,1.641-3.61,2.954-5.128a2.171,2.171,0,0,0,.451-.861c.7-1.805,1.313-3.651,2.01-5.415a11.788,11.788,0,0,0,.985-4.1,13.026,13.026,0,0,1,.246-1.764c.082-.041.123-.041.205-.082.369.533.738,1.108,1.108,1.641.082,0,.164-.041.287-.041,0-.656-.041-1.354,0-2.01,0-.164.164-.328.246-.492.123.123.328.246.328.369a8.682,8.682,0,0,1,.082,2.051,1.6,1.6,0,0,1-.7,1.067c-.164.123-.615-.246-.9-.328-.205.944-.328,1.928-.615,2.913s-.738,1.928-1.108,2.872c1.108.492,2.133.9,3.118,1.354a1.042,1.042,0,0,0-.123-.492c-.123-.287-.246-.533-.369-.82a6.648,6.648,0,0,1,.9.041,3.36,3.36,0,0,0,2.913-.738,2.677,2.677,0,0,1-.41-.615,5.3,5.3,0,0,1-.287-.861,3.888,3.888,0,0,1,.82.246,7.989,7.989,0,0,0,3.446,1.149c.041-.082.041-.123.082-.205a2.208,2.208,0,0,1-.492-.369,7.131,7.131,0,0,1-.41-.779,2.747,2.747,0,0,1,.82,0,2.3,2.3,0,0,0,2.461-.533c-.205-.451-.369-.82-.574-1.231.328,0,.615.041.944.041a4.354,4.354,0,0,0,.123-.574c-1.887-.533-3.61-1.272-4.39-3.323a1.547,1.547,0,0,1,.862.287,24.329,24.329,0,0,0,2.543,1.641,19.914,19.914,0,0,0,2.79.779.985.985,0,0,1,.656.615c.041.123-.287.41-.533.82a13.144,13.144,0,0,0,2.3-.246c2.543-.738,4.184-2.543,5.579-4.636a2.94,2.94,0,0,0,.533-1.928,1.646,1.646,0,0,0-.123-.615,5.539,5.539,0,0,1-.164-1.149c.082-.041.205-.041.287-.082.944.656.944,1.764,1.067,2.913C179.783,127.53,179.988,126.135,179,125.315Zm-19.732-1.641a3.168,3.168,0,0,1-.985-.492,5.28,5.28,0,0,1-.7-.861c-.369.41-.656.779-.985,1.149-.082,0-.205-.041-.287-.041-.041-.82-.123-1.641-.164-2.5-.41.492-.862.944-1.436,1.6-.041-.451-.164-.738-.082-.861a21.722,21.722,0,0,1,1.395-1.846.712.712,0,0,1,.574-.123.563.563,0,0,1,.246.533,17.218,17.218,0,0,1-.164,1.805c.82-.7,1.313-.328,1.764.246a7.863,7.863,0,0,0,.9.738c.123.123.205.246.328.369C159.517,123.51,159.353,123.715,159.271,123.674Z" transform="translate(-126.616 -96.447)" fill="#fff"/>
        <path id="Path_200" data-name="Path 200" d="M117.456,117.608c1.313-1.477,2.585-2.954,3.856-4.472a1.747,1.747,0,0,0,0-2.3,10.944,10.944,0,0,0-1.723-1.928,3.708,3.708,0,0,0-3.241-.9,8.651,8.651,0,0,0-5.292,3.323c-.985,1.231-1.395,2.954-2.133,4.636,1.108-.738,1.19-.738,1.723,0,.779-.738.82-.738,1.6.041-.205-.779-.533-1.477-.779-2.215-.082-.205.082-.492.123-.779a3.6,3.6,0,0,1,.615.492,2.393,2.393,0,0,1,.328.738,11.406,11.406,0,0,1,1.436-1.887,10,10,0,0,1,4.759-2.092,1.458,1.458,0,0,1,1.682,1.19,3.6,3.6,0,0,1-.615,2.585c-.7,1.518-2.133,2.338-3.323,3.323a1.78,1.78,0,0,1-2.995-.985c-.082-.369-.246-.738-.369-1.108-.123.328-.041.615-.123.82-.164.451-.369.9-.574,1.354-.369-.205-.7-.41-1.108-.615-.82.82-.82.82-1.682-.082-.328.328-.656.7-.944,1.026-.123,0-.205-.041-.328-.041-.082-.656-.123-1.313-.205-2.133-.779.985-1.436,1.846-2.133,2.667-.246.287-.533.574-.779.82-.164-.328-.328-.656-.533-.985,0-.041-.041-.082-.205-.287-.9,1.641-2.379,2.913-2.626,4.882,2.051-.123,2.585,2.092,1.6,3.4a1.784,1.784,0,0,1-1.19.328c-.205,0-.451-.246-.656-.369-.287.615-.533,1.231-.82,1.846,1.395.164,2.79.246,3.733,1.518-.82.492-1.477.041-2.092-.205a2.229,2.229,0,0,0-1.846.082.66.66,0,0,0-.451.9,7.269,7.269,0,0,1,.205,3.118c-.082.533-.287.7-.656.656A16.714,16.714,0,0,1,97.6,133.4c.779.944,1.477,1.723,2.133,2.461.205-.533.328-.9.492-1.313.369.164.738.328,1.19.533,0-.7.082-1.313,1.026-1.026.123.041.369-.164.492-.328.328-.451.451-1.19,1.272-.738.041,0,.164-.205.246-.246a4.885,4.885,0,0,0,.615-.369,7.634,7.634,0,0,0,2.092-1.6,9.091,9.091,0,0,1,4.266-3.692c.779-.328,1.6-.82,2.543-.287a2.556,2.556,0,0,1,.738,3.774c-1.19,1.764-2.954,2.215-4.882,2.42-1.026.123-2.42-.656-3.528,0-.656-.041-1.19.82-1.682,1.108.287.328,1.641,1.641,1.969,1.969a8.42,8.42,0,0,1,.328-.82c.287.246.533.41.738.615.082-.287.205-.615.328-.944.287.164.451.246.451.246a4.819,4.819,0,0,1,.985-.533c.7-.205,1.395-.246,2.051-.451a11.24,11.24,0,0,0,1.641-.615c1.19-.492,2.338-1.026,3.487-1.6a3.212,3.212,0,0,0,.82-.656,2.362,2.362,0,0,0,.328-3.364,7.347,7.347,0,0,1-.492-.985c.082-.082.164-.123.246-.205a3.9,3.9,0,0,1,.7.41c.41.369.779.287.9-.246.041-.205,0-.451.041-.7l.985-.246c-.656-.779-1.641-1.272-1.682-2.42a7.108,7.108,0,0,1,.738-.328c-.369-.533-.738-1.026-1.067-1.559.369-.205.7-.41,1.108-.615-.164-.164-.41-.41-.615-.656-.656-.738-1.313-1.395-2.3-.492-.123.123-.533-.041-.82-.082.123-.328.123-.7.328-.9C116.307,118.469,116.963,118.141,117.456,117.608Zm-8.533,8.41a1.637,1.637,0,0,1-1.231.287c-1.518-.328-2.174-1.477-2.5-3.282a2.606,2.606,0,0,1,.574-2.42c.985-1.067,2.749-.779,3.692.656A3.532,3.532,0,0,1,108.923,126.018Zm7.015.985c.41.533.82,1.149,1.231,1.723-.041.041-.123.082-.164.123a1.757,1.757,0,0,1-.656,2.215c-.164.123-.492.041-.738.041,0-.246-.082-.574.041-.738a1.8,1.8,0,0,0,.082-2.5c-.082-.123-.246-.246-.287-.369a2.68,2.68,0,0,1,0-.574C115.609,126.92,115.856,126.879,115.938,127Z" transform="translate(-97.6 -94.114)" fill="#fff"/>
        <path id="Path_201" data-name="Path 201" d="M115.693,111.779a6.07,6.07,0,0,1-.533,2.051c-.082.246-.164.451-.205.615-1.518.246-2.092,1.641-3.118,2.5-.492-.7-.985-.656-1.477-.041-.615.738-1.231,1.477-1.887,2.3a5.06,5.06,0,0,1-.738-3.364c.082-.615.041-1.231.123-1.846.328-2.215,1.067-4.184,3.282-5.169a8.61,8.61,0,0,1,2.256-.533,1.161,1.161,0,0,1,.82.369A5.167,5.167,0,0,1,115.693,111.779Z" transform="translate(-103.55 -94.316)" fill="#fff"/>
        <path id="Path_202" data-name="Path 202" d="M226.88,138.484a5.329,5.329,0,0,1-2.01.205v.328c-.041.287-.082.574-.123.82-.246-.123-.615-.164-.779-.369-.533-.7-.944-1.436-1.436-2.174a1.876,1.876,0,0,0-.656-.615c-.944-.451-2.133-.574-2.708-1.518a4.977,4.977,0,0,1-.451-1.313,1.181,1.181,0,0,1-.041-.533.837.837,0,0,1,.82-.615,2.986,2.986,0,0,1,1.641.615,10.044,10.044,0,0,0,2.338,1.641,1.781,1.781,0,0,0,2.5-1.19c.082-.246.205-.533.287-.82a1.453,1.453,0,0,1,1.067,1.354c.082.82-.656,1.395-2.338,2.01.041.9.328,1.108,1.108.779.369-.164.738-.328,1.108-.533C227.373,137.295,227.66,138.074,226.88,138.484Z" transform="translate(-168.996 -108.714)" fill="#fff"/>
        <path id="Path_203" data-name="Path 203" d="M217.792,93.953c-.656.738-1.395,1.559-2.092,2.338-1.477-1.231-2.42-3.118-4.8-3.159a10.854,10.854,0,0,1,2.051-1.887,3.073,3.073,0,0,1,2.79.205A3.969,3.969,0,0,1,217.792,93.953Z" transform="translate(-164.42 -84.12)" fill="#fff"/>
        <path id="Path_204" data-name="Path 204" d="M225.864,87.839c-.164.328-.7.451-1.067.7-.41.246-.779.492-1.149.738A6.617,6.617,0,0,0,219.3,86.2c.861-.492,1.641-.985,2.461-1.354a3.109,3.109,0,0,1,3.856,1.887C225.7,87.1,225.987,87.593,225.864,87.839Z" transform="translate(-169.374 -80.385)" fill="#fff"/>
        <path id="Path_205" data-name="Path 205" d="M211.659,101.826l-1.108,1.6a10.667,10.667,0,0,0-1.231-.82c-.451-.246-.9-.492-1.354-.7a7.017,7.017,0,0,0-1.231-.369,4.187,4.187,0,0,0-1.231-.123H205.3v-.041a25.656,25.656,0,0,1,1.559-2.5c.328-.41,2.01.041,2.585.615.369.369.738.779,1.108,1.149C210.879,100.964,211.207,101.334,211.659,101.826Z" transform="translate(-161.117 -88.67)" fill="#fff"/>
        <path id="Path_206" data-name="Path 206" d="M248.856,84.521c-1.149.123-2.338.246-3.61.41a4.438,4.438,0,0,0-1.846-3.487c1.231-.082,2.5-.205,3.733-.246.738-.041,1.559,1.067,1.6,2.051C248.774,83.578,248.815,83.947,248.856,84.521Z" transform="translate(-183.587 -78.34)" fill="#fff"/>
        <path id="Path_207" data-name="Path 207" d="M236.366,85.225c-.9.123-1.846.205-2.872.328-.287-1.846-.944-2.626-2.995-3.487,1.395-.164,2.461-.862,3.692-.287A2.978,2.978,0,0,1,236.366,85.225Z" transform="translate(-175.979 -78.551)" fill="#fff"/>
        <path id="Path_208" data-name="Path 208" d="M128.239,186.584a4.7,4.7,0,0,1-3.2,2.626c-.328.082-.9.369-.9.574a2.73,2.73,0,0,0,.492,1.19c.082.164.287.246.492.41-1.108.862-1.477.9-1.928.246a1.19,1.19,0,0,1-.205-.738,2.685,2.685,0,0,1,1.764-2.133c.615-.246,1.067-.861,1.846-.9a.612.612,0,0,0,.123-.41c-.082-.123-.287-.328-.41-.287-.574.164-1.477-.533-1.723.615a.621.621,0,0,1-.492.041c-.164-.082-.328-.369-.287-.451.287-.451.533-1.19.944-1.272a10.775,10.775,0,0,1,3.036-.328C128.4,185.64,128.527,185.968,128.239,186.584Z" transform="translate(-112.568 -139.993)" fill="#fff"/>
        <path id="Path_209" data-name="Path 209" d="M209.069,109.605c-.164.533-.369,1.026-.533,1.559a3.217,3.217,0,0,1-.205.574l-.246.738c-.041.123-.082.205-.123.328-.41-.287-.7-.492-1.026-.738l.164-.164c.205-.205.451-.369.656-.615a1.129,1.129,0,0,0,.328-.615v-.205c-.041-.041-.041-.082-.123-.123-.328-.287-.7-.205-1.108-.164-.492.082-.985.205-1.477.287-.082-.328-.082-.82-.328-.985a3.149,3.149,0,0,0-1.149-.287s.164-.82.205-.9a1.349,1.349,0,0,1,1.231-.7,2.164,2.164,0,0,1,.492.123,15.66,15.66,0,0,1,1.477.533,4.984,4.984,0,0,1,1.518,1.108Z" transform="translate(-160.292 -93.906)" fill="#fff"/>
        <path id="Path_210" data-name="Path 210" d="M260.546,82.106c-.82.246-1.6.533-2.379.82-.369-1.108-.738-2.092-1.067-3.118a12.577,12.577,0,0,1,2.379-.615c1.026-.082,1.026.985,1.395,1.6C261.079,81.2,261.366,81.86,260.546,82.106Z" transform="translate(-191.667 -77.155)" fill="#fff"/>
        <path id="Path_211" data-name="Path 211" d="M138.487,168.464c-.328.615-.574,1.272-.944,1.846-.9,1.354-1.887,2.626-2.872,3.9-.205.246-.738.164-1.108.246-.041-.041-.082-.123-.164-.164,1.108-1.723,2.133-3.487,3.282-5.169.328-.451,1.067-.574,1.6-.82A.9.9,0,0,1,138.487,168.464Z" transform="translate(-118.713 -129.709)" fill="#fff"/>
        <path id="Path_212" data-name="Path 212" d="M144.284,117.559a5.594,5.594,0,0,1-2.379,2.79c-.41-1.067-.041-2.585-1.805-2.954a4.57,4.57,0,0,1,1.026-.574,1.349,1.349,0,0,1,.9,0,1.41,1.41,0,0,1,.369,1.108c-.082.492-.369.944.246,1.19a1.7,1.7,0,0,0,.615-.985,9.943,9.943,0,0,0-.41-1.846c-.082,0-.123.041-.205.041a.2.2,0,0,0,.041-.123c.574-.287,1.231-.779,1.764-.246C144.695,116.287,144.49,117.067,144.284,117.559Z" transform="translate(-122.665 -98.701)" fill="#fff"/>
        <path id="Path_213" data-name="Path 213" d="M119.623,187.636c-.041.779-.041,1.518-.082,2.3a.552.552,0,0,1-.082.369c-.287.41-.574.779-.861,1.19a5.825,5.825,0,0,1-.533.492c-.205-.205-.492-.41-.574-.7-.041-.123.205-.451.41-.574a6.51,6.51,0,0,1,.82-.287c.123-.082.328-.287.328-.369a1.716,1.716,0,0,0-.328-.492h-.082c-.7,0-1.436-.041-1.272-1.026C117.449,187.964,118.885,187.43,119.623,187.636Z" transform="translate(-109.244 -141.086)" fill="#fff"/>
        <path id="Path_214" data-name="Path 214" d="M269.072,78.569a14.705,14.705,0,0,1-1.6,1.6c-.246-.574-.369-.985-.574-1.354s-.451-.738-.7-1.149a19.488,19.488,0,0,1,1.887-.574.876.876,0,0,1,.7.328C268.99,77.79,269.195,78.364,269.072,78.569Z" transform="translate(-197.034 -75.915)" fill="#fff"/>
        <path id="Path_215" data-name="Path 215" d="M143.559,200.6c-.615.533-.451,1.723-1.518,1.887a5.274,5.274,0,0,1-.779.164,6.223,6.223,0,0,1-.862-.123c.082-.328.041-.82.246-1.026a10.641,10.641,0,0,1,1.6-1.026,11.64,11.64,0,0,0,.944-.779C143.313,200.028,143.641,200.562,143.559,200.6Z" transform="translate(-122.842 -148.228)" fill="#fff"/>
        <path id="Path_216" data-name="Path 216" d="M133.143,158.951c-.082.123-.287.369-.492.656-1.149-.287-1.6-1.19-2.051-2.256l.9-.451A23.938,23.938,0,0,0,133.143,158.951Z" transform="translate(-117.062 -122.986)" fill="#fff"/>
        <path id="Path_217" data-name="Path 217" d="M137.5,197.341a6.958,6.958,0,0,0-1.149.246,9.793,9.793,0,0,0-.9.492c-.205-1.108.451-1.887,2.01-2.379C137.458,196.233,137.458,196.726,137.5,197.341Z" transform="translate(-119.899 -145.869)" fill="#fff"/>
        <path id="Path_218" data-name="Path 218" d="M112.1,173.467c-.985,1.067-1.026,1.067-2.5-.246.41-.246.862-.533,1.313-.82C111.241,172.687,111.651,173.056,112.1,173.467Z" transform="translate(-104.677 -132.127)" fill="#fff"/>
        <path id="Path_219" data-name="Path 219" d="M129.2,161.292c-.369-.123-1.19.615-1.354.451-.533-.533-.574-1.313-1.149-1.928.287-.246.492-.41.7-.615C127.972,160.02,128.546,160.267,129.2,161.292Z" transform="translate(-114.762 -124.343)" fill="#fff"/>
        <path id="Path_220" data-name="Path 220" d="M143.849,194c-.082.615-.082,1.149-.205,1.682-.041.205-.328.369-.492.533-.164-.164-.451-.369-.451-.533a4.262,4.262,0,0,1,.287-1.436C143.069,194.082,143.52,194.082,143.849,194Z" transform="translate(-124.198 -144.866)" fill="#fff"/>
        <path id="Path_221" data-name="Path 221" d="M108.9,177.4c-.205.246-.41.41-.615.656-.533-.451-1.067-.944-1.682-1.477C107.667,176.089,108.118,176.91,108.9,177.4Z" transform="translate(-102.908 -134.504)" fill="#fff"/>
        <path id="Path_222" data-name="Path 222" d="M275.605,74.3c-.041.164,0,.369-.123.492-.287.369-.615.7-1.026,1.149-.246-.369-.451-.615-.656-.944a9.771,9.771,0,0,1,1.231-.738C275.195,74.177,275.441,74.3,275.605,74.3Z" transform="translate(-201.516 -74.231)" fill="#fff"/>
        <path id="Path_223" data-name="Path 223" d="M136.308,157.877c-.451-.615-.779-1.026-1.108-1.477C136.267,156.441,136.513,156.769,136.308,157.877Z" transform="translate(-119.775 -122.691)" fill="#fff"/>
      </g>
      <path id="Path_224" data-name="Path 224" d="M126.183,163.823c-.574,0-.779.287-1.19.328-.41-.656-.985-1.518-.082-2.051C125.28,162.592,125.649,163.167,126.183,163.823Z" transform="translate(-113.424 -126.053)" fill="#fff"/>
    </g>
    <g id="Group_101" data-name="Group 101" transform="translate(66.948 8.397)">
      <path id="Path_225" data-name="Path 225" d="M258.075,106.637l-.041,1.764c-.041,3.159-1.928,5.374-5.251,5.333s-5.169-2.338-5.087-5.5l.123-8.2c.041-3.159,1.969-5.374,5.251-5.333s5.169,2.3,5.087,5.5l-.041,1.723-3.692-.041v-1.19c0-.779-.041-2.256-1.436-2.3s-1.518,1.477-1.518,2.256l-.123,7.138c0,.779.041,2.256,1.436,2.3s1.518-1.477,1.518-2.256V106.6Z" transform="translate(-247.694 -94.699)" fill="#fff"/>
      <path id="Path_226" data-name="Path 226" d="M286.589,96.123l-.287,18.3-3.9-.041.123-7.466-2.708-.041-.123,7.466-3.9-.041.287-18.3h3.9l-.123,7.138,2.708.041.123-7.138Z" transform="translate(-264.27 -95.466)" fill="#fff"/>
      <path id="Path_227" data-name="Path 227" d="M310.907,114.838l-.369-3.2-2.913-.041-.451,3.2-3.774-.041L306.354,96.5l5.948.082,2.379,18.338Zm-2.667-6.646,1.846.041-.82-7.877Z" transform="translate(-280.547 -95.761)" fill="#fff"/>
      <path id="Path_228" data-name="Path 228" d="M336.909,109.678c0,.862.328,1.764,1.518,1.764a1.411,1.411,0,0,0,1.559-1.559c0-.738.123-1.764-1.846-2.667-3.159-1.477-4.759-2.749-4.718-5.784.041-3.446,2.174-5.374,5.251-5.333,3.323.041,5.169,2.051,5.087,5.5v1.026l-3.651-.041v-1.026c0-.779-.328-1.805-1.518-1.805a1.535,1.535,0,0,0-1.559,1.682c0,.862.246,1.395,2.215,2.3,2.5,1.149,4.431,2.338,4.39,6.072-.041,3.4-1.928,5.374-5.251,5.333-3.938-.041-5.128-2.749-5.087-5.5l.041-1.518,3.61.041Z" transform="translate(-298.18 -95.524)" fill="#fff"/>
      <path id="Path_229" data-name="Path 229" d="M372.079,111.951l-.041,3.61L361.7,115.4l.041-3.61,3.282.041.164-11.076-3.159-.041.041-3.61,10.174.164-.041,3.61-3.159-.041-.164,11.076Z" transform="translate(-314.93 -96.115)" fill="#fff"/>
      <path id="Path_230" data-name="Path 230" d="M396.746,115.979l-2.79-9.23-.123,9.189L390.1,115.9l.287-18.3,3.733.041,2.79,9.394.123-9.353,3.692.041-.287,18.3Z" transform="translate(-331.679 -96.41)" fill="#fff"/>
      <path id="Path_231" data-name="Path 231" d="M429.316,105.586,429.234,111c-.041,3.159-1.928,5.374-5.251,5.333s-5.169-2.338-5.087-5.5l.123-8.2c.041-3.159,1.969-5.374,5.251-5.333s5.169,2.3,5.087,5.5v1.067l-3.692-.041v-.533c0-.779-.041-2.256-1.436-2.3s-1.518,1.477-1.518,2.256l-.123,7.138c0,.779.041,2.256,1.436,2.3s1.518-1.477,1.518-2.256V109.2l-1.764-.041.041-3.651Z" transform="translate(-348.661 -96.232)" fill="#fff"/>
      <path id="Path_232" data-name="Path 232" d="M258.779,162.784l3.364,9.928h-5.128l-2.995-9.066h-.779v9.066H248.4V149h6.523c4.841,0,6.892,3.9,6.892,7.3C261.774,159.338,260.789,161.635,258.779,162.784Zm-4.841-3.9c2.708,0,3.036-1.518,3.036-2.626,0-.985-.328-2.626-2.831-2.626h-.985v5.251h.779Z" transform="translate(-248.11 -126.723)" fill="#fff"/>
      <path id="Path_233" data-name="Path 233" d="M293.523,172.612l-.533-4.143h-3.774l-.533,4.143H283.8l3.446-23.712h7.713l3.446,23.712Zm-3.61-8.533h2.42l-1.19-10.174Z" transform="translate(-268.988 -126.664)" fill="#fff"/>
      <path id="Path_234" data-name="Path 234" d="M326.425,153.882H322.2V149h13.456v4.882H331.43v18.83h-5Z" transform="translate(-291.635 -126.723)" fill="#fff"/>
      <path id="Path_235" data-name="Path 235" d="M363.818,165.44c0,1.149.451,2.256,2.01,2.256a1.863,1.863,0,0,0,2.01-2.051c0-.985.123-2.3-2.461-3.4-4.1-1.846-6.236-3.446-6.236-7.425,0-4.472,2.708-7.015,6.687-7.015,4.307,0,6.728,2.543,6.728,7.015v1.354h-4.718v-1.354a2.023,2.023,0,0,0-2.01-2.3,2,2,0,0,0-2.01,2.215c0,1.149.328,1.805,2.913,2.913,3.282,1.436,5.784,2.954,5.784,7.795,0,4.431-2.379,7.015-6.728,7.015-5.087,0-6.687-3.446-6.687-7.015v-1.969h4.677v1.969Z" transform="translate(-313.397 -126.016)" fill="#fff"/>
    </g>
    <g id="Group_102" data-name="Group 102" transform="translate(128.993 28.212)">
      <path id="Path_236" data-name="Path 236" d="M545.688,199.718c0,.246.123.164.164.164C545.77,199.513,545.647,199.718,545.688,199.718Z" transform="translate(-485.479 -176.417)" fill="#fff"/>
      <path id="Path_237" data-name="Path 237" d="M544.482,189.492l.041.082L544.4,189Z" transform="translate(-484.724 -170.129)" fill="#fff"/>
      <path id="Path_238" data-name="Path 238" d="M544.152,183.392l.205.287c-.041-.779-.205-1.805-.164-2.379-.205.369.082,1.313.041,1.969Z" transform="translate(-484.558 -165.588)" fill="#fff"/>
      <path id="Path_239" data-name="Path 239" d="M545.132,176.853V176.4C545.091,176.525,545.05,175.95,545.132,176.853Z" transform="translate(-485.128 -162.659)" fill="#fff"/>
      <path id="Path_240" data-name="Path 240" d="M545.3,177.314c0,.369.041-.246,0,0Z" transform="translate(-485.255 -163.202)" fill="#fff"/>
      <path id="Path_241" data-name="Path 241" d="M545,172.638l.082.492c.041-.123.041-.574.082-.41C545.123,172.228,545.082,172.351,545,172.638Z" transform="translate(-485.078 -160.331)" fill="#fff"/>
      <path id="Path_242" data-name="Path 242" d="M544.6,171.9l.041.246A.722.722,0,0,0,544.6,171.9Z" transform="translate(-484.842 -160.044)" fill="#fff"/>
      <path id="Path_243" data-name="Path 243" d="M544.659,172.687c-.082-.041,0,.082.041.287l-.082-.574C544.577,172.523,544.495,172.523,544.659,172.687Z" transform="translate(-484.819 -160.339)" fill="#fff"/>
      <path id="Path_244" data-name="Path 244" d="M544.5,174.764c.082.985.205.82.164-.164C544.582,174.887,544.582,175.256,544.5,174.764Z" transform="translate(-484.783 -161.636)" fill="#fff"/>
      <path id="Path_245" data-name="Path 245" d="M543.641,180.9l-.041.369.082.328C543.641,181.43,543.723,180.856,543.641,180.9Z" transform="translate(-484.252 -165.349)" fill="#fff"/>
      <path id="Path_246" data-name="Path 246" d="M544.6,165.5l.082.369c.041-.205.041-.574.123-.574C544.723,165.251,544.641,165.456,544.6,165.5Z" transform="translate(-484.842 -156.144)" fill="#fff"/>
      <path id="Path_247" data-name="Path 247" d="M544.459,164.974l-.082-.574C544.336,164.933,544.377,165.015,544.459,164.974Z" transform="translate(-484.701 -155.621)" fill="#fff"/>
      <path id="Path_248" data-name="Path 248" d="M543.9,171.2l.041.205.205.9Z" transform="translate(-484.429 -159.631)" fill="#fff"/>
      <path id="Path_249" data-name="Path 249" d="M544.741,159.646l.123.328-.164-.574Z" transform="translate(-484.901 -152.672)" fill="#fff"/>
      <path id="Path_250" data-name="Path 250" d="M544.6,155.008c.082.246.123-.328.205-.082a7.541,7.541,0,0,0-.205-1.026A2.5,2.5,0,0,1,544.6,155.008Z" transform="translate(-484.842 -149.428)" fill="#fff"/>
      <path id="Path_251" data-name="Path 251" d="M544.4,152.7l.123.492Z" transform="translate(-484.724 -148.721)" fill="#fff"/>
      <path id="Path_252" data-name="Path 252" d="M544.3,161.246v.205c.041-.041.082-.123.123-.451Z" transform="translate(-484.665 -153.616)" fill="#fff"/>
      <path id="Path_253" data-name="Path 253" d="M544.3,160.892h0v0Z" transform="translate(-484.665 -153.262)" fill="#fff"/>
      <path id="Path_254" data-name="Path 254" d="M544.3,162.141v0Z" transform="translate(-484.665 -154.264)" fill="#fff"/>
      <path id="Path_255" data-name="Path 255" d="M543.687,167.2c-.082-.328-.205-1.026-.287-.328C543.523,167.075,543.564,166.706,543.687,167.2Z" transform="translate(-484.134 -156.901)" fill="#fff"/>
      <path id="Path_256" data-name="Path 256" d="M543.9,162.9v.615c.041,0,.082-.123.123.041Z" transform="translate(-484.429 -154.736)" fill="#fff"/>
      <path id="Path_257" data-name="Path 257" d="M543.8,162.2l.041.287v-.205Z" transform="translate(-484.37 -154.323)" fill="#fff"/>
      <path id="Path_258" data-name="Path 258" d="M543.9,154.126c.041.041.123.205.123-.164a4.837,4.837,0,0,1-.123-.862Z" transform="translate(-484.429 -148.957)" fill="#fff"/>
      <path id="Path_259" data-name="Path 259" d="M544.156,158.241V158.2C544.115,158.2,544.115,158.241,544.156,158.241Z" transform="translate(-484.562 -151.964)" fill="#fff"/>
      <path id="Path_260" data-name="Path 260" d="M543.6,143.8v.123h.041Z" transform="translate(-484.252 -143.472)" fill="#fff"/>
      <path id="Path_261" data-name="Path 261" d="M543.8,155.7a2.136,2.136,0,0,0,.082.574c0-.205-.041-.41-.041-.615C543.841,155.62,543.8,155.62,543.8,155.7Z" transform="translate(-484.37 -150.451)" fill="#fff"/>
      <path id="Path_262" data-name="Path 262" d="M544.041,150.5a1.536,1.536,0,0,0-.041.451A.886.886,0,0,0,544.041,150.5Z" transform="translate(-484.488 -147.423)" fill="#fff"/>
      <path id="Path_263" data-name="Path 263" d="M544.2,157.874h0C544.241,157.833,544.241,157.874,544.2,157.874Z" transform="translate(-484.606 -151.761)" fill="#fff"/>
      <path id="Path_264" data-name="Path 264" d="M544.082,157.428c-.041-.123-.041-.246-.082-.328,0,.164.041.287.041.41C544.082,157.51,544.082,157.469,544.082,157.428Z" transform="translate(-484.488 -151.316)" fill="#fff"/>
      <path id="Path_265" data-name="Path 265" d="M543.6,145.764l.041.246v-.205a.722.722,0,0,1,.041-.246c.041-.205.041-.492.082-.779-.082-.656-.123-.738-.164-.779l.041,1.846Z" transform="translate(-484.252 -143.59)" fill="#fff"/>
      <path id="Path_266" data-name="Path 266" d="M543.328,150.008c-.123-.205-.205-.779-.328-.41.041.7.123.492.205.9-.082-1.149.082.328.123-.492,0,.246.041.451.041.615,0-.205.041-.41.041-.615v.041h0c0,.041-.041.082,0,0v-.041a.057.057,0,0,1-.082,0c0-.328.041-.041.041.041h0l-.123-1.149C543.287,149.146,543.287,149.433,543.328,150.008Z" transform="translate(-483.898 -146.48)" fill="#fff"/>
      <path id="Path_267" data-name="Path 267" d="M542.7,165.588Z" transform="translate(-483.721 -156.276)" fill="#fff"/>
      <path id="Path_268" data-name="Path 268" d="M542.841,163.774a.761.761,0,0,1,.082.41c-.041.246-.082,0-.123,0,.041.164.123.574.164.041l-.041-.082a6.978,6.978,0,0,1,.164-.944A2.638,2.638,0,0,0,542.841,163.774Z" transform="translate(-483.78 -154.913)" fill="#fff"/>
      <path id="Path_269" data-name="Path 269" d="M543.5,163.232c0-.041.041-.041,0,0C543.541,163.15,543.5,163.191,543.5,163.232Z" transform="translate(-484.193 -154.904)" fill="#fff"/>
      <path id="Path_270" data-name="Path 270" d="M542.964,156.644l-.082-.944-.082.492.082-.041C542.841,156.685,542.923,156.561,542.964,156.644Z" transform="translate(-483.78 -150.49)" fill="#fff"/>
      <path id="Path_271" data-name="Path 271" d="M542.579,143.082c.041.041.082.041.123.082l-.041-.164-.861.205.779-.123Z" transform="translate(-483.191 -143)" fill="#fff"/>
      <path id="Path_272" data-name="Path 272" d="M538.328,143.2l-.328.082.287.041Z" transform="translate(-480.949 -143.118)" fill="#fff"/>
      <path id="Path_273" data-name="Path 273" d="M462.717,146.059c-.41-.082-.862-.246-.82-.123l.123.123A1.976,1.976,0,0,1,462.717,146.059Z" transform="translate(-436.065 -144.706)" fill="#fff"/>
      <path id="Path_274" data-name="Path 274" d="M506.2,144.641a7.61,7.61,0,0,0-.9-.041C505.751,144.682,506.079,144.764,506.2,144.641Z" transform="translate(-461.664 -143.944)" fill="#fff"/>
      <path id="Path_275" data-name="Path 275" d="M399.9,181.989c.041.164.041.246.082.246C399.941,182.071,399.9,181.948,399.9,181.989Z" transform="translate(-399.503 -165.989)" fill="#fff"/>
      <path id="Path_276" data-name="Path 276" d="M502.8,144.6a.37.37,0,0,1,.205.041c.246-.041.533-.041.82-.082A2.945,2.945,0,0,0,502.8,144.6Z" transform="translate(-460.19 -143.905)" fill="#fff"/>
      <path id="Path_277" data-name="Path 277" d="M534.892,202.1a2.355,2.355,0,0,0-.492.041A1.287,1.287,0,0,1,534.892,202.1Z" transform="translate(-478.826 -177.855)" fill="#fff"/>
      <path id="Path_278" data-name="Path 278" d="M526.4,143.756c.287-.041.041-.041,0,0Z" transform="translate(-474.108 -143.428)" fill="#fff"/>
      <path id="Path_279" data-name="Path 279" d="M529.4,144.982a.316.316,0,0,1,.123-.082C529.441,144.941,529.4,144.941,529.4,144.982Z" transform="translate(-475.878 -144.121)" fill="#fff"/>
      <path id="Path_280" data-name="Path 280" d="M526.928,143.841c-.082,0-.205-.041-.328-.041A2.209,2.209,0,0,0,526.928,143.841Z" transform="translate(-474.226 -143.472)" fill="#fff"/>
      <path id="Path_281" data-name="Path 281" d="M527.3,143.7h0Z" transform="translate(-474.639 -143.413)" fill="#fff"/>
      <path id="Path_282" data-name="Path 282" d="M525.869,143.8a1.413,1.413,0,0,0-.369.041h.41A.04.04,0,0,0,525.869,143.8Z" transform="translate(-473.577 -143.472)" fill="#fff"/>
      <path id="Path_283" data-name="Path 283" d="M444.9,171.7l2.379-.082L445.8,163.7Z" transform="translate(-426.043 -155.208)" fill="#fff"/>
      <path id="Path_284" data-name="Path 284" d="M456.927,166.825l1.477-.041-.779-20.963v.082l.082-.041c0-.328-.082-.533-.082-.369l-.041-.82c.041.205.164.246.287.082a2.822,2.822,0,0,0,.369-1.067c-.041,0-.041.041-.082-.123a4.354,4.354,0,0,1-.738.123,2.18,2.18,0,0,0,.574.041c-.041.533-.082.985-.164.615,0-.164-.041-.328-.041-.41-.492.041-.369-.041-.738-.082.164.082-.164.123-.492.205a.788.788,0,0,0-.492.205l-4.759.164c.041,0,.041-.041-.041-.041l-.451.041c-.41-.123.82-.205.246-.246a7.5,7.5,0,0,1,2.092-.246l.164.164a2.045,2.045,0,0,0-.779-.041c.328-.082,1.272.205,1.641-.041l-.574-.123a9.758,9.758,0,0,1,2.051-.328c-.328-.164-.164.041-.7-.164.451.246-1.887.041-1.149.328-.533-.246-.944-.082-1.641-.246.041.041.246.123-.369.082-.041,0-.082.041-.123.041h0c.164.041.287.041.328.082a10.026,10.026,0,0,1-1.6.287c-.369,0,.164-.082-.041-.123l-.492.123c-.041-.123-.985-.205-.123-.287l-.779.041a5.921,5.921,0,0,0-1.477,0c-.369,0-.944.205-.615.082l-1.231.123v-.041a19.666,19.666,0,0,1-3.856.123,7.773,7.773,0,0,1-1.518.082l-.123-.123a7.921,7.921,0,0,0-1.805.082c-.574-.287-2.543.041-3.446,0l-.041.164a19.75,19.75,0,0,0-2.01.164l.041.123c-.656.123-1.723-.041-2.831,0a1.851,1.851,0,0,1,.533-.041c-1.272-.246-2.708.328-3.856.123a4.47,4.47,0,0,1-.7.041H426c-.123,0-.246-.041-.41-.041a1.019,1.019,0,0,0,.328.041c-.205,0-.574.041-.9.082l-.164-.123h-.082c-.328-.041-.246.082-.082.205-.164.041-.328.082-.451.123-.287-.246-.862.123-1.231-.123-.205.123-1.436.164-1.764.369a4.556,4.556,0,0,0-1.067.041l-.164-.164-.779.287c-.492-.082-.7-.164-.205-.328-1.149.246-.944.123-1.928.369l.041-.123c-.369,0-.9.205-1.149.123-.82-.205-3.938.123-5.99-.041.41.328-.944-.123-1.026.164-.123-.082-.41-.123-.082-.205a9.346,9.346,0,0,0-2.3.205c-.123-.082.205-.123.123-.164a.815.815,0,0,1-.451.041c-.123-.041.164-.082.328-.123-1.067.041-1.149.328-1.231.574a1.623,1.623,0,0,0-1.19.123c-.205-.082-.492-.164.164-.205-.369,0-2.3-.041-2.3.164a1.512,1.512,0,0,0-.615.041,20.451,20.451,0,0,0-2.092.082h.328a.5.5,0,0,1-.369.123c.041.287-.041.615,0,1.19l-.041-.041a2,2,0,0,1-.041.533v.287a.7.7,0,0,0,.041.328,3.168,3.168,0,0,1-.041,1.067l.164-.082c.328.123-.123,1.354,0,2.215l.082-.328c.123.451-.369,1.354-.41,1.805-.041.123-.041-.164-.082-.287-.123,1.272.205.164.287,1.067-.082.164-.287-.205-.287.41a17.916,17.916,0,0,1,.246,2.667c.082-.205.164-.369.205.041.041.656-.246,1.805.041,2.379a.18.18,0,0,1-.041.123,11.024,11.024,0,0,0,.328,1.928c-.492.492.369,3.159-.123,3.159l.082,1.559-.041-.041a4.565,4.565,0,0,0,.246,1.723c0,.328-.082.082-.082.082v1.6a10.083,10.083,0,0,0,1.149-.082c.205-.041.41-.041.615-.082.164-.041.328-.082.533-.123l.123.164a28.3,28.3,0,0,0,3.528-.082.449.449,0,0,1-.164.082c1.6-.246,3.856.287,4.431-.287l1.067-.164c-1.354,0,.205-.246-.369-.328.533-.041,1.395.123.738.164l-.123-.041c-.246.287,1.723.041,1.682.246,2.708-.123,5.333-.041,7.877-.123l-.287-.205h.9c.246.041.328.164-.328.164a1.736,1.736,0,0,0,1.067-.205c1.231.041-.451.287-.082.287l.492-.041-.123-.041a2.682,2.682,0,0,1,1.19-.205c.492.041.246.123.451.123a.491.491,0,0,0,.287,0l1.108-.041-.451-.164c.492-.123,1.026-.041.533-.205.779.287,4.143-.041,4.636.041a11.981,11.981,0,0,1,2.215-.205c-.205-.041-.328-.205.369-.246-.246.41,1.354.123,1.928.41-.533-.164,2.051-.123,1.231-.369.615,0,.041.164.492.246,1.436-.205,3.2,0,4.964-.123.041-.041-.287-.123.123-.205l.944.246c.369-.041.328-.328.985-.164-.082-.041-.246-.123,0-.123,3.528.123,7.138-.492,10.707-.123-.492-.082-.164-.123.205-.123-.246,0,0-.123-.041-.205l1.477.164c.246-.205,1.6-.082,1.723-.287l-.451.041C457.543,167.071,457.256,166.948,456.927,166.825Zm.656-22.727a1.84,1.84,0,0,1-.041.451v-.41l-.615.041A3.59,3.59,0,0,1,457.584,144.1Zm-36.306,1.026a.04.04,0,0,0-.041.041C421.237,145.123,421.114,145.123,421.278,145.123Zm-2.092.164a.347.347,0,0,0,0,.287l-.656.041Zm-15.1.738,1.067-.164c.123.041.041.082-.164.205.082,0,.123-.041.205-.041.164.041.205.041.205.082h-.533c.041,0,.082-.041.123-.041a.583.583,0,0,0-.246.082H404.5A1.087,1.087,0,0,0,404.089,146.025Zm5.21,19.568c-3.323.123-4.225-2.338-4.308-4.431l-.246-6.933c-.082-2.667,1.19-4.636,3.979-4.718,3.487-.123,4.266,2.3,4.349,4.431v.287l-2.379.082v-.287c-.041-.656-.123-2.3-1.887-2.215s-1.723,1.682-1.723,2.379l.246,6.933c.041.656.123,2.256,1.887,2.215,1.764-.082,1.723-1.682,1.723-2.338l-.082-2.3-1.805.082-.082-2.3,4.143-.164.164,4.595C413.4,163.543,412.088,165.471,409.3,165.594Zm11.9-.738-.574-3.036-3.118.123-.328,3.036-2.379.082,1.846-15.548,3.856-.123,2.995,15.384Zm27.158-21.086Zm-9.559.944c-.041.041.082.082.123.123l-.779.041A3.84,3.84,0,0,1,438.795,144.713Zm-10.01.082.205.082.862-.164c-.205.123-.615.287-1.067.492l-1.436.041A8.355,8.355,0,0,1,428.785,144.795Zm-4.472,23.835-.164-.041C424.519,168.507,424.4,168.548,424.313,168.63Zm6.564-4.143-.328-9.353-1.641,4.718-1.969-4.595.328,9.353-2.379.082-.574-15.466,2.379-.082,1.969,4.636,1.641-4.759,2.338-.082.574,15.466Zm2.667-19.856a12.856,12.856,0,0,1,1.764.287c.041.041.082.041.082.082l-.944.041-.041-.246-.123.246-.944.041A.926.926,0,0,1,433.544,144.631Zm1.313,19.691-.574-15.466,8.287-.287.082,2.338-5.825.205.164,4.225,5.128-.205.082,2.338-5.128.205.164,4.225,5.825-.205.082,2.379Zm8.041-19.609a7.644,7.644,0,0,1,1.764-.451c.944-.082.41.164.574.123,1.805-.041,1.518-.492,3.036-.369.615.123.041.328.164.451a11.156,11.156,0,0,1-1.723-.041l.656.041a3.053,3.053,0,0,1-1.067.082,2.313,2.313,0,0,0,.287.041Zm5.948,19.4c-3.323.123-4.225-2.338-4.307-4.431l-.041-1.395,2.256-.082.041,1.395c.041.738.205,2.256,1.969,2.215a1.969,1.969,0,0,0,1.805-2.215,2.835,2.835,0,0,0-2.01-2.5c-2.708-1.108-4.143-1.723-4.267-4.554-.082-2.708,1.149-4.39,3.979-4.513,3.364-.123,4.267,2.3,4.349,4.431V153l-2.3.082v-.533c-.041-.656-.246-2.3-1.969-2.215-1.969.082-1.805,1.805-1.805,2.3.041.738.451,1.559,2.174,2.133,2.01.7,4.02,1.6,4.1,4.759C452.948,162.189,451.635,163.994,448.846,164.117Zm7.918-19.938h0Z" transform="translate(-398.933 -143.236)" fill="#fff"/>
      <path id="Path_285" data-name="Path 285" d="M532.233,143.482c0-.041-.082-.082,0-.082l-.533.041A1.851,1.851,0,0,1,532.233,143.482Z" transform="translate(-477.234 -143.236)" fill="#fff"/>
      <path id="Path_286" data-name="Path 286" d="M535.238,144.438c.123-.164-.328-.123-.738-.041.041.123.41.082.82.041Z" transform="translate(-478.885 -143.781)" fill="#fff"/>
      <path id="Path_287" data-name="Path 287" d="M537.069,144.448c.041-.082-.164,0-.369,0A1.115,1.115,0,0,0,537.069,144.448Z" transform="translate(-480.183 -143.832)" fill="#fff"/>
      <path id="Path_288" data-name="Path 288" d="M523.773,143.867c.205.041.123-.164.205-.123C524.224,143.579,522.747,143.99,523.773,143.867Z" transform="translate(-472.342 -143.415)" fill="#fff"/>
      <path id="Path_289" data-name="Path 289" d="M534.4,145.264h.369l-.164-.164Z" transform="translate(-478.826 -144.239)" fill="#fff"/>
      <path id="Path_290" data-name="Path 290" d="M527.5,145.441h.656c0-.041.082-.041.164-.041A3.376,3.376,0,0,0,527.5,145.441Z" transform="translate(-474.757 -144.415)" fill="#fff"/>
      <path id="Path_291" data-name="Path 291" d="M529.5,145.341a2.005,2.005,0,0,0,.533-.041A2.524,2.524,0,0,0,529.5,145.341Z" transform="translate(-475.936 -144.356)" fill="#fff"/>
      <path id="Path_292" data-name="Path 292" d="M508.974,146.082c-.082.041.123.082.369.041.164-.041.41-.082.328-.123Z" transform="translate(-463.82 -144.769)" fill="#fff"/>
      <path id="Path_293" data-name="Path 293" d="M540.3,202.241l.574.041-.369-.082Z" transform="translate(-482.306 -177.914)" fill="#fff"/>
      <path id="Path_294" data-name="Path 294" d="M542.8,201.6l.123.205.328-.205A.843.843,0,0,1,542.8,201.6Z" transform="translate(-483.78 -177.56)" fill="#fff"/>
    </g>
  </g>
</svg>
