<svg id="Trebuchet_Logo_Home" xmlns="http://www.w3.org/2000/svg" width="37.448" height="50.921" viewBox="0 0 37.448 50.921">
  <path id="Path_154" data-name="Path 154" d="M1038.017,638.687a.347.347,0,0,0-.136.473,7.035,7.035,0,0,1,.886,4.773.348.348,0,1,0,.686.115,7.722,7.722,0,0,0-.963-5.224A.348.348,0,0,0,1038.017,638.687Z" transform="translate(-1010.077 -621.561)" fill="#fff"/>
  <path id="Path_155" data-name="Path 155" d="M1115.27,589.812a.348.348,0,0,0-.127.475,9.113,9.113,0,0,1,1.318,4.949c-.009.132-.017.263-.025.391a9.863,9.863,0,0,1-.386,2.608.348.348,0,0,0,.661.219,10.552,10.552,0,0,0,.419-2.785c.008-.128.015-.257.024-.388a9.819,9.819,0,0,0-1.41-5.342A.347.347,0,0,0,1115.27,589.812Z" transform="translate(-1085.269 -573.99)" fill="#fff"/>
  <path id="Path_156" data-name="Path 156" d="M18.724,0C8.383,0,0,9.581,0,21.4S8.383,42.8,18.724,42.8s18.724-9.581,18.724-21.4S29.065,0,18.724,0ZM3.046,31.625H13.667v1.812H4.056q-.132-.212-.26-.427Q3.4,32.335,3.046,31.625Zm25.568,5V38.71a17.654,17.654,0,0,1-1.8,1.191V36.624Zm-22.73-.7a20.3,20.3,0,0,1-1.374-1.8h24.1v1.8Zm5.3.7v3.582a17.4,17.4,0,0,1-1.754-1.068V36.624Zm.7,0h1.8v4.654a16.442,16.442,0,0,1-1.8-.723Zm2.491,0h1.8V41.9a15.8,15.8,0,0,1-1.8-.4Zm2.491,0h1.8V42.1a15.967,15.967,0,0,1-1.8-.109Zm2.491,0H21.2V41.91a15.854,15.854,0,0,1-1.848.18Zm2.544,0h1.742v4.7a15.877,15.877,0,0,1-1.742.459Zm2.376-3.188L23.731,30.7l4.086,2.735Zm-.709,0H21.891V29.469l1.025.686Zm-1.82-4.907h0l-.025-.015-.01-.005-.017-.008-.011,0-.019-.007-.009,0-.028-.007-.01,0-.022,0h-.01l-.031,0H21.5l-.022,0-.009,0-.028.007-.011,0-.018.006L21.4,28.5l-.017.008-.01.005-.024.014,0,0h0l-1.064.7L21.536,23.1l1.192,6.088Zm-.543.934v3.973h-1.77l.662-3.242Zm-2.48,3.973H15.176l4.091-2.7ZM6.51,36.624H8.731v2.007l-.051-.039A18.816,18.816,0,0,1,6.51,36.624Zm17.818,4.458V36.624h1.8v3.658q-.206.107-.414.207Q25.027,40.819,24.328,41.082Zm4.981-2.925V36.624h1.628A18.988,18.988,0,0,1,29.31,38.157Zm4.342-5.148a20.546,20.546,0,0,1-2.087,2.92H29.31V33.784s0,0,0,0,0-.019,0-.028v0c0-.01,0-.02,0-.03l0-.012,0-.018,0-.014-.006-.016-.005-.013-.009-.019,0-.009-.016-.026-.006-.008-.013-.017-.007-.008-.014-.016-.007-.007-.016-.015-.008-.006-.02-.015-.006,0h0l-5.612-3.757-1.535-7.845,5.9,3.152-1.158,3.472a.348.348,0,0,0-.018.11,1.593,1.593,0,1,0,3.186,0,.348.348,0,0,0-.018-.11l-1.231-3.692a.347.347,0,0,0-.18-.258L10.816,15.122l-.007,0-.02-.009-.013-.005L10.76,15.1l-.015,0-.015,0-.017,0-.014,0-.017,0H10.62l-.012,0-.02,0-.012,0-.019,0-.012,0-.018.006-.013.005-.007,0-5.972,2.76A1.754,1.754,0,0,0,4.706,21.3a1.773,1.773,0,0,0,.275.022,1.754,1.754,0,0,0,1.475-.813l4.27-4.648,10.439,5.58-1.7,8.331-5.1,3.367V31.277a.348.348,0,0,0-.348-.348H2.716q-.321-.709-.593-1.442a23.616,23.616,0,0,1,0-16.176A21.822,21.822,0,0,1,3.8,9.788,20.509,20.509,0,0,1,6.007,6.725,18.968,18.968,0,0,1,8.68,4.205a17.436,17.436,0,0,1,3.058-1.9,15.939,15.939,0,0,1,13.971,0,17.435,17.435,0,0,1,3.058,1.9,18.968,18.968,0,0,1,2.673,2.52,20.508,20.508,0,0,1,2.211,3.063,21.823,21.823,0,0,1,1.673,3.522,23.616,23.616,0,0,1,0,16.176A21.823,21.823,0,0,1,33.651,33.009Zm-5.33-7.018.9,2.687a.9.9,0,0,1-1.792,0ZM9.22,16.474l-3.3,3.591a.349.349,0,0,0-.041.055,1.057,1.057,0,1,1-1.15-1.578.347.347,0,0,0,.065-.023Z" fill="#fff"/>
  <path id="Path_157" data-name="Path 157" d="M112.579,1781.707h.761v2.465h.847v-2.465h.78v-.761h-2.388Z" transform="translate(-109.567 -1733.308)" fill="#fff"/>
  <path id="Path_158" data-name="Path 158" d="M249.109,1781.981a.977.977,0,0,0-1.074-1.035h-1.18v3.226h.847v-1.036h.207l.443,1.036h.977l-.607-1.3A1.493,1.493,0,0,0,249.109,1781.981Zm-.973.414H247.7v-.688h.3c.173,0,.245.135.245.289A.745.745,0,0,1,248.137,1782.395Z" transform="translate(-240.253 -1733.308)" fill="#fff"/>
  <path id="Path_159" data-name="Path 159" d="M383.963,1782.9h1.05v-.746h-1.05v-.443h1.228v-.761h-2.075v3.226H385.2v-.761h-1.237Z" transform="translate(-372.868 -1733.308)" fill="#fff"/>
  <path id="Path_160" data-name="Path 160" d="M512.128,1782.409a1.051,1.051,0,0,0,.231-.655c0-.578-.4-.809-.973-.809h-1.194v3.226h1.083c.636,0,1.228-.284,1.228-1.059A.8.8,0,0,0,512.128,1782.409Zm-1.088-.7h.274a.192.192,0,0,1,.2.207.6.6,0,0,1-.087.274h-.385Zm.274,1.7h-.274v-.521h.332a.232.232,0,0,1,.265.241C511.637,1783.32,511.536,1783.411,511.315,1783.411Z" transform="translate(-496.546 -1733.308)" fill="#fff"/>
  <path id="Path_161" data-name="Path 161" d="M644.123,1782.987c0,.328-.183.477-.39.477s-.395-.149-.395-.477v-2.041h-.848v2.065a1.24,1.24,0,0,0,2.48,0v-2.065h-.847Z" transform="translate(-625.305 -1733.308)" fill="#fff"/>
  <path id="Path_162" data-name="Path 162" d="M783.8,1781.711c-.342,0-.587-.212-.587-.935,0-.63.246-.875.592-.875.043,0,.159,0,.212,0l-.01.631h.732l.043-1.276a3.6,3.6,0,0,0-.872-.115,1.462,1.462,0,0,0-1.565,1.632c0,.983.371,1.7,1.4,1.7a3.043,3.043,0,0,0,1.122-.236l-.173-.751A2.271,2.271,0,0,1,783.8,1781.711Z" transform="translate(-761.423 -1731.555)" fill="#fff"/>
  <path id="Path_163" data-name="Path 163" d="M926.064,1782.15h-1.03v-1.2h-.848v3.226h.848v-1.262h1.03v1.262h.847v-3.226h-.847Z" transform="translate(-899.466 -1733.308)" fill="#fff"/>
  <path id="Path_164" data-name="Path 164" d="M1080.552,1782.9h1.05v-.746h-1.05v-.443h1.228v-.761H1079.7v3.226h2.085v-.761h-1.237Z" transform="translate(-1050.824 -1733.308)" fill="#fff"/>
  <path id="Path_165" data-name="Path 165" d="M1198.143,1781.707h.761v2.465h.847v-2.465h.78v-.761h-2.388Z" transform="translate(-1166.094 -1733.308)" fill="#fff"/>
</svg>
