<svg xmlns="http://www.w3.org/2000/svg" width="102.087" height="120.304" viewBox="0 0 102.087 120.304">
  <g id="Logo_Manavoid_Me" transform="translate(-91.03 -182)">
    <path id="Path_297" data-name="Path 297" d="M187.375,182a3.263,3.263,0,0,0-.034.4V203.25H182.58V189.268h-.067q-.909,6.991-1.851,13.981H177.28c-.656-4.576-1.3-9.119-1.952-13.678h-.067V203.25H170.5V182h7.049c.471,3.247.925,6.478,1.4,9.725.37-2.389.656-4.778.976-7.167.1-.858.236-1.7.353-2.557Z" transform="translate(-66.099 0)" fill="#fff"/>
    <path id="Path_298" data-name="Path 298" d="M439.281,182v21.25c-.118,0-.2.017-.3.017h-4.206a.324.324,0,0,1-.37-.269c-.875-3.012-1.767-6.023-2.641-9.035a.348.348,0,0,0-.1-.168v9.455H427.1V182.337a2.062,2.062,0,0,1,.034-.32h4.526c1.009,3.129,2,6.259,3.012,9.388a.461.461,0,0,0,.067-.236v-8.917c0-.084-.017-.151-.017-.236C436.219,182,437.75,182,439.281,182Z" transform="translate(-279.527 0)" fill="#fff"/>
    <path id="Path_299" data-name="Path 299" d="M318.65,182c.118.875.236,1.75.37,2.608.454,3.045.892,6.091,1.346,9.153.454,3.113.925,6.208,1.38,9.321a.634.634,0,0,0,.017.168h-5.552c-.1-1.245-.2-2.507-.3-3.769h-1.952c-.1,1.245-.219,2.507-.32,3.769H308c.1-.774.2-1.531.3-2.305l1.211-9.237c.421-3.2.824-6.393,1.245-9.573,0-.05.034-.1.034-.135Zm-3.718,4.963c-.421,2.894-.808,5.788-1.043,8.7h1.868C315.47,192.751,315.2,189.857,314.932,186.963Z" transform="translate(-180.466 0)" fill="#fff"/>
    <path id="Path_300" data-name="Path 300" d="M550.646,182c0,1.3-.017,2.608,0,3.9.017,5.653.017,11.306.034,16.976v.37H545.11c.084-1.245.168-2.49.253-3.786h-.387c-.437,0-.858.017-1.3,0-.219,0-.3.05-.353.269-.235,1.077-.488,2.154-.74,3.23-.017.1-.05.185-.067.3H536.9c.252-.925.5-1.834.757-2.759q2.5-9.085,5.014-18.187l.1-.3C545.4,182,548.021,182,550.646,182Zm-4.459,4.963c-.017,0-.05-.017-.067-.017q-1.135,4.341-2.3,8.732h1.918C545.9,192.751,546.053,189.857,546.187,186.963Z" transform="translate(-370.854 0)" fill="#fff"/>
    <path id="Path_301" data-name="Path 301" d="M635.668,534.631c-1.279.572-2.558,1.194-3.853,1.716a40.541,40.541,0,0,1-8.53,2.322c-.051,0-.1.017-.168.017,0-.1-.017-.185-.017-.269v-8.026a.28.28,0,0,1,.2-.32A33.432,33.432,0,0,0,631.193,526a71.371,71.371,0,0,1,4.476,8.463Z" transform="translate(-442.551 -286.123)" fill="#fff"/>
    <path id="Path_302" data-name="Path 302" d="M170.5,314h75.324v75.324H170.5Zm2.507,2.49v70.344h70.344V316.49Z" transform="translate(-66.099 -109.792)" fill="#fff"/>
    <path id="Path_303" data-name="Path 303" d="M537.5,789.5V768.317a1.034,1.034,0,0,1,.219-.017c2.3,0,4.627,0,6.932.034a12.26,12.26,0,0,1,3.314.4A3.772,3.772,0,0,1,550.926,772a21.406,21.406,0,0,1,.151,2.54q.026,5.073-.017,10.129a15.064,15.064,0,0,1-.168,1.935,2.908,2.908,0,0,1-1.9,2.44,7.3,7.3,0,0,1-2.675.471c-2.894.017-5.771.017-8.665.017A.337.337,0,0,0,537.5,789.5Zm5.889-17.649V785.9c.252-.017.488-.034.723-.067.673-.118.908-.32.993-.993a13.317,13.317,0,0,0,.118-1.632c.017-3.012.017-6.023,0-9.052,0-.437-.034-.875-.067-1.312a.817.817,0,0,0-.589-.791C544.179,771.951,543.792,771.917,543.389,771.85Z" transform="translate(-371.353 -487.657)" fill="#fff"/>
    <path id="Path_304" data-name="Path 304" d="M322.866,776.23c-.051,1.884-.067,3.819-.151,5.737a4.972,4.972,0,0,1-2.927,4.509,7.178,7.178,0,0,1-2.356.69,9.6,9.6,0,0,1-4.627-.454,5.012,5.012,0,0,1-3.365-3.836,13.178,13.178,0,0,1-.2-2.574c-.017-2.742-.017-5.5,0-8.244a13.178,13.178,0,0,1,.2-2.574,4.842,4.842,0,0,1,3.028-3.7,8.86,8.86,0,0,1,7.167.051,4.909,4.909,0,0,1,3.079,4.61C322.8,772.377,322.815,774.278,322.866,776.23Zm-7.773.151c0,1.632-.017,3.247,0,4.879a15.869,15.869,0,0,0,.118,1.784.682.682,0,0,0,.757.656.709.709,0,0,0,.824-.623,9.578,9.578,0,0,0,.118-1.4q.025-5.451.017-10.9a11.8,11.8,0,0,0-.084-1.346c-.067-.5-.32-.724-.757-.724a.772.772,0,0,0-.875.69,10.726,10.726,0,0,0-.118,1.464C315.076,772.7,315.093,774.531,315.093,776.381Z" transform="translate(-181.484 -484.954)" fill="#fff"/>
    <path id="Path_305" data-name="Path 305" d="M169.5,789.45c.05-7.1.1-14.15.151-21.233h6.242q-.454,7.268-.909,14.52c.135-.522.252-1.043.387-1.565q1.666-6.36,3.314-12.72c.034-.151.067-.252.269-.252h5.821c.05,0,.1.017.168.017-.219.74-.454,1.464-.673,2.2q-2.877,9.312-5.737,18.625c-.1.32-.236.4-.572.4-2.709-.017-5.4,0-8.109,0Z" transform="translate(-65.268 -487.574)" fill="#fff"/>
    <path id="Path_306" data-name="Path 306" d="M451.638,789.433H445.8V768.2h5.838Z" transform="translate(-295.081 -487.574)" fill="#fff"/>
    <path id="Path_307" data-name="Path 307" d="M95.483,487.252c-.336-.589-.707-1.178-1.043-1.783-.993-1.834-1.985-3.668-2.961-5.5a10.516,10.516,0,0,1-.4-1.009c-.1-.235-.034-.37.2-.471a43.776,43.776,0,0,1,6.545-2.591,38.654,38.654,0,0,1,5.485-1.262c.084-.017.151-.017.269-.034v8.227a.387.387,0,0,1-.3.421A33.532,33.532,0,0,0,95.887,487l-.353.253Z" transform="translate(0 -243.371)" fill="#fff"/>
    <path id="Path_308" data-name="Path 308" d="M623.1,352.028V345.5c.353.118.673.219.993.336.37.151.74.32,1.094.488.151.067.2.168.135.353a45.593,45.593,0,0,1-2.153,5.232C623.184,351.944,623.167,351.961,623.1,352.028Z" transform="translate(-442.551 -135.992)" fill="#fff"/>
    <path id="Path_309" data-name="Path 309" d="M154.583,691.9v6.528c-.723-.3-1.43-.589-2.1-.892a.334.334,0,0,1-.118-.3,40.574,40.574,0,0,1,2.187-5.317C154.532,691.917,154.549,691.917,154.583,691.9Z" transform="translate(-51.007 -424.111)" fill="#fff"/>
    <g id="Group_176" data-name="Group 176" transform="translate(106.42 212.215)">
      <path id="Path_310" data-name="Path 310" d="M239.849,424.781c-.168-.067-.252-.1-.353-.134a6.828,6.828,0,0,1-3.9-5.552c-.488-3.651,1.952-6.141,4.963-6.965.909-.252,1.868-.387,2.776-.606a11.436,11.436,0,0,0,3.836-1.716,3.965,3.965,0,0,0,1.6-2.322,6.493,6.493,0,0,0-.555-4.29c.1.454.185.824.252,1.211a7.256,7.256,0,0,1-.151,3.55,1.575,1.575,0,0,1-.37.622,4.77,4.77,0,0,1-2.44,1.43,4.324,4.324,0,0,1-4.8-2.608,16.423,16.423,0,0,1-.606-2.019,4.707,4.707,0,0,0-.925-1.884,1.846,1.846,0,0,0-1.868-.673.944.944,0,0,0-.908.942,5.879,5.879,0,0,0,.084,1.632c.219.976.521,1.935.808,2.911a.983.983,0,0,1,.051.4c-.185-.151-.37-.286-.555-.437a11.971,11.971,0,0,1-2.355-2.524,6.133,6.133,0,0,1-.656-5.72,4.432,4.432,0,0,1,2.355-2.423,2.946,2.946,0,0,1,1.9-.118,3.91,3.91,0,0,1,3.1,2.608,2.909,2.909,0,0,0,4.139,1.4,1.383,1.383,0,0,0,.606-1.144,5.117,5.117,0,0,0-.387-2.238,13.2,13.2,0,0,0-1.75-3.112,11.206,11.206,0,0,1-1.329-2.406,6.747,6.747,0,0,1,.017-4.492c.2-.639.454-1.245.606-1.9a7.011,7.011,0,0,0-.2-3.23c-.4-1.565-.875-3.113-1.279-4.66a5.791,5.791,0,0,1,1.245-5.518,2.2,2.2,0,0,1,.538-.5,2.655,2.655,0,0,0,1.127-1.716c.2-.74.353-1.5.606-2.238a11.7,11.7,0,0,1,3.55-5.4,8.627,8.627,0,0,1,.993-.69,4.042,4.042,0,0,1,3.584-.421c1.363.471,2.709.976,4.038,1.5a6.681,6.681,0,0,0,2.86.5c.555-.034,1.11.017,1.666-.017a7.445,7.445,0,0,0,2.238-.656c.942-.37,1.9-.723,2.843-1.11a5.01,5.01,0,0,1,5.821,1.279,12.555,12.555,0,0,1,3.213,5.418c.185.589.3,1.195.471,1.783a3.176,3.176,0,0,0,1.144,1.75,5.427,5.427,0,0,1,1.985,4.105,9.028,9.028,0,0,1-.5,2.995c-.387,1.464-.824,2.927-1.161,4.391a5.848,5.848,0,0,0,.286,3.55,8.548,8.548,0,0,1,.656,2.675,7.021,7.021,0,0,1-1.346,4.492,19.492,19.492,0,0,0-1.851,3.062,6.526,6.526,0,0,0-.623,2.3c0,.2,0,.387.017.589a1.361,1.361,0,0,0,1.009,1.245,3.435,3.435,0,0,0,2.137,0,2.5,2.5,0,0,0,1.632-1.649,4.128,4.128,0,0,1,4.509-2.574,2.622,2.622,0,0,1,.69.252,4.907,4.907,0,0,1,2.524,5.081,6.382,6.382,0,0,1-1.8,3.92c-.606.589-1.228,1.178-1.834,1.767a.888.888,0,0,1-.353.2c.084-.252.151-.5.235-.757a14.287,14.287,0,0,0,.808-3.449c0-.1.017-.2.017-.286,0-1.245-.723-1.6-1.9-1.312a1.891,1.891,0,0,0-1.111.858,4.793,4.793,0,0,0-.791,1.884,7.608,7.608,0,0,1-.925,2.524,4.332,4.332,0,0,1-5.821,1.3,3.274,3.274,0,0,1-1.666-2.692,10.63,10.63,0,0,1,.286-3.18,1.893,1.893,0,0,0,.051-.3A6.961,6.961,0,0,0,272,405.5a4.343,4.343,0,0,0,1.531,4.156,9.219,9.219,0,0,0,1.649,1.009,14.393,14.393,0,0,0,4.324,1.279,7.4,7.4,0,0,1,2.995,1.144,5.885,5.885,0,0,1,2.826,5.855,6.744,6.744,0,0,1-3.937,5.72l-.252.1h-.051c.236-.522.471-1.026.69-1.548a8.09,8.09,0,0,0,.639-2.675,3.128,3.128,0,0,0-2.574-3.483,9.667,9.667,0,0,0-2.507-.219,48.11,48.11,0,0,1-6.225-.185,12.879,12.879,0,0,1-2.978-.639,4.788,4.788,0,0,1-3.062-2.961c-.421-1.144-.74-2.305-1.127-3.466a15.794,15.794,0,0,0-.572-1.481,2.707,2.707,0,0,0-2.389-1.6,5.99,5.99,0,0,0-1.228.017,2.5,2.5,0,0,0-2.2,1.5c-.337.74-.572,1.531-.841,2.305-.286.841-.522,1.7-.824,2.54a5.027,5.027,0,0,1-3.651,3.3,20.763,20.763,0,0,1-5.384.639c-1.3.034-2.591-.017-3.87.017a9.061,9.061,0,0,0-2.12.286,3.062,3.062,0,0,0-2.389,3.449,9.75,9.75,0,0,0,1.009,3.5A7.174,7.174,0,0,1,239.849,424.781Zm17.262-33.346c-3.18-1.5-6.326-2.995-9.506-4.509a14.125,14.125,0,0,0,1.514,4.105A6.646,6.646,0,0,0,250.768,393a3.846,3.846,0,0,0,3.348.858A5.043,5.043,0,0,0,257.111,391.434Zm6.713,0a5.716,5.716,0,0,0,1.868,1.935,3.428,3.428,0,0,0,3.146.353,4.929,4.929,0,0,0,2.019-1.38,10.355,10.355,0,0,0,2.1-3.987c.151-.454.252-.925.387-1.447C270.134,388.44,267,389.92,263.824,391.434Zm-9.725-10.8c0,.017-.017.05-.017.067a5.527,5.527,0,0,1,2.473,1.9,12.919,12.919,0,0,1,2.069,4.172c.118.353.2.707.32,1.094.017-.067.034-.1.017-.118-.034-.236-.067-.471-.1-.69a11.193,11.193,0,0,0-1.3-3.87,5.069,5.069,0,0,0-2.759-2.423C254.588,380.7,254.335,380.683,254.1,380.633Zm7.924,7.184c.034-.084.051-.185.084-.269a14.919,14.919,0,0,1,1.7-4.072,6.233,6.233,0,0,1,3.045-2.759v-.051h-.118a4.168,4.168,0,0,0-2.793,1.733A10.2,10.2,0,0,0,262.024,387.817Zm1.413-23.268c-1.06,1.767-1.75,6.814-1.11,8.143A26.878,26.878,0,0,1,263.437,364.549Zm-4.8,8.076a13.809,13.809,0,0,0-1.06-7.891A28.505,28.505,0,0,1,258.642,372.624Zm14.015,7.672a2.2,2.2,0,0,0,.168.252c.5.757,1.009,1.514,1.514,2.255a1.109,1.109,0,0,1,.185.908c-.084.421-.168.841-.269,1.262-.084.32-.168.639-.269.976a4.466,4.466,0,0,0,.791-2.019,2.589,2.589,0,0,0-.084-1.144A5.971,5.971,0,0,0,272.657,380.3Zm-25.725,5.619c-.017-.067-.034-.135-.05-.185-.151-.639-.32-1.3-.454-1.935a1.246,1.246,0,0,1,.2-1.026c.522-.74,1.01-1.5,1.514-2.238a1.071,1.071,0,0,0,.135-.236,6.85,6.85,0,0,0-2,2.339,2.069,2.069,0,0,0-.168.707A4.588,4.588,0,0,0,246.932,385.916ZM269.78,377.2a13.077,13.077,0,0,0,5.973-4.93A24.386,24.386,0,0,1,269.78,377.2Zm-18.726-.067a23.7,23.7,0,0,1-5.872-4.879A13.077,13.077,0,0,0,251.055,377.133Zm4.862,21.637a6.069,6.069,0,0,1,.606-2.44,4.5,4.5,0,0,1,1.783-1.9C256.523,394.85,255.614,396.6,255.917,398.77Zm3.718-11.037a4.131,4.131,0,0,1-1.8,3.617,1.618,1.618,0,0,0,1.5-.875A4.147,4.147,0,0,0,259.635,387.733Zm5.367,11c.353-1.884-.5-3.886-2.322-4.29A5,5,0,0,1,265,398.736ZM261.3,387.7a4.737,4.737,0,0,0,.05,2.12,1.965,1.965,0,0,0,.942,1.329,5.967,5.967,0,0,0,.774.253c.017-.034.017-.067.034-.084A4.02,4.02,0,0,1,261.3,387.7Z" transform="translate(-224.791 -361.585)" fill="#fff"/>
      <path id="Path_311" data-name="Path 311" d="M182.5,468.33A52.658,52.658,0,0,1,192.107,462a32.081,32.081,0,0,1,6.175-2.187.542.542,0,0,0,.135-.017c.471,2.238,1.4,4.341,1.666,6.612a4.284,4.284,0,0,1-.236,1.783,18.553,18.553,0,0,0-.723,2.507,7.741,7.741,0,0,0,1.279,5.922,31.893,31.893,0,0,1,1.716,2.793,7.977,7.977,0,0,1,.69,2.053.883.883,0,0,1-.74,1.195,1.954,1.954,0,0,1-2.406-1.228,4.806,4.806,0,0,0-4.442-3.113c-.236.017-.471,0-.707,0a2.114,2.114,0,0,0-1.245.3c-.286-.454-.572-.925-.875-1.38a20.113,20.113,0,0,0-6.377-6.225c-.656-.4-2.827-2.372-3.516-2.692Z" transform="translate(-182.5 -443.276)" fill="#fff"/>
      <path id="Path_312" data-name="Path 312" d="M505.92,468.33A52.661,52.661,0,0,0,496.313,462a32.08,32.08,0,0,0-6.175-2.187A.542.542,0,0,1,490,459.8c-.471,2.238-1.4,4.341-1.666,6.612a4.285,4.285,0,0,0,.235,1.783,18.542,18.542,0,0,1,.724,2.507,7.741,7.741,0,0,1-1.279,5.922,31.909,31.909,0,0,0-1.716,2.793,7.98,7.98,0,0,0-.69,2.053.883.883,0,0,0,.74,1.195,1.954,1.954,0,0,0,2.406-1.228,4.806,4.806,0,0,1,4.442-3.113c.236.017.471,0,.707,0a2.114,2.114,0,0,1,1.245.3c.286-.454.572-.925.875-1.38a20.113,20.113,0,0,1,6.377-6.225c.639-.4,2.827-2.372,3.516-2.692Z" transform="translate(-434.583 -443.276)" fill="#fff"/>
    </g>
    <path id="Path_313" data-name="Path 313" d="M515.5,354.745a46.663,46.663,0,0,0,7.066-9.607A35.857,35.857,0,0,0,526.621,334c.084.017.151.017.219.034.808.219,1.632.438,2.44.639a.285.285,0,0,1,.252.32q0,6.965-.017,13.914a.726.726,0,0,1-.135.4,43.3,43.3,0,0,1-7.419,7.571.4.4,0,0,1-.337.05A30.763,30.763,0,0,0,515.5,354.745Z" transform="translate(-353.054 -126.427)" fill="#fff"/>
    <path id="Path_314" data-name="Path 314" d="M190.2,336.377c.236-.908.471-1.783.707-2.658.034-.151.1-.219.286-.219,2.911,0,5.838.017,8.749.017h5.165a.738.738,0,0,1,.454.151,43.4,43.4,0,0,1,6.225,5.821.546.546,0,0,1,.067.118,12.651,12.651,0,0,0-3.5,5.6A40.668,40.668,0,0,0,190.2,336.377Z" transform="translate(-82.485 -126.011)" fill="#fff"/>
    <path id="Path_315" data-name="Path 315" d="M192.674,632.974c-.925-.252-1.834-.488-2.759-.74-.067-.017-.118-.135-.151-.2a.563.563,0,0,1,0-.168V618.118a.847.847,0,0,1,.135-.454,42.78,42.78,0,0,1,6.36-6.7.168.168,0,0,0,.084-.067c.118.488.236.959.336,1.43a5.241,5.241,0,0,0,1.481,2.423c.606.639,1.245,1.245,1.884,1.868A40.389,40.389,0,0,0,192.674,632.974Z" transform="translate(-82.115 -356.739)" fill="#fff"/>
    <path id="Path_316" data-name="Path 316" d="M335.812,692.062H328.14a.491.491,0,0,1-.034-.151,45.746,45.746,0,0,1,.236-7.437c.017-.2.118-.219.286-.252,1.026-.185,2.053-.336,3.045-.589a4.773,4.773,0,0,0,2.372-1.447,1.334,1.334,0,0,1,.32-.286A49.662,49.662,0,0,0,335.812,692.062Z" transform="translate(-197.14 -415.794)" fill="#fff"/>
    <path id="Path_317" data-name="Path 317" d="M549.121,565.837a5.172,5.172,0,0,0-2.221-4.475c.37-.589.74-1.161,1.11-1.733a.443.443,0,0,1,.252-.118,46.711,46.711,0,0,0,7.285-1.211h.084v7.672A44.37,44.37,0,0,1,549.121,565.837Z" transform="translate(-379.171 -312.989)" fill="#fff"/>
    <path id="Path_318" data-name="Path 318" d="M461.3,696c.353.017.639.05.925.05l4.963.051a8.188,8.188,0,0,1,2.2.3,2.463,2.463,0,0,1,1.783,2.995,10.27,10.27,0,0,1-1.11,3.113,1.835,1.835,0,0,0-.151,1.262,1.262,1.262,0,0,1-1.077-.269,44.2,44.2,0,0,1-7.352-7.268A1.928,1.928,0,0,1,461.3,696Z" transform="translate(-307.973 -427.521)" fill="#fff"/>
    <path id="Path_319" data-name="Path 319" d="M523.3,714.187a7.829,7.829,0,0,0,3.971-5.687,34.141,34.141,0,0,0,8.648,2.776c-.017.084-.017.168-.034.253-.219.807-.421,1.6-.639,2.406-.051.168-.1.252-.3.252H523.468C523.435,714.2,523.4,714.187,523.3,714.187Z" transform="translate(-359.542 -437.918)" fill="#fff"/>
    <path id="Path_320" data-name="Path 320" d="M422.555,333.6v4.778h-.1a5.715,5.715,0,0,0-4.61-.151c-.656.2-1.312.454-1.935.69-.336-1.767-.673-3.516-1.01-5.3C417.424,333.6,419.964,333.6,422.555,333.6Z" transform="translate(-269.38 -126.094)" fill="#fff"/>
    <path id="Path_321" data-name="Path 321" d="M190,471.664a40.894,40.894,0,0,1,6.881.185A39.8,39.8,0,0,0,190,476.375Z" transform="translate(-82.319 -240.873)" fill="#fff"/>
    <path id="Path_322" data-name="Path 322" d="M256.716,616.774a12.088,12.088,0,0,1-.639-2.726c-.051-.622.3-.824.875-.572a1.8,1.8,0,0,1,.841.925c.37.707.353.707-.151,1.3C257.355,616.034,257.052,616.387,256.716,616.774Z" transform="translate(-137.274 -358.794)" fill="#fff"/>
  </g>
</svg>
