<svg id="Group_96" data-name="Group 96" xmlns="http://www.w3.org/2000/svg" width="108.804" height="100.129" viewBox="0 0 108.804 100.129">
  <path id="Path_143" data-name="Path 143" d="M144.839,78.7a43.187,43.187,0,0,0-14.526-17h0a43.246,43.246,0,0,0-43.169-3.37v.026h0l1.71,3.6a39.23,39.23,0,0,1,39.187,3.063,38.727,38.727,0,0,1,10.85,11.258v-.026a36.732,36.732,0,0,1,2.323,4.187,39.248,39.248,0,0,1-18.483,52.36c-.613.281-1.2.562-1.813.817a14.405,14.405,0,0,1-7.3-1.072,36.016,36.016,0,0,0-5.029-71.072l-.255,3.242h0v.026h0a32.488,32.488,0,0,1,15.956,5.616,32.817,32.817,0,0,1,11.233,13.3h0a32.733,32.733,0,0,1-26.091,46.258,23.813,23.813,0,0,1-2.681-2.655h0a29.923,29.923,0,0,0,15.981-54.581l-1.43,2.093h0v.026A27.228,27.228,0,0,1,131.9,89.061h0a29.11,29.11,0,0,1,.817,3.268,27.4,27.4,0,0,1-21.9,31.937,29.425,29.425,0,0,1-6,.46C92.888,107.136,80.634,54.138,80.634,54.138h-9.19L41.6,141.37h9.42l9.344-29.741H72.745a35.984,35.984,0,0,0,30.277,21.6c.511.051,1.047.077,1.557.077a22.5,22.5,0,0,0,4.927,3.115A39.257,39.257,0,0,1,70.4,114.258l-3.6,1.71A43.243,43.243,0,1,0,144.839,78.7ZM78.9,102.362c-.026-.179-.051-.332-.077-.511,0-.077-.026-.153-.026-.2-.026-.179-.051-.383-.077-.562l-.077-.689c-.026-.153-.026-.306-.051-.434a6.727,6.727,0,0,1-.051-.715c0-.1-.026-.23-.026-.332-.026-.281-.026-.536-.026-.817V96.8a26.968,26.968,0,0,1,3.089-12.024l6.331,20.193H79.485C79.255,104.072,79.051,103.23,78.9,102.362Zm10.926,9.293s2.757,5.872,6.05,11.233a27.513,27.513,0,0,1-5.54-2.936,27.2,27.2,0,0,1-7.863-8.271h7.352Zm-27.495-6.74,3.523-10.773h0l9.5-29.077L80.481,81.4a29.8,29.8,0,0,0-4.6,16.747V98.3a2.775,2.775,0,0,0,.026.46,1.047,1.047,0,0,0,.026.281c0,.128.026.23.026.357s.026.281.026.408a.707.707,0,0,0,.026.23l.153,1.379h0a27.317,27.317,0,0,0,.689,3.5h-2.91a32.354,32.354,0,0,1-.791-5.233c-.026-.357-.051-.74-.051-1.1v-.1c0-.357-.026-.74-.026-1.123v-.1c0-.383,0-.791.026-1.174v-.026l.077-1.225h0v-.026l-3.268-.255a.958.958,0,0,1-.026.281c-.026.23-.026.434-.051.664,0,.179-.026.332-.026.511v.332c0,.357-.026.74-.026,1.1v.026h0a36.036,36.036,0,0,0,.791,7.454H62.329Zm14.015,6.74h3.191a30.025,30.025,0,0,0,9.369,10.39,29.224,29.224,0,0,0,9.216,4.238h0a41.566,41.566,0,0,0,2.732,3.446,32.618,32.618,0,0,1-13.53-5.336A33.058,33.058,0,0,1,76.345,111.654Z" transform="translate(-40.528 -54.082)" fill="#fff"/>
  <path id="Path_144" data-name="Path 144" d="M40.8,418.2l-3.4,7.1h1.225l.97-2.144h3.7l1.021,2.144h1.327l-3.625-7.1Zm-.868,4.161,1.481-3.268,1.557,3.268Z" transform="translate(-37.4 -325.245)" fill="#fff"/>
  <path id="Path_145" data-name="Path 145" d="M84.1,425.272h1.174V422.08h4.187v-.842H85.274v-2.2H90.1V418.2h-6Z" transform="translate(-72.178 -325.245)" fill="#fff"/>
  <path id="Path_146" data-name="Path 146" d="M124.3,425.272h1.174V422.08h4.187v-.842h-4.187v-2.2h4.8V418.2H124.3Z" transform="translate(-102.115 -325.245)" fill="#fff"/>
  <path id="Path_147" data-name="Path 147" d="M170.076,418.7a3.964,3.964,0,0,0-1.327-.74,5.123,5.123,0,0,0-1.71-.255,5.072,5.072,0,0,0-1.685.255,4.6,4.6,0,0,0-1.353.74,3.879,3.879,0,0,0-.894,1.149,3.185,3.185,0,0,0-.306,1.506,3.7,3.7,0,0,0,.306,1.506,3.26,3.26,0,0,0,.868,1.149,3.848,3.848,0,0,0,1.353.74,5.591,5.591,0,0,0,3.421-.026,3.736,3.736,0,0,0,2.2-1.915,3.575,3.575,0,0,0,.306-1.481,3.7,3.7,0,0,0-.306-1.506A3.1,3.1,0,0,0,170.076,418.7Zm-.23,3.88a2.29,2.29,0,0,1-.638.893,2.621,2.621,0,0,1-.97.562,3.778,3.778,0,0,1-2.451,0,2.516,2.516,0,0,1-.945-.562,2.848,2.848,0,0,1-.638-.893,3.047,3.047,0,0,1-.23-1.2,2.959,2.959,0,0,1,.23-1.2,2.29,2.29,0,0,1,.638-.893,2.622,2.622,0,0,1,.97-.562,3.855,3.855,0,0,1,1.225-.2,4.383,4.383,0,0,1,1.2.179,2.671,2.671,0,0,1,1.583,1.455,3.046,3.046,0,0,1,.23,1.2A2.7,2.7,0,0,1,169.846,422.576Z" transform="translate(-130.787 -324.872)" fill="#fff"/>
  <path id="Path_148" data-name="Path 148" d="M217.706,422.006h0a5.155,5.155,0,0,0,.817-.255,2.283,2.283,0,0,0,.638-.408,1.765,1.765,0,0,0,.408-.562,1.512,1.512,0,0,0,.128-.689,2.041,2.041,0,0,0-.2-.842,1.588,1.588,0,0,0-.613-.689,4.428,4.428,0,0,0-.485-.255,3.618,3.618,0,0,0-.562-.128,4.955,4.955,0,0,0-.613-.051c-.2,0-.434-.026-.689-.026H212.6v7.1h1.174v-3.038h2.17a2.573,2.573,0,0,1,.638.077,2.167,2.167,0,0,1,.562.23,2.026,2.026,0,0,1,.434.357,1.448,1.448,0,0,1,.306.46l.842,1.915H220l-.868-1.94A2.16,2.16,0,0,0,217.706,422.006Zm-.332-.74a4.859,4.859,0,0,1-.945.077H213.8v-2.425h2.808a2.937,2.937,0,0,1,1.43.281.988.988,0,0,1,.46.894,1.418,1.418,0,0,1-.128.587,1.023,1.023,0,0,1-.357.383A2.084,2.084,0,0,1,217.374,421.266Z" transform="translate(-167.873 -325.17)" fill="#fff"/>
  <path id="Path_149" data-name="Path 149" d="M261.008,418.2H258.2v7.1h2.808c3.012,0,4.519-1.2,4.519-3.574S264.021,418.2,261.008,418.2Zm3.166,4.646a1.92,1.92,0,0,1-.536.868,2.576,2.576,0,0,1-1.021.536,5.825,5.825,0,0,1-1.608.179h-1.634v-5.412h1.634a5.706,5.706,0,0,1,1.608.179,2.575,2.575,0,0,1,1.021.536,1.84,1.84,0,0,1,.536.842,3.735,3.735,0,0,1,.153,1.123A3.912,3.912,0,0,1,264.174,422.846Z" transform="translate(-201.832 -325.245)" fill="#fff"/>
  <path id="Path_150" data-name="Path 150" d="M303.2,418.2l-3.4,7.1h1.225l.97-2.144h3.727l1.021,2.144h1.328l-3.625-7.1Zm-.842,4.161,1.481-3.268,1.557,3.268Z" transform="translate(-232.812 -325.245)" fill="#fff"/>
  <path id="Path_151" data-name="Path 151" d="M352.446,423.791l-4.621-5.591H346.6v7.071h1.123v-5.591l4.646,5.591h1.2V418.2h-1.123Z" transform="translate(-267.665 -325.245)" fill="#fff"/>
  <path id="Path_152" data-name="Path 152" d="M392.591,419.157a2.415,2.415,0,0,1,.919-.562,3.588,3.588,0,0,1,1.2-.179,3.5,3.5,0,0,1,.919.1,2.8,2.8,0,0,1,.74.281,1.778,1.778,0,0,1,.511.46,1.277,1.277,0,0,1,.23.613h1.2a2.348,2.348,0,0,0-.357-.945,2.4,2.4,0,0,0-.791-.715,3.837,3.837,0,0,0-1.1-.459,5.566,5.566,0,0,0-1.328-.153,5.124,5.124,0,0,0-1.71.255,3.616,3.616,0,0,0-1.3.74,3.325,3.325,0,0,0-1.123,2.655,4.2,4.2,0,0,0,.281,1.532,3.14,3.14,0,0,0,.817,1.149,4.035,4.035,0,0,0,1.3.74,5.124,5.124,0,0,0,1.71.255,6,6,0,0,0,1.379-.153,3.553,3.553,0,0,0,1.1-.46,3.025,3.025,0,0,0,.766-.74,2.224,2.224,0,0,0,.357-1h-1.2a1.373,1.373,0,0,1-.23.664,1.467,1.467,0,0,1-.485.485,2.809,2.809,0,0,1-.74.306,3.7,3.7,0,0,1-.945.1,4.384,4.384,0,0,1-1.2-.179,2.414,2.414,0,0,1-.919-.562A2.371,2.371,0,0,1,392,422.5a3.778,3.778,0,0,1,0-2.451A2.719,2.719,0,0,1,392.591,419.157Z" transform="translate(-300.432 -324.798)" fill="#fff"/>
  <path id="Path_153" data-name="Path 153" d="M438.874,424.429v-2.4h4.9v-.842h-4.9v-2.144h5.233V418.2H437.7v7.071h6.612v-.842Z" transform="translate(-335.508 -325.245)" fill="#fff"/>
</svg>
