<svg xmlns="http://www.w3.org/2000/svg" width="45.014" height="41.425" viewBox="0 0 45.014 41.425">
  <g id="Group_96" data-name="Group 96" transform="translate(0 0)">
    <path id="Path_143" data-name="Path 143" d="M84.311,64.265a17.867,17.867,0,0,0-6.01-7.034h0a17.891,17.891,0,0,0-17.86-1.394v.011h0l.708,1.489A16.23,16.23,0,0,1,77.362,58.6a16.022,16.022,0,0,1,4.489,4.658v-.011a15.191,15.191,0,0,1,.961,1.732,16.237,16.237,0,0,1-7.647,21.662c-.253.116-.5.232-.75.338a5.96,5.96,0,0,1-3.021-.444,14.9,14.9,0,0,0-2.081-29.4l-.106,1.341h0v.011h0a13.441,13.441,0,0,1,6.6,2.324,13.576,13.576,0,0,1,4.647,5.5h0A13.542,13.542,0,0,1,69.662,85.452a9.852,9.852,0,0,1-1.109-1.1h0a12.38,12.38,0,0,0,6.612-22.581l-.591.866h0v.011a11.264,11.264,0,0,1,4.383,5.9h0a12.047,12.047,0,0,1,.338,1.352,11.334,11.334,0,0,1-9.062,13.213,12.175,12.175,0,0,1-2.482.19c-4.932-7.277-10-29.2-10-29.2h-3.8L41.6,90.194h3.9l3.866-12.3h5.122a14.887,14.887,0,0,0,12.526,8.935c.211.021.433.032.644.032a9.307,9.307,0,0,0,2.038,1.289,16.241,16.241,0,0,1-16.18-9.167l-1.489.708a17.89,17.89,0,1,0,32.287-15.42ZM57.03,74.056c-.011-.074-.021-.137-.032-.211,0-.032-.011-.063-.011-.085-.011-.074-.021-.158-.032-.232l-.032-.285c-.011-.063-.011-.127-.021-.18a2.783,2.783,0,0,1-.021-.3c0-.042-.011-.1-.011-.137-.011-.116-.011-.222-.011-.338v-.539a11.157,11.157,0,0,1,1.278-4.975l2.619,8.354H57.273C57.178,74.763,57.094,74.415,57.03,74.056Zm4.52,3.844s1.141,2.429,2.5,4.647a11.382,11.382,0,0,1-2.292-1.215,11.251,11.251,0,0,1-3.253-3.422h3.042ZM50.176,75.112l1.457-4.457h0l3.929-12.03,2.123,6.759a12.328,12.328,0,0,0-1.9,6.928v.063a1.149,1.149,0,0,0,.011.19.432.432,0,0,0,.011.116c0,.053.011.1.011.148s.011.116.011.169a.293.293,0,0,0,.011.1l.063.57h0a11.3,11.3,0,0,0,.285,1.447h-1.2a13.384,13.384,0,0,1-.327-2.165c-.011-.148-.021-.306-.021-.454V72.45c0-.148-.011-.306-.011-.465v-.042c0-.158,0-.327.011-.486v-.011l.032-.507h0V70.93l-1.352-.106a.4.4,0,0,1-.011.116c-.011.1-.011.18-.021.275,0,.074-.011.137-.011.211v.137c0,.148-.011.306-.011.454v.011h0a14.909,14.909,0,0,0,.327,3.084Zm5.8,2.788h1.32a12.422,12.422,0,0,0,3.876,4.3,12.091,12.091,0,0,0,3.813,1.753h0a17.186,17.186,0,0,0,1.13,1.426,13.494,13.494,0,0,1-5.6-2.207A13.677,13.677,0,0,1,55.974,77.9Z" transform="translate(-41.156 -54.082)" fill="#fff"/>
    <path id="Path_144" data-name="Path 144" d="M38.8,418.2l-1.4,2.936h.507l.4-.887H39.84l.422.887h.549l-1.5-2.936Zm-.359,1.721.613-1.352.644,1.352Z" transform="translate(-37.4 -379.743)" fill="#fff"/>
    <path id="Path_145" data-name="Path 145" d="M84.1,421.125h.486v-1.32h1.732v-.348H84.586v-.908h2V418.2H84.1Z" transform="translate(-79.168 -379.743)" fill="#fff"/>
    <path id="Path_146" data-name="Path 146" d="M124.3,421.125h.486v-1.32h1.732v-.348h-1.732v-.908h1.986V418.2H124.3Z" transform="translate(-115.122 -379.743)" fill="#fff"/>
    <path id="Path_147" data-name="Path 147" d="M165.81,418.112a1.642,1.642,0,0,0-.549-.306,2.389,2.389,0,0,0-1.4,0,1.909,1.909,0,0,0-.56.306,1.6,1.6,0,0,0-.37.475,1.317,1.317,0,0,0-.127.623,1.53,1.53,0,0,0,.127.623,1.349,1.349,0,0,0,.359.475,1.593,1.593,0,0,0,.56.306,2.313,2.313,0,0,0,1.415-.01,1.546,1.546,0,0,0,.908-.792,1.479,1.479,0,0,0,.127-.613,1.529,1.529,0,0,0-.127-.623A1.282,1.282,0,0,0,165.81,418.112Zm-.1,1.605a.948.948,0,0,1-.264.37,1.082,1.082,0,0,1-.4.232,1.562,1.562,0,0,1-1.014,0,1.039,1.039,0,0,1-.391-.232,1.178,1.178,0,0,1-.264-.37,1.261,1.261,0,0,1-.1-.5,1.225,1.225,0,0,1,.1-.5.948.948,0,0,1,.264-.37,1.082,1.082,0,0,1,.4-.232,1.592,1.592,0,0,1,.507-.085,1.814,1.814,0,0,1,.5.074,1.1,1.1,0,0,1,.655.6,1.261,1.261,0,0,1,.1.5A1.115,1.115,0,0,1,165.715,419.717Z" transform="translate(-149.556 -379.296)" fill="#fff"/>
    <path id="Path_148" data-name="Path 148" d="M214.712,419.716h0a2.135,2.135,0,0,0,.338-.106.942.942,0,0,0,.264-.169.729.729,0,0,0,.169-.232.626.626,0,0,0,.053-.285.845.845,0,0,0-.084-.349.657.657,0,0,0-.254-.285,1.849,1.849,0,0,0-.2-.106,1.507,1.507,0,0,0-.232-.053,2.065,2.065,0,0,0-.253-.021c-.084,0-.18-.011-.285-.011H212.6v2.936h.486v-1.257h.9a1.064,1.064,0,0,1,.264.032.9.9,0,0,1,.232.1.838.838,0,0,1,.18.148.6.6,0,0,1,.127.19l.349.792h.528l-.359-.8A.894.894,0,0,0,214.712,419.716Zm-.137-.306a2.013,2.013,0,0,1-.391.032H213.1v-1h1.162a1.214,1.214,0,0,1,.591.116.409.409,0,0,1,.19.37.588.588,0,0,1-.053.243.424.424,0,0,1-.148.158A.863.863,0,0,1,214.575,419.41Z" transform="translate(-194.096 -379.654)" fill="#fff"/>
    <path id="Path_149" data-name="Path 149" d="M259.362,418.2H258.2v2.936h1.162c1.246,0,1.869-.5,1.869-1.479S260.608,418.2,259.362,418.2Zm1.31,1.922a.8.8,0,0,1-.222.359,1.066,1.066,0,0,1-.422.222,2.41,2.41,0,0,1-.665.074h-.676v-2.239h.676a2.361,2.361,0,0,1,.665.074,1.066,1.066,0,0,1,.422.222.762.762,0,0,1,.222.349,1.545,1.545,0,0,1,.063.465A1.62,1.62,0,0,1,260.671,420.122Z" transform="translate(-234.88 -379.743)" fill="#fff"/>
    <path id="Path_150" data-name="Path 150" d="M301.2,418.2l-1.4,2.936h.507l.4-.887h1.542l.423.887h.549l-1.5-2.936Zm-.348,1.721.612-1.352.644,1.352Z" transform="translate(-272.086 -379.743)" fill="#fff"/>
    <path id="Path_151" data-name="Path 151" d="M349.019,420.513l-1.912-2.313H346.6v2.925h.465v-2.313l1.922,2.313h.5V418.2h-.465Z" transform="translate(-313.943 -379.743)" fill="#fff"/>
    <path id="Path_152" data-name="Path 152" d="M391.424,418.244a1,1,0,0,1,.38-.232,1.484,1.484,0,0,1,.5-.074,1.443,1.443,0,0,1,.38.042,1.158,1.158,0,0,1,.306.116.736.736,0,0,1,.211.19.528.528,0,0,1,.1.253h.5a.973.973,0,0,0-.148-.391.994.994,0,0,0-.327-.3,1.588,1.588,0,0,0-.454-.19,2.3,2.3,0,0,0-.549-.063,2.119,2.119,0,0,0-.708.106,1.5,1.5,0,0,0-.539.306,1.376,1.376,0,0,0-.465,1.1,1.733,1.733,0,0,0,.116.634,1.3,1.3,0,0,0,.338.475,1.669,1.669,0,0,0,.539.306,2.12,2.12,0,0,0,.708.106,2.484,2.484,0,0,0,.57-.063,1.472,1.472,0,0,0,.454-.19,1.251,1.251,0,0,0,.317-.306.92.92,0,0,0,.148-.412h-.5a.568.568,0,0,1-.1.275.608.608,0,0,1-.2.2,1.163,1.163,0,0,1-.306.127,1.531,1.531,0,0,1-.391.042,1.811,1.811,0,0,1-.5-.074,1,1,0,0,1-.38-.232.98.98,0,0,1-.243-.37,1.563,1.563,0,0,1,0-1.014A1.126,1.126,0,0,1,391.424,418.244Z" transform="translate(-353.296 -379.207)" fill="#fff"/>
    <path id="Path_153" data-name="Path 153" d="M438.186,420.777v-.993h2.028v-.349h-2.028v-.887h2.165V418.2H437.7v2.925h2.736v-.349Z" transform="translate(-395.422 -379.743)" fill="#fff"/>
  </g>
</svg>
