<svg xmlns="http://www.w3.org/2000/svg" width="340.346" height="77.318" viewBox="0 0 340.346 77.318">
  <g id="Logo_Asylum_Black" transform="translate(-181.434 -618.038)">
    <rect id="Rectangle_28" data-name="Rectangle 28" width="1.271" height="5.897" transform="translate(376.62 638.236)"/>
    <path id="Tracé_31" data-name="Tracé 31" d="M296.847,630.553v1.295h2.038v1.079h-2.038v1.318h2.541v1.1h-3.812v-5.9h3.812v1.1Z" transform="translate(87.876 8.786)"/>
    <path id="Tracé_32" data-name="Tracé 32" d="M290.822,631.2a2.607,2.607,0,0,0-1.534-1.535,3.237,3.237,0,0,0-1.2-.216h-2.278v5.9h2.278a3.2,3.2,0,0,0,1.2-.216,2.594,2.594,0,0,0,1.534-1.534,3.235,3.235,0,0,0,.216-1.2A3.331,3.331,0,0,0,290.822,631.2Zm-1.2,2.014a1.429,1.429,0,0,1-.336.55,1.21,1.21,0,0,1-.5.359,1.615,1.615,0,0,1-.7.12h-1.007v-3.692h1.007a2.1,2.1,0,0,1,.7.12,1.536,1.536,0,0,1,.839.934,2.655,2.655,0,0,1,.119.791A2.83,2.83,0,0,1,289.623,633.215Z" transform="translate(80.357 8.786)"/>
    <path id="Tracé_33" data-name="Tracé 33" d="M284.818,629.45v5.9h-.648a.478.478,0,0,1-.264-.048,1.091,1.091,0,0,1-.191-.168l-2.687-3.451v3.667h-1.15v-5.9h.768a.352.352,0,0,1,.143.048c.025.025.073.048.1.073l.1.1,2.685,3.453V629.45Z" transform="translate(75.789 8.786)"/>
    <rect id="Rectangle_29" data-name="Rectangle 29" width="1.27" height="5.897" transform="translate(348.836 638.236)"/>
    <path id="Tracé_34" data-name="Tracé 34" d="M280.195,643.5l-7.5-.789a1.025,1.025,0,0,1-.869-1.317,9.211,9.211,0,0,1,1.237-2.7,8.474,8.474,0,0,1,2.9-2.46,12.067,12.067,0,0,1,3.734-1.165,30,30,0,0,1,5.143-.412,40.72,40.72,0,0,1,7.131.5,9.141,9.141,0,0,1,4.487,2.074,7.237,7.237,0,0,1,1.988,3.092,11.175,11.175,0,0,1,.729,3.819v11.375a13.677,13.677,0,0,0,.23,2.849,8.677,8.677,0,0,0,.388,1.23,1.024,1.024,0,0,1-.949,1.4h-7.088a1.03,1.03,0,0,1-.913-.561,6.881,6.881,0,0,1-.425-.954l-.342-1.066a.293.293,0,0,0-.478-.124,12.2,12.2,0,0,1-3.375,2.219,16.059,16.059,0,0,1-6.088,1.067q-4.609,0-7-2.133a6.788,6.788,0,0,1-2.391-5.264,6.889,6.889,0,0,1,1.724-4.826q1.72-1.893,6.354-2.814,5.554-1.118,7.2-1.565a33.4,33.4,0,0,0,3.492-1.177,3.475,3.475,0,0,0-.75-2.547,3.775,3.775,0,0,0-2.644-.727,6.828,6.828,0,0,0-3.639.777,3.619,3.619,0,0,0-1.251,1.589A1.031,1.031,0,0,1,280.195,643.5Zm9.326,5.271q-2.036.73-4.244,1.287a9.777,9.777,0,0,0-3.807,1.577,2.526,2.526,0,0,0-.012,3.724,3.442,3.442,0,0,0,2.389.738,6.139,6.139,0,0,0,3.069-.8,4.852,4.852,0,0,0,2.012-1.952,6.557,6.557,0,0,0,.593-3Z" transform="translate(68.76 12.795)"/>
    <path id="Tracé_35" data-name="Tracé 35" d="M289.565,653.727l7.805-.734a1.036,1.036,0,0,1,1.034.612,4.314,4.314,0,0,0,1.423,1.814,5.04,5.04,0,0,0,2.911.752,4.919,4.919,0,0,0,3.08-.846,1.894,1.894,0,0,0,.851-1.575,1.8,1.8,0,0,0-1.117-1.648,20.49,20.49,0,0,0-4.244-1.016,44.227,44.227,0,0,1-7.143-1.66,7.52,7.52,0,0,1-3.372-2.581,6.7,6.7,0,0,1-1.37-4.143,6.8,6.8,0,0,1,1.478-4.386,8.807,8.807,0,0,1,4.076-2.75,21.664,21.664,0,0,1,6.961-.908,24.092,24.092,0,0,1,6.8.7,8.9,8.9,0,0,1,3.664,2.182,10.305,10.305,0,0,1,1.851,2.665,1.027,1.027,0,0,1-.818,1.476l-7.186.708a1.013,1.013,0,0,1-1.014-.565,2.9,2.9,0,0,0-.972-1.179,4.952,4.952,0,0,0-2.814-.777,3.982,3.982,0,0,0-2.437.595,1.768,1.768,0,0,0-.765,1.441,1.534,1.534,0,0,0,.97,1.428,15.642,15.642,0,0,0,4.221.871,28.92,28.92,0,0,1,7.324,1.552,8.081,8.081,0,0,1,3.676,2.835,6.964,6.964,0,0,1,1.273,4.046,7.957,7.957,0,0,1-1.347,4.336,9.106,9.106,0,0,1-4.244,3.356,20.4,20.4,0,0,1-7.9,1.248q-7.057,0-10.053-2.012a8.867,8.867,0,0,1-3.48-4.473A1.028,1.028,0,0,1,289.565,653.727Z" transform="translate(82.532 12.795)"/>
    <path id="Tracé_36" data-name="Tracé 36" d="M305.6,634.986h8.124a1.023,1.023,0,0,1,.977.72l4.793,15.467a.3.3,0,0,0,.575-.005l4.442-15.44a1.025,1.025,0,0,1,.984-.742h7.487a1.024,1.024,0,0,1,.959,1.38l-9.708,26.145q-1.744,4.707-3.565,6.357-2.57,2.331-7.83,2.331a51.634,51.634,0,0,1-5.791-.48,1.026,1.026,0,0,1-.894-.9l-.52-4.616a1.021,1.021,0,0,1,1.219-1.115,16.773,16.773,0,0,0,3.365.32,4.61,4.61,0,0,0,2.823-.8,6.057,6.057,0,0,0,1.83-2.865l-10.214-24.336A1.023,1.023,0,0,1,305.6,634.986Z" transform="translate(94.807 13.048)"/>
    <path id="Tracé_37" data-name="Tracé 37" d="M323.55,629.45H331.4a1.023,1.023,0,0,1,1.023,1.023v33.511a1.022,1.022,0,0,1-1.023,1.023H323.55a1.022,1.022,0,0,1-1.023-1.023V630.473A1.024,1.024,0,0,1,323.55,629.45Z" transform="translate(108.624 8.786)"/>
    <path id="Tracé_38" data-name="Tracé 38" d="M357.14,660.745h-7.172a1.022,1.022,0,0,1-1.023-1.023v-2.435a.256.256,0,0,0-.45-.168,12.9,12.9,0,0,1-3.71,3.118,11.072,11.072,0,0,1-5.156,1.09,8.393,8.393,0,0,1-6.389-2.437q-2.318-2.437-2.317-7.506V636.011a1.024,1.024,0,0,1,1.023-1.025h7.874a1.024,1.024,0,0,1,1.023,1.025v13.141a5.2,5.2,0,0,0,.9,3.444,3.182,3.182,0,0,0,2.522,1.018,3.6,3.6,0,0,0,2.9-1.357q1.128-1.359,1.127-4.876v-11.37a1.024,1.024,0,0,1,1.025-1.025h7.825a1.024,1.024,0,0,1,1.023,1.025v23.711A1.022,1.022,0,0,1,357.14,660.745Z" transform="translate(115.089 13.048)"/>
    <path id="Tracé_39" data-name="Tracé 39" d="M350.062,635.239h7.17a1.024,1.024,0,0,1,1.023,1.025v1.823a.348.348,0,0,0,.6.234,11.961,11.961,0,0,1,3.418-2.667,11.039,11.039,0,0,1,4.894-.995,9.378,9.378,0,0,1,4.883,1.09,7.636,7.636,0,0,1,2.278,2.17,1.026,1.026,0,0,0,1.559.151,12.9,12.9,0,0,1,3.34-2.5,10.95,10.95,0,0,1,4.724-.91,8.456,8.456,0,0,1,6.465,2.462q2.328,2.461,2.327,7.7v15.154A1.022,1.022,0,0,1,391.723,661h-7.851a1.022,1.022,0,0,1-1.023-1.023V646.323a4.127,4.127,0,0,0-.676-2.595,2.977,2.977,0,0,0-2.465-1.335,3.486,3.486,0,0,0-2.8,1.262,6.242,6.242,0,0,0-1.064,4.051v12.267A1.022,1.022,0,0,1,374.817,661h-7.849a1.022,1.022,0,0,1-1.023-1.023V646.81a8.81,8.81,0,0,0-.2-2.3,3.139,3.139,0,0,0-1.094-1.564,2.927,2.927,0,0,0-1.825-.595,3.513,3.513,0,0,0-2.8,1.287,6.492,6.492,0,0,0-1.094,4.219v12.122A1.023,1.023,0,0,1,357.911,661h-7.849a1.022,1.022,0,0,1-1.023-1.023V636.263A1.024,1.024,0,0,1,350.062,635.239Z" transform="translate(129.035 12.795)"/>
    <path id="Tracé_40" data-name="Tracé 40" d="M295.7,655.7l-20.867-29.594a5.2,5.2,0,0,0-4.372-2.388L209.6,618.038a5.219,5.219,0,0,0-4.354,2.37l-22.973,35.275a5.24,5.24,0,0,0,0,5.68l21.168,32.495a3.059,3.059,0,0,0,5.434-.637l1.858-5.168a5.16,5.16,0,0,1,4.9-3.432h.124l3.186,4,.071.089a1.468,1.468,0,0,0,2.3,0l.071-.089,3.168-4h28.814l3.186,4,.053.089a1.486,1.486,0,0,0,2.319,0l.053-.089,3.186-4h.23a5.18,5.18,0,0,1,4.849,3.31l2.142,5.485a3.054,3.054,0,0,0,5.416.533l20.9-32.619A5.223,5.223,0,0,0,295.7,655.7Zm-77.733,15.486c-8.265,0-14.955-7.115-14.955-15.9s6.69-18.476,14.955-18.476c8.248,0,14.955,9.7,14.955,18.476S226.217,671.187,217.969,671.187Zm39.4-15.453-3.274,3.312a.647.647,0,0,1-.956-.071,6.031,6.031,0,0,1,0-7.347.631.631,0,0,1,.956-.069l3.274,3.29A.62.62,0,0,1,257.367,655.735ZM267.791,666.3l-.319.195a6.094,6.094,0,0,1-6.549,0l-.319-.195a.649.649,0,0,1-.106-.991l3.257-3.239a.589.589,0,0,1,.885,0l3.257,3.239A.649.649,0,0,1,267.791,666.3Zm.159-21.061-3.31,3.29a.616.616,0,0,1-.885,0l-3.292-3.29a.647.647,0,0,1,.053-.958,6.085,6.085,0,0,1,7.345,0A.638.638,0,0,1,267.95,645.241Zm7.186,13.734a.629.629,0,0,1-.938.071l-3.292-3.312a.62.62,0,0,1,0-.885l3.292-3.29a.626.626,0,0,1,.938.069A6.031,6.031,0,0,1,275.136,658.975Z"/>
    <rect id="Rectangle_30" data-name="Rectangle 30" width="1.388" height="55.593" transform="translate(318.66 628.899)"/>
  </g>
</svg>
