<svg xmlns="http://www.w3.org/2000/svg" width="341.189" height="78.824" viewBox="0 0 341.189 78.824">
  <g id="Logo_Asylum_White" transform="translate(-180.592 -506.927)">
    <g id="Groupe_65" data-name="Groupe 65" transform="translate(343.736 525.967)">
      <rect id="Rectangle_20" data-name="Rectangle 20" width="1.404" height="6.515" transform="translate(30.697 0)" fill="#fff"/>
      <path id="Tracé_16" data-name="Tracé 16" d="M296.149,519.229v1.43H298.4v1.192h-2.251v1.457h2.807v1.218h-4.211v-6.515h4.211v1.218Z" transform="translate(-256.5 -518.011)" fill="#fff"/>
      <path id="Tracé_17" data-name="Tracé 17" d="M289.492,519.944a2.87,2.87,0,0,0-1.7-1.694,3.561,3.561,0,0,0-1.324-.239h-2.517v6.515h2.517a3.593,3.593,0,0,0,1.324-.237,2.866,2.866,0,0,0,1.7-1.7,3.565,3.565,0,0,0,.237-1.324A3.668,3.668,0,0,0,289.492,519.944Zm-1.324,2.225a1.577,1.577,0,0,1-.372.611,1.374,1.374,0,0,1-.556.4,1.806,1.806,0,0,1-.768.133h-1.113v-4.08h1.113a2.334,2.334,0,0,1,.768.133,1.513,1.513,0,0,1,.556.4,1.485,1.485,0,0,1,.372.635,2.94,2.94,0,0,1,.131.874A3.114,3.114,0,0,1,288.168,522.168Z" transform="translate(-264.807 -518.011)" fill="#fff"/>
      <path id="Tracé_18" data-name="Tracé 18" d="M282.857,518.011v6.515h-.715a.518.518,0,0,1-.29-.053,1.4,1.4,0,0,1-.212-.184l-2.966-3.814v4.051H277.4v-6.515h.846a.378.378,0,0,1,.159.053c.027.027.08.053.106.08l.106.106,2.966,3.814v-4.053Z" transform="translate(-269.853 -518.011)" fill="#fff"/>
      <rect id="Rectangle_21" data-name="Rectangle 21" width="1.404" height="6.515" transform="translate(0 0)" fill="#fff"/>
    </g>
    <g id="Groupe_67" data-name="Groupe 67" transform="translate(339.507 527.875)">
      <g id="Groupe_66" data-name="Groupe 66">
        <path id="Tracé_19" data-name="Tracé 19" d="M280.195,533.142l-7.5-.791a1.025,1.025,0,0,1-.869-1.317,9.176,9.176,0,0,1,1.237-2.7,8.479,8.479,0,0,1,2.9-2.462,12.163,12.163,0,0,1,3.734-1.165,30.191,30.191,0,0,1,5.143-.412,40.908,40.908,0,0,1,7.131.5,9.158,9.158,0,0,1,4.487,2.074,7.249,7.249,0,0,1,1.988,3.092,11.184,11.184,0,0,1,.729,3.821v11.375a13.7,13.7,0,0,0,.23,2.85,8.664,8.664,0,0,0,.388,1.228,1.026,1.026,0,0,1-.949,1.4h-7.088a1.034,1.034,0,0,1-.913-.561,7.074,7.074,0,0,1-.425-.954l-.342-1.065a.294.294,0,0,0-.478-.126,12.2,12.2,0,0,1-3.375,2.221,16.062,16.062,0,0,1-6.088,1.065q-4.609,0-7-2.133a6.783,6.783,0,0,1-2.391-5.264,6.888,6.888,0,0,1,1.724-4.826q1.72-1.893,6.354-2.814,5.554-1.115,7.2-1.565a33.391,33.391,0,0,0,3.492-1.175,3.473,3.473,0,0,0-.75-2.547,3.766,3.766,0,0,0-2.644-.729,6.845,6.845,0,0,0-3.639.777,3.631,3.631,0,0,0-1.251,1.589A1.032,1.032,0,0,1,280.195,533.142Zm9.326,5.271q-2.036.727-4.244,1.285a9.806,9.806,0,0,0-3.807,1.577,2.526,2.526,0,0,0-.012,3.724,3.434,3.434,0,0,0,2.389.738,6.139,6.139,0,0,0,3.069-.8,4.842,4.842,0,0,0,2.012-1.952,6.557,6.557,0,0,0,.593-3Z" transform="translate(-270.747 -515.08)" fill="#fff"/>
        <path id="Tracé_20" data-name="Tracé 20" d="M289.565,543.365l7.805-.733a1.033,1.033,0,0,1,1.034.611,4.319,4.319,0,0,0,1.423,1.816,5.054,5.054,0,0,0,2.911.752,4.919,4.919,0,0,0,3.08-.848,1.892,1.892,0,0,0,.851-1.575,1.8,1.8,0,0,0-1.117-1.646,20.309,20.309,0,0,0-4.244-1.018,44.463,44.463,0,0,1-7.143-1.658,7.544,7.544,0,0,1-3.372-2.58,6.7,6.7,0,0,1-1.37-4.143,6.8,6.8,0,0,1,1.478-4.388,8.819,8.819,0,0,1,4.076-2.75,21.714,21.714,0,0,1,6.961-.908,24.081,24.081,0,0,1,6.8.7,8.882,8.882,0,0,1,3.664,2.182,10.267,10.267,0,0,1,1.851,2.664,1.027,1.027,0,0,1-.818,1.476l-7.186.708a1.014,1.014,0,0,1-1.014-.563,2.9,2.9,0,0,0-.972-1.18,4.965,4.965,0,0,0-2.814-.777,3.981,3.981,0,0,0-2.437.595,1.77,1.77,0,0,0-.765,1.441,1.534,1.534,0,0,0,.97,1.428,15.687,15.687,0,0,0,4.221.873,28.849,28.849,0,0,1,7.324,1.55,8.082,8.082,0,0,1,3.676,2.835,6.972,6.972,0,0,1,1.273,4.046,7.967,7.967,0,0,1-1.347,4.338,9.106,9.106,0,0,1-4.244,3.356,20.437,20.437,0,0,1-7.9,1.246q-7.057,0-10.053-2.012a8.869,8.869,0,0,1-3.479-4.471A1.029,1.029,0,0,1,289.565,543.365Z" transform="translate(-256.975 -515.08)" fill="#fff"/>
        <path id="Tracé_21" data-name="Tracé 21" d="M305.6,524.625h8.124a1.023,1.023,0,0,1,.977.72l4.793,15.467a.3.3,0,0,0,.575-.007l4.442-15.44a1.024,1.024,0,0,1,.984-.74h7.487a1.023,1.023,0,0,1,.959,1.379l-9.708,26.145q-1.744,4.707-3.565,6.357-2.57,2.331-7.83,2.331a51.216,51.216,0,0,1-5.791-.48,1.025,1.025,0,0,1-.894-.9l-.52-4.616a1.021,1.021,0,0,1,1.219-1.115,16.773,16.773,0,0,0,3.365.32,4.611,4.611,0,0,0,2.823-.8,6.057,6.057,0,0,0,1.83-2.865l-10.214-24.334A1.023,1.023,0,0,1,305.6,524.625Z" transform="translate(-244.7 -514.827)" fill="#fff"/>
        <path id="Tracé_22" data-name="Tracé 22" d="M323.55,519.089H331.4a1.022,1.022,0,0,1,1.023,1.023v33.511a1.024,1.024,0,0,1-1.023,1.023H323.55a1.024,1.024,0,0,1-1.023-1.023V520.112A1.022,1.022,0,0,1,323.55,519.089Z" transform="translate(-230.883 -519.089)" fill="#fff"/>
        <path id="Tracé_23" data-name="Tracé 23" d="M357.14,550.384h-7.172a1.024,1.024,0,0,1-1.023-1.023v-2.435a.256.256,0,0,0-.45-.17,12.843,12.843,0,0,1-3.71,3.118,11.074,11.074,0,0,1-5.156,1.09,8.386,8.386,0,0,1-6.389-2.437q-2.318-2.437-2.317-7.506V525.648a1.023,1.023,0,0,1,1.023-1.023h7.874a1.023,1.023,0,0,1,1.023,1.023v13.143a5.211,5.211,0,0,0,.9,3.444,3.187,3.187,0,0,0,2.522,1.018,3.6,3.6,0,0,0,2.9-1.359q1.128-1.357,1.127-4.874V525.648a1.024,1.024,0,0,1,1.025-1.023h7.825a1.023,1.023,0,0,1,1.023,1.023v23.713A1.024,1.024,0,0,1,357.14,550.384Z" transform="translate(-224.417 -514.827)" fill="#fff"/>
        <path id="Tracé_24" data-name="Tracé 24" d="M350.062,524.878h7.17a1.024,1.024,0,0,1,1.023,1.023v1.823a.347.347,0,0,0,.6.234,12,12,0,0,1,3.418-2.667,11.038,11.038,0,0,1,4.894-.995,9.359,9.359,0,0,1,4.883,1.092,7.627,7.627,0,0,1,2.278,2.168,1.025,1.025,0,0,0,1.559.15,12.9,12.9,0,0,1,3.34-2.5,10.978,10.978,0,0,1,4.724-.91,8.462,8.462,0,0,1,6.465,2.462q2.328,2.461,2.327,7.7v15.154a1.024,1.024,0,0,1-1.023,1.023h-7.851a1.024,1.024,0,0,1-1.023-1.023V535.963a4.129,4.129,0,0,0-.676-2.6,2.975,2.975,0,0,0-2.465-1.333,3.48,3.48,0,0,0-2.8,1.262,6.233,6.233,0,0,0-1.064,4.049v12.269a1.024,1.024,0,0,1-1.023,1.023h-7.849a1.024,1.024,0,0,1-1.023-1.023V536.448a8.818,8.818,0,0,0-.2-2.3,3.146,3.146,0,0,0-1.094-1.565,2.937,2.937,0,0,0-1.825-.595,3.513,3.513,0,0,0-2.8,1.287,6.5,6.5,0,0,0-1.094,4.219v12.124a1.024,1.024,0,0,1-1.025,1.023h-7.849a1.024,1.024,0,0,1-1.023-1.023V525.9A1.023,1.023,0,0,1,350.062,524.878Z" transform="translate(-210.472 -515.08)" fill="#fff"/>
      </g>
    </g>
    <g id="Groupe_68" data-name="Groupe 68" transform="translate(181.434 507.677)">
      <path id="Tracé_25" data-name="Tracé 25" d="M295.7,550.968l-20.9,32.619a3.054,3.054,0,0,1-5.416-.531l-2.142-5.487a5.18,5.18,0,0,0-4.849-3.31h-.23l-3.186,4-.053.089a1.484,1.484,0,0,1-2.319,0l-.053-.089-3.186-4H224.553l-3.168,4-.071.089a1.466,1.466,0,0,1-2.3,0l-.071-.089-3.186-4h-.124a5.158,5.158,0,0,0-4.9,3.433l-1.858,5.168a3.059,3.059,0,0,1-5.434.637L182.271,551a5.243,5.243,0,0,1,0-5.681l22.973-35.274a5.217,5.217,0,0,1,4.354-2.372l60.866,5.681a5.2,5.2,0,0,1,4.372,2.389L295.7,545.34A5.223,5.223,0,0,1,295.7,550.968Z" transform="translate(-181.435 -507.677)" fill="none" stroke="#fff" stroke-miterlimit="10" stroke-width="1.5"/>
      <path id="Tracé_26" data-name="Tracé 26" d="M236.3,534.111a.626.626,0,0,1-.938.071l-3.292-3.31a.62.62,0,0,1,0-.885l3.292-3.292a.626.626,0,0,1,.938.071A6.028,6.028,0,0,1,236.3,534.111Z" transform="translate(-142.596 -493.173)" fill="#fff"/>
      <path id="Tracé_27" data-name="Tracé 27" d="M233.479,536.874l-.319.195a6.087,6.087,0,0,1-6.549,0l-.319-.195a.649.649,0,0,1-.106-.991l3.257-3.239a.591.591,0,0,1,.885,0l3.257,3.239A.649.649,0,0,1,233.479,536.874Z" transform="translate(-147.122 -488.609)" fill="#fff"/>
      <path id="Tracé_28" data-name="Tracé 28" d="M226.72,530.874l-3.274,3.31a.644.644,0,0,1-.956-.071,6.028,6.028,0,0,1,0-7.345.631.631,0,0,1,.956-.071l3.274,3.292A.62.62,0,0,1,226.72,530.874Z" transform="translate(-150.788 -493.176)" fill="#fff"/>
      <path id="Tracé_29" data-name="Tracé 29" d="M233.655,524l-3.31,3.292a.62.62,0,0,1-.885,0L226.168,524a.645.645,0,0,1,.053-.956,6.08,6.08,0,0,1,7.345,0A.636.636,0,0,1,233.655,524Z" transform="translate(-147.139 -496.797)" fill="#fff"/>
      <path id="Tracé_30" data-name="Tracé 30" d="M223.538,536.764c0,8.779-6.708,15.893-14.955,15.893-8.265,0-14.955-7.115-14.955-15.893s6.69-18.477,14.955-18.477C216.83,518.287,223.538,527.986,223.538,536.764Z" transform="translate(-172.048 -499.509)" fill="#fff"/>
    </g>
    <g id="Groupe_69" data-name="Groupe 69" transform="translate(318.66 520.307)">
      <rect id="Rectangle_22" data-name="Rectangle 22" width="1.388" height="55.593" fill="#fff"/>
    </g>
  </g>
</svg>
