<svg xmlns="http://www.w3.org/2000/svg" width="17.072" height="17.072" viewBox="0 0 17.072 17.072">
  <path id="Twitter_icon" d="M8.536,0a8.536,8.536,0,1,0,8.536,8.536A8.536,8.536,0,0,0,8.536,0Zm4.315,6.861A5.81,5.81,0,0,1,3.912,12.02a4.11,4.11,0,0,0,3.025-.846A2.048,2.048,0,0,1,5.028,9.755a2.049,2.049,0,0,0,.923-.035A2.046,2.046,0,0,1,4.312,7.691a2.038,2.038,0,0,0,.925.255,2.046,2.046,0,0,1-.632-2.728A5.8,5.8,0,0,0,8.816,7.353,2.045,2.045,0,0,1,12.3,5.489a4.075,4.075,0,0,0,1.3-.5,2.052,2.052,0,0,1-.9,1.13A4.076,4.076,0,0,0,13.87,5.8,4.1,4.1,0,0,1,12.851,6.861Z" fill="#bababa"/>
</svg>
